G75*
%MOIN*%
%OFA0B0*%
%FSLAX25Y25*%
%IPPOS*%
%LPD*%
%AMOC8*
5,1,8,0,0,1.08239X$1,22.5*
%
%ADD10OC8,0.06600*%
%ADD11OC8,0.07000*%
%ADD12R,0.07000X0.07000*%
%ADD13C,0.06400*%
%ADD14C,0.08858*%
%ADD15R,0.20000X0.09000*%
%ADD16OC8,0.04362*%
%ADD17C,0.03200*%
%ADD18C,0.01600*%
%ADD19C,0.01000*%
D10*
X0071250Y0033750D03*
X0081250Y0033750D03*
X0115000Y0015000D03*
X0125000Y0015000D03*
X0135000Y0015000D03*
X0145000Y0015000D03*
X0155000Y0015000D03*
X0165000Y0015000D03*
X0175000Y0015000D03*
X0185000Y0015000D03*
X0205000Y0015000D03*
X0215000Y0015000D03*
X0225000Y0015000D03*
X0235000Y0015000D03*
X0245000Y0015000D03*
X0255000Y0015000D03*
X0107500Y0178750D03*
X0097500Y0178750D03*
X0099000Y0205000D03*
X0089000Y0205000D03*
X0079000Y0205000D03*
X0109000Y0205000D03*
X0119000Y0205000D03*
X0129000Y0205000D03*
X0139000Y0205000D03*
X0149000Y0205000D03*
X0159000Y0205000D03*
X0169000Y0205000D03*
X0185000Y0205000D03*
X0195000Y0205000D03*
X0205000Y0205000D03*
X0215000Y0205000D03*
X0225000Y0205000D03*
X0235000Y0205000D03*
X0245000Y0205000D03*
X0255000Y0205000D03*
D11*
X0265500Y0125000D03*
X0265500Y0115000D03*
X0255500Y0115000D03*
X0255500Y0105000D03*
X0265500Y0105000D03*
D12*
X0255500Y0125000D03*
D13*
X0154450Y0163750D02*
X0148050Y0163750D01*
X0148050Y0173750D02*
X0154450Y0173750D01*
X0154450Y0183750D02*
X0148050Y0183750D01*
X0148050Y0193750D02*
X0154450Y0193750D01*
X0086250Y0083200D02*
X0086250Y0076800D01*
X0066250Y0076800D02*
X0066250Y0083200D01*
X0073050Y0060000D02*
X0079450Y0060000D01*
X0047250Y0031400D02*
X0040850Y0031400D01*
X0021650Y0031400D02*
X0015250Y0031400D01*
X0015250Y0013600D02*
X0021650Y0013600D01*
X0040850Y0013600D02*
X0047250Y0013600D01*
D14*
X0207500Y0035000D03*
X0217500Y0045000D03*
X0207500Y0055000D03*
X0227500Y0055000D03*
X0227500Y0035000D03*
D15*
X0264900Y0055100D03*
X0264900Y0089900D03*
D16*
X0266250Y0091250D03*
X0270000Y0087500D03*
X0261250Y0087500D03*
X0257500Y0091250D03*
X0251250Y0092500D03*
X0247500Y0090000D03*
X0251250Y0087500D03*
X0242500Y0093750D03*
X0235000Y0093750D03*
X0227500Y0093750D03*
X0216250Y0093750D03*
X0216250Y0088750D03*
X0208750Y0088750D03*
X0208750Y0093750D03*
X0200000Y0088750D03*
X0191250Y0088750D03*
X0182500Y0088750D03*
X0173750Y0088750D03*
X0165000Y0088750D03*
X0165000Y0096250D03*
X0165000Y0103750D03*
X0165000Y0111250D03*
X0165000Y0118750D03*
X0173750Y0125000D03*
X0182500Y0125000D03*
X0191250Y0125000D03*
X0200000Y0125000D03*
X0207500Y0125000D03*
X0215000Y0125000D03*
X0227500Y0128750D03*
X0235000Y0128750D03*
X0242500Y0128750D03*
X0240000Y0121250D03*
X0231250Y0121250D03*
X0227500Y0112500D03*
X0235000Y0112500D03*
X0242500Y0112500D03*
X0240000Y0103750D03*
X0231250Y0103750D03*
X0223750Y0136250D03*
X0215000Y0137500D03*
X0207500Y0137500D03*
X0200000Y0137500D03*
X0191250Y0137500D03*
X0182500Y0137500D03*
X0173750Y0137500D03*
X0165000Y0137500D03*
X0152500Y0133750D03*
X0146250Y0137500D03*
X0146250Y0130000D03*
X0151250Y0126250D03*
X0146250Y0122500D03*
X0151250Y0118750D03*
X0146250Y0115000D03*
X0151250Y0111250D03*
X0146250Y0107500D03*
X0151250Y0103750D03*
X0146250Y0100000D03*
X0151250Y0096250D03*
X0151250Y0088750D03*
X0145000Y0088750D03*
X0132500Y0088750D03*
X0122500Y0088750D03*
X0112500Y0088750D03*
X0103750Y0088750D03*
X0103750Y0096250D03*
X0103750Y0103750D03*
X0103750Y0111250D03*
X0103750Y0118750D03*
X0103750Y0126250D03*
X0103750Y0133750D03*
X0112500Y0133750D03*
X0121250Y0133750D03*
X0128750Y0133750D03*
X0132500Y0126250D03*
X0132500Y0118750D03*
X0132500Y0111250D03*
X0132500Y0103750D03*
X0132500Y0097500D03*
X0091250Y0096250D03*
X0081250Y0096250D03*
X0068750Y0103750D03*
X0081250Y0111250D03*
X0091250Y0111250D03*
X0091250Y0126250D03*
X0081250Y0126250D03*
X0067500Y0132500D03*
X0081250Y0141250D03*
X0081250Y0148750D03*
X0083750Y0157500D03*
X0090000Y0163750D03*
X0096250Y0170000D03*
X0102500Y0172500D03*
X0112500Y0172500D03*
X0121250Y0172500D03*
X0131250Y0165000D03*
X0121250Y0162500D03*
X0112500Y0162500D03*
X0102500Y0162500D03*
X0096250Y0156250D03*
X0091250Y0148750D03*
X0091250Y0141250D03*
X0070000Y0163750D03*
X0060000Y0175000D03*
X0075000Y0186250D03*
X0093750Y0191250D03*
X0055000Y0193750D03*
X0036250Y0202500D03*
X0020000Y0203750D03*
X0033750Y0191250D03*
X0020000Y0187500D03*
X0060000Y0147500D03*
X0057500Y0115000D03*
X0060000Y0093750D03*
X0056250Y0075000D03*
X0055000Y0057500D03*
X0068750Y0047500D03*
X0057500Y0040000D03*
X0047500Y0041250D03*
X0051250Y0022500D03*
X0071250Y0011250D03*
X0086250Y0011250D03*
X0102500Y0011250D03*
X0092500Y0025000D03*
X0092500Y0042500D03*
X0120000Y0047500D03*
X0120000Y0052500D03*
X0126250Y0052500D03*
X0126250Y0047500D03*
X0136250Y0041250D03*
X0121250Y0028750D03*
X0135000Y0027500D03*
X0142500Y0026250D03*
X0166250Y0026250D03*
X0173750Y0026250D03*
X0180000Y0026250D03*
X0180000Y0031250D03*
X0180000Y0036250D03*
X0180000Y0041250D03*
X0173750Y0041250D03*
X0173750Y0036250D03*
X0173750Y0031250D03*
X0166250Y0041250D03*
X0156250Y0046250D03*
X0150000Y0055000D03*
X0150000Y0062500D03*
X0137500Y0056250D03*
X0122500Y0061250D03*
X0165000Y0062500D03*
X0165000Y0055000D03*
X0178750Y0057500D03*
X0192500Y0057500D03*
X0191250Y0048750D03*
X0205000Y0045000D03*
X0191250Y0038750D03*
X0193750Y0027500D03*
X0193750Y0011250D03*
X0217500Y0032500D03*
X0230000Y0045000D03*
X0245000Y0046250D03*
X0245000Y0052500D03*
X0251250Y0052500D03*
X0251250Y0046250D03*
X0257500Y0046250D03*
X0265000Y0046250D03*
X0265000Y0053750D03*
X0261250Y0057500D03*
X0257500Y0053750D03*
X0251250Y0057500D03*
X0245000Y0057500D03*
X0237500Y0057500D03*
X0268750Y0057500D03*
X0251250Y0031250D03*
X0241250Y0030000D03*
X0253750Y0136250D03*
X0253750Y0151250D03*
X0237500Y0152500D03*
X0228750Y0155000D03*
X0228750Y0182500D03*
X0223750Y0182500D03*
X0218750Y0182500D03*
X0218750Y0188750D03*
X0222500Y0193750D03*
X0226250Y0188750D03*
X0235000Y0188750D03*
X0240000Y0188750D03*
X0240000Y0182500D03*
X0235000Y0182500D03*
X0245000Y0182500D03*
X0250000Y0182500D03*
X0255000Y0182500D03*
X0255000Y0188750D03*
X0251250Y0193750D03*
X0247500Y0188750D03*
X0201250Y0188750D03*
X0201250Y0182500D03*
X0195000Y0182500D03*
X0195000Y0188750D03*
X0188750Y0188750D03*
X0188750Y0182500D03*
X0190000Y0195000D03*
X0178750Y0200000D03*
X0173750Y0197500D03*
X0168750Y0197500D03*
X0176250Y0208750D03*
X0141250Y0190000D03*
X0141250Y0178750D03*
X0160000Y0168750D03*
X0165000Y0168750D03*
X0162500Y0173750D03*
X0162500Y0162500D03*
X0167500Y0162500D03*
X0013750Y0111250D03*
X0012500Y0083750D03*
X0013750Y0058750D03*
X0021250Y0040000D03*
X0012500Y0021250D03*
D17*
X0156250Y0046250D02*
X0157500Y0047500D01*
X0157500Y0126250D01*
X0162500Y0131250D01*
X0218750Y0131250D01*
X0223750Y0136250D01*
D18*
X0162500Y0131250D02*
X0157500Y0136250D01*
X0157500Y0161250D01*
X0155000Y0163750D01*
X0151250Y0163750D01*
X0141250Y0167500D02*
X0136250Y0172500D01*
X0136250Y0192250D01*
X0149000Y0205000D01*
X0158750Y0204750D02*
X0158750Y0200000D01*
X0160000Y0198750D01*
X0160000Y0188750D01*
X0155000Y0183750D01*
X0151250Y0183750D01*
X0153750Y0173750D02*
X0162500Y0182500D01*
X0162500Y0198750D01*
X0168750Y0205000D01*
X0169000Y0205000D01*
X0159000Y0205000D02*
X0158750Y0204750D01*
X0139000Y0205000D02*
X0132500Y0198500D01*
X0132500Y0171250D01*
X0137500Y0166250D01*
X0137500Y0093750D01*
X0132500Y0088750D01*
X0141250Y0092500D02*
X0141250Y0167500D01*
X0151250Y0173750D02*
X0153750Y0173750D01*
X0141250Y0092500D02*
X0145000Y0088750D01*
D19*
X0007468Y0127281D02*
X0007468Y0007468D01*
X0262531Y0007468D01*
X0262531Y0015491D01*
X0262907Y0016398D01*
X0272531Y0026022D01*
X0272531Y0049100D01*
X0265400Y0049100D01*
X0265400Y0054600D01*
X0265400Y0055600D01*
X0264400Y0055600D01*
X0264400Y0061100D01*
X0254703Y0061100D01*
X0254321Y0060998D01*
X0253979Y0060800D01*
X0253700Y0060521D01*
X0253502Y0060179D01*
X0253400Y0059797D01*
X0253400Y0055600D01*
X0264400Y0055600D01*
X0264400Y0054600D01*
X0253400Y0054600D01*
X0253400Y0050403D01*
X0253502Y0050021D01*
X0253700Y0049679D01*
X0253979Y0049400D01*
X0254321Y0049202D01*
X0254703Y0049100D01*
X0264400Y0049100D01*
X0264400Y0054600D01*
X0265400Y0054600D01*
X0272531Y0054600D01*
X0272531Y0055600D01*
X0265400Y0055600D01*
X0265400Y0061100D01*
X0272531Y0061100D01*
X0272531Y0083900D01*
X0265400Y0083900D01*
X0265400Y0089400D01*
X0265400Y0090400D01*
X0264400Y0090400D01*
X0264400Y0095900D01*
X0254703Y0095900D01*
X0254321Y0095798D01*
X0253979Y0095600D01*
X0253700Y0095321D01*
X0253502Y0094979D01*
X0253400Y0094597D01*
X0253400Y0090400D01*
X0264400Y0090400D01*
X0264400Y0089400D01*
X0265400Y0089400D01*
X0272531Y0089400D01*
X0272531Y0090400D01*
X0265400Y0090400D01*
X0265400Y0095900D01*
X0272531Y0095900D01*
X0272531Y0152977D01*
X0263602Y0161907D01*
X0262907Y0162602D01*
X0262531Y0163509D01*
X0262531Y0207977D01*
X0257977Y0212531D01*
X0007468Y0212531D01*
X0007468Y0182718D01*
X0045541Y0182718D01*
X0046540Y0182305D01*
X0047305Y0181540D01*
X0047718Y0180541D01*
X0047718Y0129459D01*
X0047305Y0128460D01*
X0046540Y0127695D01*
X0045541Y0127281D01*
X0007468Y0127281D01*
X0007468Y0126632D02*
X0134231Y0126632D01*
X0134231Y0125634D02*
X0007468Y0125634D01*
X0007468Y0124635D02*
X0134231Y0124635D01*
X0134231Y0123637D02*
X0007468Y0123637D01*
X0007468Y0122638D02*
X0134231Y0122638D01*
X0134231Y0121640D02*
X0007468Y0121640D01*
X0007468Y0120641D02*
X0134231Y0120641D01*
X0134231Y0119643D02*
X0007468Y0119643D01*
X0007468Y0118644D02*
X0134231Y0118644D01*
X0134231Y0117646D02*
X0007468Y0117646D01*
X0007468Y0116647D02*
X0134231Y0116647D01*
X0134231Y0115649D02*
X0007468Y0115649D01*
X0007468Y0114650D02*
X0134231Y0114650D01*
X0134231Y0113652D02*
X0007468Y0113652D01*
X0007468Y0112653D02*
X0134231Y0112653D01*
X0134231Y0111655D02*
X0007468Y0111655D01*
X0007468Y0110656D02*
X0134231Y0110656D01*
X0134231Y0109658D02*
X0007468Y0109658D01*
X0007468Y0108659D02*
X0134231Y0108659D01*
X0134231Y0107661D02*
X0007468Y0107661D01*
X0007468Y0106662D02*
X0134231Y0106662D01*
X0134231Y0105664D02*
X0007468Y0105664D01*
X0007468Y0104665D02*
X0134231Y0104665D01*
X0134231Y0103667D02*
X0007468Y0103667D01*
X0007468Y0102668D02*
X0134231Y0102668D01*
X0134231Y0101670D02*
X0007468Y0101670D01*
X0007468Y0100671D02*
X0134231Y0100671D01*
X0134231Y0099672D02*
X0007468Y0099672D01*
X0007468Y0098674D02*
X0134231Y0098674D01*
X0134231Y0097675D02*
X0007468Y0097675D01*
X0007468Y0096677D02*
X0134231Y0096677D01*
X0134231Y0095678D02*
X0007468Y0095678D01*
X0007468Y0094680D02*
X0133808Y0094680D01*
X0134231Y0095104D02*
X0132527Y0093400D01*
X0130574Y0093400D01*
X0127850Y0090676D01*
X0127850Y0086824D01*
X0130574Y0084100D01*
X0134426Y0084100D01*
X0137150Y0086824D01*
X0137150Y0088777D01*
X0138750Y0090378D01*
X0139399Y0089729D01*
X0140350Y0088777D01*
X0140350Y0086824D01*
X0143074Y0084100D01*
X0146926Y0084100D01*
X0149650Y0086824D01*
X0149650Y0090676D01*
X0146926Y0093400D01*
X0144973Y0093400D01*
X0144518Y0093854D01*
X0144518Y0159265D01*
X0144839Y0158944D01*
X0146922Y0158081D01*
X0154231Y0158081D01*
X0154231Y0135600D01*
X0154729Y0134399D01*
X0157312Y0131816D01*
X0155195Y0129699D01*
X0154051Y0128555D01*
X0153431Y0127059D01*
X0153431Y0050007D01*
X0151600Y0048176D01*
X0151600Y0044324D01*
X0154324Y0041600D01*
X0158176Y0041600D01*
X0160900Y0044324D01*
X0160900Y0045146D01*
X0160949Y0045195D01*
X0161568Y0046691D01*
X0161568Y0124565D01*
X0164185Y0127181D01*
X0219559Y0127181D01*
X0221055Y0127801D01*
X0222199Y0128945D01*
X0224854Y0131600D01*
X0225676Y0131600D01*
X0228400Y0134324D01*
X0228400Y0138176D01*
X0225676Y0140900D01*
X0221824Y0140900D01*
X0219100Y0138176D01*
X0219100Y0137354D01*
X0217065Y0135318D01*
X0163054Y0135318D01*
X0160768Y0137604D01*
X0160768Y0161900D01*
X0160271Y0163101D01*
X0160118Y0163254D01*
X0160118Y0164878D01*
X0159256Y0166961D01*
X0157661Y0168556D01*
X0157191Y0168750D01*
X0157661Y0168944D01*
X0159256Y0170539D01*
X0160118Y0172622D01*
X0160118Y0174878D01*
X0159937Y0175315D01*
X0165271Y0180649D01*
X0165768Y0181850D01*
X0165768Y0197396D01*
X0167604Y0199231D01*
X0171389Y0199231D01*
X0174768Y0202611D01*
X0174768Y0207389D01*
X0171389Y0210768D01*
X0166611Y0210768D01*
X0164000Y0208158D01*
X0161389Y0210768D01*
X0156611Y0210768D01*
X0154000Y0208158D01*
X0151389Y0210768D01*
X0146611Y0210768D01*
X0144000Y0208158D01*
X0141389Y0210768D01*
X0136611Y0210768D01*
X0134000Y0208158D01*
X0131389Y0210768D01*
X0126611Y0210768D01*
X0124000Y0208158D01*
X0121389Y0210768D01*
X0116611Y0210768D01*
X0113315Y0207473D01*
X0110988Y0209800D01*
X0109484Y0209800D01*
X0109484Y0205484D01*
X0108516Y0205484D01*
X0108516Y0209800D01*
X0107012Y0209800D01*
X0104685Y0207473D01*
X0101389Y0210768D01*
X0096611Y0210768D01*
X0094000Y0208158D01*
X0091389Y0210768D01*
X0086611Y0210768D01*
X0084000Y0208158D01*
X0081389Y0210768D01*
X0076611Y0210768D01*
X0073231Y0207389D01*
X0073231Y0202611D01*
X0076611Y0199231D01*
X0081389Y0199231D01*
X0084000Y0201842D01*
X0086611Y0199231D01*
X0091389Y0199231D01*
X0094000Y0201842D01*
X0096611Y0199231D01*
X0101389Y0199231D01*
X0104685Y0202527D01*
X0107012Y0200200D01*
X0108516Y0200200D01*
X0108516Y0204516D01*
X0109484Y0204516D01*
X0109484Y0200200D01*
X0110988Y0200200D01*
X0113315Y0202527D01*
X0116611Y0199231D01*
X0121389Y0199231D01*
X0124000Y0201842D01*
X0126611Y0199231D01*
X0129265Y0199231D01*
X0129231Y0199150D01*
X0129231Y0170600D01*
X0129729Y0169399D01*
X0130649Y0168479D01*
X0134231Y0164896D01*
X0134231Y0095104D01*
X0132809Y0093681D02*
X0007468Y0093681D01*
X0007468Y0092683D02*
X0129857Y0092683D01*
X0128859Y0091684D02*
X0007468Y0091684D01*
X0007468Y0090686D02*
X0127860Y0090686D01*
X0127850Y0089687D02*
X0007468Y0089687D01*
X0007468Y0088689D02*
X0084689Y0088689D01*
X0085122Y0088868D02*
X0083039Y0088006D01*
X0081444Y0086411D01*
X0080581Y0084328D01*
X0080581Y0075672D01*
X0081444Y0073589D01*
X0083039Y0071994D01*
X0085122Y0071131D01*
X0087378Y0071131D01*
X0089461Y0071994D01*
X0091056Y0073589D01*
X0091918Y0075672D01*
X0091918Y0084328D01*
X0091056Y0086411D01*
X0089461Y0088006D01*
X0087378Y0088868D01*
X0085122Y0088868D01*
X0082724Y0087690D02*
X0067640Y0087690D01*
X0067351Y0087784D02*
X0066750Y0087879D01*
X0066750Y0080500D01*
X0065750Y0080500D01*
X0065750Y0087879D01*
X0065149Y0087784D01*
X0064446Y0087556D01*
X0063787Y0087220D01*
X0063188Y0086785D01*
X0062665Y0086262D01*
X0062230Y0085663D01*
X0061894Y0085004D01*
X0061666Y0084301D01*
X0061550Y0083570D01*
X0061550Y0080500D01*
X0065750Y0080500D01*
X0065750Y0079500D01*
X0061550Y0079500D01*
X0061550Y0076430D01*
X0061666Y0075699D01*
X0061894Y0074996D01*
X0062230Y0074337D01*
X0062665Y0073738D01*
X0063188Y0073215D01*
X0063787Y0072780D01*
X0064446Y0072444D01*
X0065149Y0072216D01*
X0065750Y0072121D01*
X0065750Y0079500D01*
X0066750Y0079500D01*
X0066750Y0080500D01*
X0070950Y0080500D01*
X0070950Y0083570D01*
X0070834Y0084301D01*
X0070606Y0085004D01*
X0070270Y0085663D01*
X0069835Y0086262D01*
X0069312Y0086785D01*
X0068713Y0087220D01*
X0068054Y0087556D01*
X0067351Y0087784D01*
X0066750Y0087690D02*
X0065750Y0087690D01*
X0064860Y0087690D02*
X0007468Y0087690D01*
X0007468Y0086692D02*
X0063095Y0086692D01*
X0062252Y0085693D02*
X0007468Y0085693D01*
X0007468Y0084695D02*
X0061794Y0084695D01*
X0061570Y0083696D02*
X0007468Y0083696D01*
X0007468Y0082698D02*
X0061550Y0082698D01*
X0061550Y0081699D02*
X0007468Y0081699D01*
X0007468Y0080701D02*
X0061550Y0080701D01*
X0061550Y0078704D02*
X0007468Y0078704D01*
X0007468Y0079702D02*
X0065750Y0079702D01*
X0065750Y0078704D02*
X0066750Y0078704D01*
X0066750Y0079500D02*
X0066750Y0072121D01*
X0067351Y0072216D01*
X0068054Y0072444D01*
X0068713Y0072780D01*
X0069312Y0073215D01*
X0069835Y0073738D01*
X0070270Y0074337D01*
X0070606Y0074996D01*
X0070834Y0075699D01*
X0070950Y0076430D01*
X0070950Y0079500D01*
X0066750Y0079500D01*
X0066750Y0079702D02*
X0080581Y0079702D01*
X0080581Y0078704D02*
X0070950Y0078704D01*
X0070950Y0077705D02*
X0080581Y0077705D01*
X0080581Y0076707D02*
X0070950Y0076707D01*
X0070836Y0075708D02*
X0080581Y0075708D01*
X0080980Y0074710D02*
X0070460Y0074710D01*
X0069808Y0073711D02*
X0081394Y0073711D01*
X0082321Y0072713D02*
X0068581Y0072713D01*
X0066750Y0072713D02*
X0065750Y0072713D01*
X0065750Y0073711D02*
X0066750Y0073711D01*
X0066750Y0074710D02*
X0065750Y0074710D01*
X0065750Y0075708D02*
X0066750Y0075708D01*
X0066750Y0076707D02*
X0065750Y0076707D01*
X0065750Y0077705D02*
X0066750Y0077705D01*
X0066750Y0080701D02*
X0065750Y0080701D01*
X0065750Y0081699D02*
X0066750Y0081699D01*
X0066750Y0082698D02*
X0065750Y0082698D01*
X0065750Y0083696D02*
X0066750Y0083696D01*
X0066750Y0084695D02*
X0065750Y0084695D01*
X0065750Y0085693D02*
X0066750Y0085693D01*
X0066750Y0086692D02*
X0065750Y0086692D01*
X0069405Y0086692D02*
X0081725Y0086692D01*
X0081147Y0085693D02*
X0070248Y0085693D01*
X0070706Y0084695D02*
X0080734Y0084695D01*
X0080581Y0083696D02*
X0070930Y0083696D01*
X0070950Y0082698D02*
X0080581Y0082698D01*
X0080581Y0081699D02*
X0070950Y0081699D01*
X0070950Y0080701D02*
X0080581Y0080701D01*
X0089776Y0087690D02*
X0127850Y0087690D01*
X0127850Y0088689D02*
X0087811Y0088689D01*
X0090775Y0086692D02*
X0127983Y0086692D01*
X0128981Y0085693D02*
X0091353Y0085693D01*
X0091766Y0084695D02*
X0129980Y0084695D01*
X0135020Y0084695D02*
X0142480Y0084695D01*
X0141481Y0085693D02*
X0136019Y0085693D01*
X0137017Y0086692D02*
X0140483Y0086692D01*
X0140350Y0087690D02*
X0137150Y0087690D01*
X0137150Y0088689D02*
X0140350Y0088689D01*
X0139440Y0089687D02*
X0138060Y0089687D01*
X0144691Y0093681D02*
X0153431Y0093681D01*
X0153431Y0092683D02*
X0147643Y0092683D01*
X0148641Y0091684D02*
X0153431Y0091684D01*
X0153431Y0090686D02*
X0149640Y0090686D01*
X0149650Y0089687D02*
X0153431Y0089687D01*
X0153431Y0088689D02*
X0149650Y0088689D01*
X0149650Y0087690D02*
X0153431Y0087690D01*
X0153431Y0086692D02*
X0149517Y0086692D01*
X0148519Y0085693D02*
X0153431Y0085693D01*
X0153431Y0084695D02*
X0147520Y0084695D01*
X0153431Y0083696D02*
X0091918Y0083696D01*
X0091918Y0082698D02*
X0153431Y0082698D01*
X0153431Y0081699D02*
X0091918Y0081699D01*
X0091918Y0080701D02*
X0153431Y0080701D01*
X0153431Y0079702D02*
X0091918Y0079702D01*
X0091918Y0078704D02*
X0153431Y0078704D01*
X0153431Y0077705D02*
X0091918Y0077705D01*
X0091918Y0076707D02*
X0153431Y0076707D01*
X0153431Y0075708D02*
X0091918Y0075708D01*
X0091520Y0074710D02*
X0153431Y0074710D01*
X0153431Y0073711D02*
X0091106Y0073711D01*
X0090179Y0072713D02*
X0153431Y0072713D01*
X0153431Y0071714D02*
X0088784Y0071714D01*
X0083716Y0071714D02*
X0007468Y0071714D01*
X0007468Y0070716D02*
X0153431Y0070716D01*
X0153431Y0069717D02*
X0007468Y0069717D01*
X0007468Y0068719D02*
X0153431Y0068719D01*
X0153431Y0067720D02*
X0007468Y0067720D01*
X0007468Y0066722D02*
X0153431Y0066722D01*
X0153431Y0065723D02*
X0007468Y0065723D01*
X0007468Y0064725D02*
X0069758Y0064725D01*
X0069839Y0064806D02*
X0068244Y0063211D01*
X0067381Y0061128D01*
X0067381Y0058872D01*
X0068244Y0056789D01*
X0069839Y0055194D01*
X0071922Y0054331D01*
X0080578Y0054331D01*
X0082661Y0055194D01*
X0084256Y0056789D01*
X0085118Y0058872D01*
X0085118Y0061128D01*
X0084256Y0063211D01*
X0082661Y0064806D01*
X0080578Y0065668D01*
X0071922Y0065668D01*
X0069839Y0064806D01*
X0068760Y0063726D02*
X0007468Y0063726D01*
X0007468Y0062728D02*
X0068044Y0062728D01*
X0067631Y0061729D02*
X0007468Y0061729D01*
X0007468Y0060731D02*
X0067381Y0060731D01*
X0067381Y0059732D02*
X0007468Y0059732D01*
X0007468Y0058734D02*
X0067439Y0058734D01*
X0067853Y0057735D02*
X0007468Y0057735D01*
X0007468Y0056737D02*
X0068297Y0056737D01*
X0069296Y0055738D02*
X0007468Y0055738D01*
X0007468Y0054739D02*
X0070937Y0054739D01*
X0081562Y0054739D02*
X0153431Y0054739D01*
X0153431Y0053741D02*
X0007468Y0053741D01*
X0007468Y0052742D02*
X0153431Y0052742D01*
X0153431Y0051744D02*
X0007468Y0051744D01*
X0007468Y0050745D02*
X0153431Y0050745D01*
X0153171Y0049747D02*
X0007468Y0049747D01*
X0007468Y0048748D02*
X0152173Y0048748D01*
X0151600Y0047750D02*
X0007468Y0047750D01*
X0007468Y0046751D02*
X0151600Y0046751D01*
X0151600Y0045753D02*
X0007468Y0045753D01*
X0007468Y0044754D02*
X0151600Y0044754D01*
X0152169Y0043756D02*
X0007468Y0043756D01*
X0007468Y0042757D02*
X0153167Y0042757D01*
X0154166Y0041759D02*
X0007468Y0041759D01*
X0007468Y0040760D02*
X0206041Y0040760D01*
X0206112Y0040783D02*
X0205224Y0040495D01*
X0204392Y0040071D01*
X0203637Y0039522D01*
X0202978Y0038863D01*
X0202429Y0038108D01*
X0202005Y0037276D01*
X0201717Y0036388D01*
X0201576Y0035500D01*
X0207000Y0035500D01*
X0207000Y0040924D01*
X0206112Y0040783D01*
X0207000Y0040760D02*
X0208000Y0040760D01*
X0208000Y0040924D02*
X0208888Y0040783D01*
X0209776Y0040495D01*
X0210608Y0040071D01*
X0211363Y0039522D01*
X0212022Y0038863D01*
X0212571Y0038108D01*
X0212995Y0037276D01*
X0213283Y0036388D01*
X0213424Y0035500D01*
X0208000Y0035500D01*
X0208000Y0034500D01*
X0213424Y0034500D01*
X0213283Y0033612D01*
X0212995Y0032724D01*
X0212571Y0031892D01*
X0212022Y0031137D01*
X0211363Y0030478D01*
X0210608Y0029929D01*
X0209776Y0029505D01*
X0208888Y0029217D01*
X0208000Y0029076D01*
X0208000Y0034500D01*
X0207000Y0034500D01*
X0207000Y0029076D01*
X0206112Y0029217D01*
X0205224Y0029505D01*
X0204392Y0029929D01*
X0203637Y0030478D01*
X0202978Y0031137D01*
X0202429Y0031892D01*
X0202005Y0032724D01*
X0201717Y0033612D01*
X0201576Y0034500D01*
X0207000Y0034500D01*
X0207000Y0035500D01*
X0208000Y0035500D01*
X0208000Y0040924D01*
X0208959Y0040760D02*
X0211985Y0040760D01*
X0211652Y0041093D02*
X0213593Y0039152D01*
X0216128Y0038102D01*
X0218872Y0038102D01*
X0221407Y0039152D01*
X0223348Y0041093D01*
X0224398Y0043628D01*
X0224398Y0046372D01*
X0223348Y0048907D01*
X0221407Y0050848D01*
X0218872Y0051898D01*
X0216128Y0051898D01*
X0213593Y0050848D01*
X0211652Y0048907D01*
X0210602Y0046372D01*
X0210602Y0043628D01*
X0211652Y0041093D01*
X0211377Y0041759D02*
X0158334Y0041759D01*
X0159333Y0042757D02*
X0210963Y0042757D01*
X0210602Y0043756D02*
X0160331Y0043756D01*
X0160900Y0044754D02*
X0210602Y0044754D01*
X0210602Y0045753D02*
X0161180Y0045753D01*
X0161568Y0046751D02*
X0210760Y0046751D01*
X0211173Y0047750D02*
X0161568Y0047750D01*
X0161568Y0048748D02*
X0211587Y0048748D01*
X0212492Y0049747D02*
X0210250Y0049747D01*
X0210608Y0049929D02*
X0211363Y0050478D01*
X0212022Y0051137D01*
X0212571Y0051892D01*
X0212995Y0052724D01*
X0213283Y0053612D01*
X0213424Y0054500D01*
X0208000Y0054500D01*
X0208000Y0055500D01*
X0213424Y0055500D01*
X0213283Y0056388D01*
X0212995Y0057276D01*
X0212571Y0058108D01*
X0212022Y0058863D01*
X0211363Y0059522D01*
X0210608Y0060071D01*
X0209776Y0060495D01*
X0208888Y0060783D01*
X0208000Y0060924D01*
X0208000Y0055500D01*
X0207000Y0055500D01*
X0207000Y0060924D01*
X0206112Y0060783D01*
X0205224Y0060495D01*
X0204392Y0060071D01*
X0203637Y0059522D01*
X0202978Y0058863D01*
X0202429Y0058108D01*
X0202005Y0057276D01*
X0201717Y0056388D01*
X0201576Y0055500D01*
X0207000Y0055500D01*
X0207000Y0054500D01*
X0208000Y0054500D01*
X0208000Y0049076D01*
X0208888Y0049217D01*
X0209776Y0049505D01*
X0210608Y0049929D01*
X0211630Y0050745D02*
X0213491Y0050745D01*
X0212463Y0051744D02*
X0215757Y0051744D01*
X0213001Y0052742D02*
X0221999Y0052742D01*
X0222005Y0052724D02*
X0222429Y0051892D01*
X0222978Y0051137D01*
X0223637Y0050478D01*
X0224392Y0049929D01*
X0225224Y0049505D01*
X0226112Y0049217D01*
X0227000Y0049076D01*
X0227000Y0054500D01*
X0228000Y0054500D01*
X0228000Y0055500D01*
X0233424Y0055500D01*
X0233283Y0056388D01*
X0232995Y0057276D01*
X0232571Y0058108D01*
X0232022Y0058863D01*
X0231363Y0059522D01*
X0230608Y0060071D01*
X0229776Y0060495D01*
X0228888Y0060783D01*
X0228000Y0060924D01*
X0228000Y0055500D01*
X0227000Y0055500D01*
X0227000Y0060924D01*
X0226112Y0060783D01*
X0225224Y0060495D01*
X0224392Y0060071D01*
X0223637Y0059522D01*
X0222978Y0058863D01*
X0222429Y0058108D01*
X0222005Y0057276D01*
X0221717Y0056388D01*
X0221576Y0055500D01*
X0227000Y0055500D01*
X0227000Y0054500D01*
X0221576Y0054500D01*
X0221717Y0053612D01*
X0222005Y0052724D01*
X0221696Y0053741D02*
X0213304Y0053741D01*
X0213386Y0055738D02*
X0221614Y0055738D01*
X0221830Y0056737D02*
X0213170Y0056737D01*
X0212761Y0057735D02*
X0222239Y0057735D01*
X0222884Y0058734D02*
X0212116Y0058734D01*
X0211074Y0059732D02*
X0223926Y0059732D01*
X0225950Y0060731D02*
X0209050Y0060731D01*
X0208000Y0060731D02*
X0207000Y0060731D01*
X0207000Y0059732D02*
X0208000Y0059732D01*
X0208000Y0058734D02*
X0207000Y0058734D01*
X0207000Y0057735D02*
X0208000Y0057735D01*
X0208000Y0056737D02*
X0207000Y0056737D01*
X0207000Y0055738D02*
X0208000Y0055738D01*
X0208000Y0054739D02*
X0227000Y0054739D01*
X0227000Y0053741D02*
X0228000Y0053741D01*
X0228000Y0054500D02*
X0228000Y0049076D01*
X0228888Y0049217D01*
X0229776Y0049505D01*
X0230608Y0049929D01*
X0231363Y0050478D01*
X0232022Y0051137D01*
X0232571Y0051892D01*
X0232995Y0052724D01*
X0233283Y0053612D01*
X0233424Y0054500D01*
X0228000Y0054500D01*
X0228000Y0054739D02*
X0264400Y0054739D01*
X0264400Y0053741D02*
X0265400Y0053741D01*
X0265400Y0054739D02*
X0272531Y0054739D01*
X0272531Y0048748D02*
X0223413Y0048748D01*
X0223827Y0047750D02*
X0272531Y0047750D01*
X0272531Y0046751D02*
X0224240Y0046751D01*
X0224398Y0045753D02*
X0272531Y0045753D01*
X0272531Y0044754D02*
X0224398Y0044754D01*
X0224398Y0043756D02*
X0272531Y0043756D01*
X0272531Y0042757D02*
X0224037Y0042757D01*
X0223623Y0041759D02*
X0272531Y0041759D01*
X0272531Y0040760D02*
X0228959Y0040760D01*
X0228888Y0040783D02*
X0228000Y0040924D01*
X0228000Y0035500D01*
X0233424Y0035500D01*
X0233283Y0036388D01*
X0232995Y0037276D01*
X0232571Y0038108D01*
X0232022Y0038863D01*
X0231363Y0039522D01*
X0230608Y0040071D01*
X0229776Y0040495D01*
X0228888Y0040783D01*
X0228000Y0040760D02*
X0227000Y0040760D01*
X0227000Y0040924D02*
X0226112Y0040783D01*
X0225224Y0040495D01*
X0224392Y0040071D01*
X0223637Y0039522D01*
X0222978Y0038863D01*
X0222429Y0038108D01*
X0222005Y0037276D01*
X0221717Y0036388D01*
X0221576Y0035500D01*
X0227000Y0035500D01*
X0227000Y0040924D01*
X0226041Y0040760D02*
X0223015Y0040760D01*
X0223967Y0039762D02*
X0222017Y0039762D01*
X0222905Y0038763D02*
X0220468Y0038763D01*
X0222254Y0037765D02*
X0212746Y0037765D01*
X0213160Y0036766D02*
X0221840Y0036766D01*
X0221619Y0035768D02*
X0213381Y0035768D01*
X0213308Y0033771D02*
X0221692Y0033771D01*
X0221717Y0033612D02*
X0222005Y0032724D01*
X0222429Y0031892D01*
X0222978Y0031137D01*
X0223637Y0030478D01*
X0224392Y0029929D01*
X0225224Y0029505D01*
X0226112Y0029217D01*
X0227000Y0029076D01*
X0227000Y0034500D01*
X0228000Y0034500D01*
X0228000Y0035500D01*
X0227000Y0035500D01*
X0227000Y0034500D01*
X0221576Y0034500D01*
X0221717Y0033612D01*
X0221990Y0032772D02*
X0213010Y0032772D01*
X0212485Y0031774D02*
X0222515Y0031774D01*
X0223340Y0030775D02*
X0211660Y0030775D01*
X0210309Y0029777D02*
X0224691Y0029777D01*
X0227000Y0029777D02*
X0228000Y0029777D01*
X0228000Y0029076D02*
X0228888Y0029217D01*
X0229776Y0029505D01*
X0230608Y0029929D01*
X0231363Y0030478D01*
X0232022Y0031137D01*
X0232571Y0031892D01*
X0232995Y0032724D01*
X0233283Y0033612D01*
X0233424Y0034500D01*
X0228000Y0034500D01*
X0228000Y0029076D01*
X0228000Y0030775D02*
X0227000Y0030775D01*
X0227000Y0031774D02*
X0228000Y0031774D01*
X0228000Y0032772D02*
X0227000Y0032772D01*
X0227000Y0033771D02*
X0228000Y0033771D01*
X0228000Y0034769D02*
X0272531Y0034769D01*
X0272531Y0033771D02*
X0233308Y0033771D01*
X0233010Y0032772D02*
X0272531Y0032772D01*
X0272531Y0031774D02*
X0232485Y0031774D01*
X0231660Y0030775D02*
X0272531Y0030775D01*
X0272531Y0029777D02*
X0230309Y0029777D01*
X0227000Y0034769D02*
X0208000Y0034769D01*
X0208000Y0033771D02*
X0207000Y0033771D01*
X0207000Y0034769D02*
X0087018Y0034769D01*
X0087018Y0033771D02*
X0201692Y0033771D01*
X0201990Y0032772D02*
X0087018Y0032772D01*
X0087018Y0031774D02*
X0202515Y0031774D01*
X0203340Y0030775D02*
X0086433Y0030775D01*
X0087018Y0031361D02*
X0083639Y0027981D01*
X0078861Y0027981D01*
X0075565Y0031277D01*
X0073238Y0028950D01*
X0071550Y0028950D01*
X0071550Y0033450D01*
X0070950Y0033450D01*
X0070950Y0028950D01*
X0069262Y0028950D01*
X0066450Y0031762D01*
X0066450Y0033450D01*
X0070950Y0033450D01*
X0070950Y0034050D01*
X0070950Y0038550D01*
X0069262Y0038550D01*
X0066450Y0035738D01*
X0066450Y0034050D01*
X0070950Y0034050D01*
X0071550Y0034050D01*
X0071550Y0038550D01*
X0073238Y0038550D01*
X0075565Y0036223D01*
X0078861Y0039518D01*
X0083639Y0039518D01*
X0087018Y0036139D01*
X0087018Y0031361D01*
X0085435Y0029777D02*
X0204691Y0029777D01*
X0207000Y0029777D02*
X0208000Y0029777D01*
X0208000Y0030775D02*
X0207000Y0030775D01*
X0207000Y0031774D02*
X0208000Y0031774D01*
X0208000Y0032772D02*
X0207000Y0032772D01*
X0207000Y0035768D02*
X0208000Y0035768D01*
X0208000Y0036766D02*
X0207000Y0036766D01*
X0207000Y0037765D02*
X0208000Y0037765D01*
X0208000Y0038763D02*
X0207000Y0038763D01*
X0207000Y0039762D02*
X0208000Y0039762D01*
X0211033Y0039762D02*
X0212983Y0039762D01*
X0212095Y0038763D02*
X0214532Y0038763D01*
X0203967Y0039762D02*
X0007468Y0039762D01*
X0007468Y0038763D02*
X0078105Y0038763D01*
X0077107Y0037765D02*
X0074023Y0037765D01*
X0075022Y0036766D02*
X0076108Y0036766D01*
X0071550Y0036766D02*
X0070950Y0036766D01*
X0070950Y0035768D02*
X0071550Y0035768D01*
X0071550Y0034769D02*
X0070950Y0034769D01*
X0070950Y0033771D02*
X0052404Y0033771D01*
X0052056Y0034611D02*
X0050461Y0036206D01*
X0048378Y0037068D01*
X0039722Y0037068D01*
X0037639Y0036206D01*
X0036044Y0034611D01*
X0035181Y0032528D01*
X0035181Y0030272D01*
X0036044Y0028189D01*
X0037639Y0026594D01*
X0039722Y0025731D01*
X0048378Y0025731D01*
X0050461Y0026594D01*
X0052056Y0028189D01*
X0052918Y0030272D01*
X0052918Y0032528D01*
X0052056Y0034611D01*
X0051897Y0034769D02*
X0066450Y0034769D01*
X0066480Y0035768D02*
X0050899Y0035768D01*
X0049107Y0036766D02*
X0067478Y0036766D01*
X0068477Y0037765D02*
X0007468Y0037765D01*
X0007468Y0036766D02*
X0013393Y0036766D01*
X0014122Y0037068D02*
X0012039Y0036206D01*
X0010444Y0034611D01*
X0009581Y0032528D01*
X0009581Y0030272D01*
X0010444Y0028189D01*
X0012039Y0026594D01*
X0014122Y0025731D01*
X0022778Y0025731D01*
X0024861Y0026594D01*
X0026456Y0028189D01*
X0027318Y0030272D01*
X0027318Y0032528D01*
X0026456Y0034611D01*
X0024861Y0036206D01*
X0022778Y0037068D01*
X0014122Y0037068D01*
X0011601Y0035768D02*
X0007468Y0035768D01*
X0007468Y0034769D02*
X0010603Y0034769D01*
X0010096Y0033771D02*
X0007468Y0033771D01*
X0007468Y0032772D02*
X0009683Y0032772D01*
X0009581Y0031774D02*
X0007468Y0031774D01*
X0007468Y0030775D02*
X0009581Y0030775D01*
X0009787Y0029777D02*
X0007468Y0029777D01*
X0007468Y0028778D02*
X0010200Y0028778D01*
X0010854Y0027780D02*
X0007468Y0027780D01*
X0007468Y0026781D02*
X0011852Y0026781D01*
X0013999Y0025783D02*
X0007468Y0025783D01*
X0007468Y0024784D02*
X0271293Y0024784D01*
X0270295Y0023786D02*
X0007468Y0023786D01*
X0007468Y0022787D02*
X0269296Y0022787D01*
X0268298Y0021789D02*
X0007468Y0021789D01*
X0007468Y0020790D02*
X0267299Y0020790D01*
X0266301Y0019792D02*
X0258366Y0019792D01*
X0257389Y0020768D02*
X0252611Y0020768D01*
X0250000Y0018158D01*
X0247389Y0020768D01*
X0242611Y0020768D01*
X0240000Y0018158D01*
X0237389Y0020768D01*
X0232611Y0020768D01*
X0230000Y0018158D01*
X0227389Y0020768D01*
X0222611Y0020768D01*
X0220000Y0018158D01*
X0217389Y0020768D01*
X0212611Y0020768D01*
X0210000Y0018158D01*
X0207389Y0020768D01*
X0202611Y0020768D01*
X0199231Y0017389D01*
X0199231Y0012611D01*
X0202611Y0009231D01*
X0207389Y0009231D01*
X0210000Y0011842D01*
X0212611Y0009231D01*
X0217389Y0009231D01*
X0220000Y0011842D01*
X0222611Y0009231D01*
X0227389Y0009231D01*
X0230000Y0011842D01*
X0232611Y0009231D01*
X0237389Y0009231D01*
X0240000Y0011842D01*
X0242611Y0009231D01*
X0247389Y0009231D01*
X0250000Y0011842D01*
X0252611Y0009231D01*
X0257389Y0009231D01*
X0260768Y0012611D01*
X0260768Y0017389D01*
X0257389Y0020768D01*
X0259365Y0018793D02*
X0265302Y0018793D01*
X0264304Y0017795D02*
X0260363Y0017795D01*
X0260768Y0016796D02*
X0263305Y0016796D01*
X0262658Y0015798D02*
X0260768Y0015798D01*
X0260768Y0014799D02*
X0262531Y0014799D01*
X0262531Y0013801D02*
X0260768Y0013801D01*
X0260768Y0012802D02*
X0262531Y0012802D01*
X0262531Y0011803D02*
X0259961Y0011803D01*
X0258963Y0010805D02*
X0262531Y0010805D01*
X0262531Y0009806D02*
X0257964Y0009806D01*
X0262531Y0008808D02*
X0007468Y0008808D01*
X0007468Y0009806D02*
X0012475Y0009806D01*
X0012188Y0010015D02*
X0012787Y0009580D01*
X0013446Y0009244D01*
X0014149Y0009016D01*
X0014880Y0008900D01*
X0017950Y0008900D01*
X0017950Y0013100D01*
X0018950Y0013100D01*
X0018950Y0014100D01*
X0017950Y0014100D01*
X0017950Y0018300D01*
X0014880Y0018300D01*
X0014149Y0018184D01*
X0013446Y0017956D01*
X0012787Y0017620D01*
X0012188Y0017185D01*
X0011665Y0016662D01*
X0011230Y0016063D01*
X0010894Y0015404D01*
X0010666Y0014701D01*
X0010571Y0014100D01*
X0017950Y0014100D01*
X0017950Y0013100D01*
X0010571Y0013100D01*
X0010666Y0012499D01*
X0010894Y0011796D01*
X0011230Y0011137D01*
X0011665Y0010538D01*
X0012188Y0010015D01*
X0011471Y0010805D02*
X0007468Y0010805D01*
X0007468Y0011803D02*
X0010892Y0011803D01*
X0010618Y0012802D02*
X0007468Y0012802D01*
X0007468Y0013801D02*
X0017950Y0013801D01*
X0017950Y0014799D02*
X0018950Y0014799D01*
X0018950Y0014100D02*
X0018950Y0018300D01*
X0022020Y0018300D01*
X0022751Y0018184D01*
X0023454Y0017956D01*
X0024113Y0017620D01*
X0024712Y0017185D01*
X0025235Y0016662D01*
X0025670Y0016063D01*
X0026006Y0015404D01*
X0026234Y0014701D01*
X0026329Y0014100D01*
X0018950Y0014100D01*
X0018950Y0013801D02*
X0043550Y0013801D01*
X0043550Y0014100D02*
X0043550Y0013100D01*
X0044550Y0013100D01*
X0044550Y0014100D01*
X0043550Y0014100D01*
X0043550Y0018300D01*
X0040480Y0018300D01*
X0039749Y0018184D01*
X0039046Y0017956D01*
X0038387Y0017620D01*
X0037788Y0017185D01*
X0037265Y0016662D01*
X0036830Y0016063D01*
X0036494Y0015404D01*
X0036266Y0014701D01*
X0036171Y0014100D01*
X0043550Y0014100D01*
X0043550Y0014799D02*
X0044550Y0014799D01*
X0044550Y0014100D02*
X0044550Y0018300D01*
X0047620Y0018300D01*
X0048351Y0018184D01*
X0049054Y0017956D01*
X0049713Y0017620D01*
X0050312Y0017185D01*
X0050835Y0016662D01*
X0051270Y0016063D01*
X0051606Y0015404D01*
X0051834Y0014701D01*
X0051929Y0014100D01*
X0044550Y0014100D01*
X0044550Y0013801D02*
X0109231Y0013801D01*
X0109231Y0014799D02*
X0051802Y0014799D01*
X0051405Y0015798D02*
X0109231Y0015798D01*
X0109231Y0016796D02*
X0050701Y0016796D01*
X0049370Y0017795D02*
X0109637Y0017795D01*
X0109231Y0017389D02*
X0109231Y0012611D01*
X0112611Y0009231D01*
X0117389Y0009231D01*
X0120000Y0011842D01*
X0122611Y0009231D01*
X0127389Y0009231D01*
X0130000Y0011842D01*
X0132611Y0009231D01*
X0137389Y0009231D01*
X0140000Y0011842D01*
X0142611Y0009231D01*
X0147389Y0009231D01*
X0150000Y0011842D01*
X0152611Y0009231D01*
X0157389Y0009231D01*
X0160685Y0012527D01*
X0163012Y0010200D01*
X0164516Y0010200D01*
X0164516Y0014516D01*
X0165484Y0014516D01*
X0165484Y0010200D01*
X0166988Y0010200D01*
X0169800Y0013012D01*
X0169800Y0014516D01*
X0165484Y0014516D01*
X0165484Y0015484D01*
X0169800Y0015484D01*
X0169800Y0016988D01*
X0166988Y0019800D01*
X0165484Y0019800D01*
X0165484Y0015484D01*
X0164516Y0015484D01*
X0164516Y0019800D01*
X0163012Y0019800D01*
X0160685Y0017473D01*
X0157389Y0020768D01*
X0152611Y0020768D01*
X0150000Y0018158D01*
X0147389Y0020768D01*
X0142611Y0020768D01*
X0140000Y0018158D01*
X0137389Y0020768D01*
X0132611Y0020768D01*
X0130000Y0018158D01*
X0127389Y0020768D01*
X0122611Y0020768D01*
X0120000Y0018158D01*
X0117389Y0020768D01*
X0112611Y0020768D01*
X0109231Y0017389D01*
X0110635Y0018793D02*
X0007468Y0018793D01*
X0007468Y0017795D02*
X0013130Y0017795D01*
X0011799Y0016796D02*
X0007468Y0016796D01*
X0007468Y0015798D02*
X0011095Y0015798D01*
X0010698Y0014799D02*
X0007468Y0014799D01*
X0007468Y0019792D02*
X0111634Y0019792D01*
X0118366Y0019792D02*
X0121634Y0019792D01*
X0120635Y0018793D02*
X0119365Y0018793D01*
X0128366Y0019792D02*
X0131634Y0019792D01*
X0130635Y0018793D02*
X0129365Y0018793D01*
X0129961Y0011803D02*
X0130039Y0011803D01*
X0131037Y0010805D02*
X0128963Y0010805D01*
X0127964Y0009806D02*
X0132036Y0009806D01*
X0137964Y0009806D02*
X0142036Y0009806D01*
X0141037Y0010805D02*
X0138963Y0010805D01*
X0139961Y0011803D02*
X0140039Y0011803D01*
X0140635Y0018793D02*
X0139365Y0018793D01*
X0138366Y0019792D02*
X0141634Y0019792D01*
X0148366Y0019792D02*
X0151634Y0019792D01*
X0150635Y0018793D02*
X0149365Y0018793D01*
X0149961Y0011803D02*
X0150039Y0011803D01*
X0151037Y0010805D02*
X0148963Y0010805D01*
X0147964Y0009806D02*
X0152036Y0009806D01*
X0157964Y0009806D02*
X0182036Y0009806D01*
X0182611Y0009231D02*
X0187389Y0009231D01*
X0190768Y0012611D01*
X0190768Y0017389D01*
X0187389Y0020768D01*
X0182611Y0020768D01*
X0179315Y0017473D01*
X0176988Y0019800D01*
X0175484Y0019800D01*
X0175484Y0015484D01*
X0174516Y0015484D01*
X0174516Y0014516D01*
X0175484Y0014516D01*
X0175484Y0010200D01*
X0176988Y0010200D01*
X0179315Y0012527D01*
X0182611Y0009231D01*
X0181037Y0010805D02*
X0177593Y0010805D01*
X0178592Y0011803D02*
X0180039Y0011803D01*
X0175484Y0011803D02*
X0174516Y0011803D01*
X0174516Y0010805D02*
X0175484Y0010805D01*
X0174516Y0010200D02*
X0174516Y0014516D01*
X0170200Y0014516D01*
X0170200Y0013012D01*
X0173012Y0010200D01*
X0174516Y0010200D01*
X0172407Y0010805D02*
X0167593Y0010805D01*
X0168592Y0011803D02*
X0171408Y0011803D01*
X0170410Y0012802D02*
X0169590Y0012802D01*
X0169800Y0013801D02*
X0170200Y0013801D01*
X0170200Y0015484D02*
X0174516Y0015484D01*
X0174516Y0019800D01*
X0173012Y0019800D01*
X0170200Y0016988D01*
X0170200Y0015484D01*
X0170200Y0015798D02*
X0169800Y0015798D01*
X0169800Y0016796D02*
X0170200Y0016796D01*
X0171006Y0017795D02*
X0168994Y0017795D01*
X0167995Y0018793D02*
X0172005Y0018793D01*
X0173003Y0019792D02*
X0166997Y0019792D01*
X0165484Y0019792D02*
X0164516Y0019792D01*
X0164516Y0018793D02*
X0165484Y0018793D01*
X0165484Y0017795D02*
X0164516Y0017795D01*
X0164516Y0016796D02*
X0165484Y0016796D01*
X0165484Y0015798D02*
X0164516Y0015798D01*
X0165484Y0014799D02*
X0174516Y0014799D01*
X0174516Y0013801D02*
X0175484Y0013801D01*
X0175484Y0012802D02*
X0174516Y0012802D01*
X0174516Y0015798D02*
X0175484Y0015798D01*
X0175484Y0016796D02*
X0174516Y0016796D01*
X0174516Y0017795D02*
X0175484Y0017795D01*
X0175484Y0018793D02*
X0174516Y0018793D01*
X0174516Y0019792D02*
X0175484Y0019792D01*
X0176997Y0019792D02*
X0181634Y0019792D01*
X0180635Y0018793D02*
X0177995Y0018793D01*
X0178994Y0017795D02*
X0179637Y0017795D01*
X0188366Y0019792D02*
X0201634Y0019792D01*
X0200635Y0018793D02*
X0189365Y0018793D01*
X0190363Y0017795D02*
X0199637Y0017795D01*
X0199231Y0016796D02*
X0190768Y0016796D01*
X0190768Y0015798D02*
X0199231Y0015798D01*
X0199231Y0014799D02*
X0190768Y0014799D01*
X0190768Y0013801D02*
X0199231Y0013801D01*
X0199231Y0012802D02*
X0190768Y0012802D01*
X0189961Y0011803D02*
X0200039Y0011803D01*
X0201037Y0010805D02*
X0188963Y0010805D01*
X0187964Y0009806D02*
X0202036Y0009806D01*
X0207964Y0009806D02*
X0212036Y0009806D01*
X0211037Y0010805D02*
X0208963Y0010805D01*
X0209961Y0011803D02*
X0210039Y0011803D01*
X0210635Y0018793D02*
X0209365Y0018793D01*
X0208366Y0019792D02*
X0211634Y0019792D01*
X0218366Y0019792D02*
X0221634Y0019792D01*
X0220635Y0018793D02*
X0219365Y0018793D01*
X0219961Y0011803D02*
X0220039Y0011803D01*
X0221037Y0010805D02*
X0218963Y0010805D01*
X0217964Y0009806D02*
X0222036Y0009806D01*
X0227964Y0009806D02*
X0232036Y0009806D01*
X0231037Y0010805D02*
X0228963Y0010805D01*
X0229961Y0011803D02*
X0230039Y0011803D01*
X0237964Y0009806D02*
X0242036Y0009806D01*
X0241037Y0010805D02*
X0238963Y0010805D01*
X0239961Y0011803D02*
X0240039Y0011803D01*
X0240635Y0018793D02*
X0239365Y0018793D01*
X0238366Y0019792D02*
X0241634Y0019792D01*
X0248366Y0019792D02*
X0251634Y0019792D01*
X0250635Y0018793D02*
X0249365Y0018793D01*
X0249961Y0011803D02*
X0250039Y0011803D01*
X0251037Y0010805D02*
X0248963Y0010805D01*
X0247964Y0009806D02*
X0252036Y0009806D01*
X0262531Y0007809D02*
X0007468Y0007809D01*
X0017950Y0009806D02*
X0018950Y0009806D01*
X0018950Y0008900D02*
X0022020Y0008900D01*
X0022751Y0009016D01*
X0023454Y0009244D01*
X0024113Y0009580D01*
X0024712Y0010015D01*
X0025235Y0010538D01*
X0025670Y0011137D01*
X0026006Y0011796D01*
X0026234Y0012499D01*
X0026329Y0013100D01*
X0018950Y0013100D01*
X0018950Y0008900D01*
X0018950Y0010805D02*
X0017950Y0010805D01*
X0017950Y0011803D02*
X0018950Y0011803D01*
X0018950Y0012802D02*
X0017950Y0012802D01*
X0017950Y0015798D02*
X0018950Y0015798D01*
X0018950Y0016796D02*
X0017950Y0016796D01*
X0017950Y0017795D02*
X0018950Y0017795D01*
X0023770Y0017795D02*
X0038730Y0017795D01*
X0037399Y0016796D02*
X0025101Y0016796D01*
X0025805Y0015798D02*
X0036695Y0015798D01*
X0036298Y0014799D02*
X0026202Y0014799D01*
X0026282Y0012802D02*
X0036218Y0012802D01*
X0036171Y0013100D02*
X0036266Y0012499D01*
X0036494Y0011796D01*
X0036830Y0011137D01*
X0037265Y0010538D01*
X0037788Y0010015D01*
X0038387Y0009580D01*
X0039046Y0009244D01*
X0039749Y0009016D01*
X0040480Y0008900D01*
X0043550Y0008900D01*
X0043550Y0013100D01*
X0036171Y0013100D01*
X0036492Y0011803D02*
X0026008Y0011803D01*
X0025429Y0010805D02*
X0037071Y0010805D01*
X0038075Y0009806D02*
X0024425Y0009806D01*
X0043550Y0009806D02*
X0044550Y0009806D01*
X0044550Y0008900D02*
X0047620Y0008900D01*
X0048351Y0009016D01*
X0049054Y0009244D01*
X0049713Y0009580D01*
X0050312Y0010015D01*
X0050835Y0010538D01*
X0051270Y0011137D01*
X0051606Y0011796D01*
X0051834Y0012499D01*
X0051929Y0013100D01*
X0044550Y0013100D01*
X0044550Y0008900D01*
X0044550Y0010805D02*
X0043550Y0010805D01*
X0043550Y0011803D02*
X0044550Y0011803D01*
X0044550Y0012802D02*
X0043550Y0012802D01*
X0043550Y0015798D02*
X0044550Y0015798D01*
X0044550Y0016796D02*
X0043550Y0016796D01*
X0043550Y0017795D02*
X0044550Y0017795D01*
X0051882Y0012802D02*
X0109231Y0012802D01*
X0110039Y0011803D02*
X0051608Y0011803D01*
X0051029Y0010805D02*
X0111037Y0010805D01*
X0112036Y0009806D02*
X0050025Y0009806D01*
X0048501Y0025783D02*
X0272292Y0025783D01*
X0272531Y0026781D02*
X0050648Y0026781D01*
X0051646Y0027780D02*
X0272531Y0027780D01*
X0272531Y0028778D02*
X0084436Y0028778D01*
X0078064Y0028778D02*
X0052300Y0028778D01*
X0052713Y0029777D02*
X0068435Y0029777D01*
X0067437Y0030775D02*
X0052918Y0030775D01*
X0052918Y0031774D02*
X0066450Y0031774D01*
X0066450Y0032772D02*
X0052817Y0032772D01*
X0038993Y0036766D02*
X0023507Y0036766D01*
X0025299Y0035768D02*
X0037201Y0035768D01*
X0036203Y0034769D02*
X0026297Y0034769D01*
X0026804Y0033771D02*
X0035696Y0033771D01*
X0035283Y0032772D02*
X0027217Y0032772D01*
X0027318Y0031774D02*
X0035181Y0031774D01*
X0035181Y0030775D02*
X0027318Y0030775D01*
X0027113Y0029777D02*
X0035387Y0029777D01*
X0035800Y0028778D02*
X0026700Y0028778D01*
X0026046Y0027780D02*
X0036454Y0027780D01*
X0037452Y0026781D02*
X0025048Y0026781D01*
X0022901Y0025783D02*
X0039599Y0025783D01*
X0070950Y0029777D02*
X0071550Y0029777D01*
X0071550Y0030775D02*
X0070950Y0030775D01*
X0070950Y0031774D02*
X0071550Y0031774D01*
X0071550Y0032772D02*
X0070950Y0032772D01*
X0074065Y0029777D02*
X0077065Y0029777D01*
X0076067Y0030775D02*
X0075063Y0030775D01*
X0071550Y0037765D02*
X0070950Y0037765D01*
X0084395Y0038763D02*
X0202905Y0038763D01*
X0202254Y0037765D02*
X0085393Y0037765D01*
X0086392Y0036766D02*
X0201840Y0036766D01*
X0201619Y0035768D02*
X0087018Y0035768D01*
X0083204Y0055738D02*
X0153431Y0055738D01*
X0153431Y0056737D02*
X0084203Y0056737D01*
X0084647Y0057735D02*
X0153431Y0057735D01*
X0153431Y0058734D02*
X0085061Y0058734D01*
X0085118Y0059732D02*
X0153431Y0059732D01*
X0153431Y0060731D02*
X0085118Y0060731D01*
X0084869Y0061729D02*
X0153431Y0061729D01*
X0153431Y0062728D02*
X0084456Y0062728D01*
X0083740Y0063726D02*
X0153431Y0063726D01*
X0153431Y0064725D02*
X0082742Y0064725D01*
X0063919Y0072713D02*
X0007468Y0072713D01*
X0007468Y0073711D02*
X0062692Y0073711D01*
X0062040Y0074710D02*
X0007468Y0074710D01*
X0007468Y0075708D02*
X0061664Y0075708D01*
X0061550Y0076707D02*
X0007468Y0076707D01*
X0007468Y0077705D02*
X0061550Y0077705D01*
X0046384Y0127631D02*
X0134231Y0127631D01*
X0134231Y0128629D02*
X0047375Y0128629D01*
X0047718Y0129628D02*
X0134231Y0129628D01*
X0134231Y0130626D02*
X0047718Y0130626D01*
X0047718Y0131625D02*
X0134231Y0131625D01*
X0134231Y0132623D02*
X0047718Y0132623D01*
X0047718Y0133622D02*
X0134231Y0133622D01*
X0134231Y0134620D02*
X0047718Y0134620D01*
X0047718Y0135619D02*
X0134231Y0135619D01*
X0134231Y0136617D02*
X0047718Y0136617D01*
X0047718Y0137616D02*
X0134231Y0137616D01*
X0134231Y0138614D02*
X0047718Y0138614D01*
X0047718Y0139613D02*
X0134231Y0139613D01*
X0134231Y0140611D02*
X0047718Y0140611D01*
X0047718Y0141610D02*
X0134231Y0141610D01*
X0134231Y0142608D02*
X0047718Y0142608D01*
X0047718Y0143607D02*
X0134231Y0143607D01*
X0134231Y0144605D02*
X0047718Y0144605D01*
X0047718Y0145604D02*
X0134231Y0145604D01*
X0134231Y0146603D02*
X0047718Y0146603D01*
X0047718Y0147601D02*
X0134231Y0147601D01*
X0134231Y0148600D02*
X0047718Y0148600D01*
X0047718Y0149598D02*
X0134231Y0149598D01*
X0134231Y0150597D02*
X0047718Y0150597D01*
X0047718Y0151595D02*
X0134231Y0151595D01*
X0134231Y0152594D02*
X0047718Y0152594D01*
X0047718Y0153592D02*
X0134231Y0153592D01*
X0134231Y0154591D02*
X0047718Y0154591D01*
X0047718Y0155589D02*
X0134231Y0155589D01*
X0134231Y0156588D02*
X0047718Y0156588D01*
X0047718Y0157586D02*
X0134231Y0157586D01*
X0134231Y0158585D02*
X0047718Y0158585D01*
X0047718Y0159583D02*
X0134231Y0159583D01*
X0134231Y0160582D02*
X0047718Y0160582D01*
X0047718Y0161580D02*
X0134231Y0161580D01*
X0134231Y0162579D02*
X0047718Y0162579D01*
X0047718Y0163577D02*
X0134231Y0163577D01*
X0134231Y0164576D02*
X0047718Y0164576D01*
X0047718Y0165574D02*
X0133553Y0165574D01*
X0132555Y0166573D02*
X0047718Y0166573D01*
X0047718Y0167571D02*
X0131556Y0167571D01*
X0130558Y0168570D02*
X0047718Y0168570D01*
X0047718Y0169568D02*
X0129659Y0169568D01*
X0129245Y0170567D02*
X0047718Y0170567D01*
X0047718Y0171565D02*
X0129231Y0171565D01*
X0129231Y0172564D02*
X0047718Y0172564D01*
X0047718Y0173562D02*
X0104530Y0173562D01*
X0105111Y0172981D02*
X0109889Y0172981D01*
X0113268Y0176361D01*
X0113268Y0181139D01*
X0109889Y0184518D01*
X0105111Y0184518D01*
X0101815Y0181223D01*
X0099488Y0183550D01*
X0097800Y0183550D01*
X0097800Y0179050D01*
X0097200Y0179050D01*
X0097200Y0183550D01*
X0095512Y0183550D01*
X0092700Y0180738D01*
X0092700Y0179050D01*
X0097200Y0179050D01*
X0097200Y0178450D01*
X0097800Y0178450D01*
X0097800Y0173950D01*
X0099488Y0173950D01*
X0101815Y0176277D01*
X0105111Y0172981D01*
X0103531Y0174561D02*
X0100099Y0174561D01*
X0101098Y0175559D02*
X0102533Y0175559D01*
X0097800Y0175559D02*
X0097200Y0175559D01*
X0097200Y0174561D02*
X0097800Y0174561D01*
X0097200Y0173950D02*
X0097200Y0178450D01*
X0092700Y0178450D01*
X0092700Y0176762D01*
X0095512Y0173950D01*
X0097200Y0173950D01*
X0094901Y0174561D02*
X0047718Y0174561D01*
X0047718Y0175559D02*
X0093902Y0175559D01*
X0092904Y0176558D02*
X0047718Y0176558D01*
X0047718Y0177556D02*
X0092700Y0177556D01*
X0092700Y0179553D02*
X0047718Y0179553D01*
X0047718Y0178555D02*
X0097200Y0178555D01*
X0097200Y0179553D02*
X0097800Y0179553D01*
X0097800Y0180552D02*
X0097200Y0180552D01*
X0097200Y0181550D02*
X0097800Y0181550D01*
X0097800Y0182549D02*
X0097200Y0182549D01*
X0097200Y0183547D02*
X0097800Y0183547D01*
X0099491Y0183547D02*
X0104140Y0183547D01*
X0103141Y0182549D02*
X0100489Y0182549D01*
X0101488Y0181550D02*
X0102143Y0181550D01*
X0097800Y0177556D02*
X0097200Y0177556D01*
X0097200Y0176558D02*
X0097800Y0176558D01*
X0092700Y0180552D02*
X0047714Y0180552D01*
X0047294Y0181550D02*
X0093512Y0181550D01*
X0094511Y0182549D02*
X0045950Y0182549D01*
X0073323Y0202519D02*
X0007468Y0202519D01*
X0007468Y0201521D02*
X0074321Y0201521D01*
X0075320Y0200522D02*
X0007468Y0200522D01*
X0007468Y0199524D02*
X0076318Y0199524D01*
X0073231Y0203518D02*
X0007468Y0203518D01*
X0007468Y0204516D02*
X0073231Y0204516D01*
X0073231Y0205515D02*
X0007468Y0205515D01*
X0007468Y0206513D02*
X0073231Y0206513D01*
X0073354Y0207512D02*
X0007468Y0207512D01*
X0007468Y0208510D02*
X0074352Y0208510D01*
X0075351Y0209509D02*
X0007468Y0209509D01*
X0007468Y0210507D02*
X0076349Y0210507D01*
X0081651Y0210507D02*
X0086349Y0210507D01*
X0085351Y0209509D02*
X0082649Y0209509D01*
X0083648Y0208510D02*
X0084352Y0208510D01*
X0084321Y0201521D02*
X0083679Y0201521D01*
X0082680Y0200522D02*
X0085320Y0200522D01*
X0086318Y0199524D02*
X0081682Y0199524D01*
X0091682Y0199524D02*
X0096318Y0199524D01*
X0095320Y0200522D02*
X0092680Y0200522D01*
X0093679Y0201521D02*
X0094321Y0201521D01*
X0101681Y0199524D02*
X0116318Y0199524D01*
X0115320Y0200522D02*
X0111310Y0200522D01*
X0112309Y0201521D02*
X0114321Y0201521D01*
X0113323Y0202519D02*
X0113307Y0202519D01*
X0109484Y0202519D02*
X0108516Y0202519D01*
X0108516Y0201521D02*
X0109484Y0201521D01*
X0109484Y0200522D02*
X0108516Y0200522D01*
X0106690Y0200522D02*
X0102680Y0200522D01*
X0103679Y0201521D02*
X0105691Y0201521D01*
X0104693Y0202519D02*
X0104677Y0202519D01*
X0108516Y0203518D02*
X0109484Y0203518D01*
X0109484Y0205515D02*
X0108516Y0205515D01*
X0108516Y0206513D02*
X0109484Y0206513D01*
X0109484Y0207512D02*
X0108516Y0207512D01*
X0108516Y0208510D02*
X0109484Y0208510D01*
X0109484Y0209509D02*
X0108516Y0209509D01*
X0106721Y0209509D02*
X0102649Y0209509D01*
X0101651Y0210507D02*
X0116349Y0210507D01*
X0115351Y0209509D02*
X0111279Y0209509D01*
X0112278Y0208510D02*
X0114352Y0208510D01*
X0113354Y0207512D02*
X0113276Y0207512D01*
X0121651Y0210507D02*
X0126349Y0210507D01*
X0125351Y0209509D02*
X0122649Y0209509D01*
X0123648Y0208510D02*
X0124352Y0208510D01*
X0131651Y0210507D02*
X0136349Y0210507D01*
X0135351Y0209509D02*
X0132649Y0209509D01*
X0133648Y0208510D02*
X0134352Y0208510D01*
X0141651Y0210507D02*
X0146349Y0210507D01*
X0145351Y0209509D02*
X0142649Y0209509D01*
X0143648Y0208510D02*
X0144352Y0208510D01*
X0151651Y0210507D02*
X0156349Y0210507D01*
X0155351Y0209509D02*
X0152649Y0209509D01*
X0153648Y0208510D02*
X0154352Y0208510D01*
X0161651Y0210507D02*
X0166349Y0210507D01*
X0165351Y0209509D02*
X0162649Y0209509D01*
X0163648Y0208510D02*
X0164352Y0208510D01*
X0171651Y0210507D02*
X0182349Y0210507D01*
X0182611Y0210768D02*
X0179231Y0207389D01*
X0179231Y0202611D01*
X0182611Y0199231D01*
X0187389Y0199231D01*
X0190000Y0201842D01*
X0192611Y0199231D01*
X0197389Y0199231D01*
X0200000Y0201842D01*
X0202611Y0199231D01*
X0207389Y0199231D01*
X0210000Y0201842D01*
X0212611Y0199231D01*
X0217389Y0199231D01*
X0220000Y0201842D01*
X0222611Y0199231D01*
X0227389Y0199231D01*
X0230000Y0201842D01*
X0232611Y0199231D01*
X0237389Y0199231D01*
X0240000Y0201842D01*
X0242611Y0199231D01*
X0247389Y0199231D01*
X0250000Y0201842D01*
X0252611Y0199231D01*
X0257389Y0199231D01*
X0260768Y0202611D01*
X0260768Y0207389D01*
X0257389Y0210768D01*
X0252611Y0210768D01*
X0250000Y0208158D01*
X0247389Y0210768D01*
X0242611Y0210768D01*
X0240000Y0208158D01*
X0237389Y0210768D01*
X0232611Y0210768D01*
X0230000Y0208158D01*
X0227389Y0210768D01*
X0222611Y0210768D01*
X0220000Y0208158D01*
X0217389Y0210768D01*
X0212611Y0210768D01*
X0210000Y0208158D01*
X0207389Y0210768D01*
X0202611Y0210768D01*
X0200000Y0208158D01*
X0197389Y0210768D01*
X0192611Y0210768D01*
X0190000Y0208158D01*
X0187389Y0210768D01*
X0182611Y0210768D01*
X0181351Y0209509D02*
X0172649Y0209509D01*
X0173648Y0208510D02*
X0180352Y0208510D01*
X0179354Y0207512D02*
X0174646Y0207512D01*
X0174768Y0206513D02*
X0179231Y0206513D01*
X0179231Y0205515D02*
X0174768Y0205515D01*
X0174768Y0204516D02*
X0179231Y0204516D01*
X0179231Y0203518D02*
X0174768Y0203518D01*
X0174677Y0202519D02*
X0179323Y0202519D01*
X0180321Y0201521D02*
X0173679Y0201521D01*
X0172680Y0200522D02*
X0181320Y0200522D01*
X0182318Y0199524D02*
X0171682Y0199524D01*
X0166897Y0198525D02*
X0262531Y0198525D01*
X0262531Y0197527D02*
X0165899Y0197527D01*
X0165768Y0196528D02*
X0262531Y0196528D01*
X0262531Y0195530D02*
X0165768Y0195530D01*
X0165768Y0194531D02*
X0262531Y0194531D01*
X0262531Y0193533D02*
X0165768Y0193533D01*
X0165768Y0192534D02*
X0262531Y0192534D01*
X0262531Y0191536D02*
X0165768Y0191536D01*
X0165768Y0190537D02*
X0262531Y0190537D01*
X0262531Y0189539D02*
X0165768Y0189539D01*
X0165768Y0188540D02*
X0262531Y0188540D01*
X0262531Y0187541D02*
X0165768Y0187541D01*
X0165768Y0186543D02*
X0262531Y0186543D01*
X0262531Y0185544D02*
X0165768Y0185544D01*
X0165768Y0184546D02*
X0262531Y0184546D01*
X0262531Y0183547D02*
X0165768Y0183547D01*
X0165768Y0182549D02*
X0262531Y0182549D01*
X0262531Y0181550D02*
X0165644Y0181550D01*
X0165174Y0180552D02*
X0262531Y0180552D01*
X0262531Y0179553D02*
X0164176Y0179553D01*
X0163177Y0178555D02*
X0262531Y0178555D01*
X0262531Y0177556D02*
X0162179Y0177556D01*
X0161180Y0176558D02*
X0262531Y0176558D01*
X0262531Y0175559D02*
X0160182Y0175559D01*
X0160118Y0174561D02*
X0262531Y0174561D01*
X0262531Y0173562D02*
X0160118Y0173562D01*
X0160094Y0172564D02*
X0262531Y0172564D01*
X0262531Y0171565D02*
X0159681Y0171565D01*
X0159267Y0170567D02*
X0262531Y0170567D01*
X0262531Y0169568D02*
X0158285Y0169568D01*
X0157627Y0168570D02*
X0262531Y0168570D01*
X0262531Y0167571D02*
X0158645Y0167571D01*
X0159416Y0166573D02*
X0262531Y0166573D01*
X0262531Y0165574D02*
X0159830Y0165574D01*
X0160118Y0164576D02*
X0262531Y0164576D01*
X0262531Y0163577D02*
X0160118Y0163577D01*
X0160487Y0162579D02*
X0262930Y0162579D01*
X0263929Y0161580D02*
X0160768Y0161580D01*
X0160768Y0160582D02*
X0264927Y0160582D01*
X0265926Y0159583D02*
X0160768Y0159583D01*
X0160768Y0158585D02*
X0266924Y0158585D01*
X0267923Y0157586D02*
X0160768Y0157586D01*
X0160768Y0156588D02*
X0268921Y0156588D01*
X0269920Y0155589D02*
X0160768Y0155589D01*
X0160768Y0154591D02*
X0270918Y0154591D01*
X0271917Y0153592D02*
X0160768Y0153592D01*
X0160768Y0152594D02*
X0272531Y0152594D01*
X0272531Y0151595D02*
X0160768Y0151595D01*
X0160768Y0150597D02*
X0272531Y0150597D01*
X0272531Y0149598D02*
X0160768Y0149598D01*
X0160768Y0148600D02*
X0272531Y0148600D01*
X0272531Y0147601D02*
X0160768Y0147601D01*
X0160768Y0146603D02*
X0272531Y0146603D01*
X0272531Y0145604D02*
X0160768Y0145604D01*
X0160768Y0144605D02*
X0272531Y0144605D01*
X0272531Y0143607D02*
X0160768Y0143607D01*
X0160768Y0142608D02*
X0272531Y0142608D01*
X0272531Y0141610D02*
X0160768Y0141610D01*
X0160768Y0140611D02*
X0221536Y0140611D01*
X0220537Y0139613D02*
X0160768Y0139613D01*
X0160768Y0138614D02*
X0219539Y0138614D01*
X0219100Y0137616D02*
X0160768Y0137616D01*
X0161755Y0136617D02*
X0218364Y0136617D01*
X0217365Y0135619D02*
X0162753Y0135619D01*
X0157121Y0131625D02*
X0144518Y0131625D01*
X0144518Y0132623D02*
X0156504Y0132623D01*
X0155506Y0133622D02*
X0144518Y0133622D01*
X0144518Y0134620D02*
X0154637Y0134620D01*
X0154231Y0135619D02*
X0144518Y0135619D01*
X0144518Y0136617D02*
X0154231Y0136617D01*
X0154231Y0137616D02*
X0144518Y0137616D01*
X0144518Y0138614D02*
X0154231Y0138614D01*
X0154231Y0139613D02*
X0144518Y0139613D01*
X0144518Y0140611D02*
X0154231Y0140611D01*
X0154231Y0141610D02*
X0144518Y0141610D01*
X0144518Y0142608D02*
X0154231Y0142608D01*
X0154231Y0143607D02*
X0144518Y0143607D01*
X0144518Y0144605D02*
X0154231Y0144605D01*
X0154231Y0145604D02*
X0144518Y0145604D01*
X0144518Y0146603D02*
X0154231Y0146603D01*
X0154231Y0147601D02*
X0144518Y0147601D01*
X0144518Y0148600D02*
X0154231Y0148600D01*
X0154231Y0149598D02*
X0144518Y0149598D01*
X0144518Y0150597D02*
X0154231Y0150597D01*
X0154231Y0151595D02*
X0144518Y0151595D01*
X0144518Y0152594D02*
X0154231Y0152594D01*
X0154231Y0153592D02*
X0144518Y0153592D01*
X0144518Y0154591D02*
X0154231Y0154591D01*
X0154231Y0155589D02*
X0144518Y0155589D01*
X0144518Y0156588D02*
X0154231Y0156588D01*
X0154231Y0157586D02*
X0144518Y0157586D01*
X0144518Y0158585D02*
X0145708Y0158585D01*
X0144494Y0168210D02*
X0144021Y0169351D01*
X0139518Y0173854D01*
X0139518Y0190896D01*
X0143464Y0194842D01*
X0143371Y0194250D01*
X0150750Y0194250D01*
X0150750Y0198450D01*
X0147680Y0198450D01*
X0146958Y0198336D01*
X0147854Y0199231D01*
X0151389Y0199231D01*
X0154000Y0201842D01*
X0155481Y0200361D01*
X0155481Y0199350D01*
X0155957Y0198202D01*
X0155551Y0198334D01*
X0154820Y0198450D01*
X0151750Y0198450D01*
X0151750Y0194250D01*
X0150750Y0194250D01*
X0150750Y0193250D01*
X0143371Y0193250D01*
X0143466Y0192649D01*
X0143694Y0191946D01*
X0144030Y0191287D01*
X0144465Y0190688D01*
X0144988Y0190165D01*
X0145587Y0189730D01*
X0146246Y0189394D01*
X0146592Y0189282D01*
X0144839Y0188556D01*
X0143244Y0186961D01*
X0142381Y0184878D01*
X0142381Y0182622D01*
X0143244Y0180539D01*
X0144839Y0178944D01*
X0145309Y0178750D01*
X0144839Y0178556D01*
X0143244Y0176961D01*
X0142381Y0174878D01*
X0142381Y0172622D01*
X0143244Y0170539D01*
X0144839Y0168944D01*
X0145309Y0168750D01*
X0144839Y0168556D01*
X0144494Y0168210D01*
X0144345Y0168570D02*
X0144873Y0168570D01*
X0144215Y0169568D02*
X0143804Y0169568D01*
X0143233Y0170567D02*
X0142806Y0170567D01*
X0142819Y0171565D02*
X0141807Y0171565D01*
X0142406Y0172564D02*
X0140809Y0172564D01*
X0139810Y0173562D02*
X0142381Y0173562D01*
X0142381Y0174561D02*
X0139518Y0174561D01*
X0139518Y0175559D02*
X0142664Y0175559D01*
X0143078Y0176558D02*
X0139518Y0176558D01*
X0139518Y0177556D02*
X0143840Y0177556D01*
X0144838Y0178555D02*
X0139518Y0178555D01*
X0139518Y0179553D02*
X0144230Y0179553D01*
X0143239Y0180552D02*
X0139518Y0180552D01*
X0139518Y0181550D02*
X0142826Y0181550D01*
X0142412Y0182549D02*
X0139518Y0182549D01*
X0139518Y0183547D02*
X0142381Y0183547D01*
X0142381Y0184546D02*
X0139518Y0184546D01*
X0139518Y0185544D02*
X0142658Y0185544D01*
X0143071Y0186543D02*
X0139518Y0186543D01*
X0139518Y0187541D02*
X0143825Y0187541D01*
X0144824Y0188540D02*
X0139518Y0188540D01*
X0139518Y0189539D02*
X0145963Y0189539D01*
X0144616Y0190537D02*
X0139518Y0190537D01*
X0140158Y0191536D02*
X0143903Y0191536D01*
X0143503Y0192534D02*
X0141156Y0192534D01*
X0142155Y0193533D02*
X0150750Y0193533D01*
X0150750Y0194531D02*
X0151750Y0194531D01*
X0151750Y0195530D02*
X0150750Y0195530D01*
X0150750Y0196528D02*
X0151750Y0196528D01*
X0151750Y0197527D02*
X0150750Y0197527D01*
X0151682Y0199524D02*
X0155481Y0199524D01*
X0155320Y0200522D02*
X0152680Y0200522D01*
X0153679Y0201521D02*
X0154321Y0201521D01*
X0155823Y0198525D02*
X0147147Y0198525D01*
X0143415Y0194531D02*
X0143153Y0194531D01*
X0129231Y0194531D02*
X0007468Y0194531D01*
X0007468Y0193533D02*
X0129231Y0193533D01*
X0129231Y0192534D02*
X0007468Y0192534D01*
X0007468Y0191536D02*
X0129231Y0191536D01*
X0129231Y0190537D02*
X0007468Y0190537D01*
X0007468Y0189539D02*
X0129231Y0189539D01*
X0129231Y0188540D02*
X0007468Y0188540D01*
X0007468Y0187541D02*
X0129231Y0187541D01*
X0129231Y0186543D02*
X0007468Y0186543D01*
X0007468Y0185544D02*
X0129231Y0185544D01*
X0129231Y0184546D02*
X0007468Y0184546D01*
X0007468Y0183547D02*
X0095509Y0183547D01*
X0110860Y0183547D02*
X0129231Y0183547D01*
X0129231Y0182549D02*
X0111859Y0182549D01*
X0112857Y0181550D02*
X0129231Y0181550D01*
X0129231Y0180552D02*
X0113268Y0180552D01*
X0113268Y0179553D02*
X0129231Y0179553D01*
X0129231Y0178555D02*
X0113268Y0178555D01*
X0113268Y0177556D02*
X0129231Y0177556D01*
X0129231Y0176558D02*
X0113268Y0176558D01*
X0112467Y0175559D02*
X0129231Y0175559D01*
X0129231Y0174561D02*
X0111469Y0174561D01*
X0110470Y0173562D02*
X0129231Y0173562D01*
X0129231Y0195530D02*
X0007468Y0195530D01*
X0007468Y0196528D02*
X0129231Y0196528D01*
X0129231Y0197527D02*
X0007468Y0197527D01*
X0007468Y0198525D02*
X0129231Y0198525D01*
X0126318Y0199524D02*
X0121682Y0199524D01*
X0122680Y0200522D02*
X0125320Y0200522D01*
X0124321Y0201521D02*
X0123679Y0201521D01*
X0105722Y0208510D02*
X0103648Y0208510D01*
X0104646Y0207512D02*
X0104724Y0207512D01*
X0096349Y0210507D02*
X0091651Y0210507D01*
X0092649Y0209509D02*
X0095351Y0209509D01*
X0094352Y0208510D02*
X0093648Y0208510D01*
X0007468Y0211506D02*
X0259003Y0211506D01*
X0258005Y0212504D02*
X0007468Y0212504D01*
X0144518Y0130626D02*
X0156123Y0130626D01*
X0155124Y0129628D02*
X0144518Y0129628D01*
X0144518Y0128629D02*
X0154126Y0128629D01*
X0153668Y0127631D02*
X0144518Y0127631D01*
X0144518Y0126632D02*
X0153431Y0126632D01*
X0153431Y0125634D02*
X0144518Y0125634D01*
X0144518Y0124635D02*
X0153431Y0124635D01*
X0153431Y0123637D02*
X0144518Y0123637D01*
X0144518Y0122638D02*
X0153431Y0122638D01*
X0153431Y0121640D02*
X0144518Y0121640D01*
X0144518Y0120641D02*
X0153431Y0120641D01*
X0153431Y0119643D02*
X0144518Y0119643D01*
X0144518Y0118644D02*
X0153431Y0118644D01*
X0153431Y0117646D02*
X0144518Y0117646D01*
X0144518Y0116647D02*
X0153431Y0116647D01*
X0153431Y0115649D02*
X0144518Y0115649D01*
X0144518Y0114650D02*
X0153431Y0114650D01*
X0153431Y0113652D02*
X0144518Y0113652D01*
X0144518Y0112653D02*
X0153431Y0112653D01*
X0153431Y0111655D02*
X0144518Y0111655D01*
X0144518Y0110656D02*
X0153431Y0110656D01*
X0153431Y0109658D02*
X0144518Y0109658D01*
X0144518Y0108659D02*
X0153431Y0108659D01*
X0153431Y0107661D02*
X0144518Y0107661D01*
X0144518Y0106662D02*
X0153431Y0106662D01*
X0153431Y0105664D02*
X0144518Y0105664D01*
X0144518Y0104665D02*
X0153431Y0104665D01*
X0153431Y0103667D02*
X0144518Y0103667D01*
X0144518Y0102668D02*
X0153431Y0102668D01*
X0153431Y0101670D02*
X0144518Y0101670D01*
X0144518Y0100671D02*
X0153431Y0100671D01*
X0153431Y0099672D02*
X0144518Y0099672D01*
X0144518Y0098674D02*
X0153431Y0098674D01*
X0153431Y0097675D02*
X0144518Y0097675D01*
X0144518Y0096677D02*
X0153431Y0096677D01*
X0153431Y0095678D02*
X0144518Y0095678D01*
X0144518Y0094680D02*
X0153431Y0094680D01*
X0161568Y0094680D02*
X0253422Y0094680D01*
X0253400Y0093681D02*
X0161568Y0093681D01*
X0161568Y0092683D02*
X0253400Y0092683D01*
X0253400Y0091684D02*
X0161568Y0091684D01*
X0161568Y0090686D02*
X0253400Y0090686D01*
X0253400Y0089400D02*
X0253400Y0085203D01*
X0253502Y0084821D01*
X0253700Y0084479D01*
X0253979Y0084200D01*
X0254321Y0084002D01*
X0254703Y0083900D01*
X0264400Y0083900D01*
X0264400Y0089400D01*
X0253400Y0089400D01*
X0253400Y0088689D02*
X0161568Y0088689D01*
X0161568Y0089687D02*
X0264400Y0089687D01*
X0264400Y0088689D02*
X0265400Y0088689D01*
X0265400Y0089687D02*
X0272531Y0089687D01*
X0272531Y0083696D02*
X0161568Y0083696D01*
X0161568Y0082698D02*
X0272531Y0082698D01*
X0272531Y0081699D02*
X0161568Y0081699D01*
X0161568Y0080701D02*
X0272531Y0080701D01*
X0272531Y0079702D02*
X0161568Y0079702D01*
X0161568Y0078704D02*
X0272531Y0078704D01*
X0272531Y0077705D02*
X0161568Y0077705D01*
X0161568Y0076707D02*
X0272531Y0076707D01*
X0272531Y0075708D02*
X0161568Y0075708D01*
X0161568Y0074710D02*
X0272531Y0074710D01*
X0272531Y0073711D02*
X0161568Y0073711D01*
X0161568Y0072713D02*
X0272531Y0072713D01*
X0272531Y0071714D02*
X0161568Y0071714D01*
X0161568Y0070716D02*
X0272531Y0070716D01*
X0272531Y0069717D02*
X0161568Y0069717D01*
X0161568Y0068719D02*
X0272531Y0068719D01*
X0272531Y0067720D02*
X0161568Y0067720D01*
X0161568Y0066722D02*
X0272531Y0066722D01*
X0272531Y0065723D02*
X0161568Y0065723D01*
X0161568Y0064725D02*
X0272531Y0064725D01*
X0272531Y0063726D02*
X0161568Y0063726D01*
X0161568Y0062728D02*
X0272531Y0062728D01*
X0272531Y0061729D02*
X0161568Y0061729D01*
X0161568Y0060731D02*
X0205950Y0060731D01*
X0203926Y0059732D02*
X0161568Y0059732D01*
X0161568Y0058734D02*
X0202884Y0058734D01*
X0202239Y0057735D02*
X0161568Y0057735D01*
X0161568Y0056737D02*
X0201830Y0056737D01*
X0201614Y0055738D02*
X0161568Y0055738D01*
X0161568Y0054739D02*
X0207000Y0054739D01*
X0207000Y0054500D02*
X0201576Y0054500D01*
X0201717Y0053612D01*
X0202005Y0052724D01*
X0202429Y0051892D01*
X0202978Y0051137D01*
X0203637Y0050478D01*
X0204392Y0049929D01*
X0205224Y0049505D01*
X0206112Y0049217D01*
X0207000Y0049076D01*
X0207000Y0054500D01*
X0207000Y0053741D02*
X0208000Y0053741D01*
X0208000Y0052742D02*
X0207000Y0052742D01*
X0207000Y0051744D02*
X0208000Y0051744D01*
X0208000Y0050745D02*
X0207000Y0050745D01*
X0207000Y0049747D02*
X0208000Y0049747D01*
X0204750Y0049747D02*
X0161568Y0049747D01*
X0161568Y0050745D02*
X0203370Y0050745D01*
X0202537Y0051744D02*
X0161568Y0051744D01*
X0161568Y0052742D02*
X0201999Y0052742D01*
X0201696Y0053741D02*
X0161568Y0053741D01*
X0161568Y0084695D02*
X0253575Y0084695D01*
X0253400Y0085693D02*
X0161568Y0085693D01*
X0161568Y0086692D02*
X0253400Y0086692D01*
X0253400Y0087690D02*
X0161568Y0087690D01*
X0161568Y0095678D02*
X0254114Y0095678D01*
X0253028Y0099031D02*
X0257972Y0099031D01*
X0261185Y0102244D01*
X0263429Y0100000D01*
X0265016Y0100000D01*
X0265016Y0104516D01*
X0265984Y0104516D01*
X0265984Y0100000D01*
X0267571Y0100000D01*
X0270500Y0102929D01*
X0270500Y0104516D01*
X0265984Y0104516D01*
X0265984Y0105484D01*
X0270500Y0105484D01*
X0270500Y0107071D01*
X0268256Y0109315D01*
X0271468Y0112528D01*
X0271468Y0117472D01*
X0268941Y0120000D01*
X0271468Y0122528D01*
X0271468Y0127472D01*
X0267972Y0130968D01*
X0263028Y0130968D01*
X0261346Y0129287D01*
X0261093Y0129898D01*
X0260398Y0130593D01*
X0259491Y0130968D01*
X0251509Y0130968D01*
X0250602Y0130593D01*
X0249907Y0129898D01*
X0249531Y0128991D01*
X0249531Y0121009D01*
X0249907Y0120102D01*
X0250602Y0119407D01*
X0251213Y0119154D01*
X0249531Y0117472D01*
X0249531Y0112528D01*
X0252059Y0110000D01*
X0249531Y0107472D01*
X0249531Y0102528D01*
X0253028Y0099031D01*
X0252387Y0099672D02*
X0161568Y0099672D01*
X0161568Y0098674D02*
X0272531Y0098674D01*
X0272531Y0099672D02*
X0258613Y0099672D01*
X0259612Y0100671D02*
X0262758Y0100671D01*
X0261759Y0101670D02*
X0260610Y0101670D01*
X0265016Y0101670D02*
X0265984Y0101670D01*
X0265984Y0102668D02*
X0265016Y0102668D01*
X0265016Y0103667D02*
X0265984Y0103667D01*
X0265984Y0104665D02*
X0272531Y0104665D01*
X0272531Y0103667D02*
X0270500Y0103667D01*
X0270239Y0102668D02*
X0272531Y0102668D01*
X0272531Y0101670D02*
X0269241Y0101670D01*
X0268242Y0100671D02*
X0272531Y0100671D01*
X0272531Y0097675D02*
X0161568Y0097675D01*
X0161568Y0096677D02*
X0272531Y0096677D01*
X0265400Y0095678D02*
X0264400Y0095678D01*
X0264400Y0094680D02*
X0265400Y0094680D01*
X0265400Y0093681D02*
X0264400Y0093681D01*
X0264400Y0092683D02*
X0265400Y0092683D01*
X0265400Y0091684D02*
X0264400Y0091684D01*
X0264400Y0090686D02*
X0265400Y0090686D01*
X0265400Y0087690D02*
X0264400Y0087690D01*
X0264400Y0086692D02*
X0265400Y0086692D01*
X0265400Y0085693D02*
X0264400Y0085693D01*
X0264400Y0084695D02*
X0265400Y0084695D01*
X0265016Y0100671D02*
X0265984Y0100671D01*
X0270500Y0105664D02*
X0272531Y0105664D01*
X0272531Y0106662D02*
X0270500Y0106662D01*
X0269910Y0107661D02*
X0272531Y0107661D01*
X0272531Y0108659D02*
X0268912Y0108659D01*
X0268598Y0109658D02*
X0272531Y0109658D01*
X0272531Y0110656D02*
X0269597Y0110656D01*
X0270595Y0111655D02*
X0272531Y0111655D01*
X0272531Y0112653D02*
X0271468Y0112653D01*
X0271468Y0113652D02*
X0272531Y0113652D01*
X0272531Y0114650D02*
X0271468Y0114650D01*
X0271468Y0115649D02*
X0272531Y0115649D01*
X0272531Y0116647D02*
X0271468Y0116647D01*
X0271295Y0117646D02*
X0272531Y0117646D01*
X0272531Y0118644D02*
X0270297Y0118644D01*
X0269298Y0119643D02*
X0272531Y0119643D01*
X0272531Y0120641D02*
X0269582Y0120641D01*
X0270580Y0121640D02*
X0272531Y0121640D01*
X0272531Y0122638D02*
X0271468Y0122638D01*
X0271468Y0123637D02*
X0272531Y0123637D01*
X0272531Y0124635D02*
X0271468Y0124635D01*
X0271468Y0125634D02*
X0272531Y0125634D01*
X0272531Y0126632D02*
X0271468Y0126632D01*
X0271310Y0127631D02*
X0272531Y0127631D01*
X0272531Y0128629D02*
X0270311Y0128629D01*
X0269313Y0129628D02*
X0272531Y0129628D01*
X0272531Y0130626D02*
X0268314Y0130626D01*
X0272531Y0131625D02*
X0225700Y0131625D01*
X0226699Y0132623D02*
X0272531Y0132623D01*
X0272531Y0133622D02*
X0227697Y0133622D01*
X0228400Y0134620D02*
X0272531Y0134620D01*
X0272531Y0135619D02*
X0228400Y0135619D01*
X0228400Y0136617D02*
X0272531Y0136617D01*
X0272531Y0137616D02*
X0228400Y0137616D01*
X0227961Y0138614D02*
X0272531Y0138614D01*
X0272531Y0139613D02*
X0226963Y0139613D01*
X0225964Y0140611D02*
X0272531Y0140611D01*
X0262686Y0130626D02*
X0260317Y0130626D01*
X0261205Y0129628D02*
X0261687Y0129628D01*
X0250683Y0130626D02*
X0223880Y0130626D01*
X0222882Y0129628D02*
X0249795Y0129628D01*
X0249531Y0128629D02*
X0221883Y0128629D01*
X0220644Y0127631D02*
X0249531Y0127631D01*
X0249531Y0126632D02*
X0163636Y0126632D01*
X0162638Y0125634D02*
X0249531Y0125634D01*
X0249531Y0124635D02*
X0161639Y0124635D01*
X0161568Y0123637D02*
X0249531Y0123637D01*
X0249531Y0122638D02*
X0161568Y0122638D01*
X0161568Y0121640D02*
X0249531Y0121640D01*
X0249684Y0120641D02*
X0161568Y0120641D01*
X0161568Y0119643D02*
X0250366Y0119643D01*
X0250703Y0118644D02*
X0161568Y0118644D01*
X0161568Y0117646D02*
X0249705Y0117646D01*
X0249531Y0116647D02*
X0161568Y0116647D01*
X0161568Y0115649D02*
X0249531Y0115649D01*
X0249531Y0114650D02*
X0161568Y0114650D01*
X0161568Y0113652D02*
X0249531Y0113652D01*
X0249531Y0112653D02*
X0161568Y0112653D01*
X0161568Y0111655D02*
X0250405Y0111655D01*
X0251403Y0110656D02*
X0161568Y0110656D01*
X0161568Y0109658D02*
X0251717Y0109658D01*
X0250718Y0108659D02*
X0161568Y0108659D01*
X0161568Y0107661D02*
X0249720Y0107661D01*
X0249531Y0106662D02*
X0161568Y0106662D01*
X0161568Y0105664D02*
X0249531Y0105664D01*
X0249531Y0104665D02*
X0161568Y0104665D01*
X0161568Y0103667D02*
X0249531Y0103667D01*
X0249531Y0102668D02*
X0161568Y0102668D01*
X0161568Y0101670D02*
X0250390Y0101670D01*
X0251388Y0100671D02*
X0161568Y0100671D01*
X0227000Y0060731D02*
X0228000Y0060731D01*
X0228000Y0059732D02*
X0227000Y0059732D01*
X0227000Y0058734D02*
X0228000Y0058734D01*
X0228000Y0057735D02*
X0227000Y0057735D01*
X0227000Y0056737D02*
X0228000Y0056737D01*
X0228000Y0055738D02*
X0227000Y0055738D01*
X0227000Y0052742D02*
X0228000Y0052742D01*
X0228000Y0051744D02*
X0227000Y0051744D01*
X0227000Y0050745D02*
X0228000Y0050745D01*
X0228000Y0049747D02*
X0227000Y0049747D01*
X0224750Y0049747D02*
X0222508Y0049747D01*
X0223370Y0050745D02*
X0221509Y0050745D01*
X0222537Y0051744D02*
X0219243Y0051744D01*
X0230250Y0049747D02*
X0253660Y0049747D01*
X0253400Y0050745D02*
X0231630Y0050745D01*
X0232463Y0051744D02*
X0253400Y0051744D01*
X0253400Y0052742D02*
X0233001Y0052742D01*
X0233304Y0053741D02*
X0253400Y0053741D01*
X0253400Y0055738D02*
X0233386Y0055738D01*
X0233170Y0056737D02*
X0253400Y0056737D01*
X0253400Y0057735D02*
X0232761Y0057735D01*
X0232116Y0058734D02*
X0253400Y0058734D01*
X0253400Y0059732D02*
X0231074Y0059732D01*
X0229050Y0060731D02*
X0253909Y0060731D01*
X0264400Y0060731D02*
X0265400Y0060731D01*
X0265400Y0059732D02*
X0264400Y0059732D01*
X0264400Y0058734D02*
X0265400Y0058734D01*
X0265400Y0057735D02*
X0264400Y0057735D01*
X0264400Y0056737D02*
X0265400Y0056737D01*
X0265400Y0055738D02*
X0264400Y0055738D01*
X0264400Y0052742D02*
X0265400Y0052742D01*
X0265400Y0051744D02*
X0264400Y0051744D01*
X0264400Y0050745D02*
X0265400Y0050745D01*
X0265400Y0049747D02*
X0264400Y0049747D01*
X0272531Y0039762D02*
X0231033Y0039762D01*
X0232095Y0038763D02*
X0272531Y0038763D01*
X0272531Y0037765D02*
X0232746Y0037765D01*
X0233160Y0036766D02*
X0272531Y0036766D01*
X0272531Y0035768D02*
X0233381Y0035768D01*
X0228000Y0035768D02*
X0227000Y0035768D01*
X0227000Y0036766D02*
X0228000Y0036766D01*
X0228000Y0037765D02*
X0227000Y0037765D01*
X0227000Y0038763D02*
X0228000Y0038763D01*
X0228000Y0039762D02*
X0227000Y0039762D01*
X0228366Y0019792D02*
X0231634Y0019792D01*
X0230635Y0018793D02*
X0229365Y0018793D01*
X0165484Y0013801D02*
X0164516Y0013801D01*
X0164516Y0012802D02*
X0165484Y0012802D01*
X0165484Y0011803D02*
X0164516Y0011803D01*
X0164516Y0010805D02*
X0165484Y0010805D01*
X0162407Y0010805D02*
X0158963Y0010805D01*
X0159961Y0011803D02*
X0161408Y0011803D01*
X0161006Y0017795D02*
X0160363Y0017795D01*
X0159365Y0018793D02*
X0162005Y0018793D01*
X0163003Y0019792D02*
X0158366Y0019792D01*
X0122036Y0009806D02*
X0117964Y0009806D01*
X0118963Y0010805D02*
X0121037Y0010805D01*
X0120039Y0011803D02*
X0119961Y0011803D01*
X0187682Y0199524D02*
X0192318Y0199524D01*
X0191320Y0200522D02*
X0188680Y0200522D01*
X0189679Y0201521D02*
X0190321Y0201521D01*
X0190352Y0208510D02*
X0189648Y0208510D01*
X0188649Y0209509D02*
X0191351Y0209509D01*
X0192349Y0210507D02*
X0187651Y0210507D01*
X0197651Y0210507D02*
X0202349Y0210507D01*
X0201351Y0209509D02*
X0198649Y0209509D01*
X0199648Y0208510D02*
X0200352Y0208510D01*
X0200321Y0201521D02*
X0199679Y0201521D01*
X0198680Y0200522D02*
X0201320Y0200522D01*
X0202318Y0199524D02*
X0197682Y0199524D01*
X0207682Y0199524D02*
X0212318Y0199524D01*
X0211320Y0200522D02*
X0208680Y0200522D01*
X0209679Y0201521D02*
X0210321Y0201521D01*
X0217681Y0199524D02*
X0222318Y0199524D01*
X0221320Y0200522D02*
X0218680Y0200522D01*
X0219679Y0201521D02*
X0220321Y0201521D01*
X0227681Y0199524D02*
X0232318Y0199524D01*
X0231320Y0200522D02*
X0228680Y0200522D01*
X0229679Y0201521D02*
X0230321Y0201521D01*
X0237681Y0199524D02*
X0242318Y0199524D01*
X0241320Y0200522D02*
X0238680Y0200522D01*
X0239679Y0201521D02*
X0240321Y0201521D01*
X0240352Y0208510D02*
X0239648Y0208510D01*
X0238649Y0209509D02*
X0241351Y0209509D01*
X0242349Y0210507D02*
X0237651Y0210507D01*
X0232349Y0210507D02*
X0227651Y0210507D01*
X0228649Y0209509D02*
X0231351Y0209509D01*
X0230352Y0208510D02*
X0229648Y0208510D01*
X0222349Y0210507D02*
X0217651Y0210507D01*
X0218649Y0209509D02*
X0221351Y0209509D01*
X0220352Y0208510D02*
X0219648Y0208510D01*
X0212349Y0210507D02*
X0207651Y0210507D01*
X0208649Y0209509D02*
X0211351Y0209509D01*
X0210352Y0208510D02*
X0209648Y0208510D01*
X0247651Y0210507D02*
X0252349Y0210507D01*
X0251351Y0209509D02*
X0248649Y0209509D01*
X0249648Y0208510D02*
X0250352Y0208510D01*
X0250321Y0201521D02*
X0249679Y0201521D01*
X0248680Y0200522D02*
X0251320Y0200522D01*
X0252318Y0199524D02*
X0247681Y0199524D01*
X0257682Y0199524D02*
X0262531Y0199524D01*
X0262531Y0200522D02*
X0258680Y0200522D01*
X0259679Y0201521D02*
X0262531Y0201521D01*
X0262531Y0202519D02*
X0260677Y0202519D01*
X0260768Y0203518D02*
X0262531Y0203518D01*
X0262531Y0204516D02*
X0260768Y0204516D01*
X0260768Y0205515D02*
X0262531Y0205515D01*
X0262531Y0206513D02*
X0260768Y0206513D01*
X0260646Y0207512D02*
X0262531Y0207512D01*
X0261999Y0208510D02*
X0259648Y0208510D01*
X0258649Y0209509D02*
X0261000Y0209509D01*
X0260002Y0210507D02*
X0257651Y0210507D01*
M02*
