G75*
%MOIN*%
%OFA0B0*%
%FSLAX25Y25*%
%IPPOS*%
%LPD*%
%AMOC8*
5,1,8,0,0,1.08239X$1,22.5*
%
%ADD10C,0.00700*%
%ADD11OC8,0.07400*%
%ADD12OC8,0.07800*%
%ADD13R,0.07800X0.07800*%
%ADD14C,0.07200*%
%ADD15R,0.08400X0.15800*%
%ADD16R,0.15800X0.08400*%
%ADD17C,0.09658*%
%ADD18R,0.20800X0.09800*%
%ADD19R,0.04737X0.06312*%
%ADD20R,0.05918X0.06706*%
%ADD21R,0.06706X0.05918*%
D10*
X0024196Y0050350D02*
X0022095Y0052452D01*
X0024196Y0054554D01*
X0028400Y0054554D01*
X0028400Y0056795D02*
X0022095Y0056795D01*
X0022095Y0059948D01*
X0023146Y0060999D01*
X0025247Y0060999D01*
X0026298Y0059948D01*
X0026298Y0056795D01*
X0026298Y0058897D02*
X0028400Y0060999D01*
X0028400Y0063241D02*
X0028400Y0066394D01*
X0027349Y0067445D01*
X0023146Y0067445D01*
X0022095Y0066394D01*
X0022095Y0063241D01*
X0028400Y0063241D01*
X0032495Y0066527D02*
X0032495Y0068495D01*
X0033479Y0069480D01*
X0037416Y0065543D01*
X0038400Y0066527D01*
X0038400Y0068495D01*
X0037416Y0069480D01*
X0033479Y0069480D01*
X0028400Y0070737D02*
X0028400Y0072839D01*
X0027349Y0073890D01*
X0022095Y0073890D01*
X0022095Y0076132D02*
X0022095Y0078234D01*
X0022095Y0077183D02*
X0028400Y0077183D01*
X0028400Y0076132D02*
X0028400Y0078234D01*
X0028400Y0080429D02*
X0022095Y0080429D01*
X0028400Y0084633D01*
X0022095Y0084633D01*
X0023146Y0086874D02*
X0027349Y0086874D01*
X0028400Y0087925D01*
X0028400Y0090027D01*
X0027349Y0091078D01*
X0023146Y0091078D01*
X0022095Y0090027D01*
X0022095Y0087925D01*
X0023146Y0086874D01*
X0040261Y0078682D02*
X0041245Y0078682D01*
X0043213Y0078682D02*
X0047150Y0078682D01*
X0047150Y0079666D02*
X0047150Y0077697D01*
X0047150Y0075557D02*
X0047150Y0072604D01*
X0046166Y0071620D01*
X0044197Y0071620D01*
X0043213Y0072604D01*
X0043213Y0075557D01*
X0048134Y0075557D01*
X0049118Y0074573D01*
X0049118Y0073589D01*
X0047150Y0069566D02*
X0046166Y0069566D01*
X0046166Y0068582D01*
X0047150Y0068582D01*
X0047150Y0069566D01*
X0046166Y0066441D02*
X0043213Y0066441D01*
X0046166Y0066441D02*
X0047150Y0065457D01*
X0046166Y0064473D01*
X0047150Y0063489D01*
X0046166Y0062504D01*
X0043213Y0062504D01*
X0043213Y0060364D02*
X0046166Y0060364D01*
X0047150Y0059380D01*
X0046166Y0058396D01*
X0047150Y0057411D01*
X0046166Y0056427D01*
X0043213Y0056427D01*
X0043213Y0054287D02*
X0046166Y0054287D01*
X0047150Y0053303D01*
X0046166Y0052318D01*
X0047150Y0051334D01*
X0046166Y0050350D01*
X0043213Y0050350D01*
X0038400Y0052318D02*
X0034463Y0054287D01*
X0034463Y0056427D02*
X0032495Y0058396D01*
X0038400Y0058396D01*
X0038400Y0060364D02*
X0038400Y0056427D01*
X0038400Y0052318D02*
X0034463Y0050350D01*
X0028400Y0050350D02*
X0024196Y0050350D01*
X0025247Y0050350D02*
X0025247Y0054554D01*
X0037416Y0062504D02*
X0037416Y0063489D01*
X0038400Y0063489D01*
X0038400Y0062504D01*
X0037416Y0062504D01*
X0037416Y0065543D02*
X0033479Y0065543D01*
X0032495Y0066527D01*
X0028400Y0070737D02*
X0027349Y0069686D01*
X0022095Y0069686D01*
X0043213Y0077697D02*
X0043213Y0078682D01*
X0043213Y0081749D02*
X0043213Y0083717D01*
X0042229Y0082733D02*
X0046166Y0082733D01*
X0047150Y0083717D01*
X0047150Y0085800D02*
X0041245Y0085800D01*
X0043213Y0086784D02*
X0043213Y0088753D01*
X0044197Y0089737D01*
X0047150Y0089737D01*
X0046166Y0091877D02*
X0047150Y0092862D01*
X0047150Y0095814D01*
X0043213Y0095814D01*
X0043213Y0097955D02*
X0043213Y0100907D01*
X0044197Y0101891D01*
X0046166Y0101891D01*
X0047150Y0100907D01*
X0047150Y0097955D01*
X0041245Y0097955D01*
X0043213Y0091877D02*
X0046166Y0091877D01*
X0043213Y0086784D02*
X0044197Y0085800D01*
X0022095Y0099765D02*
X0022095Y0103969D01*
X0022095Y0101867D02*
X0028400Y0101867D01*
X0028400Y0106211D02*
X0022095Y0110415D01*
X0025247Y0112656D02*
X0025247Y0116860D01*
X0024196Y0119102D02*
X0023146Y0119102D01*
X0022095Y0120153D01*
X0022095Y0122255D01*
X0023146Y0123306D01*
X0024196Y0123306D01*
X0025247Y0122255D01*
X0025247Y0120153D01*
X0024196Y0119102D01*
X0025247Y0120153D02*
X0026298Y0119102D01*
X0027349Y0119102D01*
X0028400Y0120153D01*
X0028400Y0122255D01*
X0027349Y0123306D01*
X0026298Y0123306D01*
X0025247Y0122255D01*
X0024196Y0125547D02*
X0022095Y0127649D01*
X0028400Y0127649D01*
X0028400Y0125547D02*
X0028400Y0129751D01*
X0027349Y0131993D02*
X0026298Y0131993D01*
X0025247Y0133044D01*
X0025247Y0135146D01*
X0026298Y0136197D01*
X0027349Y0136197D01*
X0028400Y0135146D01*
X0028400Y0133044D01*
X0027349Y0131993D01*
X0025247Y0133044D02*
X0024196Y0131993D01*
X0023146Y0131993D01*
X0022095Y0133044D01*
X0022095Y0135146D01*
X0023146Y0136197D01*
X0024196Y0136197D01*
X0025247Y0135146D01*
X0026298Y0138438D02*
X0022095Y0138438D01*
X0026298Y0138438D02*
X0028400Y0140540D01*
X0026298Y0142642D01*
X0022095Y0142642D01*
X0023146Y0151329D02*
X0024196Y0151329D01*
X0025247Y0152380D01*
X0025247Y0154482D01*
X0026298Y0155533D01*
X0027349Y0155533D01*
X0028400Y0154482D01*
X0028400Y0152380D01*
X0027349Y0151329D01*
X0023146Y0151329D02*
X0022095Y0152380D01*
X0022095Y0154482D01*
X0023146Y0155533D01*
X0022095Y0157775D02*
X0028400Y0157775D01*
X0025247Y0157775D02*
X0025247Y0161979D01*
X0022095Y0161979D02*
X0028400Y0161979D01*
X0028400Y0164220D02*
X0028400Y0166322D01*
X0028400Y0165271D02*
X0022095Y0165271D01*
X0022095Y0164220D02*
X0022095Y0166322D01*
X0022095Y0168517D02*
X0028400Y0168517D01*
X0028400Y0172721D01*
X0028400Y0174963D02*
X0028400Y0179167D01*
X0028400Y0181408D02*
X0028400Y0184561D01*
X0027349Y0185612D01*
X0023146Y0185612D01*
X0022095Y0184561D01*
X0022095Y0181408D01*
X0028400Y0181408D01*
X0028400Y0174963D02*
X0022095Y0174963D01*
X0022095Y0172721D02*
X0022095Y0168517D01*
X0025247Y0168517D02*
X0025247Y0170619D01*
X0043213Y0167756D02*
X0043213Y0165788D01*
X0044197Y0164804D01*
X0046166Y0164804D01*
X0047150Y0165788D01*
X0047150Y0167756D01*
X0046166Y0168740D01*
X0044197Y0168740D01*
X0043213Y0167756D01*
X0043213Y0162692D02*
X0045182Y0159739D01*
X0047150Y0162692D01*
X0047150Y0159739D02*
X0041245Y0159739D01*
X0041245Y0156672D02*
X0040261Y0156672D01*
X0043213Y0156672D02*
X0043213Y0155688D01*
X0043213Y0156672D02*
X0047150Y0156672D01*
X0047150Y0155688D02*
X0047150Y0157656D01*
X0047150Y0153547D02*
X0041245Y0153547D01*
X0043213Y0153547D02*
X0043213Y0150595D01*
X0044197Y0149611D01*
X0046166Y0149611D01*
X0047150Y0150595D01*
X0047150Y0153547D01*
X0047150Y0147470D02*
X0044197Y0147470D01*
X0043213Y0146486D01*
X0043213Y0143534D01*
X0047150Y0143534D01*
X0047150Y0141393D02*
X0044197Y0141393D01*
X0043213Y0140409D01*
X0043213Y0138441D01*
X0045182Y0138441D02*
X0045182Y0141393D01*
X0047150Y0141393D02*
X0047150Y0138441D01*
X0046166Y0137456D01*
X0045182Y0138441D01*
X0044197Y0135316D02*
X0043213Y0134332D01*
X0043213Y0132363D01*
X0044197Y0131379D01*
X0041245Y0131379D02*
X0047150Y0131379D01*
X0047150Y0135316D02*
X0044197Y0135316D01*
X0041245Y0129239D02*
X0047150Y0125302D01*
X0047150Y0123161D02*
X0044197Y0123161D01*
X0043213Y0122177D01*
X0044197Y0121193D01*
X0047150Y0121193D01*
X0047150Y0119225D02*
X0043213Y0119225D01*
X0043213Y0120209D01*
X0044197Y0121193D01*
X0044197Y0117084D02*
X0043213Y0116100D01*
X0043213Y0114132D01*
X0044197Y0113148D01*
X0046166Y0113148D01*
X0047150Y0114132D01*
X0047150Y0116100D01*
X0046166Y0117084D01*
X0044197Y0117084D01*
X0043213Y0111007D02*
X0043213Y0108055D01*
X0044197Y0107070D01*
X0046166Y0107070D01*
X0047150Y0108055D01*
X0047150Y0111007D01*
X0047150Y0105016D02*
X0046166Y0105016D01*
X0046166Y0104032D01*
X0047150Y0104032D01*
X0047150Y0105016D01*
X0028400Y0110415D02*
X0022095Y0106211D01*
D11*
X0098750Y0162500D03*
X0098750Y0172500D03*
X0099000Y0205000D03*
X0089000Y0205000D03*
X0079000Y0205000D03*
X0109000Y0205000D03*
X0119000Y0205000D03*
X0129000Y0205000D03*
X0139000Y0205000D03*
X0149000Y0205000D03*
X0159000Y0205000D03*
X0169000Y0205000D03*
X0185000Y0205000D03*
X0195000Y0205000D03*
X0205000Y0205000D03*
X0215000Y0205000D03*
X0225000Y0205000D03*
X0235000Y0205000D03*
X0245000Y0205000D03*
X0255000Y0205000D03*
X0137500Y0033750D03*
X0127500Y0033750D03*
X0125000Y0015000D03*
X0115000Y0015000D03*
X0135000Y0015000D03*
X0145000Y0015000D03*
X0155000Y0015000D03*
X0165000Y0015000D03*
X0175000Y0015000D03*
X0185000Y0015000D03*
X0205000Y0015000D03*
X0215000Y0015000D03*
X0225000Y0015000D03*
X0235000Y0015000D03*
X0245000Y0015000D03*
X0255000Y0015000D03*
D12*
X0255500Y0105000D03*
X0265500Y0105000D03*
X0265500Y0115000D03*
X0255500Y0115000D03*
X0265500Y0125000D03*
D13*
X0255500Y0125000D03*
D14*
X0021650Y0013600D02*
X0015250Y0013600D01*
X0015250Y0031400D02*
X0021650Y0031400D01*
X0040850Y0031400D02*
X0047250Y0031400D01*
X0047250Y0013600D02*
X0040850Y0013600D01*
X0076800Y0051250D02*
X0083200Y0051250D01*
X0100000Y0058050D02*
X0100000Y0064450D01*
X0083200Y0071250D02*
X0076800Y0071250D01*
X0115000Y0183050D02*
X0115000Y0189450D01*
X0125000Y0189450D02*
X0125000Y0183050D01*
X0135000Y0183050D02*
X0135000Y0189450D01*
X0145000Y0189450D02*
X0145000Y0183050D01*
D15*
X0136604Y0152205D03*
X0119085Y0152205D03*
X0154124Y0152205D03*
X0171644Y0152205D03*
X0189163Y0152205D03*
X0206683Y0152205D03*
X0224203Y0152205D03*
X0224203Y0077008D03*
X0206683Y0077008D03*
X0189163Y0077008D03*
X0171644Y0077008D03*
X0154124Y0077205D03*
X0136604Y0077008D03*
X0119085Y0077008D03*
D16*
X0241919Y0087441D03*
X0241919Y0105551D03*
X0241919Y0123661D03*
X0241919Y0141772D03*
D17*
X0231250Y0056250D03*
X0221250Y0046250D03*
X0211250Y0036250D03*
X0231250Y0036250D03*
X0211250Y0056250D03*
D18*
X0264900Y0055100D03*
X0264900Y0072500D03*
X0264900Y0089900D03*
D19*
X0173750Y0165669D03*
X0170010Y0174331D03*
X0177490Y0174331D03*
D20*
X0247510Y0172500D03*
X0254990Y0172500D03*
X0254990Y0163750D03*
X0247510Y0163750D03*
X0247510Y0155000D03*
X0254990Y0155000D03*
X0118740Y0061250D03*
X0111260Y0061250D03*
X0111260Y0052500D03*
X0118740Y0052500D03*
X0147510Y0043750D03*
X0154990Y0043750D03*
X0154990Y0033750D03*
X0147510Y0033750D03*
D21*
X0188750Y0166260D03*
X0188750Y0173740D03*
X0177500Y0182510D03*
X0177500Y0189990D03*
X0168750Y0189990D03*
X0168750Y0182510D03*
X0206250Y0173740D03*
X0206250Y0166260D03*
X0223750Y0166260D03*
X0223750Y0173740D03*
X0098750Y0182510D03*
X0098750Y0189990D03*
M02*
