G75*
%MOIN*%
%OFA0B0*%
%FSLAX25Y25*%
%IPPOS*%
%LPD*%
%AMOC8*
5,1,8,0,0,1.08239X$1,22.5*
%
%ADD10R,0.07087X0.06299*%
%ADD11R,0.06299X0.07087*%
%ADD12OC8,0.06600*%
%ADD13OC8,0.07000*%
%ADD14R,0.07000X0.07000*%
%ADD15R,0.06299X0.07098*%
%ADD16R,0.07098X0.06299*%
%ADD17C,0.06400*%
%ADD18R,0.07600X0.15000*%
%ADD19R,0.15000X0.07600*%
%ADD20C,0.08858*%
%ADD21R,0.20000X0.09000*%
%ADD22R,0.03937X0.05512*%
%ADD23C,0.03200*%
%ADD24OC8,0.04362*%
%ADD25C,0.01600*%
%ADD26C,0.01000*%
%ADD27C,0.02400*%
%ADD28C,0.07000*%
%ADD29C,0.10000*%
D10*
X0188750Y0163238D03*
X0201250Y0163238D03*
X0201250Y0174262D03*
X0188750Y0174262D03*
X0168750Y0179488D03*
X0168750Y0190512D03*
X0218750Y0174262D03*
X0218750Y0163238D03*
X0235000Y0163238D03*
X0245000Y0163238D03*
X0255000Y0163238D03*
X0255000Y0174262D03*
X0245000Y0174262D03*
X0235000Y0174262D03*
D11*
X0111762Y0060000D03*
X0100738Y0060000D03*
X0100738Y0050000D03*
X0111762Y0050000D03*
X0154488Y0033750D03*
X0165512Y0033750D03*
D12*
X0165000Y0015000D03*
X0155000Y0015000D03*
X0145000Y0015000D03*
X0135000Y0015000D03*
X0125000Y0015000D03*
X0115000Y0015000D03*
X0081250Y0033750D03*
X0071250Y0033750D03*
X0175000Y0015000D03*
X0185000Y0015000D03*
X0205000Y0015000D03*
X0215000Y0015000D03*
X0225000Y0015000D03*
X0235000Y0015000D03*
X0245000Y0015000D03*
X0255000Y0015000D03*
X0107500Y0178750D03*
X0097500Y0178750D03*
X0099000Y0205000D03*
X0089000Y0205000D03*
X0079000Y0205000D03*
X0109000Y0205000D03*
X0119000Y0205000D03*
X0129000Y0205000D03*
X0139000Y0205000D03*
X0149000Y0205000D03*
X0159000Y0205000D03*
X0169000Y0205000D03*
X0185000Y0205000D03*
X0195000Y0205000D03*
X0205000Y0205000D03*
X0215000Y0205000D03*
X0225000Y0205000D03*
X0235000Y0205000D03*
X0245000Y0205000D03*
X0255000Y0205000D03*
D13*
X0265500Y0125000D03*
X0265500Y0115000D03*
X0255500Y0115000D03*
X0255500Y0105000D03*
X0265500Y0105000D03*
D14*
X0255500Y0125000D03*
D15*
X0111848Y0033750D03*
X0100652Y0033750D03*
D16*
X0118750Y0179402D03*
X0118750Y0190598D03*
X0178750Y0190598D03*
X0178750Y0179402D03*
D17*
X0154450Y0183750D02*
X0148050Y0183750D01*
X0148050Y0173750D02*
X0154450Y0173750D01*
X0154450Y0163750D02*
X0148050Y0163750D01*
X0148050Y0193750D02*
X0154450Y0193750D01*
X0086250Y0083200D02*
X0086250Y0076800D01*
X0066250Y0076800D02*
X0066250Y0083200D01*
X0073050Y0060000D02*
X0079450Y0060000D01*
X0047250Y0031400D02*
X0040850Y0031400D01*
X0021650Y0031400D02*
X0015250Y0031400D01*
X0015250Y0013600D02*
X0021650Y0013600D01*
X0040850Y0013600D02*
X0047250Y0013600D01*
D18*
X0112835Y0074508D03*
X0130354Y0074508D03*
X0147874Y0074705D03*
X0165394Y0074508D03*
X0182913Y0074508D03*
X0200433Y0074508D03*
X0217953Y0074508D03*
X0217953Y0149705D03*
X0200433Y0149705D03*
X0182913Y0149705D03*
X0165394Y0149705D03*
X0147874Y0149705D03*
X0130354Y0149705D03*
X0112835Y0149705D03*
D19*
X0235669Y0139272D03*
X0235669Y0121161D03*
X0235669Y0103051D03*
X0235669Y0084941D03*
D20*
X0227500Y0055000D03*
X0217500Y0045000D03*
X0207500Y0035000D03*
X0227500Y0035000D03*
X0207500Y0055000D03*
D21*
X0264900Y0055100D03*
X0264900Y0072500D03*
X0264900Y0089900D03*
D22*
X0175000Y0163169D03*
X0171260Y0171831D03*
X0178740Y0171831D03*
D23*
X0223750Y0136250D02*
X0226772Y0139272D01*
X0235669Y0139272D01*
X0240522Y0139272D01*
X0245000Y0143750D01*
X0245000Y0163238D01*
X0235000Y0163238D01*
X0245000Y0163238D02*
X0255000Y0163238D01*
X0156250Y0046250D02*
X0155000Y0045000D01*
X0155000Y0034262D01*
X0154488Y0033750D01*
X0155000Y0033238D01*
X0155000Y0015000D01*
D24*
X0166250Y0026250D03*
X0173750Y0026250D03*
X0173750Y0031250D03*
X0173750Y0036250D03*
X0180000Y0036250D03*
X0180000Y0031250D03*
X0180000Y0026250D03*
X0193750Y0027500D03*
X0191250Y0038750D03*
X0180000Y0041250D03*
X0173750Y0041250D03*
X0166250Y0041250D03*
X0156250Y0046250D03*
X0150000Y0055000D03*
X0150000Y0062500D03*
X0137500Y0056250D03*
X0126250Y0052500D03*
X0120000Y0052500D03*
X0120000Y0047500D03*
X0126250Y0047500D03*
X0136250Y0041250D03*
X0121250Y0028750D03*
X0135000Y0027500D03*
X0142500Y0026250D03*
X0165000Y0055000D03*
X0165000Y0062500D03*
X0178750Y0057500D03*
X0192500Y0057500D03*
X0191250Y0048750D03*
X0205000Y0045000D03*
X0217500Y0032500D03*
X0230000Y0045000D03*
X0245000Y0046250D03*
X0251250Y0046250D03*
X0257500Y0046250D03*
X0265000Y0046250D03*
X0265000Y0053750D03*
X0261250Y0057500D03*
X0257500Y0053750D03*
X0251250Y0052500D03*
X0251250Y0057500D03*
X0245000Y0057500D03*
X0245000Y0052500D03*
X0237500Y0057500D03*
X0268750Y0057500D03*
X0251250Y0031250D03*
X0241250Y0030000D03*
X0193750Y0011250D03*
X0122500Y0061250D03*
X0092500Y0042500D03*
X0092500Y0025000D03*
X0086250Y0011250D03*
X0071250Y0011250D03*
X0051250Y0022500D03*
X0057500Y0040000D03*
X0047500Y0041250D03*
X0068750Y0047500D03*
X0055000Y0057500D03*
X0056250Y0075000D03*
X0060000Y0093750D03*
X0068750Y0103750D03*
X0081250Y0111250D03*
X0091250Y0111250D03*
X0103750Y0111250D03*
X0103750Y0118750D03*
X0103750Y0126250D03*
X0103750Y0133750D03*
X0112500Y0133750D03*
X0121250Y0133750D03*
X0128750Y0133750D03*
X0132500Y0126250D03*
X0132500Y0118750D03*
X0132500Y0111250D03*
X0132500Y0103750D03*
X0132500Y0097500D03*
X0132500Y0088750D03*
X0122500Y0088750D03*
X0112500Y0088750D03*
X0103750Y0088750D03*
X0103750Y0096250D03*
X0103750Y0103750D03*
X0091250Y0096250D03*
X0081250Y0096250D03*
X0057500Y0115000D03*
X0081250Y0126250D03*
X0091250Y0126250D03*
X0091250Y0141250D03*
X0091250Y0148750D03*
X0096250Y0156250D03*
X0102500Y0162500D03*
X0096250Y0170000D03*
X0102500Y0172500D03*
X0112500Y0172500D03*
X0121250Y0172500D03*
X0131250Y0165000D03*
X0121250Y0162500D03*
X0112500Y0162500D03*
X0090000Y0163750D03*
X0083750Y0157500D03*
X0081250Y0148750D03*
X0081250Y0141250D03*
X0067500Y0132500D03*
X0060000Y0147500D03*
X0070000Y0163750D03*
X0060000Y0175000D03*
X0075000Y0186250D03*
X0093750Y0191250D03*
X0055000Y0193750D03*
X0036250Y0202500D03*
X0033750Y0191250D03*
X0020000Y0187500D03*
X0020000Y0203750D03*
X0141250Y0190000D03*
X0141250Y0178750D03*
X0160000Y0168750D03*
X0165000Y0168750D03*
X0162500Y0173750D03*
X0162500Y0162500D03*
X0167500Y0162500D03*
X0188750Y0182500D03*
X0195000Y0182500D03*
X0201250Y0182500D03*
X0201250Y0188750D03*
X0195000Y0188750D03*
X0188750Y0188750D03*
X0190000Y0195000D03*
X0178750Y0200000D03*
X0173750Y0197500D03*
X0168750Y0197500D03*
X0176250Y0208750D03*
X0218750Y0188750D03*
X0222500Y0193750D03*
X0226250Y0188750D03*
X0235000Y0188750D03*
X0240000Y0188750D03*
X0247500Y0188750D03*
X0251250Y0193750D03*
X0255000Y0188750D03*
X0255000Y0182500D03*
X0250000Y0182500D03*
X0245000Y0182500D03*
X0240000Y0182500D03*
X0235000Y0182500D03*
X0228750Y0182500D03*
X0223750Y0182500D03*
X0218750Y0182500D03*
X0228750Y0155000D03*
X0237500Y0152500D03*
X0253750Y0151250D03*
X0253750Y0136250D03*
X0242500Y0128750D03*
X0235000Y0128750D03*
X0227500Y0128750D03*
X0223750Y0136250D03*
X0215000Y0137500D03*
X0207500Y0137500D03*
X0200000Y0137500D03*
X0191250Y0137500D03*
X0182500Y0137500D03*
X0173750Y0137500D03*
X0165000Y0137500D03*
X0152500Y0133750D03*
X0146250Y0137500D03*
X0146250Y0130000D03*
X0151250Y0126250D03*
X0146250Y0122500D03*
X0151250Y0118750D03*
X0146250Y0115000D03*
X0151250Y0111250D03*
X0146250Y0107500D03*
X0151250Y0103750D03*
X0146250Y0100000D03*
X0151250Y0096250D03*
X0151250Y0088750D03*
X0145000Y0088750D03*
X0165000Y0088750D03*
X0165000Y0096250D03*
X0165000Y0103750D03*
X0165000Y0111250D03*
X0165000Y0118750D03*
X0173750Y0125000D03*
X0182500Y0125000D03*
X0191250Y0125000D03*
X0200000Y0125000D03*
X0207500Y0125000D03*
X0215000Y0125000D03*
X0231250Y0121250D03*
X0240000Y0121250D03*
X0242500Y0112500D03*
X0235000Y0112500D03*
X0227500Y0112500D03*
X0231250Y0103750D03*
X0240000Y0103750D03*
X0242500Y0093750D03*
X0247500Y0090000D03*
X0251250Y0087500D03*
X0251250Y0092500D03*
X0257500Y0091250D03*
X0261250Y0087500D03*
X0266250Y0091250D03*
X0270000Y0087500D03*
X0235000Y0093750D03*
X0227500Y0093750D03*
X0216250Y0093750D03*
X0216250Y0088750D03*
X0208750Y0088750D03*
X0208750Y0093750D03*
X0200000Y0088750D03*
X0191250Y0088750D03*
X0182500Y0088750D03*
X0173750Y0088750D03*
X0102500Y0011250D03*
X0021250Y0040000D03*
X0013750Y0058750D03*
X0012500Y0083750D03*
X0013750Y0111250D03*
X0012500Y0021250D03*
D25*
X0018450Y0031400D02*
X0044050Y0031400D01*
X0059850Y0031400D01*
X0072500Y0018750D01*
X0105000Y0018750D01*
X0110000Y0023750D01*
X0131250Y0023750D01*
X0135000Y0020000D01*
X0135000Y0015000D01*
X0154488Y0033750D02*
X0111848Y0033750D01*
X0100652Y0033750D02*
X0081250Y0033750D01*
X0130354Y0074508D02*
X0130354Y0086604D01*
X0132500Y0088750D01*
X0145000Y0088750D02*
X0147874Y0085876D01*
X0147874Y0074705D01*
X0086250Y0080000D02*
X0086250Y0152500D01*
X0101250Y0167500D01*
X0125000Y0167500D01*
X0129000Y0171500D01*
X0129000Y0205000D01*
X0119000Y0205000D02*
X0119000Y0190848D01*
X0118750Y0190598D01*
X0118750Y0179402D02*
X0118098Y0178750D01*
X0107500Y0178750D01*
X0168750Y0179402D02*
X0168750Y0179488D01*
X0168750Y0179402D02*
X0178750Y0179402D01*
X0178750Y0171841D01*
X0178740Y0171831D01*
X0175000Y0163169D02*
X0182500Y0163169D01*
X0182913Y0162756D01*
X0182913Y0149705D01*
X0200433Y0149705D02*
X0200433Y0162421D01*
X0201250Y0163238D01*
X0201762Y0163750D01*
X0206250Y0163750D01*
X0208750Y0166250D01*
X0208750Y0192500D01*
X0196250Y0205000D01*
X0195000Y0205000D01*
X0205000Y0205000D02*
X0205000Y0202500D01*
X0211250Y0196250D01*
X0211250Y0166250D01*
X0213750Y0163750D01*
X0218238Y0163750D01*
X0218750Y0163238D01*
X0217953Y0162441D01*
X0217953Y0149705D01*
X0188750Y0163238D02*
X0188681Y0163169D01*
X0182500Y0163169D01*
X0178750Y0190598D02*
X0185000Y0196848D01*
X0185000Y0205000D01*
X0235669Y0121161D02*
X0246161Y0121161D01*
X0246250Y0121250D01*
X0246250Y0092500D01*
X0248750Y0090000D01*
X0258750Y0090000D01*
X0257500Y0091250D01*
X0258750Y0090000D02*
X0262500Y0090000D01*
X0263750Y0091250D01*
X0266250Y0091250D01*
X0270000Y0087500D01*
X0261250Y0057500D02*
X0257500Y0053750D01*
D26*
X0007468Y0007468D02*
X0007468Y0212531D01*
X0257977Y0212531D01*
X0262531Y0207977D01*
X0262531Y0163509D01*
X0262907Y0162602D01*
X0263602Y0161907D01*
X0272531Y0152977D01*
X0272531Y0095900D01*
X0265400Y0095900D01*
X0265400Y0090400D01*
X0272531Y0090400D01*
X0272531Y0089400D01*
X0265400Y0089400D01*
X0265400Y0090400D01*
X0264400Y0090400D01*
X0264400Y0095900D01*
X0254703Y0095900D01*
X0254321Y0095798D01*
X0253979Y0095600D01*
X0253700Y0095321D01*
X0253502Y0094979D01*
X0253400Y0094597D01*
X0253400Y0090400D01*
X0264400Y0090400D01*
X0264400Y0089400D01*
X0253400Y0089400D01*
X0253400Y0085203D01*
X0253454Y0085000D01*
X0245638Y0085000D01*
X0245638Y0089232D01*
X0245262Y0090139D01*
X0244568Y0090834D01*
X0243660Y0091209D01*
X0227678Y0091209D01*
X0226771Y0090834D01*
X0226077Y0090139D01*
X0225701Y0089232D01*
X0225701Y0085000D01*
X0210000Y0085000D01*
X0210000Y0060381D01*
X0209776Y0060495D01*
X0208888Y0060783D01*
X0208000Y0060924D01*
X0208000Y0060000D01*
X0207500Y0060000D01*
X0207500Y0055500D01*
X0207000Y0055500D01*
X0207000Y0060924D01*
X0206112Y0060783D01*
X0205224Y0060495D01*
X0204392Y0060071D01*
X0203637Y0059522D01*
X0202978Y0058863D01*
X0202429Y0058108D01*
X0202005Y0057276D01*
X0201717Y0056388D01*
X0201576Y0055500D01*
X0207000Y0055500D01*
X0207000Y0054500D01*
X0207500Y0054500D01*
X0207500Y0035500D01*
X0207000Y0035500D01*
X0207000Y0040924D01*
X0206112Y0040783D01*
X0205224Y0040495D01*
X0204392Y0040071D01*
X0203637Y0039522D01*
X0202978Y0038863D01*
X0202429Y0038108D01*
X0202005Y0037276D01*
X0201717Y0036388D01*
X0201576Y0035500D01*
X0207000Y0035500D01*
X0207000Y0034500D01*
X0208000Y0034500D01*
X0208000Y0035000D01*
X0227000Y0035000D01*
X0227000Y0034500D01*
X0228000Y0034500D01*
X0228000Y0035500D01*
X0227500Y0035500D01*
X0227500Y0054500D01*
X0228000Y0054500D01*
X0228000Y0055500D01*
X0233424Y0055500D01*
X0233283Y0056388D01*
X0232995Y0057276D01*
X0232571Y0058108D01*
X0232022Y0058863D01*
X0231363Y0059522D01*
X0230705Y0060000D01*
X0253454Y0060000D01*
X0253400Y0059797D01*
X0253400Y0055600D01*
X0264400Y0055600D01*
X0264400Y0060000D01*
X0265400Y0060000D01*
X0265400Y0055600D01*
X0272531Y0055600D01*
X0272531Y0054600D01*
X0265400Y0054600D01*
X0265400Y0055600D01*
X0264400Y0055600D01*
X0264400Y0054600D01*
X0253400Y0054600D01*
X0253400Y0050403D01*
X0253502Y0050021D01*
X0253700Y0049679D01*
X0253979Y0049400D01*
X0254321Y0049202D01*
X0254703Y0049100D01*
X0264400Y0049100D01*
X0264400Y0054600D01*
X0265400Y0054600D01*
X0265400Y0049100D01*
X0272531Y0049100D01*
X0272531Y0026022D01*
X0262907Y0016398D01*
X0262531Y0015491D01*
X0262531Y0007468D01*
X0007468Y0007468D01*
X0007468Y0007809D02*
X0262531Y0007809D01*
X0262531Y0008808D02*
X0007468Y0008808D01*
X0007468Y0009806D02*
X0012475Y0009806D01*
X0012188Y0010015D02*
X0012787Y0009580D01*
X0013446Y0009244D01*
X0014149Y0009016D01*
X0014880Y0008900D01*
X0017950Y0008900D01*
X0017950Y0013100D01*
X0018950Y0013100D01*
X0018950Y0014100D01*
X0017950Y0014100D01*
X0017950Y0018300D01*
X0014880Y0018300D01*
X0014149Y0018184D01*
X0013446Y0017956D01*
X0012787Y0017620D01*
X0012188Y0017185D01*
X0011665Y0016662D01*
X0011230Y0016063D01*
X0010894Y0015404D01*
X0010666Y0014701D01*
X0010571Y0014100D01*
X0017950Y0014100D01*
X0017950Y0013100D01*
X0010571Y0013100D01*
X0010666Y0012499D01*
X0010894Y0011796D01*
X0011230Y0011137D01*
X0011665Y0010538D01*
X0012188Y0010015D01*
X0011471Y0010805D02*
X0007468Y0010805D01*
X0007468Y0011803D02*
X0010892Y0011803D01*
X0010618Y0012802D02*
X0007468Y0012802D01*
X0007468Y0013801D02*
X0017950Y0013801D01*
X0017950Y0014799D02*
X0018950Y0014799D01*
X0018950Y0014100D02*
X0018950Y0018300D01*
X0022020Y0018300D01*
X0022751Y0018184D01*
X0023454Y0017956D01*
X0024113Y0017620D01*
X0024712Y0017185D01*
X0025235Y0016662D01*
X0025670Y0016063D01*
X0026006Y0015404D01*
X0026234Y0014701D01*
X0026329Y0014100D01*
X0018950Y0014100D01*
X0018950Y0013801D02*
X0043550Y0013801D01*
X0043550Y0014100D02*
X0043550Y0013100D01*
X0044550Y0013100D01*
X0044550Y0014100D01*
X0043550Y0014100D01*
X0043550Y0018300D01*
X0040480Y0018300D01*
X0039749Y0018184D01*
X0039046Y0017956D01*
X0038387Y0017620D01*
X0037788Y0017185D01*
X0037265Y0016662D01*
X0036830Y0016063D01*
X0036494Y0015404D01*
X0036266Y0014701D01*
X0036171Y0014100D01*
X0043550Y0014100D01*
X0043550Y0014799D02*
X0044550Y0014799D01*
X0044550Y0014100D02*
X0044550Y0018300D01*
X0047620Y0018300D01*
X0048351Y0018184D01*
X0049054Y0017956D01*
X0049713Y0017620D01*
X0050312Y0017185D01*
X0050835Y0016662D01*
X0051270Y0016063D01*
X0051606Y0015404D01*
X0051834Y0014701D01*
X0051929Y0014100D01*
X0044550Y0014100D01*
X0044550Y0013801D02*
X0109231Y0013801D01*
X0109231Y0014799D02*
X0051802Y0014799D01*
X0051405Y0015798D02*
X0071087Y0015798D01*
X0070649Y0015979D02*
X0071850Y0015481D01*
X0105650Y0015481D01*
X0106851Y0015979D01*
X0111354Y0020481D01*
X0112324Y0020481D01*
X0109231Y0017389D01*
X0109231Y0012611D01*
X0112611Y0009231D01*
X0117389Y0009231D01*
X0120000Y0011842D01*
X0122611Y0009231D01*
X0127389Y0009231D01*
X0130000Y0011842D01*
X0132611Y0009231D01*
X0137389Y0009231D01*
X0140000Y0011842D01*
X0142611Y0009231D01*
X0147389Y0009231D01*
X0150000Y0011842D01*
X0152611Y0009231D01*
X0157389Y0009231D01*
X0160685Y0012527D01*
X0163012Y0010200D01*
X0164516Y0010200D01*
X0164516Y0014516D01*
X0165484Y0014516D01*
X0165484Y0010200D01*
X0166988Y0010200D01*
X0169800Y0013012D01*
X0169800Y0014516D01*
X0165484Y0014516D01*
X0165484Y0015484D01*
X0169800Y0015484D01*
X0169800Y0016988D01*
X0166988Y0019800D01*
X0165484Y0019800D01*
X0165484Y0015484D01*
X0164516Y0015484D01*
X0164516Y0019800D01*
X0163012Y0019800D01*
X0160685Y0017473D01*
X0159068Y0019089D01*
X0159068Y0028146D01*
X0159730Y0028808D01*
X0160106Y0029716D01*
X0160106Y0037784D01*
X0159730Y0038692D01*
X0159068Y0039354D01*
X0159068Y0042493D01*
X0160900Y0044324D01*
X0160900Y0048176D01*
X0158176Y0050900D01*
X0154324Y0050900D01*
X0151600Y0048176D01*
X0151600Y0047354D01*
X0151551Y0047305D01*
X0150931Y0045809D01*
X0150931Y0039762D01*
X0115503Y0039762D01*
X0115489Y0039768D02*
X0108208Y0039768D01*
X0107301Y0039392D01*
X0106606Y0038698D01*
X0106250Y0037838D01*
X0105894Y0038698D01*
X0105199Y0039392D01*
X0104292Y0039768D01*
X0097011Y0039768D01*
X0096104Y0039392D01*
X0095409Y0038698D01*
X0095033Y0037790D01*
X0095033Y0037018D01*
X0086139Y0037018D01*
X0083639Y0039518D01*
X0078861Y0039518D01*
X0075565Y0036223D01*
X0073238Y0038550D01*
X0071550Y0038550D01*
X0071550Y0034050D01*
X0070950Y0034050D01*
X0070950Y0038550D01*
X0069262Y0038550D01*
X0066450Y0035738D01*
X0066450Y0034050D01*
X0070950Y0034050D01*
X0070950Y0033450D01*
X0071550Y0033450D01*
X0071550Y0028950D01*
X0073238Y0028950D01*
X0075565Y0031277D01*
X0078861Y0027981D01*
X0083639Y0027981D01*
X0086139Y0030481D01*
X0095033Y0030481D01*
X0095033Y0029710D01*
X0095409Y0028802D01*
X0096104Y0028108D01*
X0097011Y0027732D01*
X0104292Y0027732D01*
X0105199Y0028108D01*
X0105894Y0028802D01*
X0106250Y0029662D01*
X0106606Y0028802D01*
X0107301Y0028108D01*
X0108208Y0027732D01*
X0115489Y0027732D01*
X0116396Y0028108D01*
X0117091Y0028802D01*
X0117467Y0029710D01*
X0117467Y0030481D01*
X0148870Y0030481D01*
X0148870Y0029716D01*
X0149246Y0028808D01*
X0149940Y0028114D01*
X0150848Y0027738D01*
X0150931Y0027738D01*
X0150931Y0019089D01*
X0150000Y0018158D01*
X0147389Y0020768D01*
X0142611Y0020768D01*
X0140000Y0018158D01*
X0138268Y0019889D01*
X0138268Y0020650D01*
X0137771Y0021851D01*
X0136851Y0022771D01*
X0133101Y0026521D01*
X0131900Y0027018D01*
X0109350Y0027018D01*
X0108149Y0026521D01*
X0107229Y0025601D01*
X0103646Y0022018D01*
X0073854Y0022018D01*
X0061701Y0034171D01*
X0060500Y0034668D01*
X0051998Y0034668D01*
X0050461Y0036206D01*
X0048378Y0037068D01*
X0039722Y0037068D01*
X0037639Y0036206D01*
X0036102Y0034668D01*
X0026398Y0034668D01*
X0024861Y0036206D01*
X0022778Y0037068D01*
X0014122Y0037068D01*
X0012039Y0036206D01*
X0010444Y0034611D01*
X0009581Y0032528D01*
X0009581Y0030272D01*
X0010444Y0028189D01*
X0012039Y0026594D01*
X0014122Y0025731D01*
X0022778Y0025731D01*
X0024861Y0026594D01*
X0026398Y0028131D01*
X0036102Y0028131D01*
X0037639Y0026594D01*
X0039722Y0025731D01*
X0048378Y0025731D01*
X0050461Y0026594D01*
X0051998Y0028131D01*
X0058496Y0028131D01*
X0069729Y0016899D01*
X0070649Y0015979D01*
X0069832Y0016796D02*
X0050701Y0016796D01*
X0049370Y0017795D02*
X0068833Y0017795D01*
X0067835Y0018793D02*
X0007468Y0018793D01*
X0007468Y0017795D02*
X0013130Y0017795D01*
X0011799Y0016796D02*
X0007468Y0016796D01*
X0007468Y0015798D02*
X0011095Y0015798D01*
X0010698Y0014799D02*
X0007468Y0014799D01*
X0007468Y0019792D02*
X0066836Y0019792D01*
X0065838Y0020790D02*
X0007468Y0020790D01*
X0007468Y0021789D02*
X0064839Y0021789D01*
X0063841Y0022787D02*
X0007468Y0022787D01*
X0007468Y0023786D02*
X0062842Y0023786D01*
X0061843Y0024784D02*
X0007468Y0024784D01*
X0007468Y0025783D02*
X0013999Y0025783D01*
X0011852Y0026781D02*
X0007468Y0026781D01*
X0007468Y0027780D02*
X0010854Y0027780D01*
X0010200Y0028778D02*
X0007468Y0028778D01*
X0007468Y0029777D02*
X0009787Y0029777D01*
X0009581Y0030775D02*
X0007468Y0030775D01*
X0007468Y0031774D02*
X0009581Y0031774D01*
X0009683Y0032772D02*
X0007468Y0032772D01*
X0007468Y0033771D02*
X0010096Y0033771D01*
X0010603Y0034769D02*
X0007468Y0034769D01*
X0007468Y0035768D02*
X0011601Y0035768D01*
X0013393Y0036766D02*
X0007468Y0036766D01*
X0007468Y0037765D02*
X0068477Y0037765D01*
X0067478Y0036766D02*
X0049107Y0036766D01*
X0050899Y0035768D02*
X0066480Y0035768D01*
X0066450Y0034769D02*
X0051897Y0034769D01*
X0062102Y0033771D02*
X0070950Y0033771D01*
X0070950Y0033450D02*
X0066450Y0033450D01*
X0066450Y0031762D01*
X0069262Y0028950D01*
X0070950Y0028950D01*
X0070950Y0033450D01*
X0070950Y0032772D02*
X0071550Y0032772D01*
X0071550Y0031774D02*
X0070950Y0031774D01*
X0070950Y0030775D02*
X0071550Y0030775D01*
X0071550Y0029777D02*
X0070950Y0029777D01*
X0068435Y0029777D02*
X0066096Y0029777D01*
X0067094Y0028778D02*
X0078064Y0028778D01*
X0077065Y0029777D02*
X0074065Y0029777D01*
X0075063Y0030775D02*
X0076067Y0030775D01*
X0076108Y0036766D02*
X0075022Y0036766D01*
X0074023Y0037765D02*
X0077107Y0037765D01*
X0078105Y0038763D02*
X0007468Y0038763D01*
X0007468Y0039762D02*
X0096997Y0039762D01*
X0095475Y0038763D02*
X0084395Y0038763D01*
X0085393Y0037765D02*
X0095033Y0037765D01*
X0097098Y0043988D02*
X0104379Y0043988D01*
X0105286Y0044364D01*
X0105980Y0045058D01*
X0106356Y0045966D01*
X0106356Y0054034D01*
X0105980Y0054942D01*
X0105922Y0055000D01*
X0105980Y0055058D01*
X0106250Y0055709D01*
X0106520Y0055058D01*
X0107214Y0054364D01*
X0107327Y0054317D01*
X0107214Y0054122D01*
X0107112Y0053741D01*
X0106356Y0053741D01*
X0107112Y0053741D02*
X0107112Y0050500D01*
X0111262Y0050500D01*
X0111262Y0049500D01*
X0112262Y0049500D01*
X0112262Y0050500D01*
X0116411Y0050500D01*
X0116411Y0053741D01*
X0201696Y0053741D01*
X0201717Y0053612D02*
X0202005Y0052724D01*
X0202429Y0051892D01*
X0202978Y0051137D01*
X0203637Y0050478D01*
X0204392Y0049929D01*
X0205224Y0049505D01*
X0206112Y0049217D01*
X0207000Y0049076D01*
X0207000Y0054500D01*
X0201576Y0054500D01*
X0201717Y0053612D01*
X0201999Y0052742D02*
X0116411Y0052742D01*
X0116411Y0051744D02*
X0202537Y0051744D01*
X0203370Y0050745D02*
X0158330Y0050745D01*
X0159329Y0049747D02*
X0204750Y0049747D01*
X0207000Y0049747D02*
X0207500Y0049747D01*
X0207500Y0050745D02*
X0207000Y0050745D01*
X0207000Y0051744D02*
X0207500Y0051744D01*
X0207500Y0052742D02*
X0207000Y0052742D01*
X0207000Y0053741D02*
X0207500Y0053741D01*
X0207000Y0054739D02*
X0116685Y0054739D01*
X0117004Y0055058D02*
X0117380Y0055966D01*
X0117380Y0064034D01*
X0117164Y0064555D01*
X0118033Y0064915D01*
X0118727Y0065610D01*
X0119103Y0066517D01*
X0119103Y0082499D01*
X0118727Y0083406D01*
X0118033Y0084101D01*
X0117126Y0084476D01*
X0108544Y0084476D01*
X0107636Y0084101D01*
X0106942Y0083406D01*
X0106566Y0082499D01*
X0106566Y0066517D01*
X0106942Y0065610D01*
X0107065Y0065487D01*
X0106520Y0064942D01*
X0106250Y0064291D01*
X0105980Y0064942D01*
X0105286Y0065636D01*
X0104379Y0066012D01*
X0097098Y0066012D01*
X0096190Y0065636D01*
X0095496Y0064942D01*
X0095120Y0064034D01*
X0095120Y0063668D01*
X0083798Y0063668D01*
X0082661Y0064806D01*
X0080578Y0065668D01*
X0071922Y0065668D01*
X0069839Y0064806D01*
X0068244Y0063211D01*
X0067381Y0061128D01*
X0067381Y0058872D01*
X0068244Y0056789D01*
X0069839Y0055194D01*
X0071922Y0054331D01*
X0080578Y0054331D01*
X0082661Y0055194D01*
X0083798Y0056331D01*
X0095120Y0056331D01*
X0095120Y0055966D01*
X0095496Y0055058D01*
X0095554Y0055000D01*
X0095496Y0054942D01*
X0095120Y0054034D01*
X0095120Y0045966D01*
X0095496Y0045058D01*
X0096190Y0044364D01*
X0097098Y0043988D01*
X0095800Y0044754D02*
X0007468Y0044754D01*
X0007468Y0043756D02*
X0150931Y0043756D01*
X0150931Y0044754D02*
X0105676Y0044754D01*
X0106268Y0045753D02*
X0107286Y0045753D01*
X0107214Y0045878D02*
X0107412Y0045536D01*
X0107691Y0045256D01*
X0108033Y0045059D01*
X0108415Y0044957D01*
X0111262Y0044957D01*
X0111262Y0049500D01*
X0107112Y0049500D01*
X0107112Y0046259D01*
X0107214Y0045878D01*
X0107112Y0046751D02*
X0106356Y0046751D01*
X0106356Y0047750D02*
X0107112Y0047750D01*
X0107112Y0048748D02*
X0106356Y0048748D01*
X0106356Y0049747D02*
X0111262Y0049747D01*
X0111262Y0048748D02*
X0112262Y0048748D01*
X0112262Y0049500D02*
X0112262Y0044957D01*
X0115109Y0044957D01*
X0115490Y0045059D01*
X0115832Y0045256D01*
X0116112Y0045536D01*
X0116309Y0045878D01*
X0116411Y0046259D01*
X0116411Y0049500D01*
X0112262Y0049500D01*
X0112262Y0049747D02*
X0153171Y0049747D01*
X0152173Y0048748D02*
X0116411Y0048748D01*
X0116411Y0047750D02*
X0151600Y0047750D01*
X0151322Y0046751D02*
X0116411Y0046751D01*
X0116237Y0045753D02*
X0150931Y0045753D01*
X0150931Y0042757D02*
X0007468Y0042757D01*
X0007468Y0041759D02*
X0150931Y0041759D01*
X0150931Y0040760D02*
X0007468Y0040760D01*
X0007468Y0045753D02*
X0095208Y0045753D01*
X0095120Y0046751D02*
X0007468Y0046751D01*
X0007468Y0047750D02*
X0095120Y0047750D01*
X0095120Y0048748D02*
X0007468Y0048748D01*
X0007468Y0049747D02*
X0095120Y0049747D01*
X0095120Y0050745D02*
X0007468Y0050745D01*
X0007468Y0051744D02*
X0095120Y0051744D01*
X0095120Y0052742D02*
X0007468Y0052742D01*
X0007468Y0053741D02*
X0095120Y0053741D01*
X0095412Y0054739D02*
X0081562Y0054739D01*
X0083204Y0055738D02*
X0095214Y0055738D01*
X0106064Y0054739D02*
X0106838Y0054739D01*
X0107112Y0052742D02*
X0106356Y0052742D01*
X0106356Y0051744D02*
X0107112Y0051744D01*
X0107112Y0050745D02*
X0106356Y0050745D01*
X0111262Y0047750D02*
X0112262Y0047750D01*
X0112262Y0046751D02*
X0111262Y0046751D01*
X0111262Y0045753D02*
X0112262Y0045753D01*
X0116411Y0050745D02*
X0154170Y0050745D01*
X0160327Y0048748D02*
X0207500Y0048748D01*
X0207500Y0047750D02*
X0160900Y0047750D01*
X0160900Y0046751D02*
X0207500Y0046751D01*
X0207500Y0045753D02*
X0160900Y0045753D01*
X0160900Y0044754D02*
X0207500Y0044754D01*
X0207500Y0043756D02*
X0160331Y0043756D01*
X0159333Y0042757D02*
X0207500Y0042757D01*
X0207500Y0041759D02*
X0159068Y0041759D01*
X0159068Y0040760D02*
X0206041Y0040760D01*
X0207000Y0040760D02*
X0207500Y0040760D01*
X0207500Y0039762D02*
X0207000Y0039762D01*
X0207000Y0038763D02*
X0207500Y0038763D01*
X0207500Y0037765D02*
X0207000Y0037765D01*
X0207000Y0036766D02*
X0207500Y0036766D01*
X0207500Y0035768D02*
X0207000Y0035768D01*
X0207000Y0034769D02*
X0170161Y0034769D01*
X0170161Y0034250D02*
X0170161Y0037491D01*
X0170059Y0037872D01*
X0169862Y0038214D01*
X0169582Y0038494D01*
X0169240Y0038691D01*
X0168859Y0038793D01*
X0166012Y0038793D01*
X0166012Y0034250D01*
X0170161Y0034250D01*
X0170161Y0033250D02*
X0166012Y0033250D01*
X0166012Y0034250D01*
X0165012Y0034250D01*
X0165012Y0038793D01*
X0162165Y0038793D01*
X0161783Y0038691D01*
X0161441Y0038494D01*
X0161162Y0038214D01*
X0160964Y0037872D01*
X0160862Y0037491D01*
X0160862Y0034250D01*
X0165012Y0034250D01*
X0165012Y0033250D01*
X0166012Y0033250D01*
X0166012Y0028707D01*
X0168859Y0028707D01*
X0169240Y0028809D01*
X0169582Y0029006D01*
X0169862Y0029286D01*
X0170059Y0029628D01*
X0170161Y0030009D01*
X0170161Y0033250D01*
X0170161Y0032772D02*
X0201990Y0032772D01*
X0202005Y0032724D02*
X0202429Y0031892D01*
X0202978Y0031137D01*
X0203637Y0030478D01*
X0204392Y0029929D01*
X0205224Y0029505D01*
X0206112Y0029217D01*
X0207000Y0029076D01*
X0207000Y0034500D01*
X0201576Y0034500D01*
X0201717Y0033612D01*
X0202005Y0032724D01*
X0202515Y0031774D02*
X0170161Y0031774D01*
X0170161Y0030775D02*
X0203340Y0030775D01*
X0204691Y0029777D02*
X0170099Y0029777D01*
X0169126Y0028778D02*
X0272531Y0028778D01*
X0272531Y0027780D02*
X0159068Y0027780D01*
X0159068Y0026781D02*
X0272531Y0026781D01*
X0272292Y0025783D02*
X0159068Y0025783D01*
X0159068Y0024784D02*
X0271293Y0024784D01*
X0270295Y0023786D02*
X0159068Y0023786D01*
X0159068Y0022787D02*
X0269296Y0022787D01*
X0268298Y0021789D02*
X0159068Y0021789D01*
X0159068Y0020790D02*
X0267299Y0020790D01*
X0266301Y0019792D02*
X0258366Y0019792D01*
X0257389Y0020768D02*
X0252611Y0020768D01*
X0250000Y0018158D01*
X0247389Y0020768D01*
X0242611Y0020768D01*
X0240000Y0018158D01*
X0237389Y0020768D01*
X0232611Y0020768D01*
X0230000Y0018158D01*
X0227389Y0020768D01*
X0222611Y0020768D01*
X0220000Y0018158D01*
X0217389Y0020768D01*
X0212611Y0020768D01*
X0210000Y0018158D01*
X0207389Y0020768D01*
X0202611Y0020768D01*
X0199231Y0017389D01*
X0199231Y0012611D01*
X0202611Y0009231D01*
X0207389Y0009231D01*
X0210000Y0011842D01*
X0212611Y0009231D01*
X0217389Y0009231D01*
X0220000Y0011842D01*
X0222611Y0009231D01*
X0227389Y0009231D01*
X0230000Y0011842D01*
X0232611Y0009231D01*
X0237389Y0009231D01*
X0240000Y0011842D01*
X0242611Y0009231D01*
X0247389Y0009231D01*
X0250000Y0011842D01*
X0252611Y0009231D01*
X0257389Y0009231D01*
X0260768Y0012611D01*
X0260768Y0017389D01*
X0257389Y0020768D01*
X0259365Y0018793D02*
X0265302Y0018793D01*
X0264304Y0017795D02*
X0260363Y0017795D01*
X0260768Y0016796D02*
X0263305Y0016796D01*
X0262658Y0015798D02*
X0260768Y0015798D01*
X0260768Y0014799D02*
X0262531Y0014799D01*
X0262531Y0013801D02*
X0260768Y0013801D01*
X0260768Y0012802D02*
X0262531Y0012802D01*
X0262531Y0011803D02*
X0259961Y0011803D01*
X0258963Y0010805D02*
X0262531Y0010805D01*
X0262531Y0009806D02*
X0257964Y0009806D01*
X0252036Y0009806D02*
X0247964Y0009806D01*
X0248963Y0010805D02*
X0251037Y0010805D01*
X0250039Y0011803D02*
X0249961Y0011803D01*
X0242036Y0009806D02*
X0237964Y0009806D01*
X0238963Y0010805D02*
X0241037Y0010805D01*
X0240039Y0011803D02*
X0239961Y0011803D01*
X0232036Y0009806D02*
X0227964Y0009806D01*
X0228963Y0010805D02*
X0231037Y0010805D01*
X0230039Y0011803D02*
X0229961Y0011803D01*
X0229365Y0018793D02*
X0230635Y0018793D01*
X0231634Y0019792D02*
X0228366Y0019792D01*
X0221634Y0019792D02*
X0218366Y0019792D01*
X0219365Y0018793D02*
X0220635Y0018793D01*
X0220039Y0011803D02*
X0219961Y0011803D01*
X0218963Y0010805D02*
X0221037Y0010805D01*
X0222036Y0009806D02*
X0217964Y0009806D01*
X0212036Y0009806D02*
X0207964Y0009806D01*
X0208963Y0010805D02*
X0211037Y0010805D01*
X0210039Y0011803D02*
X0209961Y0011803D01*
X0202036Y0009806D02*
X0187964Y0009806D01*
X0187389Y0009231D02*
X0190768Y0012611D01*
X0190768Y0017389D01*
X0187389Y0020768D01*
X0182611Y0020768D01*
X0179315Y0017473D01*
X0176988Y0019800D01*
X0175484Y0019800D01*
X0175484Y0015484D01*
X0174516Y0015484D01*
X0174516Y0014516D01*
X0175484Y0014516D01*
X0175484Y0010200D01*
X0176988Y0010200D01*
X0179315Y0012527D01*
X0182611Y0009231D01*
X0187389Y0009231D01*
X0188963Y0010805D02*
X0201037Y0010805D01*
X0200039Y0011803D02*
X0189961Y0011803D01*
X0190768Y0012802D02*
X0199231Y0012802D01*
X0199231Y0013801D02*
X0190768Y0013801D01*
X0190768Y0014799D02*
X0199231Y0014799D01*
X0199231Y0015798D02*
X0190768Y0015798D01*
X0190768Y0016796D02*
X0199231Y0016796D01*
X0199637Y0017795D02*
X0190363Y0017795D01*
X0189365Y0018793D02*
X0200635Y0018793D01*
X0201634Y0019792D02*
X0188366Y0019792D01*
X0181634Y0019792D02*
X0176997Y0019792D01*
X0177995Y0018793D02*
X0180635Y0018793D01*
X0179637Y0017795D02*
X0178994Y0017795D01*
X0175484Y0017795D02*
X0174516Y0017795D01*
X0174516Y0018793D02*
X0175484Y0018793D01*
X0175484Y0019792D02*
X0174516Y0019792D01*
X0174516Y0019800D02*
X0173012Y0019800D01*
X0170200Y0016988D01*
X0170200Y0015484D01*
X0174516Y0015484D01*
X0174516Y0019800D01*
X0173003Y0019792D02*
X0166997Y0019792D01*
X0167995Y0018793D02*
X0172005Y0018793D01*
X0171006Y0017795D02*
X0168994Y0017795D01*
X0169800Y0016796D02*
X0170200Y0016796D01*
X0170200Y0015798D02*
X0169800Y0015798D01*
X0170200Y0014516D02*
X0170200Y0013012D01*
X0173012Y0010200D01*
X0174516Y0010200D01*
X0174516Y0014516D01*
X0170200Y0014516D01*
X0170200Y0013801D02*
X0169800Y0013801D01*
X0169590Y0012802D02*
X0170410Y0012802D01*
X0171408Y0011803D02*
X0168592Y0011803D01*
X0167593Y0010805D02*
X0172407Y0010805D01*
X0174516Y0010805D02*
X0175484Y0010805D01*
X0175484Y0011803D02*
X0174516Y0011803D01*
X0174516Y0012802D02*
X0175484Y0012802D01*
X0175484Y0013801D02*
X0174516Y0013801D01*
X0174516Y0014799D02*
X0165484Y0014799D01*
X0165484Y0013801D02*
X0164516Y0013801D01*
X0164516Y0012802D02*
X0165484Y0012802D01*
X0165484Y0011803D02*
X0164516Y0011803D01*
X0164516Y0010805D02*
X0165484Y0010805D01*
X0162407Y0010805D02*
X0158963Y0010805D01*
X0159961Y0011803D02*
X0161408Y0011803D01*
X0157964Y0009806D02*
X0182036Y0009806D01*
X0181037Y0010805D02*
X0177593Y0010805D01*
X0178592Y0011803D02*
X0180039Y0011803D01*
X0175484Y0015798D02*
X0174516Y0015798D01*
X0174516Y0016796D02*
X0175484Y0016796D01*
X0165484Y0016796D02*
X0164516Y0016796D01*
X0164516Y0015798D02*
X0165484Y0015798D01*
X0165484Y0017795D02*
X0164516Y0017795D01*
X0164516Y0018793D02*
X0165484Y0018793D01*
X0165484Y0019792D02*
X0164516Y0019792D01*
X0163003Y0019792D02*
X0159068Y0019792D01*
X0159365Y0018793D02*
X0162005Y0018793D01*
X0161006Y0017795D02*
X0160363Y0017795D01*
X0150931Y0019792D02*
X0148366Y0019792D01*
X0149365Y0018793D02*
X0150635Y0018793D01*
X0150931Y0020790D02*
X0138211Y0020790D01*
X0138366Y0019792D02*
X0141634Y0019792D01*
X0140635Y0018793D02*
X0139365Y0018793D01*
X0137797Y0021789D02*
X0150931Y0021789D01*
X0150931Y0022787D02*
X0136835Y0022787D01*
X0135837Y0023786D02*
X0150931Y0023786D01*
X0150931Y0024784D02*
X0134838Y0024784D01*
X0133840Y0025783D02*
X0150931Y0025783D01*
X0150931Y0026781D02*
X0132473Y0026781D01*
X0117467Y0029777D02*
X0148870Y0029777D01*
X0149276Y0028778D02*
X0117066Y0028778D01*
X0115603Y0027780D02*
X0150747Y0027780D01*
X0159700Y0028778D02*
X0161898Y0028778D01*
X0161783Y0028809D02*
X0162165Y0028707D01*
X0165012Y0028707D01*
X0165012Y0033250D01*
X0160862Y0033250D01*
X0160862Y0030009D01*
X0160964Y0029628D01*
X0161162Y0029286D01*
X0161441Y0029006D01*
X0161783Y0028809D01*
X0160924Y0029777D02*
X0160106Y0029777D01*
X0160106Y0030775D02*
X0160862Y0030775D01*
X0160862Y0031774D02*
X0160106Y0031774D01*
X0160106Y0032772D02*
X0160862Y0032772D01*
X0160106Y0033771D02*
X0165012Y0033771D01*
X0165012Y0034769D02*
X0166012Y0034769D01*
X0166012Y0033771D02*
X0201692Y0033771D01*
X0201619Y0035768D02*
X0170161Y0035768D01*
X0170161Y0036766D02*
X0201840Y0036766D01*
X0202254Y0037765D02*
X0170088Y0037765D01*
X0168971Y0038763D02*
X0202905Y0038763D01*
X0203967Y0039762D02*
X0159068Y0039762D01*
X0159659Y0038763D02*
X0162053Y0038763D01*
X0160936Y0037765D02*
X0160106Y0037765D01*
X0160106Y0036766D02*
X0160862Y0036766D01*
X0160862Y0035768D02*
X0160106Y0035768D01*
X0160106Y0034769D02*
X0160862Y0034769D01*
X0165012Y0035768D02*
X0166012Y0035768D01*
X0166012Y0036766D02*
X0165012Y0036766D01*
X0165012Y0037765D02*
X0166012Y0037765D01*
X0166012Y0038763D02*
X0165012Y0038763D01*
X0165012Y0032772D02*
X0166012Y0032772D01*
X0166012Y0031774D02*
X0165012Y0031774D01*
X0165012Y0030775D02*
X0166012Y0030775D01*
X0166012Y0029777D02*
X0165012Y0029777D01*
X0165012Y0028778D02*
X0166012Y0028778D01*
X0150931Y0039762D02*
X0150848Y0039762D01*
X0149940Y0039386D01*
X0149246Y0038692D01*
X0148870Y0037784D01*
X0148870Y0037018D01*
X0117467Y0037018D01*
X0117467Y0037790D01*
X0117091Y0038698D01*
X0116396Y0039392D01*
X0115489Y0039768D01*
X0117025Y0038763D02*
X0149318Y0038763D01*
X0148870Y0037765D02*
X0117467Y0037765D01*
X0108194Y0039762D02*
X0104306Y0039762D01*
X0105828Y0038763D02*
X0106672Y0038763D01*
X0106630Y0028778D02*
X0105870Y0028778D01*
X0104407Y0027780D02*
X0108093Y0027780D01*
X0108777Y0026781D02*
X0069091Y0026781D01*
X0068093Y0027780D02*
X0096897Y0027780D01*
X0095434Y0028778D02*
X0084436Y0028778D01*
X0085435Y0029777D02*
X0095033Y0029777D01*
X0104415Y0022787D02*
X0073085Y0022787D01*
X0072087Y0023786D02*
X0105413Y0023786D01*
X0106412Y0024784D02*
X0071088Y0024784D01*
X0070090Y0025783D02*
X0107410Y0025783D01*
X0110664Y0019792D02*
X0111634Y0019792D01*
X0110635Y0018793D02*
X0109665Y0018793D01*
X0109637Y0017795D02*
X0108667Y0017795D01*
X0109231Y0016796D02*
X0107668Y0016796D01*
X0106413Y0015798D02*
X0109231Y0015798D01*
X0109231Y0012802D02*
X0051882Y0012802D01*
X0051929Y0013100D02*
X0051834Y0012499D01*
X0051606Y0011796D01*
X0051270Y0011137D01*
X0050835Y0010538D01*
X0050312Y0010015D01*
X0049713Y0009580D01*
X0049054Y0009244D01*
X0048351Y0009016D01*
X0047620Y0008900D01*
X0044550Y0008900D01*
X0044550Y0013100D01*
X0051929Y0013100D01*
X0051608Y0011803D02*
X0110039Y0011803D01*
X0111037Y0010805D02*
X0051029Y0010805D01*
X0050025Y0009806D02*
X0112036Y0009806D01*
X0117964Y0009806D02*
X0122036Y0009806D01*
X0121037Y0010805D02*
X0118963Y0010805D01*
X0119961Y0011803D02*
X0120039Y0011803D01*
X0127964Y0009806D02*
X0132036Y0009806D01*
X0131037Y0010805D02*
X0128963Y0010805D01*
X0129961Y0011803D02*
X0130039Y0011803D01*
X0137964Y0009806D02*
X0142036Y0009806D01*
X0141037Y0010805D02*
X0138963Y0010805D01*
X0139961Y0011803D02*
X0140039Y0011803D01*
X0147964Y0009806D02*
X0152036Y0009806D01*
X0151037Y0010805D02*
X0148963Y0010805D01*
X0149961Y0011803D02*
X0150039Y0011803D01*
X0116411Y0053741D02*
X0116309Y0054122D01*
X0116197Y0054317D01*
X0116310Y0054364D01*
X0117004Y0055058D01*
X0117286Y0055738D02*
X0201614Y0055738D01*
X0201830Y0056737D02*
X0117380Y0056737D01*
X0117380Y0057735D02*
X0202239Y0057735D01*
X0202884Y0058734D02*
X0117380Y0058734D01*
X0117380Y0059732D02*
X0203926Y0059732D01*
X0205950Y0060731D02*
X0117380Y0060731D01*
X0117380Y0061729D02*
X0210000Y0061729D01*
X0210000Y0060731D02*
X0209050Y0060731D01*
X0208000Y0060731D02*
X0207000Y0060731D01*
X0207000Y0059732D02*
X0207500Y0059732D01*
X0207500Y0058734D02*
X0207000Y0058734D01*
X0207000Y0057735D02*
X0207500Y0057735D01*
X0207500Y0056737D02*
X0207000Y0056737D01*
X0207000Y0055738D02*
X0207500Y0055738D01*
X0210000Y0062728D02*
X0117380Y0062728D01*
X0117380Y0063726D02*
X0210000Y0063726D01*
X0210000Y0064725D02*
X0205171Y0064725D01*
X0204724Y0064539D02*
X0205631Y0064915D01*
X0206326Y0065610D01*
X0206702Y0066517D01*
X0206702Y0082499D01*
X0206326Y0083406D01*
X0205631Y0084101D01*
X0204724Y0084476D01*
X0196142Y0084476D01*
X0195235Y0084101D01*
X0194540Y0083406D01*
X0194165Y0082499D01*
X0194165Y0066517D01*
X0194540Y0065610D01*
X0195235Y0064915D01*
X0196142Y0064539D01*
X0204724Y0064539D01*
X0206373Y0065723D02*
X0210000Y0065723D01*
X0210000Y0066722D02*
X0206702Y0066722D01*
X0206702Y0067720D02*
X0210000Y0067720D01*
X0210000Y0068719D02*
X0206702Y0068719D01*
X0206702Y0069717D02*
X0210000Y0069717D01*
X0210000Y0070716D02*
X0206702Y0070716D01*
X0206702Y0071714D02*
X0210000Y0071714D01*
X0210000Y0072713D02*
X0206702Y0072713D01*
X0206702Y0073711D02*
X0210000Y0073711D01*
X0210000Y0074710D02*
X0206702Y0074710D01*
X0206702Y0075708D02*
X0210000Y0075708D01*
X0210000Y0076707D02*
X0206702Y0076707D01*
X0206702Y0077705D02*
X0210000Y0077705D01*
X0210000Y0078704D02*
X0206702Y0078704D01*
X0206702Y0079702D02*
X0210000Y0079702D01*
X0210000Y0080701D02*
X0206702Y0080701D01*
X0206702Y0081699D02*
X0210000Y0081699D01*
X0210000Y0082698D02*
X0206619Y0082698D01*
X0206036Y0083696D02*
X0210000Y0083696D01*
X0210000Y0084695D02*
X0151143Y0084695D01*
X0151143Y0084673D02*
X0151143Y0086526D01*
X0150645Y0087727D01*
X0149650Y0088723D01*
X0149650Y0090676D01*
X0146926Y0093400D01*
X0143074Y0093400D01*
X0140350Y0090676D01*
X0140350Y0086824D01*
X0142818Y0084356D01*
X0142676Y0084297D01*
X0141981Y0083603D01*
X0141606Y0082696D01*
X0141606Y0066714D01*
X0141981Y0065806D01*
X0142676Y0065112D01*
X0143583Y0064736D01*
X0152165Y0064736D01*
X0153072Y0065112D01*
X0153767Y0065806D01*
X0154143Y0066714D01*
X0154143Y0082696D01*
X0153767Y0083603D01*
X0153072Y0084297D01*
X0152165Y0084673D01*
X0151143Y0084673D01*
X0151143Y0085693D02*
X0225701Y0085693D01*
X0225701Y0086692D02*
X0151074Y0086692D01*
X0150660Y0087690D02*
X0225701Y0087690D01*
X0225701Y0088689D02*
X0149683Y0088689D01*
X0149650Y0089687D02*
X0225889Y0089687D01*
X0226623Y0090686D02*
X0149640Y0090686D01*
X0148641Y0091684D02*
X0253400Y0091684D01*
X0253400Y0090686D02*
X0244715Y0090686D01*
X0245449Y0089687D02*
X0264400Y0089687D01*
X0264400Y0090686D02*
X0265400Y0090686D01*
X0265400Y0091684D02*
X0264400Y0091684D01*
X0264400Y0092683D02*
X0265400Y0092683D01*
X0265400Y0093681D02*
X0264400Y0093681D01*
X0264400Y0094680D02*
X0265400Y0094680D01*
X0265400Y0095678D02*
X0264400Y0095678D01*
X0265016Y0100000D02*
X0265016Y0104516D01*
X0265984Y0104516D01*
X0265984Y0100000D01*
X0267571Y0100000D01*
X0270500Y0102929D01*
X0270500Y0104516D01*
X0265984Y0104516D01*
X0265984Y0105484D01*
X0270500Y0105484D01*
X0270500Y0107071D01*
X0268256Y0109315D01*
X0271468Y0112528D01*
X0271468Y0117472D01*
X0268941Y0120000D01*
X0271468Y0122528D01*
X0271468Y0127472D01*
X0267972Y0130968D01*
X0263028Y0130968D01*
X0261346Y0129287D01*
X0261093Y0129898D01*
X0260398Y0130593D01*
X0259491Y0130968D01*
X0251509Y0130968D01*
X0250602Y0130593D01*
X0249907Y0129898D01*
X0249531Y0128991D01*
X0249531Y0121009D01*
X0249907Y0120102D01*
X0250602Y0119407D01*
X0251213Y0119154D01*
X0249531Y0117472D01*
X0249531Y0112528D01*
X0252059Y0110000D01*
X0249531Y0107472D01*
X0249531Y0102528D01*
X0253028Y0099031D01*
X0257972Y0099031D01*
X0261185Y0102244D01*
X0263429Y0100000D01*
X0265016Y0100000D01*
X0265016Y0100671D02*
X0265984Y0100671D01*
X0265984Y0101670D02*
X0265016Y0101670D01*
X0265016Y0102668D02*
X0265984Y0102668D01*
X0265984Y0103667D02*
X0265016Y0103667D01*
X0265984Y0104665D02*
X0272531Y0104665D01*
X0272531Y0103667D02*
X0270500Y0103667D01*
X0270239Y0102668D02*
X0272531Y0102668D01*
X0272531Y0101670D02*
X0269241Y0101670D01*
X0268242Y0100671D02*
X0272531Y0100671D01*
X0272531Y0099672D02*
X0258613Y0099672D01*
X0259612Y0100671D02*
X0262758Y0100671D01*
X0261759Y0101670D02*
X0260610Y0101670D01*
X0254114Y0095678D02*
X0089518Y0095678D01*
X0089518Y0094680D02*
X0253422Y0094680D01*
X0253400Y0093681D02*
X0089518Y0093681D01*
X0089518Y0092683D02*
X0129857Y0092683D01*
X0130574Y0093400D02*
X0127850Y0090676D01*
X0127850Y0088723D01*
X0127583Y0088456D01*
X0127086Y0087254D01*
X0127086Y0084476D01*
X0126063Y0084476D01*
X0125156Y0084101D01*
X0124462Y0083406D01*
X0124086Y0082499D01*
X0124086Y0066517D01*
X0124462Y0065610D01*
X0125156Y0064915D01*
X0126063Y0064539D01*
X0134645Y0064539D01*
X0135553Y0064915D01*
X0136247Y0065610D01*
X0136623Y0066517D01*
X0136623Y0082499D01*
X0136247Y0083406D01*
X0135553Y0084101D01*
X0134756Y0084431D01*
X0137150Y0086824D01*
X0137150Y0090676D01*
X0134426Y0093400D01*
X0130574Y0093400D01*
X0128859Y0091684D02*
X0089518Y0091684D01*
X0089518Y0090686D02*
X0127860Y0090686D01*
X0127850Y0089687D02*
X0089518Y0089687D01*
X0089518Y0088689D02*
X0127817Y0088689D01*
X0127266Y0087690D02*
X0089776Y0087690D01*
X0089518Y0087948D02*
X0089518Y0151146D01*
X0102604Y0164231D01*
X0125650Y0164231D01*
X0126851Y0164729D01*
X0127771Y0165649D01*
X0131771Y0169649D01*
X0132268Y0170850D01*
X0132268Y0200111D01*
X0134000Y0201842D01*
X0136611Y0199231D01*
X0141389Y0199231D01*
X0144000Y0201842D01*
X0146611Y0199231D01*
X0151389Y0199231D01*
X0154000Y0201842D01*
X0156611Y0199231D01*
X0161389Y0199231D01*
X0164000Y0201842D01*
X0166611Y0199231D01*
X0171389Y0199231D01*
X0174768Y0202611D01*
X0174768Y0207389D01*
X0171389Y0210768D01*
X0166611Y0210768D01*
X0164000Y0208158D01*
X0161389Y0210768D01*
X0156611Y0210768D01*
X0154000Y0208158D01*
X0151389Y0210768D01*
X0146611Y0210768D01*
X0144000Y0208158D01*
X0141389Y0210768D01*
X0136611Y0210768D01*
X0134000Y0208158D01*
X0131389Y0210768D01*
X0126611Y0210768D01*
X0124000Y0208158D01*
X0121389Y0210768D01*
X0116611Y0210768D01*
X0113315Y0207473D01*
X0110988Y0209800D01*
X0109484Y0209800D01*
X0109484Y0205484D01*
X0108516Y0205484D01*
X0108516Y0209800D01*
X0107012Y0209800D01*
X0104685Y0207473D01*
X0101389Y0210768D01*
X0096611Y0210768D01*
X0094000Y0208158D01*
X0091389Y0210768D01*
X0086611Y0210768D01*
X0084000Y0208158D01*
X0081389Y0210768D01*
X0076611Y0210768D01*
X0073231Y0207389D01*
X0073231Y0202611D01*
X0076611Y0199231D01*
X0081389Y0199231D01*
X0084000Y0201842D01*
X0086611Y0199231D01*
X0091389Y0199231D01*
X0094000Y0201842D01*
X0096611Y0199231D01*
X0101389Y0199231D01*
X0104685Y0202527D01*
X0107012Y0200200D01*
X0108516Y0200200D01*
X0108516Y0204516D01*
X0109484Y0204516D01*
X0109484Y0200200D01*
X0110988Y0200200D01*
X0113315Y0202527D01*
X0115731Y0200111D01*
X0115731Y0196217D01*
X0114710Y0196217D01*
X0113802Y0195841D01*
X0113108Y0195146D01*
X0112732Y0194239D01*
X0112732Y0186958D01*
X0113108Y0186051D01*
X0113802Y0185356D01*
X0114662Y0185000D01*
X0113802Y0184644D01*
X0113108Y0183949D01*
X0112732Y0183042D01*
X0112732Y0182018D01*
X0112389Y0182018D01*
X0109889Y0184518D01*
X0105111Y0184518D01*
X0101815Y0181223D01*
X0099488Y0183550D01*
X0097800Y0183550D01*
X0097800Y0179050D01*
X0097200Y0179050D01*
X0097200Y0183550D01*
X0095512Y0183550D01*
X0092700Y0180738D01*
X0092700Y0179050D01*
X0097200Y0179050D01*
X0097200Y0178450D01*
X0097800Y0178450D01*
X0097800Y0173950D01*
X0099488Y0173950D01*
X0101815Y0176277D01*
X0105111Y0172981D01*
X0109889Y0172981D01*
X0112389Y0175481D01*
X0112848Y0175481D01*
X0113108Y0174854D01*
X0113802Y0174159D01*
X0114710Y0173783D01*
X0122790Y0173783D01*
X0123698Y0174159D01*
X0124392Y0174854D01*
X0124768Y0175761D01*
X0124768Y0183042D01*
X0124392Y0183949D01*
X0123698Y0184644D01*
X0122838Y0185000D01*
X0123698Y0185356D01*
X0124392Y0186051D01*
X0124768Y0186958D01*
X0124768Y0194239D01*
X0124392Y0195146D01*
X0123698Y0195841D01*
X0122790Y0196217D01*
X0122268Y0196217D01*
X0122268Y0200111D01*
X0124000Y0201842D01*
X0125731Y0200111D01*
X0125731Y0172854D01*
X0123646Y0170768D01*
X0100600Y0170768D01*
X0099399Y0170271D01*
X0084399Y0155271D01*
X0083479Y0154351D01*
X0082981Y0153150D01*
X0082981Y0087948D01*
X0081444Y0086411D01*
X0080581Y0084328D01*
X0080581Y0075672D01*
X0081444Y0073589D01*
X0083039Y0071994D01*
X0085122Y0071131D01*
X0087378Y0071131D01*
X0089461Y0071994D01*
X0091056Y0073589D01*
X0091918Y0075672D01*
X0091918Y0084328D01*
X0091056Y0086411D01*
X0089518Y0087948D01*
X0090775Y0086692D02*
X0127086Y0086692D01*
X0127086Y0085693D02*
X0091353Y0085693D01*
X0091766Y0084695D02*
X0127086Y0084695D01*
X0124752Y0083696D02*
X0118437Y0083696D01*
X0119021Y0082698D02*
X0124168Y0082698D01*
X0124086Y0081699D02*
X0119103Y0081699D01*
X0119103Y0080701D02*
X0124086Y0080701D01*
X0124086Y0079702D02*
X0119103Y0079702D01*
X0119103Y0078704D02*
X0124086Y0078704D01*
X0124086Y0077705D02*
X0119103Y0077705D01*
X0119103Y0076707D02*
X0124086Y0076707D01*
X0124086Y0075708D02*
X0119103Y0075708D01*
X0119103Y0074710D02*
X0124086Y0074710D01*
X0124086Y0073711D02*
X0119103Y0073711D01*
X0119103Y0072713D02*
X0124086Y0072713D01*
X0124086Y0071714D02*
X0119103Y0071714D01*
X0119103Y0070716D02*
X0124086Y0070716D01*
X0124086Y0069717D02*
X0119103Y0069717D01*
X0119103Y0068719D02*
X0124086Y0068719D01*
X0124086Y0067720D02*
X0119103Y0067720D01*
X0119103Y0066722D02*
X0124086Y0066722D01*
X0124415Y0065723D02*
X0118774Y0065723D01*
X0117573Y0064725D02*
X0125616Y0064725D01*
X0135093Y0064725D02*
X0160655Y0064725D01*
X0161103Y0064539D02*
X0169685Y0064539D01*
X0170592Y0064915D01*
X0171286Y0065610D01*
X0171662Y0066517D01*
X0171662Y0082499D01*
X0171286Y0083406D01*
X0170592Y0084101D01*
X0169685Y0084476D01*
X0161103Y0084476D01*
X0160195Y0084101D01*
X0159501Y0083406D01*
X0159125Y0082499D01*
X0159125Y0066517D01*
X0159501Y0065610D01*
X0160195Y0064915D01*
X0161103Y0064539D01*
X0159454Y0065723D02*
X0153683Y0065723D01*
X0154143Y0066722D02*
X0159125Y0066722D01*
X0159125Y0067720D02*
X0154143Y0067720D01*
X0154143Y0068719D02*
X0159125Y0068719D01*
X0159125Y0069717D02*
X0154143Y0069717D01*
X0154143Y0070716D02*
X0159125Y0070716D01*
X0159125Y0071714D02*
X0154143Y0071714D01*
X0154143Y0072713D02*
X0159125Y0072713D01*
X0159125Y0073711D02*
X0154143Y0073711D01*
X0154143Y0074710D02*
X0159125Y0074710D01*
X0159125Y0075708D02*
X0154143Y0075708D01*
X0154143Y0076707D02*
X0159125Y0076707D01*
X0159125Y0077705D02*
X0154143Y0077705D01*
X0154143Y0078704D02*
X0159125Y0078704D01*
X0159125Y0079702D02*
X0154143Y0079702D01*
X0154143Y0080701D02*
X0159125Y0080701D01*
X0159125Y0081699D02*
X0154143Y0081699D01*
X0154142Y0082698D02*
X0159208Y0082698D01*
X0159791Y0083696D02*
X0153673Y0083696D01*
X0147643Y0092683D02*
X0253400Y0092683D01*
X0253400Y0088689D02*
X0245638Y0088689D01*
X0245638Y0087690D02*
X0253400Y0087690D01*
X0253400Y0086692D02*
X0245638Y0086692D01*
X0245638Y0085693D02*
X0253400Y0085693D01*
X0265400Y0089687D02*
X0272531Y0089687D01*
X0272531Y0096677D02*
X0089518Y0096677D01*
X0089518Y0097675D02*
X0272531Y0097675D01*
X0272531Y0098674D02*
X0244568Y0098674D01*
X0244567Y0098672D02*
X0244669Y0099054D01*
X0244669Y0102551D01*
X0236169Y0102551D01*
X0236169Y0097751D01*
X0243367Y0097751D01*
X0243748Y0097853D01*
X0244090Y0098051D01*
X0244370Y0098330D01*
X0244567Y0098672D01*
X0244669Y0099672D02*
X0252387Y0099672D01*
X0251388Y0100671D02*
X0244669Y0100671D01*
X0244669Y0101670D02*
X0250390Y0101670D01*
X0249531Y0102668D02*
X0236169Y0102668D01*
X0236169Y0102551D02*
X0236169Y0103551D01*
X0235169Y0103551D01*
X0235169Y0102551D01*
X0226669Y0102551D01*
X0226669Y0099054D01*
X0226772Y0098672D01*
X0226969Y0098330D01*
X0227248Y0098051D01*
X0227590Y0097853D01*
X0227972Y0097751D01*
X0235169Y0097751D01*
X0235169Y0102551D01*
X0236169Y0102551D01*
X0236169Y0101670D02*
X0235169Y0101670D01*
X0235169Y0102668D02*
X0089518Y0102668D01*
X0089518Y0101670D02*
X0226669Y0101670D01*
X0226669Y0100671D02*
X0089518Y0100671D01*
X0089518Y0099672D02*
X0226669Y0099672D01*
X0226771Y0098674D02*
X0089518Y0098674D01*
X0089518Y0103667D02*
X0226669Y0103667D01*
X0226669Y0103551D02*
X0235169Y0103551D01*
X0235169Y0108351D01*
X0227972Y0108351D01*
X0227590Y0108249D01*
X0227248Y0108051D01*
X0226969Y0107772D01*
X0226772Y0107430D01*
X0226669Y0107049D01*
X0226669Y0103551D01*
X0226669Y0104665D02*
X0089518Y0104665D01*
X0089518Y0105664D02*
X0226669Y0105664D01*
X0226669Y0106662D02*
X0089518Y0106662D01*
X0089518Y0107661D02*
X0226905Y0107661D01*
X0235169Y0107661D02*
X0236169Y0107661D01*
X0236169Y0108351D02*
X0236169Y0103551D01*
X0244669Y0103551D01*
X0244669Y0107049D01*
X0244567Y0107430D01*
X0244370Y0107772D01*
X0244090Y0108051D01*
X0243748Y0108249D01*
X0243367Y0108351D01*
X0236169Y0108351D01*
X0236169Y0106662D02*
X0235169Y0106662D01*
X0235169Y0105664D02*
X0236169Y0105664D01*
X0236169Y0104665D02*
X0235169Y0104665D01*
X0235169Y0103667D02*
X0236169Y0103667D01*
X0236169Y0100671D02*
X0235169Y0100671D01*
X0235169Y0099672D02*
X0236169Y0099672D01*
X0236169Y0098674D02*
X0235169Y0098674D01*
X0244669Y0103667D02*
X0249531Y0103667D01*
X0249531Y0104665D02*
X0244669Y0104665D01*
X0244669Y0105664D02*
X0249531Y0105664D01*
X0249531Y0106662D02*
X0244669Y0106662D01*
X0244434Y0107661D02*
X0249720Y0107661D01*
X0250718Y0108659D02*
X0089518Y0108659D01*
X0089518Y0109658D02*
X0251717Y0109658D01*
X0251403Y0110656D02*
X0089518Y0110656D01*
X0089518Y0111655D02*
X0250405Y0111655D01*
X0249531Y0112653D02*
X0089518Y0112653D01*
X0089518Y0113652D02*
X0249531Y0113652D01*
X0249531Y0114650D02*
X0089518Y0114650D01*
X0089518Y0115649D02*
X0249531Y0115649D01*
X0249531Y0116647D02*
X0244489Y0116647D01*
X0244567Y0116782D02*
X0244370Y0116440D01*
X0244090Y0116161D01*
X0243748Y0115964D01*
X0243367Y0115861D01*
X0236169Y0115861D01*
X0236169Y0120661D01*
X0235169Y0120661D01*
X0235169Y0115861D01*
X0227972Y0115861D01*
X0227590Y0115964D01*
X0227248Y0116161D01*
X0226969Y0116440D01*
X0226772Y0116782D01*
X0226669Y0117164D01*
X0226669Y0120661D01*
X0235169Y0120661D01*
X0235169Y0121661D01*
X0226669Y0121661D01*
X0226669Y0125159D01*
X0226772Y0125540D01*
X0226969Y0125882D01*
X0227248Y0126162D01*
X0227590Y0126359D01*
X0227972Y0126461D01*
X0235169Y0126461D01*
X0235169Y0121661D01*
X0236169Y0121661D01*
X0244669Y0121661D01*
X0244669Y0125159D01*
X0244567Y0125540D01*
X0244370Y0125882D01*
X0244090Y0126162D01*
X0243748Y0126359D01*
X0243367Y0126461D01*
X0236169Y0126461D01*
X0236169Y0121661D01*
X0236169Y0120661D01*
X0244669Y0120661D01*
X0244669Y0117164D01*
X0244567Y0116782D01*
X0244669Y0117646D02*
X0249705Y0117646D01*
X0250703Y0118644D02*
X0244669Y0118644D01*
X0244669Y0119643D02*
X0250366Y0119643D01*
X0249684Y0120641D02*
X0244669Y0120641D01*
X0244669Y0122638D02*
X0249531Y0122638D01*
X0249531Y0121640D02*
X0236169Y0121640D01*
X0236169Y0122638D02*
X0235169Y0122638D01*
X0235169Y0121640D02*
X0089518Y0121640D01*
X0089518Y0122638D02*
X0226669Y0122638D01*
X0226669Y0123637D02*
X0089518Y0123637D01*
X0089518Y0124635D02*
X0226669Y0124635D01*
X0226825Y0125634D02*
X0089518Y0125634D01*
X0089518Y0126632D02*
X0249531Y0126632D01*
X0249531Y0125634D02*
X0244513Y0125634D01*
X0244669Y0124635D02*
X0249531Y0124635D01*
X0249531Y0123637D02*
X0244669Y0123637D01*
X0249531Y0127631D02*
X0089518Y0127631D01*
X0089518Y0128629D02*
X0249531Y0128629D01*
X0249795Y0129628D02*
X0089518Y0129628D01*
X0089518Y0130626D02*
X0250683Y0130626D01*
X0245262Y0134073D02*
X0245638Y0134981D01*
X0245638Y0138634D01*
X0247305Y0140301D01*
X0248449Y0141445D01*
X0249068Y0142941D01*
X0249068Y0157634D01*
X0249942Y0157996D01*
X0250000Y0158054D01*
X0250058Y0157996D01*
X0250966Y0157620D01*
X0259034Y0157620D01*
X0259942Y0157996D01*
X0260636Y0158690D01*
X0261012Y0159598D01*
X0261012Y0166879D01*
X0260636Y0167786D01*
X0259942Y0168480D01*
X0259034Y0168856D01*
X0250966Y0168856D01*
X0250058Y0168480D01*
X0250000Y0168422D01*
X0249942Y0168480D01*
X0249034Y0168856D01*
X0240966Y0168856D01*
X0240058Y0168480D01*
X0240000Y0168422D01*
X0239942Y0168480D01*
X0239034Y0168856D01*
X0230966Y0168856D01*
X0230058Y0168480D01*
X0229364Y0167786D01*
X0228988Y0166879D01*
X0228988Y0159598D01*
X0229364Y0158690D01*
X0230058Y0157996D01*
X0230966Y0157620D01*
X0239034Y0157620D01*
X0239942Y0157996D01*
X0240000Y0158054D01*
X0240058Y0157996D01*
X0240931Y0157634D01*
X0240931Y0145540D01*
X0227678Y0145540D01*
X0226771Y0145164D01*
X0226077Y0144470D01*
X0225701Y0143563D01*
X0225701Y0143232D01*
X0224467Y0142721D01*
X0224221Y0142475D01*
X0224221Y0157696D01*
X0223978Y0158282D01*
X0224386Y0158690D01*
X0224762Y0159598D01*
X0224762Y0166879D01*
X0224386Y0167786D01*
X0223692Y0168480D01*
X0222784Y0168856D01*
X0214716Y0168856D01*
X0214518Y0168775D01*
X0214518Y0169777D01*
X0214628Y0169714D01*
X0215009Y0169612D01*
X0218250Y0169612D01*
X0218250Y0173762D01*
X0219250Y0173762D01*
X0219250Y0174762D01*
X0218250Y0174762D01*
X0218250Y0178911D01*
X0215009Y0178911D01*
X0214628Y0178809D01*
X0214518Y0178746D01*
X0214518Y0196900D01*
X0214021Y0198101D01*
X0213101Y0199021D01*
X0212891Y0199231D01*
X0217389Y0199231D01*
X0220000Y0201842D01*
X0222611Y0199231D01*
X0227389Y0199231D01*
X0230000Y0201842D01*
X0232611Y0199231D01*
X0237389Y0199231D01*
X0240000Y0201842D01*
X0242611Y0199231D01*
X0247389Y0199231D01*
X0250000Y0201842D01*
X0252611Y0199231D01*
X0257389Y0199231D01*
X0260768Y0202611D01*
X0260768Y0207389D01*
X0257389Y0210768D01*
X0252611Y0210768D01*
X0250000Y0208158D01*
X0247389Y0210768D01*
X0242611Y0210768D01*
X0240000Y0208158D01*
X0237389Y0210768D01*
X0232611Y0210768D01*
X0230000Y0208158D01*
X0227389Y0210768D01*
X0222611Y0210768D01*
X0220000Y0208158D01*
X0217389Y0210768D01*
X0212611Y0210768D01*
X0210000Y0208158D01*
X0207389Y0210768D01*
X0202611Y0210768D01*
X0200000Y0208158D01*
X0197389Y0210768D01*
X0192611Y0210768D01*
X0190000Y0208158D01*
X0187389Y0210768D01*
X0182611Y0210768D01*
X0179231Y0207389D01*
X0179231Y0202611D01*
X0181731Y0200111D01*
X0181731Y0198202D01*
X0179746Y0196217D01*
X0174710Y0196217D01*
X0173802Y0195841D01*
X0173108Y0195146D01*
X0173033Y0194966D01*
X0172872Y0195059D01*
X0172491Y0195161D01*
X0169250Y0195161D01*
X0169250Y0191012D01*
X0168250Y0191012D01*
X0168250Y0195161D01*
X0165009Y0195161D01*
X0164628Y0195059D01*
X0164286Y0194862D01*
X0164006Y0194582D01*
X0163809Y0194240D01*
X0163707Y0193859D01*
X0163707Y0191012D01*
X0168250Y0191012D01*
X0168250Y0190012D01*
X0163707Y0190012D01*
X0163707Y0187165D01*
X0163809Y0186783D01*
X0164006Y0186441D01*
X0164286Y0186162D01*
X0164628Y0185964D01*
X0165009Y0185862D01*
X0168250Y0185862D01*
X0168250Y0190012D01*
X0169250Y0190012D01*
X0169250Y0185862D01*
X0172491Y0185862D01*
X0172872Y0185964D01*
X0173091Y0186091D01*
X0173108Y0186051D01*
X0173802Y0185356D01*
X0174662Y0185000D01*
X0173802Y0184644D01*
X0173790Y0184632D01*
X0173692Y0184730D01*
X0172784Y0185106D01*
X0164716Y0185106D01*
X0163808Y0184730D01*
X0163114Y0184036D01*
X0162738Y0183129D01*
X0162738Y0175848D01*
X0163114Y0174940D01*
X0163808Y0174246D01*
X0164716Y0173870D01*
X0167791Y0173870D01*
X0167791Y0172315D01*
X0170776Y0172315D01*
X0170776Y0171346D01*
X0171744Y0171346D01*
X0171744Y0168064D01*
X0171633Y0168018D01*
X0170939Y0167323D01*
X0170563Y0166416D01*
X0170563Y0159922D01*
X0170939Y0159015D01*
X0171633Y0158321D01*
X0172540Y0157945D01*
X0176748Y0157945D01*
X0176645Y0157696D01*
X0176645Y0141714D01*
X0177021Y0140806D01*
X0177715Y0140112D01*
X0178622Y0139736D01*
X0187204Y0139736D01*
X0188112Y0140112D01*
X0188806Y0140806D01*
X0189182Y0141714D01*
X0189182Y0157620D01*
X0192784Y0157620D01*
X0193692Y0157996D01*
X0194386Y0158690D01*
X0194762Y0159598D01*
X0194762Y0166879D01*
X0194386Y0167786D01*
X0193692Y0168480D01*
X0192784Y0168856D01*
X0184716Y0168856D01*
X0183808Y0168480D01*
X0183114Y0167786D01*
X0182738Y0166879D01*
X0182738Y0166438D01*
X0179428Y0166438D01*
X0179358Y0166606D01*
X0181200Y0166606D01*
X0182107Y0166982D01*
X0182801Y0167677D01*
X0183177Y0168584D01*
X0183177Y0173944D01*
X0183698Y0174159D01*
X0184300Y0174762D01*
X0188250Y0174762D01*
X0188250Y0178911D01*
X0185009Y0178911D01*
X0184768Y0178847D01*
X0184768Y0183042D01*
X0184392Y0183949D01*
X0183698Y0184644D01*
X0182838Y0185000D01*
X0183698Y0185356D01*
X0184392Y0186051D01*
X0184768Y0186958D01*
X0184768Y0191994D01*
X0187771Y0194997D01*
X0188268Y0196198D01*
X0188268Y0200111D01*
X0190000Y0201842D01*
X0192611Y0199231D01*
X0197389Y0199231D01*
X0197393Y0199235D01*
X0205481Y0191146D01*
X0205481Y0178746D01*
X0205372Y0178809D01*
X0204991Y0178911D01*
X0201750Y0178911D01*
X0201750Y0174762D01*
X0200750Y0174762D01*
X0200750Y0178911D01*
X0197509Y0178911D01*
X0197128Y0178809D01*
X0196786Y0178612D01*
X0196506Y0178332D01*
X0196309Y0177990D01*
X0196207Y0177609D01*
X0196207Y0174762D01*
X0200750Y0174762D01*
X0200750Y0173762D01*
X0196207Y0173762D01*
X0196207Y0170915D01*
X0196309Y0170533D01*
X0196506Y0170191D01*
X0196786Y0169912D01*
X0197128Y0169714D01*
X0197509Y0169612D01*
X0200750Y0169612D01*
X0200750Y0173762D01*
X0201750Y0173762D01*
X0201750Y0169612D01*
X0204991Y0169612D01*
X0205372Y0169714D01*
X0205481Y0169777D01*
X0205481Y0168775D01*
X0205284Y0168856D01*
X0197216Y0168856D01*
X0196308Y0168480D01*
X0195614Y0167786D01*
X0195238Y0166879D01*
X0195238Y0159598D01*
X0195344Y0159343D01*
X0195235Y0159297D01*
X0194540Y0158603D01*
X0194165Y0157696D01*
X0194165Y0141714D01*
X0194540Y0140806D01*
X0195235Y0140112D01*
X0196142Y0139736D01*
X0204724Y0139736D01*
X0205631Y0140112D01*
X0206326Y0140806D01*
X0206702Y0141714D01*
X0206702Y0157696D01*
X0206464Y0158269D01*
X0206886Y0158690D01*
X0207262Y0159598D01*
X0207262Y0160631D01*
X0208101Y0160979D01*
X0209021Y0161899D01*
X0210000Y0162878D01*
X0210979Y0161899D01*
X0211899Y0160979D01*
X0212738Y0160631D01*
X0212738Y0159598D01*
X0212847Y0159336D01*
X0212754Y0159297D01*
X0212060Y0158603D01*
X0211684Y0157696D01*
X0211684Y0141714D01*
X0212060Y0140806D01*
X0212754Y0140112D01*
X0213662Y0139736D01*
X0220661Y0139736D01*
X0219100Y0138176D01*
X0219100Y0134324D01*
X0221824Y0131600D01*
X0225676Y0131600D01*
X0227254Y0133179D01*
X0227678Y0133003D01*
X0243660Y0133003D01*
X0244568Y0133379D01*
X0245262Y0134073D01*
X0245489Y0134620D02*
X0272531Y0134620D01*
X0272531Y0133622D02*
X0244811Y0133622D01*
X0245638Y0135619D02*
X0272531Y0135619D01*
X0272531Y0136617D02*
X0245638Y0136617D01*
X0245638Y0137616D02*
X0272531Y0137616D01*
X0272531Y0138614D02*
X0245638Y0138614D01*
X0246617Y0139613D02*
X0272531Y0139613D01*
X0272531Y0140611D02*
X0247615Y0140611D01*
X0248517Y0141610D02*
X0272531Y0141610D01*
X0272531Y0142608D02*
X0248931Y0142608D01*
X0249068Y0143607D02*
X0272531Y0143607D01*
X0272531Y0144605D02*
X0249068Y0144605D01*
X0249068Y0145604D02*
X0272531Y0145604D01*
X0272531Y0146603D02*
X0249068Y0146603D01*
X0249068Y0147601D02*
X0272531Y0147601D01*
X0272531Y0148600D02*
X0249068Y0148600D01*
X0249068Y0149598D02*
X0272531Y0149598D01*
X0272531Y0150597D02*
X0249068Y0150597D01*
X0249068Y0151595D02*
X0272531Y0151595D01*
X0272531Y0152594D02*
X0249068Y0152594D01*
X0249068Y0153592D02*
X0271917Y0153592D01*
X0270918Y0154591D02*
X0249068Y0154591D01*
X0249068Y0155589D02*
X0269920Y0155589D01*
X0268921Y0156588D02*
X0249068Y0156588D01*
X0249068Y0157586D02*
X0267923Y0157586D01*
X0266924Y0158585D02*
X0260530Y0158585D01*
X0261006Y0159583D02*
X0265926Y0159583D01*
X0264927Y0160582D02*
X0261012Y0160582D01*
X0261012Y0161580D02*
X0263929Y0161580D01*
X0262930Y0162579D02*
X0261012Y0162579D01*
X0261012Y0163577D02*
X0262531Y0163577D01*
X0262531Y0164576D02*
X0261012Y0164576D01*
X0261012Y0165574D02*
X0262531Y0165574D01*
X0262531Y0166573D02*
X0261012Y0166573D01*
X0260725Y0167571D02*
X0262531Y0167571D01*
X0262531Y0168570D02*
X0259726Y0168570D01*
X0259122Y0169714D02*
X0259464Y0169912D01*
X0259744Y0170191D01*
X0259941Y0170533D01*
X0260043Y0170915D01*
X0260043Y0173762D01*
X0255500Y0173762D01*
X0255500Y0174762D01*
X0254500Y0174762D01*
X0254500Y0178911D01*
X0251259Y0178911D01*
X0250878Y0178809D01*
X0250536Y0178612D01*
X0250256Y0178332D01*
X0250059Y0177990D01*
X0250000Y0177770D01*
X0249941Y0177990D01*
X0249744Y0178332D01*
X0249464Y0178612D01*
X0249122Y0178809D01*
X0248741Y0178911D01*
X0245500Y0178911D01*
X0245500Y0174762D01*
X0244500Y0174762D01*
X0244500Y0178911D01*
X0241259Y0178911D01*
X0240878Y0178809D01*
X0240536Y0178612D01*
X0240256Y0178332D01*
X0240059Y0177990D01*
X0240000Y0177770D01*
X0239941Y0177990D01*
X0239744Y0178332D01*
X0239464Y0178612D01*
X0239122Y0178809D01*
X0238741Y0178911D01*
X0235500Y0178911D01*
X0235500Y0174762D01*
X0234500Y0174762D01*
X0234500Y0178911D01*
X0231259Y0178911D01*
X0230878Y0178809D01*
X0230536Y0178612D01*
X0230256Y0178332D01*
X0230059Y0177990D01*
X0229957Y0177609D01*
X0229957Y0174762D01*
X0234500Y0174762D01*
X0234500Y0173762D01*
X0229957Y0173762D01*
X0229957Y0170915D01*
X0230059Y0170533D01*
X0230256Y0170191D01*
X0230536Y0169912D01*
X0230878Y0169714D01*
X0231259Y0169612D01*
X0234500Y0169612D01*
X0234500Y0173762D01*
X0235500Y0173762D01*
X0235500Y0174762D01*
X0244500Y0174762D01*
X0244500Y0173762D01*
X0239957Y0173762D01*
X0235500Y0173762D01*
X0235500Y0169612D01*
X0238741Y0169612D01*
X0239122Y0169714D01*
X0239464Y0169912D01*
X0239744Y0170191D01*
X0239941Y0170533D01*
X0240000Y0170753D01*
X0240059Y0170533D01*
X0240256Y0170191D01*
X0240536Y0169912D01*
X0240878Y0169714D01*
X0241259Y0169612D01*
X0244500Y0169612D01*
X0244500Y0173762D01*
X0245500Y0173762D01*
X0245500Y0174762D01*
X0254500Y0174762D01*
X0254500Y0173762D01*
X0249957Y0173762D01*
X0245500Y0173762D01*
X0245500Y0169612D01*
X0248741Y0169612D01*
X0249122Y0169714D01*
X0249464Y0169912D01*
X0249744Y0170191D01*
X0249941Y0170533D01*
X0250000Y0170753D01*
X0250059Y0170533D01*
X0250256Y0170191D01*
X0250536Y0169912D01*
X0250878Y0169714D01*
X0251259Y0169612D01*
X0254500Y0169612D01*
X0254500Y0173762D01*
X0255500Y0173762D01*
X0255500Y0169612D01*
X0258741Y0169612D01*
X0259122Y0169714D01*
X0259950Y0170567D02*
X0262531Y0170567D01*
X0262531Y0171565D02*
X0260043Y0171565D01*
X0260043Y0172564D02*
X0262531Y0172564D01*
X0262531Y0173562D02*
X0260043Y0173562D01*
X0260043Y0174762D02*
X0260043Y0177609D01*
X0259941Y0177990D01*
X0259744Y0178332D01*
X0259464Y0178612D01*
X0259122Y0178809D01*
X0258741Y0178911D01*
X0255500Y0178911D01*
X0255500Y0174762D01*
X0260043Y0174762D01*
X0260043Y0175559D02*
X0262531Y0175559D01*
X0262531Y0174561D02*
X0255500Y0174561D01*
X0255500Y0175559D02*
X0254500Y0175559D01*
X0254500Y0174561D02*
X0245500Y0174561D01*
X0245500Y0175559D02*
X0244500Y0175559D01*
X0244500Y0174561D02*
X0235500Y0174561D01*
X0235500Y0175559D02*
X0234500Y0175559D01*
X0234500Y0174561D02*
X0219250Y0174561D01*
X0219250Y0174762D02*
X0223793Y0174762D01*
X0223793Y0177609D01*
X0223691Y0177990D01*
X0223494Y0178332D01*
X0223214Y0178612D01*
X0222872Y0178809D01*
X0222491Y0178911D01*
X0219250Y0178911D01*
X0219250Y0174762D01*
X0219250Y0175559D02*
X0218250Y0175559D01*
X0218250Y0176558D02*
X0219250Y0176558D01*
X0219250Y0177556D02*
X0218250Y0177556D01*
X0218250Y0178555D02*
X0219250Y0178555D01*
X0214518Y0179553D02*
X0262531Y0179553D01*
X0262531Y0178555D02*
X0259521Y0178555D01*
X0260043Y0177556D02*
X0262531Y0177556D01*
X0262531Y0176558D02*
X0260043Y0176558D01*
X0255500Y0176558D02*
X0254500Y0176558D01*
X0254500Y0177556D02*
X0255500Y0177556D01*
X0255500Y0178555D02*
X0254500Y0178555D01*
X0250479Y0178555D02*
X0249521Y0178555D01*
X0245500Y0178555D02*
X0244500Y0178555D01*
X0244500Y0177556D02*
X0245500Y0177556D01*
X0245500Y0176558D02*
X0244500Y0176558D01*
X0244500Y0173562D02*
X0245500Y0173562D01*
X0245500Y0172564D02*
X0244500Y0172564D01*
X0244500Y0171565D02*
X0245500Y0171565D01*
X0245500Y0170567D02*
X0244500Y0170567D01*
X0240050Y0170567D02*
X0239950Y0170567D01*
X0239726Y0168570D02*
X0240274Y0168570D01*
X0235500Y0170567D02*
X0234500Y0170567D01*
X0234500Y0171565D02*
X0235500Y0171565D01*
X0235500Y0172564D02*
X0234500Y0172564D01*
X0234500Y0173562D02*
X0235500Y0173562D01*
X0235500Y0176558D02*
X0234500Y0176558D01*
X0234500Y0177556D02*
X0235500Y0177556D01*
X0235500Y0178555D02*
X0234500Y0178555D01*
X0230479Y0178555D02*
X0223271Y0178555D01*
X0223793Y0177556D02*
X0229957Y0177556D01*
X0229957Y0176558D02*
X0223793Y0176558D01*
X0223793Y0175559D02*
X0229957Y0175559D01*
X0229957Y0173562D02*
X0223793Y0173562D01*
X0223793Y0173762D02*
X0219250Y0173762D01*
X0219250Y0169612D01*
X0222491Y0169612D01*
X0222872Y0169714D01*
X0223214Y0169912D01*
X0223494Y0170191D01*
X0223691Y0170533D01*
X0223793Y0170915D01*
X0223793Y0173762D01*
X0223793Y0172564D02*
X0229957Y0172564D01*
X0229957Y0171565D02*
X0223793Y0171565D01*
X0223700Y0170567D02*
X0230050Y0170567D01*
X0230274Y0168570D02*
X0223476Y0168570D01*
X0224475Y0167571D02*
X0229275Y0167571D01*
X0228988Y0166573D02*
X0224762Y0166573D01*
X0224762Y0165574D02*
X0228988Y0165574D01*
X0228988Y0164576D02*
X0224762Y0164576D01*
X0224762Y0163577D02*
X0228988Y0163577D01*
X0228988Y0162579D02*
X0224762Y0162579D01*
X0224762Y0161580D02*
X0228988Y0161580D01*
X0228988Y0160582D02*
X0224762Y0160582D01*
X0224756Y0159583D02*
X0228994Y0159583D01*
X0229470Y0158585D02*
X0224280Y0158585D01*
X0224221Y0157586D02*
X0240931Y0157586D01*
X0240931Y0156588D02*
X0224221Y0156588D01*
X0224221Y0155589D02*
X0240931Y0155589D01*
X0240931Y0154591D02*
X0224221Y0154591D01*
X0224221Y0153592D02*
X0240931Y0153592D01*
X0240931Y0152594D02*
X0224221Y0152594D01*
X0224221Y0151595D02*
X0240931Y0151595D01*
X0240931Y0150597D02*
X0224221Y0150597D01*
X0224221Y0149598D02*
X0240931Y0149598D01*
X0240931Y0148600D02*
X0224221Y0148600D01*
X0224221Y0147601D02*
X0240931Y0147601D01*
X0240931Y0146603D02*
X0224221Y0146603D01*
X0224221Y0145604D02*
X0240931Y0145604D01*
X0226212Y0144605D02*
X0224221Y0144605D01*
X0224221Y0143607D02*
X0225719Y0143607D01*
X0224355Y0142608D02*
X0224221Y0142608D01*
X0220537Y0139613D02*
X0089518Y0139613D01*
X0089518Y0140611D02*
X0107137Y0140611D01*
X0106942Y0140806D02*
X0107636Y0140112D01*
X0108544Y0139736D01*
X0117126Y0139736D01*
X0118033Y0140112D01*
X0118727Y0140806D01*
X0119103Y0141714D01*
X0119103Y0157696D01*
X0118727Y0158603D01*
X0118033Y0159297D01*
X0117126Y0159673D01*
X0108544Y0159673D01*
X0107636Y0159297D01*
X0106942Y0158603D01*
X0106566Y0157696D01*
X0106566Y0141714D01*
X0106942Y0140806D01*
X0106609Y0141610D02*
X0089518Y0141610D01*
X0089518Y0142608D02*
X0106566Y0142608D01*
X0106566Y0143607D02*
X0089518Y0143607D01*
X0089518Y0144605D02*
X0106566Y0144605D01*
X0106566Y0145604D02*
X0089518Y0145604D01*
X0089518Y0146603D02*
X0106566Y0146603D01*
X0106566Y0147601D02*
X0089518Y0147601D01*
X0089518Y0148600D02*
X0106566Y0148600D01*
X0106566Y0149598D02*
X0089518Y0149598D01*
X0089518Y0150597D02*
X0106566Y0150597D01*
X0106566Y0151595D02*
X0089967Y0151595D01*
X0090966Y0152594D02*
X0106566Y0152594D01*
X0106566Y0153592D02*
X0091964Y0153592D01*
X0092963Y0154591D02*
X0106566Y0154591D01*
X0106566Y0155589D02*
X0093961Y0155589D01*
X0094960Y0156588D02*
X0106566Y0156588D01*
X0106566Y0157586D02*
X0095959Y0157586D01*
X0096957Y0158585D02*
X0106934Y0158585D01*
X0108326Y0159583D02*
X0097956Y0159583D01*
X0098954Y0160582D02*
X0143227Y0160582D01*
X0143244Y0160539D02*
X0144110Y0159673D01*
X0143583Y0159673D01*
X0142676Y0159297D01*
X0141981Y0158603D01*
X0141606Y0157696D01*
X0141606Y0141714D01*
X0141981Y0140806D01*
X0142676Y0140112D01*
X0143583Y0139736D01*
X0152165Y0139736D01*
X0153072Y0140112D01*
X0153767Y0140806D01*
X0154143Y0141714D01*
X0154143Y0157696D01*
X0153983Y0158081D01*
X0155578Y0158081D01*
X0157661Y0158944D01*
X0159256Y0160539D01*
X0160118Y0162622D01*
X0160118Y0164878D01*
X0159256Y0166961D01*
X0157661Y0168556D01*
X0157191Y0168750D01*
X0157661Y0168944D01*
X0159256Y0170539D01*
X0160118Y0172622D01*
X0160118Y0174878D01*
X0159256Y0176961D01*
X0157661Y0178556D01*
X0157191Y0178750D01*
X0157661Y0178944D01*
X0159256Y0180539D01*
X0160118Y0182622D01*
X0160118Y0184878D01*
X0159256Y0186961D01*
X0157661Y0188556D01*
X0155908Y0189282D01*
X0156254Y0189394D01*
X0156913Y0189730D01*
X0157512Y0190165D01*
X0158035Y0190688D01*
X0158470Y0191287D01*
X0158806Y0191946D01*
X0159034Y0192649D01*
X0159129Y0193250D01*
X0151750Y0193250D01*
X0151750Y0194250D01*
X0150750Y0194250D01*
X0150750Y0198450D01*
X0147680Y0198450D01*
X0146949Y0198334D01*
X0146246Y0198106D01*
X0145587Y0197770D01*
X0144988Y0197335D01*
X0144465Y0196812D01*
X0144030Y0196213D01*
X0143694Y0195554D01*
X0143466Y0194851D01*
X0143371Y0194250D01*
X0150750Y0194250D01*
X0150750Y0193250D01*
X0143371Y0193250D01*
X0143466Y0192649D01*
X0143694Y0191946D01*
X0144030Y0191287D01*
X0144465Y0190688D01*
X0144988Y0190165D01*
X0145587Y0189730D01*
X0146246Y0189394D01*
X0146592Y0189282D01*
X0144839Y0188556D01*
X0143244Y0186961D01*
X0142381Y0184878D01*
X0142381Y0182622D01*
X0143244Y0180539D01*
X0144839Y0178944D01*
X0145309Y0178750D01*
X0144839Y0178556D01*
X0143244Y0176961D01*
X0142381Y0174878D01*
X0142381Y0172622D01*
X0143244Y0170539D01*
X0144839Y0168944D01*
X0145309Y0168750D01*
X0144839Y0168556D01*
X0143244Y0166961D01*
X0142381Y0164878D01*
X0142381Y0162622D01*
X0143244Y0160539D01*
X0143366Y0159583D02*
X0134863Y0159583D01*
X0134645Y0159673D02*
X0135553Y0159297D01*
X0136247Y0158603D01*
X0136623Y0157696D01*
X0136623Y0141714D01*
X0136247Y0140806D01*
X0135553Y0140112D01*
X0134645Y0139736D01*
X0126063Y0139736D01*
X0125156Y0140112D01*
X0124462Y0140806D01*
X0124086Y0141714D01*
X0124086Y0157696D01*
X0124462Y0158603D01*
X0125156Y0159297D01*
X0126063Y0159673D01*
X0134645Y0159673D01*
X0136255Y0158585D02*
X0141974Y0158585D01*
X0141606Y0157586D02*
X0136623Y0157586D01*
X0136623Y0156588D02*
X0141606Y0156588D01*
X0141606Y0155589D02*
X0136623Y0155589D01*
X0136623Y0154591D02*
X0141606Y0154591D01*
X0141606Y0153592D02*
X0136623Y0153592D01*
X0136623Y0152594D02*
X0141606Y0152594D01*
X0141606Y0151595D02*
X0136623Y0151595D01*
X0136623Y0150597D02*
X0141606Y0150597D01*
X0141606Y0149598D02*
X0136623Y0149598D01*
X0136623Y0148600D02*
X0141606Y0148600D01*
X0141606Y0147601D02*
X0136623Y0147601D01*
X0136623Y0146603D02*
X0141606Y0146603D01*
X0141606Y0145604D02*
X0136623Y0145604D01*
X0136623Y0144605D02*
X0141606Y0144605D01*
X0141606Y0143607D02*
X0136623Y0143607D01*
X0136623Y0142608D02*
X0141606Y0142608D01*
X0141648Y0141610D02*
X0136580Y0141610D01*
X0136052Y0140611D02*
X0142176Y0140611D01*
X0153572Y0140611D02*
X0159696Y0140611D01*
X0159501Y0140806D02*
X0160195Y0140112D01*
X0161103Y0139736D01*
X0169685Y0139736D01*
X0170592Y0140112D01*
X0171286Y0140806D01*
X0171662Y0141714D01*
X0171662Y0157696D01*
X0171286Y0158603D01*
X0170592Y0159297D01*
X0169685Y0159673D01*
X0161103Y0159673D01*
X0160195Y0159297D01*
X0159501Y0158603D01*
X0159125Y0157696D01*
X0159125Y0141714D01*
X0159501Y0140806D01*
X0159168Y0141610D02*
X0154100Y0141610D01*
X0154143Y0142608D02*
X0159125Y0142608D01*
X0159125Y0143607D02*
X0154143Y0143607D01*
X0154143Y0144605D02*
X0159125Y0144605D01*
X0159125Y0145604D02*
X0154143Y0145604D01*
X0154143Y0146603D02*
X0159125Y0146603D01*
X0159125Y0147601D02*
X0154143Y0147601D01*
X0154143Y0148600D02*
X0159125Y0148600D01*
X0159125Y0149598D02*
X0154143Y0149598D01*
X0154143Y0150597D02*
X0159125Y0150597D01*
X0159125Y0151595D02*
X0154143Y0151595D01*
X0154143Y0152594D02*
X0159125Y0152594D01*
X0159125Y0153592D02*
X0154143Y0153592D01*
X0154143Y0154591D02*
X0159125Y0154591D01*
X0159125Y0155589D02*
X0154143Y0155589D01*
X0154143Y0156588D02*
X0159125Y0156588D01*
X0159125Y0157586D02*
X0154143Y0157586D01*
X0156792Y0158585D02*
X0159493Y0158585D01*
X0158300Y0159583D02*
X0160885Y0159583D01*
X0159273Y0160582D02*
X0170563Y0160582D01*
X0170563Y0161580D02*
X0159687Y0161580D01*
X0160100Y0162579D02*
X0170563Y0162579D01*
X0170563Y0163577D02*
X0160118Y0163577D01*
X0160118Y0164576D02*
X0170563Y0164576D01*
X0170563Y0165574D02*
X0159830Y0165574D01*
X0159416Y0166573D02*
X0170628Y0166573D01*
X0170776Y0167575D02*
X0169094Y0167575D01*
X0168712Y0167677D01*
X0168370Y0167875D01*
X0168091Y0168154D01*
X0167894Y0168496D01*
X0167791Y0168877D01*
X0167791Y0171346D01*
X0170776Y0171346D01*
X0170776Y0167575D01*
X0171187Y0167571D02*
X0158645Y0167571D01*
X0157627Y0168570D02*
X0167874Y0168570D01*
X0167791Y0169568D02*
X0158285Y0169568D01*
X0159267Y0170567D02*
X0167791Y0170567D01*
X0167791Y0172564D02*
X0160094Y0172564D01*
X0160118Y0173562D02*
X0167791Y0173562D01*
X0170776Y0171565D02*
X0159681Y0171565D01*
X0160118Y0174561D02*
X0163493Y0174561D01*
X0162858Y0175559D02*
X0159836Y0175559D01*
X0159422Y0176558D02*
X0162738Y0176558D01*
X0162738Y0177556D02*
X0158660Y0177556D01*
X0157662Y0178555D02*
X0162738Y0178555D01*
X0162738Y0179553D02*
X0158270Y0179553D01*
X0159261Y0180552D02*
X0162738Y0180552D01*
X0162738Y0181550D02*
X0159674Y0181550D01*
X0160088Y0182549D02*
X0162738Y0182549D01*
X0162912Y0183547D02*
X0160118Y0183547D01*
X0160118Y0184546D02*
X0163624Y0184546D01*
X0163948Y0186543D02*
X0159429Y0186543D01*
X0159842Y0185544D02*
X0173614Y0185544D01*
X0169250Y0186543D02*
X0168250Y0186543D01*
X0168250Y0187541D02*
X0169250Y0187541D01*
X0169250Y0188540D02*
X0168250Y0188540D01*
X0168250Y0189539D02*
X0169250Y0189539D01*
X0168250Y0190537D02*
X0157884Y0190537D01*
X0158597Y0191536D02*
X0163707Y0191536D01*
X0163707Y0192534D02*
X0158997Y0192534D01*
X0159129Y0194250D02*
X0159034Y0194851D01*
X0158806Y0195554D01*
X0158470Y0196213D01*
X0158035Y0196812D01*
X0157512Y0197335D01*
X0156913Y0197770D01*
X0156254Y0198106D01*
X0155551Y0198334D01*
X0154820Y0198450D01*
X0151750Y0198450D01*
X0151750Y0194250D01*
X0159129Y0194250D01*
X0159085Y0194531D02*
X0163977Y0194531D01*
X0163707Y0193533D02*
X0151750Y0193533D01*
X0151750Y0194531D02*
X0150750Y0194531D01*
X0150750Y0193533D02*
X0132268Y0193533D01*
X0132268Y0194531D02*
X0143415Y0194531D01*
X0143686Y0195530D02*
X0132268Y0195530D01*
X0132268Y0196528D02*
X0144259Y0196528D01*
X0145252Y0197527D02*
X0132268Y0197527D01*
X0132268Y0198525D02*
X0181731Y0198525D01*
X0181731Y0199524D02*
X0171682Y0199524D01*
X0172680Y0200522D02*
X0181320Y0200522D01*
X0180321Y0201521D02*
X0173679Y0201521D01*
X0174677Y0202519D02*
X0179323Y0202519D01*
X0179231Y0203518D02*
X0174768Y0203518D01*
X0174768Y0204516D02*
X0179231Y0204516D01*
X0179231Y0205515D02*
X0174768Y0205515D01*
X0174768Y0206513D02*
X0179231Y0206513D01*
X0179354Y0207512D02*
X0174646Y0207512D01*
X0173648Y0208510D02*
X0180352Y0208510D01*
X0181351Y0209509D02*
X0172649Y0209509D01*
X0171651Y0210507D02*
X0182349Y0210507D01*
X0187651Y0210507D02*
X0192349Y0210507D01*
X0191351Y0209509D02*
X0188649Y0209509D01*
X0189648Y0208510D02*
X0190352Y0208510D01*
X0190321Y0201521D02*
X0189679Y0201521D01*
X0188680Y0200522D02*
X0191320Y0200522D01*
X0192318Y0199524D02*
X0188268Y0199524D01*
X0188268Y0198525D02*
X0198103Y0198525D01*
X0199101Y0197527D02*
X0188268Y0197527D01*
X0188268Y0196528D02*
X0200100Y0196528D01*
X0201098Y0195530D02*
X0187991Y0195530D01*
X0187305Y0194531D02*
X0202097Y0194531D01*
X0203095Y0193533D02*
X0186306Y0193533D01*
X0185308Y0192534D02*
X0204094Y0192534D01*
X0205092Y0191536D02*
X0184768Y0191536D01*
X0184768Y0190537D02*
X0205481Y0190537D01*
X0205481Y0189539D02*
X0184768Y0189539D01*
X0184768Y0188540D02*
X0205481Y0188540D01*
X0205481Y0187541D02*
X0184768Y0187541D01*
X0184596Y0186543D02*
X0205481Y0186543D01*
X0205481Y0185544D02*
X0183886Y0185544D01*
X0183795Y0184546D02*
X0205481Y0184546D01*
X0205481Y0183547D02*
X0184558Y0183547D01*
X0184768Y0182549D02*
X0205481Y0182549D01*
X0205481Y0181550D02*
X0184768Y0181550D01*
X0184768Y0180552D02*
X0205481Y0180552D01*
X0205481Y0179553D02*
X0184768Y0179553D01*
X0188250Y0178555D02*
X0189250Y0178555D01*
X0189250Y0178911D02*
X0189250Y0174762D01*
X0188250Y0174762D01*
X0188250Y0173762D01*
X0183707Y0173762D01*
X0183707Y0170915D01*
X0183809Y0170533D01*
X0184006Y0170191D01*
X0184286Y0169912D01*
X0184628Y0169714D01*
X0185009Y0169612D01*
X0188250Y0169612D01*
X0188250Y0173762D01*
X0189250Y0173762D01*
X0189250Y0174762D01*
X0193793Y0174762D01*
X0193793Y0177609D01*
X0193691Y0177990D01*
X0193494Y0178332D01*
X0193214Y0178612D01*
X0192872Y0178809D01*
X0192491Y0178911D01*
X0189250Y0178911D01*
X0189250Y0177556D02*
X0188250Y0177556D01*
X0188250Y0176558D02*
X0189250Y0176558D01*
X0189250Y0175559D02*
X0188250Y0175559D01*
X0188250Y0174561D02*
X0184099Y0174561D01*
X0183707Y0173562D02*
X0183177Y0173562D01*
X0183177Y0172564D02*
X0183707Y0172564D01*
X0183707Y0171565D02*
X0183177Y0171565D01*
X0183177Y0170567D02*
X0183800Y0170567D01*
X0183177Y0169568D02*
X0205481Y0169568D01*
X0201750Y0170567D02*
X0200750Y0170567D01*
X0200750Y0171565D02*
X0201750Y0171565D01*
X0201750Y0172564D02*
X0200750Y0172564D01*
X0200750Y0173562D02*
X0201750Y0173562D01*
X0200750Y0174561D02*
X0189250Y0174561D01*
X0189250Y0173762D02*
X0193793Y0173762D01*
X0193793Y0170915D01*
X0193691Y0170533D01*
X0193494Y0170191D01*
X0193214Y0169912D01*
X0192872Y0169714D01*
X0192491Y0169612D01*
X0189250Y0169612D01*
X0189250Y0173762D01*
X0189250Y0173562D02*
X0188250Y0173562D01*
X0188250Y0172564D02*
X0189250Y0172564D01*
X0189250Y0171565D02*
X0188250Y0171565D01*
X0188250Y0170567D02*
X0189250Y0170567D01*
X0193700Y0170567D02*
X0196300Y0170567D01*
X0196207Y0171565D02*
X0193793Y0171565D01*
X0193793Y0172564D02*
X0196207Y0172564D01*
X0196207Y0173562D02*
X0193793Y0173562D01*
X0193793Y0175559D02*
X0196207Y0175559D01*
X0196207Y0176558D02*
X0193793Y0176558D01*
X0193793Y0177556D02*
X0196207Y0177556D01*
X0196729Y0178555D02*
X0193271Y0178555D01*
X0200750Y0178555D02*
X0201750Y0178555D01*
X0201750Y0177556D02*
X0200750Y0177556D01*
X0200750Y0176558D02*
X0201750Y0176558D01*
X0201750Y0175559D02*
X0200750Y0175559D01*
X0196524Y0168570D02*
X0193476Y0168570D01*
X0194475Y0167571D02*
X0195525Y0167571D01*
X0195238Y0166573D02*
X0194762Y0166573D01*
X0194762Y0165574D02*
X0195238Y0165574D01*
X0195238Y0164576D02*
X0194762Y0164576D01*
X0194762Y0163577D02*
X0195238Y0163577D01*
X0195238Y0162579D02*
X0194762Y0162579D01*
X0194762Y0161580D02*
X0195238Y0161580D01*
X0195238Y0160582D02*
X0194762Y0160582D01*
X0194756Y0159583D02*
X0195244Y0159583D01*
X0194533Y0158585D02*
X0194280Y0158585D01*
X0194165Y0157586D02*
X0189182Y0157586D01*
X0189182Y0156588D02*
X0194165Y0156588D01*
X0194165Y0155589D02*
X0189182Y0155589D01*
X0189182Y0154591D02*
X0194165Y0154591D01*
X0194165Y0153592D02*
X0189182Y0153592D01*
X0189182Y0152594D02*
X0194165Y0152594D01*
X0194165Y0151595D02*
X0189182Y0151595D01*
X0189182Y0150597D02*
X0194165Y0150597D01*
X0194165Y0149598D02*
X0189182Y0149598D01*
X0189182Y0148600D02*
X0194165Y0148600D01*
X0194165Y0147601D02*
X0189182Y0147601D01*
X0189182Y0146603D02*
X0194165Y0146603D01*
X0194165Y0145604D02*
X0189182Y0145604D01*
X0189182Y0144605D02*
X0194165Y0144605D01*
X0194165Y0143607D02*
X0189182Y0143607D01*
X0189182Y0142608D02*
X0194165Y0142608D01*
X0194208Y0141610D02*
X0189139Y0141610D01*
X0188611Y0140611D02*
X0194735Y0140611D01*
X0206131Y0140611D02*
X0212255Y0140611D01*
X0211727Y0141610D02*
X0206659Y0141610D01*
X0206702Y0142608D02*
X0211684Y0142608D01*
X0211684Y0143607D02*
X0206702Y0143607D01*
X0206702Y0144605D02*
X0211684Y0144605D01*
X0211684Y0145604D02*
X0206702Y0145604D01*
X0206702Y0146603D02*
X0211684Y0146603D01*
X0211684Y0147601D02*
X0206702Y0147601D01*
X0206702Y0148600D02*
X0211684Y0148600D01*
X0211684Y0149598D02*
X0206702Y0149598D01*
X0206702Y0150597D02*
X0211684Y0150597D01*
X0211684Y0151595D02*
X0206702Y0151595D01*
X0206702Y0152594D02*
X0211684Y0152594D01*
X0211684Y0153592D02*
X0206702Y0153592D01*
X0206702Y0154591D02*
X0211684Y0154591D01*
X0211684Y0155589D02*
X0206702Y0155589D01*
X0206702Y0156588D02*
X0211684Y0156588D01*
X0211684Y0157586D02*
X0206702Y0157586D01*
X0206780Y0158585D02*
X0212052Y0158585D01*
X0212744Y0159583D02*
X0207256Y0159583D01*
X0207262Y0160582D02*
X0212738Y0160582D01*
X0211297Y0161580D02*
X0208703Y0161580D01*
X0209701Y0162579D02*
X0210299Y0162579D01*
X0214518Y0169568D02*
X0262531Y0169568D01*
X0255500Y0170567D02*
X0254500Y0170567D01*
X0254500Y0171565D02*
X0255500Y0171565D01*
X0255500Y0172564D02*
X0254500Y0172564D01*
X0254500Y0173562D02*
X0255500Y0173562D01*
X0250050Y0170567D02*
X0249950Y0170567D01*
X0249726Y0168570D02*
X0250274Y0168570D01*
X0240479Y0178555D02*
X0239521Y0178555D01*
X0219250Y0173562D02*
X0218250Y0173562D01*
X0218250Y0172564D02*
X0219250Y0172564D01*
X0219250Y0171565D02*
X0218250Y0171565D01*
X0218250Y0170567D02*
X0219250Y0170567D01*
X0214518Y0180552D02*
X0262531Y0180552D01*
X0262531Y0181550D02*
X0214518Y0181550D01*
X0214518Y0182549D02*
X0262531Y0182549D01*
X0262531Y0183547D02*
X0214518Y0183547D01*
X0214518Y0184546D02*
X0262531Y0184546D01*
X0262531Y0185544D02*
X0214518Y0185544D01*
X0214518Y0186543D02*
X0262531Y0186543D01*
X0262531Y0187541D02*
X0214518Y0187541D01*
X0214518Y0188540D02*
X0262531Y0188540D01*
X0262531Y0189539D02*
X0214518Y0189539D01*
X0214518Y0190537D02*
X0262531Y0190537D01*
X0262531Y0191536D02*
X0214518Y0191536D01*
X0214518Y0192534D02*
X0262531Y0192534D01*
X0262531Y0193533D02*
X0214518Y0193533D01*
X0214518Y0194531D02*
X0262531Y0194531D01*
X0262531Y0195530D02*
X0214518Y0195530D01*
X0214518Y0196528D02*
X0262531Y0196528D01*
X0262531Y0197527D02*
X0214259Y0197527D01*
X0213597Y0198525D02*
X0262531Y0198525D01*
X0262531Y0199524D02*
X0257682Y0199524D01*
X0258680Y0200522D02*
X0262531Y0200522D01*
X0262531Y0201521D02*
X0259679Y0201521D01*
X0260677Y0202519D02*
X0262531Y0202519D01*
X0262531Y0203518D02*
X0260768Y0203518D01*
X0260768Y0204516D02*
X0262531Y0204516D01*
X0262531Y0205515D02*
X0260768Y0205515D01*
X0260768Y0206513D02*
X0262531Y0206513D01*
X0262531Y0207512D02*
X0260646Y0207512D01*
X0259648Y0208510D02*
X0261999Y0208510D01*
X0261000Y0209509D02*
X0258649Y0209509D01*
X0257651Y0210507D02*
X0260002Y0210507D01*
X0259003Y0211506D02*
X0007468Y0211506D01*
X0007468Y0212504D02*
X0258005Y0212504D01*
X0252349Y0210507D02*
X0247651Y0210507D01*
X0248649Y0209509D02*
X0251351Y0209509D01*
X0250352Y0208510D02*
X0249648Y0208510D01*
X0242349Y0210507D02*
X0237651Y0210507D01*
X0238649Y0209509D02*
X0241351Y0209509D01*
X0240352Y0208510D02*
X0239648Y0208510D01*
X0232349Y0210507D02*
X0227651Y0210507D01*
X0228649Y0209509D02*
X0231351Y0209509D01*
X0230352Y0208510D02*
X0229648Y0208510D01*
X0229679Y0201521D02*
X0230321Y0201521D01*
X0231320Y0200522D02*
X0228680Y0200522D01*
X0227681Y0199524D02*
X0232318Y0199524D01*
X0237681Y0199524D02*
X0242318Y0199524D01*
X0241320Y0200522D02*
X0238680Y0200522D01*
X0239679Y0201521D02*
X0240321Y0201521D01*
X0247681Y0199524D02*
X0252318Y0199524D01*
X0251320Y0200522D02*
X0248680Y0200522D01*
X0249679Y0201521D02*
X0250321Y0201521D01*
X0222318Y0199524D02*
X0217682Y0199524D01*
X0218680Y0200522D02*
X0221320Y0200522D01*
X0220321Y0201521D02*
X0219679Y0201521D01*
X0219648Y0208510D02*
X0220352Y0208510D01*
X0221351Y0209509D02*
X0218649Y0209509D01*
X0217651Y0210507D02*
X0222349Y0210507D01*
X0212349Y0210507D02*
X0207651Y0210507D01*
X0208649Y0209509D02*
X0211351Y0209509D01*
X0210352Y0208510D02*
X0209648Y0208510D01*
X0202349Y0210507D02*
X0197651Y0210507D01*
X0198649Y0209509D02*
X0201351Y0209509D01*
X0200352Y0208510D02*
X0199648Y0208510D01*
X0181056Y0197527D02*
X0157248Y0197527D01*
X0158241Y0196528D02*
X0180057Y0196528D01*
X0173491Y0195530D02*
X0158814Y0195530D01*
X0156318Y0199524D02*
X0151682Y0199524D01*
X0152680Y0200522D02*
X0155320Y0200522D01*
X0154321Y0201521D02*
X0153679Y0201521D01*
X0151750Y0197527D02*
X0150750Y0197527D01*
X0150750Y0196528D02*
X0151750Y0196528D01*
X0151750Y0195530D02*
X0150750Y0195530D01*
X0146318Y0199524D02*
X0141682Y0199524D01*
X0142680Y0200522D02*
X0145320Y0200522D01*
X0144321Y0201521D02*
X0143679Y0201521D01*
X0136318Y0199524D02*
X0132268Y0199524D01*
X0132680Y0200522D02*
X0135320Y0200522D01*
X0134321Y0201521D02*
X0133679Y0201521D01*
X0125731Y0199524D02*
X0122268Y0199524D01*
X0122268Y0198525D02*
X0125731Y0198525D01*
X0125731Y0197527D02*
X0122268Y0197527D01*
X0122268Y0196528D02*
X0125731Y0196528D01*
X0125731Y0195530D02*
X0124009Y0195530D01*
X0124647Y0194531D02*
X0125731Y0194531D01*
X0125731Y0193533D02*
X0124768Y0193533D01*
X0124768Y0192534D02*
X0125731Y0192534D01*
X0125731Y0191536D02*
X0124768Y0191536D01*
X0124768Y0190537D02*
X0125731Y0190537D01*
X0125731Y0189539D02*
X0124768Y0189539D01*
X0124768Y0188540D02*
X0125731Y0188540D01*
X0125731Y0187541D02*
X0124768Y0187541D01*
X0124596Y0186543D02*
X0125731Y0186543D01*
X0125731Y0185544D02*
X0123886Y0185544D01*
X0123795Y0184546D02*
X0125731Y0184546D01*
X0125731Y0183547D02*
X0124558Y0183547D01*
X0124768Y0182549D02*
X0125731Y0182549D01*
X0125731Y0181550D02*
X0124768Y0181550D01*
X0124768Y0180552D02*
X0125731Y0180552D01*
X0125731Y0179553D02*
X0124768Y0179553D01*
X0124768Y0178555D02*
X0125731Y0178555D01*
X0125731Y0177556D02*
X0124768Y0177556D01*
X0124768Y0176558D02*
X0125731Y0176558D01*
X0125731Y0175559D02*
X0124684Y0175559D01*
X0124099Y0174561D02*
X0125731Y0174561D01*
X0125731Y0173562D02*
X0110470Y0173562D01*
X0111469Y0174561D02*
X0113401Y0174561D01*
X0104530Y0173562D02*
X0007468Y0173562D01*
X0007468Y0172564D02*
X0125441Y0172564D01*
X0124443Y0171565D02*
X0007468Y0171565D01*
X0007468Y0170567D02*
X0100113Y0170567D01*
X0098696Y0169568D02*
X0007468Y0169568D01*
X0007468Y0168570D02*
X0097697Y0168570D01*
X0096699Y0167571D02*
X0007468Y0167571D01*
X0007468Y0166573D02*
X0095700Y0166573D01*
X0094702Y0165574D02*
X0007468Y0165574D01*
X0007468Y0164576D02*
X0093703Y0164576D01*
X0092705Y0163577D02*
X0007468Y0163577D01*
X0007468Y0162579D02*
X0091706Y0162579D01*
X0090708Y0161580D02*
X0007468Y0161580D01*
X0007468Y0160582D02*
X0089709Y0160582D01*
X0088711Y0159583D02*
X0007468Y0159583D01*
X0007468Y0158585D02*
X0087712Y0158585D01*
X0086714Y0157586D02*
X0007468Y0157586D01*
X0007468Y0156588D02*
X0085715Y0156588D01*
X0084717Y0155589D02*
X0007468Y0155589D01*
X0007468Y0154591D02*
X0083718Y0154591D01*
X0083165Y0153592D02*
X0007468Y0153592D01*
X0007468Y0152594D02*
X0082981Y0152594D01*
X0082981Y0151595D02*
X0007468Y0151595D01*
X0007468Y0150597D02*
X0082981Y0150597D01*
X0082981Y0149598D02*
X0007468Y0149598D01*
X0007468Y0148600D02*
X0082981Y0148600D01*
X0082981Y0147601D02*
X0007468Y0147601D01*
X0007468Y0146603D02*
X0082981Y0146603D01*
X0082981Y0145604D02*
X0007468Y0145604D01*
X0007468Y0144605D02*
X0082981Y0144605D01*
X0082981Y0143607D02*
X0007468Y0143607D01*
X0007468Y0142608D02*
X0082981Y0142608D01*
X0082981Y0141610D02*
X0007468Y0141610D01*
X0007468Y0140611D02*
X0082981Y0140611D01*
X0082981Y0139613D02*
X0007468Y0139613D01*
X0007468Y0138614D02*
X0082981Y0138614D01*
X0082981Y0137616D02*
X0007468Y0137616D01*
X0007468Y0136617D02*
X0082981Y0136617D01*
X0082981Y0135619D02*
X0007468Y0135619D01*
X0007468Y0134620D02*
X0082981Y0134620D01*
X0082981Y0133622D02*
X0007468Y0133622D01*
X0007468Y0132623D02*
X0082981Y0132623D01*
X0082981Y0131625D02*
X0007468Y0131625D01*
X0007468Y0130626D02*
X0082981Y0130626D01*
X0082981Y0129628D02*
X0007468Y0129628D01*
X0007468Y0128629D02*
X0082981Y0128629D01*
X0082981Y0127631D02*
X0007468Y0127631D01*
X0007468Y0126632D02*
X0082981Y0126632D01*
X0082981Y0125634D02*
X0007468Y0125634D01*
X0007468Y0124635D02*
X0082981Y0124635D01*
X0082981Y0123637D02*
X0007468Y0123637D01*
X0007468Y0122638D02*
X0082981Y0122638D01*
X0082981Y0121640D02*
X0007468Y0121640D01*
X0007468Y0120641D02*
X0082981Y0120641D01*
X0082981Y0119643D02*
X0007468Y0119643D01*
X0007468Y0118644D02*
X0082981Y0118644D01*
X0082981Y0117646D02*
X0007468Y0117646D01*
X0007468Y0116647D02*
X0082981Y0116647D01*
X0082981Y0115649D02*
X0007468Y0115649D01*
X0007468Y0114650D02*
X0082981Y0114650D01*
X0082981Y0113652D02*
X0007468Y0113652D01*
X0007468Y0112653D02*
X0082981Y0112653D01*
X0082981Y0111655D02*
X0007468Y0111655D01*
X0007468Y0110656D02*
X0082981Y0110656D01*
X0082981Y0109658D02*
X0007468Y0109658D01*
X0007468Y0108659D02*
X0082981Y0108659D01*
X0082981Y0107661D02*
X0007468Y0107661D01*
X0007468Y0106662D02*
X0082981Y0106662D01*
X0082981Y0105664D02*
X0007468Y0105664D01*
X0007468Y0104665D02*
X0082981Y0104665D01*
X0082981Y0103667D02*
X0007468Y0103667D01*
X0007468Y0102668D02*
X0082981Y0102668D01*
X0082981Y0101670D02*
X0007468Y0101670D01*
X0007468Y0100671D02*
X0082981Y0100671D01*
X0082981Y0099672D02*
X0007468Y0099672D01*
X0007468Y0098674D02*
X0082981Y0098674D01*
X0082981Y0097675D02*
X0007468Y0097675D01*
X0007468Y0096677D02*
X0082981Y0096677D01*
X0082981Y0095678D02*
X0007468Y0095678D01*
X0007468Y0094680D02*
X0082981Y0094680D01*
X0082981Y0093681D02*
X0007468Y0093681D01*
X0007468Y0092683D02*
X0082981Y0092683D01*
X0082981Y0091684D02*
X0007468Y0091684D01*
X0007468Y0090686D02*
X0082981Y0090686D01*
X0082981Y0089687D02*
X0007468Y0089687D01*
X0007468Y0088689D02*
X0082981Y0088689D01*
X0082724Y0087690D02*
X0067640Y0087690D01*
X0067351Y0087784D02*
X0066750Y0087879D01*
X0066750Y0080500D01*
X0065750Y0080500D01*
X0065750Y0087879D01*
X0065149Y0087784D01*
X0064446Y0087556D01*
X0063787Y0087220D01*
X0063188Y0086785D01*
X0062665Y0086262D01*
X0062230Y0085663D01*
X0061894Y0085004D01*
X0061666Y0084301D01*
X0061550Y0083570D01*
X0061550Y0080500D01*
X0065750Y0080500D01*
X0065750Y0079500D01*
X0061550Y0079500D01*
X0061550Y0076430D01*
X0061666Y0075699D01*
X0061894Y0074996D01*
X0062230Y0074337D01*
X0062665Y0073738D01*
X0063188Y0073215D01*
X0063787Y0072780D01*
X0064446Y0072444D01*
X0065149Y0072216D01*
X0065750Y0072121D01*
X0065750Y0079500D01*
X0066750Y0079500D01*
X0066750Y0080500D01*
X0070950Y0080500D01*
X0070950Y0083570D01*
X0070834Y0084301D01*
X0070606Y0085004D01*
X0070270Y0085663D01*
X0069835Y0086262D01*
X0069312Y0086785D01*
X0068713Y0087220D01*
X0068054Y0087556D01*
X0067351Y0087784D01*
X0066750Y0087690D02*
X0065750Y0087690D01*
X0064860Y0087690D02*
X0007468Y0087690D01*
X0007468Y0086692D02*
X0063095Y0086692D01*
X0062252Y0085693D02*
X0007468Y0085693D01*
X0007468Y0084695D02*
X0061794Y0084695D01*
X0061570Y0083696D02*
X0007468Y0083696D01*
X0007468Y0082698D02*
X0061550Y0082698D01*
X0061550Y0081699D02*
X0007468Y0081699D01*
X0007468Y0080701D02*
X0061550Y0080701D01*
X0061550Y0078704D02*
X0007468Y0078704D01*
X0007468Y0079702D02*
X0065750Y0079702D01*
X0065750Y0078704D02*
X0066750Y0078704D01*
X0066750Y0079500D02*
X0066750Y0072121D01*
X0067351Y0072216D01*
X0068054Y0072444D01*
X0068713Y0072780D01*
X0069312Y0073215D01*
X0069835Y0073738D01*
X0070270Y0074337D01*
X0070606Y0074996D01*
X0070834Y0075699D01*
X0070950Y0076430D01*
X0070950Y0079500D01*
X0066750Y0079500D01*
X0066750Y0079702D02*
X0080581Y0079702D01*
X0080581Y0078704D02*
X0070950Y0078704D01*
X0070950Y0077705D02*
X0080581Y0077705D01*
X0080581Y0076707D02*
X0070950Y0076707D01*
X0070836Y0075708D02*
X0080581Y0075708D01*
X0080980Y0074710D02*
X0070460Y0074710D01*
X0069808Y0073711D02*
X0081394Y0073711D01*
X0082321Y0072713D02*
X0068581Y0072713D01*
X0066750Y0072713D02*
X0065750Y0072713D01*
X0065750Y0073711D02*
X0066750Y0073711D01*
X0066750Y0074710D02*
X0065750Y0074710D01*
X0065750Y0075708D02*
X0066750Y0075708D01*
X0066750Y0076707D02*
X0065750Y0076707D01*
X0065750Y0077705D02*
X0066750Y0077705D01*
X0066750Y0080701D02*
X0065750Y0080701D01*
X0065750Y0081699D02*
X0066750Y0081699D01*
X0066750Y0082698D02*
X0065750Y0082698D01*
X0065750Y0083696D02*
X0066750Y0083696D01*
X0066750Y0084695D02*
X0065750Y0084695D01*
X0065750Y0085693D02*
X0066750Y0085693D01*
X0066750Y0086692D02*
X0065750Y0086692D01*
X0069405Y0086692D02*
X0081725Y0086692D01*
X0081147Y0085693D02*
X0070248Y0085693D01*
X0070706Y0084695D02*
X0080734Y0084695D01*
X0080581Y0083696D02*
X0070930Y0083696D01*
X0070950Y0082698D02*
X0080581Y0082698D01*
X0080581Y0081699D02*
X0070950Y0081699D01*
X0070950Y0080701D02*
X0080581Y0080701D01*
X0083716Y0071714D02*
X0007468Y0071714D01*
X0007468Y0070716D02*
X0106566Y0070716D01*
X0106566Y0071714D02*
X0088784Y0071714D01*
X0090179Y0072713D02*
X0106566Y0072713D01*
X0106566Y0073711D02*
X0091106Y0073711D01*
X0091520Y0074710D02*
X0106566Y0074710D01*
X0106566Y0075708D02*
X0091918Y0075708D01*
X0091918Y0076707D02*
X0106566Y0076707D01*
X0106566Y0077705D02*
X0091918Y0077705D01*
X0091918Y0078704D02*
X0106566Y0078704D01*
X0106566Y0079702D02*
X0091918Y0079702D01*
X0091918Y0080701D02*
X0106566Y0080701D01*
X0106566Y0081699D02*
X0091918Y0081699D01*
X0091918Y0082698D02*
X0106649Y0082698D01*
X0107232Y0083696D02*
X0091918Y0083696D01*
X0106566Y0069717D02*
X0007468Y0069717D01*
X0007468Y0068719D02*
X0106566Y0068719D01*
X0106566Y0067720D02*
X0007468Y0067720D01*
X0007468Y0066722D02*
X0106566Y0066722D01*
X0106895Y0065723D02*
X0105076Y0065723D01*
X0106070Y0064725D02*
X0106430Y0064725D01*
X0096401Y0065723D02*
X0007468Y0065723D01*
X0007468Y0064725D02*
X0069758Y0064725D01*
X0068760Y0063726D02*
X0007468Y0063726D01*
X0007468Y0062728D02*
X0068044Y0062728D01*
X0067631Y0061729D02*
X0007468Y0061729D01*
X0007468Y0060731D02*
X0067381Y0060731D01*
X0067381Y0059732D02*
X0007468Y0059732D01*
X0007468Y0058734D02*
X0067439Y0058734D01*
X0067853Y0057735D02*
X0007468Y0057735D01*
X0007468Y0056737D02*
X0068297Y0056737D01*
X0069296Y0055738D02*
X0007468Y0055738D01*
X0007468Y0054739D02*
X0070937Y0054739D01*
X0082742Y0064725D02*
X0095406Y0064725D01*
X0095120Y0063726D02*
X0083740Y0063726D01*
X0063919Y0072713D02*
X0007468Y0072713D01*
X0007468Y0073711D02*
X0062692Y0073711D01*
X0062040Y0074710D02*
X0007468Y0074710D01*
X0007468Y0075708D02*
X0061664Y0075708D01*
X0061550Y0076707D02*
X0007468Y0076707D01*
X0007468Y0077705D02*
X0061550Y0077705D01*
X0070950Y0037765D02*
X0071550Y0037765D01*
X0071550Y0036766D02*
X0070950Y0036766D01*
X0070950Y0035768D02*
X0071550Y0035768D01*
X0071550Y0034769D02*
X0070950Y0034769D01*
X0066450Y0032772D02*
X0063100Y0032772D01*
X0064099Y0031774D02*
X0066450Y0031774D01*
X0067437Y0030775D02*
X0065097Y0030775D01*
X0059846Y0026781D02*
X0050648Y0026781D01*
X0051646Y0027780D02*
X0058848Y0027780D01*
X0060845Y0025783D02*
X0048501Y0025783D01*
X0039599Y0025783D02*
X0022901Y0025783D01*
X0025048Y0026781D02*
X0037452Y0026781D01*
X0036454Y0027780D02*
X0026046Y0027780D01*
X0026297Y0034769D02*
X0036203Y0034769D01*
X0037201Y0035768D02*
X0025299Y0035768D01*
X0023507Y0036766D02*
X0038993Y0036766D01*
X0038730Y0017795D02*
X0023770Y0017795D01*
X0025101Y0016796D02*
X0037399Y0016796D01*
X0036695Y0015798D02*
X0025805Y0015798D01*
X0026202Y0014799D02*
X0036298Y0014799D01*
X0036171Y0013100D02*
X0036266Y0012499D01*
X0036494Y0011796D01*
X0036830Y0011137D01*
X0037265Y0010538D01*
X0037788Y0010015D01*
X0038387Y0009580D01*
X0039046Y0009244D01*
X0039749Y0009016D01*
X0040480Y0008900D01*
X0043550Y0008900D01*
X0043550Y0013100D01*
X0036171Y0013100D01*
X0036218Y0012802D02*
X0026282Y0012802D01*
X0026329Y0013100D02*
X0026234Y0012499D01*
X0026006Y0011796D01*
X0025670Y0011137D01*
X0025235Y0010538D01*
X0024712Y0010015D01*
X0024113Y0009580D01*
X0023454Y0009244D01*
X0022751Y0009016D01*
X0022020Y0008900D01*
X0018950Y0008900D01*
X0018950Y0013100D01*
X0026329Y0013100D01*
X0026008Y0011803D02*
X0036492Y0011803D01*
X0037071Y0010805D02*
X0025429Y0010805D01*
X0024425Y0009806D02*
X0038075Y0009806D01*
X0043550Y0009806D02*
X0044550Y0009806D01*
X0044550Y0010805D02*
X0043550Y0010805D01*
X0043550Y0011803D02*
X0044550Y0011803D01*
X0044550Y0012802D02*
X0043550Y0012802D01*
X0043550Y0015798D02*
X0044550Y0015798D01*
X0044550Y0016796D02*
X0043550Y0016796D01*
X0043550Y0017795D02*
X0044550Y0017795D01*
X0018950Y0017795D02*
X0017950Y0017795D01*
X0017950Y0016796D02*
X0018950Y0016796D01*
X0018950Y0015798D02*
X0017950Y0015798D01*
X0017950Y0012802D02*
X0018950Y0012802D01*
X0018950Y0011803D02*
X0017950Y0011803D01*
X0017950Y0010805D02*
X0018950Y0010805D01*
X0018950Y0009806D02*
X0017950Y0009806D01*
X0136294Y0065723D02*
X0142065Y0065723D01*
X0141606Y0066722D02*
X0136623Y0066722D01*
X0136623Y0067720D02*
X0141606Y0067720D01*
X0141606Y0068719D02*
X0136623Y0068719D01*
X0136623Y0069717D02*
X0141606Y0069717D01*
X0141606Y0070716D02*
X0136623Y0070716D01*
X0136623Y0071714D02*
X0141606Y0071714D01*
X0141606Y0072713D02*
X0136623Y0072713D01*
X0136623Y0073711D02*
X0141606Y0073711D01*
X0141606Y0074710D02*
X0136623Y0074710D01*
X0136623Y0075708D02*
X0141606Y0075708D01*
X0141606Y0076707D02*
X0136623Y0076707D01*
X0136623Y0077705D02*
X0141606Y0077705D01*
X0141606Y0078704D02*
X0136623Y0078704D01*
X0136623Y0079702D02*
X0141606Y0079702D01*
X0141606Y0080701D02*
X0136623Y0080701D01*
X0136623Y0081699D02*
X0141606Y0081699D01*
X0141606Y0082698D02*
X0136540Y0082698D01*
X0135957Y0083696D02*
X0142075Y0083696D01*
X0142480Y0084695D02*
X0135020Y0084695D01*
X0136019Y0085693D02*
X0141481Y0085693D01*
X0140483Y0086692D02*
X0137017Y0086692D01*
X0137150Y0087690D02*
X0140350Y0087690D01*
X0140350Y0088689D02*
X0137150Y0088689D01*
X0137150Y0089687D02*
X0140350Y0089687D01*
X0140360Y0090686D02*
X0137140Y0090686D01*
X0136141Y0091684D02*
X0141359Y0091684D01*
X0142357Y0092683D02*
X0135143Y0092683D01*
X0170996Y0083696D02*
X0177311Y0083696D01*
X0177021Y0083406D02*
X0176645Y0082499D01*
X0176645Y0066517D01*
X0177021Y0065610D01*
X0177715Y0064915D01*
X0178622Y0064539D01*
X0187204Y0064539D01*
X0188112Y0064915D01*
X0188806Y0065610D01*
X0189182Y0066517D01*
X0189182Y0082499D01*
X0188806Y0083406D01*
X0188112Y0084101D01*
X0187204Y0084476D01*
X0178622Y0084476D01*
X0177715Y0084101D01*
X0177021Y0083406D01*
X0176727Y0082698D02*
X0171580Y0082698D01*
X0171662Y0081699D02*
X0176645Y0081699D01*
X0176645Y0080701D02*
X0171662Y0080701D01*
X0171662Y0079702D02*
X0176645Y0079702D01*
X0176645Y0078704D02*
X0171662Y0078704D01*
X0171662Y0077705D02*
X0176645Y0077705D01*
X0176645Y0076707D02*
X0171662Y0076707D01*
X0171662Y0075708D02*
X0176645Y0075708D01*
X0176645Y0074710D02*
X0171662Y0074710D01*
X0171662Y0073711D02*
X0176645Y0073711D01*
X0176645Y0072713D02*
X0171662Y0072713D01*
X0171662Y0071714D02*
X0176645Y0071714D01*
X0176645Y0070716D02*
X0171662Y0070716D01*
X0171662Y0069717D02*
X0176645Y0069717D01*
X0176645Y0068719D02*
X0171662Y0068719D01*
X0171662Y0067720D02*
X0176645Y0067720D01*
X0176645Y0066722D02*
X0171662Y0066722D01*
X0171333Y0065723D02*
X0176974Y0065723D01*
X0178175Y0064725D02*
X0170132Y0064725D01*
X0187652Y0064725D02*
X0195695Y0064725D01*
X0194493Y0065723D02*
X0188853Y0065723D01*
X0189182Y0066722D02*
X0194165Y0066722D01*
X0194165Y0067720D02*
X0189182Y0067720D01*
X0189182Y0068719D02*
X0194165Y0068719D01*
X0194165Y0069717D02*
X0189182Y0069717D01*
X0189182Y0070716D02*
X0194165Y0070716D01*
X0194165Y0071714D02*
X0189182Y0071714D01*
X0189182Y0072713D02*
X0194165Y0072713D01*
X0194165Y0073711D02*
X0189182Y0073711D01*
X0189182Y0074710D02*
X0194165Y0074710D01*
X0194165Y0075708D02*
X0189182Y0075708D01*
X0189182Y0076707D02*
X0194165Y0076707D01*
X0194165Y0077705D02*
X0189182Y0077705D01*
X0189182Y0078704D02*
X0194165Y0078704D01*
X0194165Y0079702D02*
X0189182Y0079702D01*
X0189182Y0080701D02*
X0194165Y0080701D01*
X0194165Y0081699D02*
X0189182Y0081699D01*
X0189099Y0082698D02*
X0194247Y0082698D01*
X0194831Y0083696D02*
X0188516Y0083696D01*
X0231074Y0059732D02*
X0253400Y0059732D01*
X0253400Y0058734D02*
X0232116Y0058734D01*
X0232761Y0057735D02*
X0253400Y0057735D01*
X0253400Y0056737D02*
X0233170Y0056737D01*
X0233386Y0055738D02*
X0253400Y0055738D01*
X0253400Y0053741D02*
X0233304Y0053741D01*
X0233283Y0053612D02*
X0233424Y0054500D01*
X0228000Y0054500D01*
X0228000Y0049076D01*
X0228888Y0049217D01*
X0229776Y0049505D01*
X0230608Y0049929D01*
X0231363Y0050478D01*
X0232022Y0051137D01*
X0232571Y0051892D01*
X0232995Y0052724D01*
X0233283Y0053612D01*
X0233001Y0052742D02*
X0253400Y0052742D01*
X0253400Y0051744D02*
X0232463Y0051744D01*
X0231630Y0050745D02*
X0253400Y0050745D01*
X0253660Y0049747D02*
X0230250Y0049747D01*
X0228000Y0049747D02*
X0227500Y0049747D01*
X0227500Y0050745D02*
X0228000Y0050745D01*
X0228000Y0051744D02*
X0227500Y0051744D01*
X0227500Y0052742D02*
X0228000Y0052742D01*
X0228000Y0053741D02*
X0227500Y0053741D01*
X0228000Y0054739D02*
X0264400Y0054739D01*
X0264400Y0053741D02*
X0265400Y0053741D01*
X0265400Y0054739D02*
X0272531Y0054739D01*
X0265400Y0055738D02*
X0264400Y0055738D01*
X0264400Y0056737D02*
X0265400Y0056737D01*
X0265400Y0057735D02*
X0264400Y0057735D01*
X0264400Y0058734D02*
X0265400Y0058734D01*
X0265400Y0059732D02*
X0264400Y0059732D01*
X0264400Y0052742D02*
X0265400Y0052742D01*
X0265400Y0051744D02*
X0264400Y0051744D01*
X0264400Y0050745D02*
X0265400Y0050745D01*
X0265400Y0049747D02*
X0264400Y0049747D01*
X0272531Y0048748D02*
X0227500Y0048748D01*
X0227500Y0047750D02*
X0272531Y0047750D01*
X0272531Y0046751D02*
X0227500Y0046751D01*
X0227500Y0045753D02*
X0272531Y0045753D01*
X0272531Y0044754D02*
X0227500Y0044754D01*
X0227500Y0043756D02*
X0272531Y0043756D01*
X0272531Y0042757D02*
X0227500Y0042757D01*
X0227500Y0041759D02*
X0272531Y0041759D01*
X0272531Y0040760D02*
X0228959Y0040760D01*
X0228888Y0040783D02*
X0228000Y0040924D01*
X0228000Y0035500D01*
X0233424Y0035500D01*
X0233283Y0036388D01*
X0232995Y0037276D01*
X0232571Y0038108D01*
X0232022Y0038863D01*
X0231363Y0039522D01*
X0230608Y0040071D01*
X0229776Y0040495D01*
X0228888Y0040783D01*
X0228000Y0040760D02*
X0227500Y0040760D01*
X0227500Y0039762D02*
X0228000Y0039762D01*
X0228000Y0038763D02*
X0227500Y0038763D01*
X0227500Y0037765D02*
X0228000Y0037765D01*
X0228000Y0036766D02*
X0227500Y0036766D01*
X0227500Y0035768D02*
X0228000Y0035768D01*
X0228000Y0034769D02*
X0272531Y0034769D01*
X0272531Y0033771D02*
X0233308Y0033771D01*
X0233283Y0033612D02*
X0233424Y0034500D01*
X0228000Y0034500D01*
X0228000Y0029076D01*
X0228888Y0029217D01*
X0229776Y0029505D01*
X0230608Y0029929D01*
X0231363Y0030478D01*
X0232022Y0031137D01*
X0232571Y0031892D01*
X0232995Y0032724D01*
X0233283Y0033612D01*
X0233010Y0032772D02*
X0272531Y0032772D01*
X0272531Y0031774D02*
X0232485Y0031774D01*
X0231660Y0030775D02*
X0272531Y0030775D01*
X0272531Y0029777D02*
X0230309Y0029777D01*
X0228000Y0029777D02*
X0227000Y0029777D01*
X0227000Y0029076D02*
X0227000Y0034500D01*
X0221576Y0034500D01*
X0221717Y0033612D01*
X0222005Y0032724D01*
X0222429Y0031892D01*
X0222978Y0031137D01*
X0223637Y0030478D01*
X0224392Y0029929D01*
X0225224Y0029505D01*
X0226112Y0029217D01*
X0227000Y0029076D01*
X0227000Y0030775D02*
X0228000Y0030775D01*
X0228000Y0031774D02*
X0227000Y0031774D01*
X0227000Y0032772D02*
X0228000Y0032772D01*
X0228000Y0033771D02*
X0227000Y0033771D01*
X0227000Y0034769D02*
X0208000Y0034769D01*
X0208000Y0034500D02*
X0213424Y0034500D01*
X0213283Y0033612D01*
X0212995Y0032724D01*
X0212571Y0031892D01*
X0212022Y0031137D01*
X0211363Y0030478D01*
X0210608Y0029929D01*
X0209776Y0029505D01*
X0208888Y0029217D01*
X0208000Y0029076D01*
X0208000Y0034500D01*
X0208000Y0033771D02*
X0207000Y0033771D01*
X0207000Y0032772D02*
X0208000Y0032772D01*
X0208000Y0031774D02*
X0207000Y0031774D01*
X0207000Y0030775D02*
X0208000Y0030775D01*
X0208000Y0029777D02*
X0207000Y0029777D01*
X0210309Y0029777D02*
X0224691Y0029777D01*
X0223340Y0030775D02*
X0211660Y0030775D01*
X0212485Y0031774D02*
X0222515Y0031774D01*
X0221990Y0032772D02*
X0213010Y0032772D01*
X0213308Y0033771D02*
X0221692Y0033771D01*
X0231033Y0039762D02*
X0272531Y0039762D01*
X0272531Y0038763D02*
X0232095Y0038763D01*
X0232746Y0037765D02*
X0272531Y0037765D01*
X0272531Y0036766D02*
X0233160Y0036766D01*
X0233381Y0035768D02*
X0272531Y0035768D01*
X0251634Y0019792D02*
X0248366Y0019792D01*
X0249365Y0018793D02*
X0250635Y0018793D01*
X0241634Y0019792D02*
X0238366Y0019792D01*
X0239365Y0018793D02*
X0240635Y0018793D01*
X0211634Y0019792D02*
X0208366Y0019792D01*
X0209365Y0018793D02*
X0210635Y0018793D01*
X0270500Y0105664D02*
X0272531Y0105664D01*
X0272531Y0106662D02*
X0270500Y0106662D01*
X0269910Y0107661D02*
X0272531Y0107661D01*
X0272531Y0108659D02*
X0268912Y0108659D01*
X0268598Y0109658D02*
X0272531Y0109658D01*
X0272531Y0110656D02*
X0269597Y0110656D01*
X0270595Y0111655D02*
X0272531Y0111655D01*
X0272531Y0112653D02*
X0271468Y0112653D01*
X0271468Y0113652D02*
X0272531Y0113652D01*
X0272531Y0114650D02*
X0271468Y0114650D01*
X0271468Y0115649D02*
X0272531Y0115649D01*
X0272531Y0116647D02*
X0271468Y0116647D01*
X0271295Y0117646D02*
X0272531Y0117646D01*
X0272531Y0118644D02*
X0270297Y0118644D01*
X0269298Y0119643D02*
X0272531Y0119643D01*
X0272531Y0120641D02*
X0269582Y0120641D01*
X0270580Y0121640D02*
X0272531Y0121640D01*
X0272531Y0122638D02*
X0271468Y0122638D01*
X0271468Y0123637D02*
X0272531Y0123637D01*
X0272531Y0124635D02*
X0271468Y0124635D01*
X0271468Y0125634D02*
X0272531Y0125634D01*
X0272531Y0126632D02*
X0271468Y0126632D01*
X0271310Y0127631D02*
X0272531Y0127631D01*
X0272531Y0128629D02*
X0270311Y0128629D01*
X0269313Y0129628D02*
X0272531Y0129628D01*
X0272531Y0130626D02*
X0268314Y0130626D01*
X0272531Y0131625D02*
X0225700Y0131625D01*
X0226699Y0132623D02*
X0272531Y0132623D01*
X0262686Y0130626D02*
X0260317Y0130626D01*
X0261205Y0129628D02*
X0261687Y0129628D01*
X0236169Y0125634D02*
X0235169Y0125634D01*
X0235169Y0124635D02*
X0236169Y0124635D01*
X0236169Y0123637D02*
X0235169Y0123637D01*
X0235169Y0120641D02*
X0236169Y0120641D01*
X0236169Y0119643D02*
X0235169Y0119643D01*
X0235169Y0118644D02*
X0236169Y0118644D01*
X0236169Y0117646D02*
X0235169Y0117646D01*
X0235169Y0116647D02*
X0236169Y0116647D01*
X0226850Y0116647D02*
X0089518Y0116647D01*
X0089518Y0117646D02*
X0226669Y0117646D01*
X0226669Y0118644D02*
X0089518Y0118644D01*
X0089518Y0119643D02*
X0226669Y0119643D01*
X0226669Y0120641D02*
X0089518Y0120641D01*
X0089518Y0131625D02*
X0221800Y0131625D01*
X0220801Y0132623D02*
X0089518Y0132623D01*
X0089518Y0133622D02*
X0219803Y0133622D01*
X0219100Y0134620D02*
X0089518Y0134620D01*
X0089518Y0135619D02*
X0219100Y0135619D01*
X0219100Y0136617D02*
X0089518Y0136617D01*
X0089518Y0137616D02*
X0219100Y0137616D01*
X0219539Y0138614D02*
X0089518Y0138614D01*
X0118532Y0140611D02*
X0124657Y0140611D01*
X0124129Y0141610D02*
X0119060Y0141610D01*
X0119103Y0142608D02*
X0124086Y0142608D01*
X0124086Y0143607D02*
X0119103Y0143607D01*
X0119103Y0144605D02*
X0124086Y0144605D01*
X0124086Y0145604D02*
X0119103Y0145604D01*
X0119103Y0146603D02*
X0124086Y0146603D01*
X0124086Y0147601D02*
X0119103Y0147601D01*
X0119103Y0148600D02*
X0124086Y0148600D01*
X0124086Y0149598D02*
X0119103Y0149598D01*
X0119103Y0150597D02*
X0124086Y0150597D01*
X0124086Y0151595D02*
X0119103Y0151595D01*
X0119103Y0152594D02*
X0124086Y0152594D01*
X0124086Y0153592D02*
X0119103Y0153592D01*
X0119103Y0154591D02*
X0124086Y0154591D01*
X0124086Y0155589D02*
X0119103Y0155589D01*
X0119103Y0156588D02*
X0124086Y0156588D01*
X0124086Y0157586D02*
X0119103Y0157586D01*
X0118735Y0158585D02*
X0124454Y0158585D01*
X0125846Y0159583D02*
X0117343Y0159583D01*
X0126481Y0164576D02*
X0142381Y0164576D01*
X0142381Y0163577D02*
X0101950Y0163577D01*
X0100951Y0162579D02*
X0142400Y0162579D01*
X0142813Y0161580D02*
X0099953Y0161580D01*
X0097200Y0173950D02*
X0095512Y0173950D01*
X0092700Y0176762D01*
X0092700Y0178450D01*
X0097200Y0178450D01*
X0097200Y0173950D01*
X0097200Y0174561D02*
X0097800Y0174561D01*
X0097800Y0175559D02*
X0097200Y0175559D01*
X0097200Y0176558D02*
X0097800Y0176558D01*
X0097800Y0177556D02*
X0097200Y0177556D01*
X0097200Y0178555D02*
X0007468Y0178555D01*
X0007468Y0179553D02*
X0092700Y0179553D01*
X0092700Y0180552D02*
X0007468Y0180552D01*
X0007468Y0181550D02*
X0093512Y0181550D01*
X0094511Y0182549D02*
X0007468Y0182549D01*
X0007468Y0183547D02*
X0095509Y0183547D01*
X0097200Y0183547D02*
X0097800Y0183547D01*
X0097800Y0182549D02*
X0097200Y0182549D01*
X0097200Y0181550D02*
X0097800Y0181550D01*
X0097800Y0180552D02*
X0097200Y0180552D01*
X0097200Y0179553D02*
X0097800Y0179553D01*
X0101488Y0181550D02*
X0102143Y0181550D01*
X0103141Y0182549D02*
X0100489Y0182549D01*
X0099491Y0183547D02*
X0104140Y0183547D01*
X0110860Y0183547D02*
X0112942Y0183547D01*
X0112732Y0182549D02*
X0111859Y0182549D01*
X0113705Y0184546D02*
X0007468Y0184546D01*
X0007468Y0185544D02*
X0113614Y0185544D01*
X0112904Y0186543D02*
X0007468Y0186543D01*
X0007468Y0187541D02*
X0112732Y0187541D01*
X0112732Y0188540D02*
X0007468Y0188540D01*
X0007468Y0189539D02*
X0112732Y0189539D01*
X0112732Y0190537D02*
X0007468Y0190537D01*
X0007468Y0191536D02*
X0112732Y0191536D01*
X0112732Y0192534D02*
X0007468Y0192534D01*
X0007468Y0193533D02*
X0112732Y0193533D01*
X0112853Y0194531D02*
X0007468Y0194531D01*
X0007468Y0195530D02*
X0113491Y0195530D01*
X0115731Y0196528D02*
X0007468Y0196528D01*
X0007468Y0197527D02*
X0115731Y0197527D01*
X0115731Y0198525D02*
X0007468Y0198525D01*
X0007468Y0199524D02*
X0076318Y0199524D01*
X0075320Y0200522D02*
X0007468Y0200522D01*
X0007468Y0201521D02*
X0074321Y0201521D01*
X0073323Y0202519D02*
X0007468Y0202519D01*
X0007468Y0203518D02*
X0073231Y0203518D01*
X0073231Y0204516D02*
X0007468Y0204516D01*
X0007468Y0205515D02*
X0073231Y0205515D01*
X0073231Y0206513D02*
X0007468Y0206513D01*
X0007468Y0207512D02*
X0073354Y0207512D01*
X0074352Y0208510D02*
X0007468Y0208510D01*
X0007468Y0209509D02*
X0075351Y0209509D01*
X0076349Y0210507D02*
X0007468Y0210507D01*
X0007468Y0177556D02*
X0092700Y0177556D01*
X0092904Y0176558D02*
X0007468Y0176558D01*
X0007468Y0175559D02*
X0093902Y0175559D01*
X0094901Y0174561D02*
X0007468Y0174561D01*
X0081682Y0199524D02*
X0086318Y0199524D01*
X0085320Y0200522D02*
X0082680Y0200522D01*
X0083679Y0201521D02*
X0084321Y0201521D01*
X0084352Y0208510D02*
X0083648Y0208510D01*
X0082649Y0209509D02*
X0085351Y0209509D01*
X0086349Y0210507D02*
X0081651Y0210507D01*
X0091651Y0210507D02*
X0096349Y0210507D01*
X0095351Y0209509D02*
X0092649Y0209509D01*
X0093648Y0208510D02*
X0094352Y0208510D01*
X0101651Y0210507D02*
X0116349Y0210507D01*
X0115351Y0209509D02*
X0111279Y0209509D01*
X0112278Y0208510D02*
X0114352Y0208510D01*
X0113354Y0207512D02*
X0113276Y0207512D01*
X0109484Y0207512D02*
X0108516Y0207512D01*
X0108516Y0208510D02*
X0109484Y0208510D01*
X0109484Y0209509D02*
X0108516Y0209509D01*
X0106721Y0209509D02*
X0102649Y0209509D01*
X0103648Y0208510D02*
X0105722Y0208510D01*
X0104724Y0207512D02*
X0104646Y0207512D01*
X0108516Y0206513D02*
X0109484Y0206513D01*
X0109484Y0205515D02*
X0108516Y0205515D01*
X0108516Y0203518D02*
X0109484Y0203518D01*
X0109484Y0202519D02*
X0108516Y0202519D01*
X0108516Y0201521D02*
X0109484Y0201521D01*
X0109484Y0200522D02*
X0108516Y0200522D01*
X0106690Y0200522D02*
X0102680Y0200522D01*
X0101681Y0199524D02*
X0115731Y0199524D01*
X0115320Y0200522D02*
X0111310Y0200522D01*
X0112309Y0201521D02*
X0114321Y0201521D01*
X0113323Y0202519D02*
X0113307Y0202519D01*
X0105691Y0201521D02*
X0103679Y0201521D01*
X0104677Y0202519D02*
X0104693Y0202519D01*
X0096318Y0199524D02*
X0091681Y0199524D01*
X0092680Y0200522D02*
X0095320Y0200522D01*
X0094321Y0201521D02*
X0093679Y0201521D01*
X0121651Y0210507D02*
X0126349Y0210507D01*
X0125351Y0209509D02*
X0122649Y0209509D01*
X0123648Y0208510D02*
X0124352Y0208510D01*
X0131651Y0210507D02*
X0136349Y0210507D01*
X0135351Y0209509D02*
X0132649Y0209509D01*
X0133648Y0208510D02*
X0134352Y0208510D01*
X0141651Y0210507D02*
X0146349Y0210507D01*
X0145351Y0209509D02*
X0142649Y0209509D01*
X0143648Y0208510D02*
X0144352Y0208510D01*
X0151651Y0210507D02*
X0156349Y0210507D01*
X0155351Y0209509D02*
X0152649Y0209509D01*
X0153648Y0208510D02*
X0154352Y0208510D01*
X0161651Y0210507D02*
X0166349Y0210507D01*
X0165351Y0209509D02*
X0162649Y0209509D01*
X0163648Y0208510D02*
X0164352Y0208510D01*
X0164321Y0201521D02*
X0163679Y0201521D01*
X0162680Y0200522D02*
X0165320Y0200522D01*
X0166318Y0199524D02*
X0161682Y0199524D01*
X0168250Y0194531D02*
X0169250Y0194531D01*
X0169250Y0193533D02*
X0168250Y0193533D01*
X0168250Y0192534D02*
X0169250Y0192534D01*
X0169250Y0191536D02*
X0168250Y0191536D01*
X0163707Y0189539D02*
X0156537Y0189539D01*
X0157676Y0188540D02*
X0163707Y0188540D01*
X0163707Y0187541D02*
X0158675Y0187541D01*
X0145963Y0189539D02*
X0132268Y0189539D01*
X0132268Y0190537D02*
X0144616Y0190537D01*
X0143903Y0191536D02*
X0132268Y0191536D01*
X0132268Y0192534D02*
X0143503Y0192534D01*
X0144824Y0188540D02*
X0132268Y0188540D01*
X0132268Y0187541D02*
X0143825Y0187541D01*
X0143071Y0186543D02*
X0132268Y0186543D01*
X0132268Y0185544D02*
X0142658Y0185544D01*
X0142381Y0184546D02*
X0132268Y0184546D01*
X0132268Y0183547D02*
X0142381Y0183547D01*
X0142412Y0182549D02*
X0132268Y0182549D01*
X0132268Y0181550D02*
X0142826Y0181550D01*
X0143239Y0180552D02*
X0132268Y0180552D01*
X0132268Y0179553D02*
X0144230Y0179553D01*
X0144838Y0178555D02*
X0132268Y0178555D01*
X0132268Y0177556D02*
X0143840Y0177556D01*
X0143078Y0176558D02*
X0132268Y0176558D01*
X0132268Y0175559D02*
X0142664Y0175559D01*
X0142381Y0174561D02*
X0132268Y0174561D01*
X0132268Y0173562D02*
X0142381Y0173562D01*
X0142406Y0172564D02*
X0132268Y0172564D01*
X0132268Y0171565D02*
X0142819Y0171565D01*
X0143233Y0170567D02*
X0132151Y0170567D01*
X0131691Y0169568D02*
X0144215Y0169568D01*
X0144873Y0168570D02*
X0130692Y0168570D01*
X0129694Y0167571D02*
X0143855Y0167571D01*
X0143084Y0166573D02*
X0128695Y0166573D01*
X0127697Y0165574D02*
X0142670Y0165574D01*
X0169902Y0159583D02*
X0170703Y0159583D01*
X0171294Y0158585D02*
X0171369Y0158585D01*
X0171662Y0157586D02*
X0176645Y0157586D01*
X0176645Y0156588D02*
X0171662Y0156588D01*
X0171662Y0155589D02*
X0176645Y0155589D01*
X0176645Y0154591D02*
X0171662Y0154591D01*
X0171662Y0153592D02*
X0176645Y0153592D01*
X0176645Y0152594D02*
X0171662Y0152594D01*
X0171662Y0151595D02*
X0176645Y0151595D01*
X0176645Y0150597D02*
X0171662Y0150597D01*
X0171662Y0149598D02*
X0176645Y0149598D01*
X0176645Y0148600D02*
X0171662Y0148600D01*
X0171662Y0147601D02*
X0176645Y0147601D01*
X0176645Y0146603D02*
X0171662Y0146603D01*
X0171662Y0145604D02*
X0176645Y0145604D01*
X0176645Y0144605D02*
X0171662Y0144605D01*
X0171662Y0143607D02*
X0176645Y0143607D01*
X0176645Y0142608D02*
X0171662Y0142608D01*
X0171619Y0141610D02*
X0176688Y0141610D01*
X0177216Y0140611D02*
X0171091Y0140611D01*
X0179372Y0166573D02*
X0182738Y0166573D01*
X0182696Y0167571D02*
X0183025Y0167571D01*
X0183171Y0168570D02*
X0184024Y0168570D01*
X0171744Y0168570D02*
X0170776Y0168570D01*
X0170776Y0169568D02*
X0171744Y0169568D01*
X0171744Y0170567D02*
X0170776Y0170567D01*
X0125320Y0200522D02*
X0122680Y0200522D01*
X0123679Y0201521D02*
X0124321Y0201521D01*
X0102533Y0175559D02*
X0101098Y0175559D01*
X0100099Y0174561D02*
X0103531Y0174561D01*
D27*
X0112835Y0074508D02*
X0112835Y0061073D01*
X0111762Y0060000D01*
X0100738Y0060000D02*
X0100738Y0050000D01*
X0100738Y0060000D02*
X0076250Y0060000D01*
D28*
X0217500Y0067500D02*
X0217500Y0045000D01*
X0217500Y0067500D02*
X0218750Y0068750D01*
X0220000Y0068750D01*
X0217500Y0067500D02*
X0217500Y0074508D01*
X0217953Y0074508D01*
D29*
X0220000Y0068750D02*
X0237500Y0068750D01*
X0250000Y0072500D01*
X0264900Y0072500D01*
M02*
