G75*
%MOIN*%
%OFA0B0*%
%FSLAX25Y25*%
%IPPOS*%
%LPD*%
%AMOC8*
5,1,8,0,0,1.08239X$1,22.5*
%
%ADD10OC8,0.06600*%
%ADD11OC8,0.07000*%
%ADD12R,0.07000X0.07000*%
%ADD13C,0.06400*%
%ADD14C,0.08858*%
%ADD15R,0.20000X0.09000*%
%ADD16OC8,0.04000*%
%ADD17C,0.05000*%
%ADD18C,0.01000*%
%ADD19OC8,0.03969*%
%ADD20C,0.02400*%
%ADD21C,0.01600*%
D10*
X0115000Y0015000D03*
X0125000Y0015000D03*
X0135000Y0015000D03*
X0145000Y0015000D03*
X0155000Y0015000D03*
X0165000Y0015000D03*
X0175000Y0015000D03*
X0185000Y0015000D03*
X0205000Y0015000D03*
X0215000Y0015000D03*
X0225000Y0015000D03*
X0235000Y0015000D03*
X0245000Y0015000D03*
X0255000Y0015000D03*
X0137500Y0033750D03*
X0127500Y0033750D03*
X0098750Y0162500D03*
X0098750Y0172500D03*
X0099000Y0205000D03*
X0089000Y0205000D03*
X0079000Y0205000D03*
X0109000Y0205000D03*
X0119000Y0205000D03*
X0129000Y0205000D03*
X0139000Y0205000D03*
X0149000Y0205000D03*
X0159000Y0205000D03*
X0169000Y0205000D03*
X0185000Y0205000D03*
X0195000Y0205000D03*
X0205000Y0205000D03*
X0215000Y0205000D03*
X0225000Y0205000D03*
X0235000Y0205000D03*
X0245000Y0205000D03*
X0255000Y0205000D03*
D11*
X0265500Y0125000D03*
X0265500Y0115000D03*
X0255500Y0115000D03*
X0255500Y0105000D03*
X0265500Y0105000D03*
D12*
X0255500Y0125000D03*
D13*
X0145000Y0183050D02*
X0145000Y0189450D01*
X0135000Y0189450D02*
X0135000Y0183050D01*
X0125000Y0183050D02*
X0125000Y0189450D01*
X0115000Y0189450D02*
X0115000Y0183050D01*
X0083200Y0071250D02*
X0076800Y0071250D01*
X0100000Y0064450D02*
X0100000Y0058050D01*
X0083200Y0051250D02*
X0076800Y0051250D01*
X0047250Y0031400D02*
X0040850Y0031400D01*
X0021650Y0031400D02*
X0015250Y0031400D01*
X0015250Y0013600D02*
X0021650Y0013600D01*
X0040850Y0013600D02*
X0047250Y0013600D01*
D14*
X0211250Y0036250D03*
X0221250Y0046250D03*
X0211250Y0056250D03*
X0231250Y0056250D03*
X0231250Y0036250D03*
D15*
X0264900Y0055100D03*
X0264900Y0089900D03*
D16*
X0230000Y0136250D03*
X0173750Y0131250D03*
X0147500Y0097500D03*
X0138750Y0097500D03*
X0158750Y0055000D03*
X0105000Y0155000D03*
D17*
X0162500Y0120000D02*
X0173750Y0131250D01*
X0225000Y0131250D01*
X0230000Y0136250D01*
X0162500Y0120000D02*
X0162500Y0058750D01*
X0158750Y0055000D01*
D18*
X0007468Y0007468D02*
X0007468Y0127281D01*
X0045541Y0127281D01*
X0046540Y0127695D01*
X0047305Y0128460D01*
X0047718Y0129459D01*
X0047718Y0180541D01*
X0047305Y0181540D01*
X0046540Y0182305D01*
X0045541Y0182718D01*
X0007468Y0182718D01*
X0007468Y0212531D01*
X0257977Y0212531D01*
X0262531Y0207977D01*
X0262531Y0163509D01*
X0262907Y0162602D01*
X0263602Y0161907D01*
X0272531Y0152977D01*
X0272531Y0095900D01*
X0265400Y0095900D01*
X0265400Y0090400D01*
X0264400Y0090400D01*
X0264400Y0095900D01*
X0254703Y0095900D01*
X0254321Y0095798D01*
X0253979Y0095600D01*
X0253700Y0095321D01*
X0253502Y0094979D01*
X0253400Y0094597D01*
X0253400Y0090400D01*
X0264400Y0090400D01*
X0264400Y0089400D01*
X0265400Y0089400D01*
X0265400Y0090400D01*
X0272531Y0090400D01*
X0272531Y0089400D01*
X0265400Y0089400D01*
X0265400Y0083900D01*
X0272531Y0083900D01*
X0272531Y0061100D01*
X0265400Y0061100D01*
X0265400Y0055600D01*
X0264400Y0055600D01*
X0264400Y0061100D01*
X0254703Y0061100D01*
X0254321Y0060998D01*
X0253979Y0060800D01*
X0253700Y0060521D01*
X0253502Y0060179D01*
X0253400Y0059797D01*
X0253400Y0055600D01*
X0264400Y0055600D01*
X0264400Y0054600D01*
X0253400Y0054600D01*
X0253400Y0050403D01*
X0253502Y0050021D01*
X0253700Y0049679D01*
X0253979Y0049400D01*
X0254321Y0049202D01*
X0254703Y0049100D01*
X0264400Y0049100D01*
X0264400Y0054600D01*
X0265400Y0054600D01*
X0265400Y0055600D01*
X0272531Y0055600D01*
X0272531Y0054600D01*
X0265400Y0054600D01*
X0265400Y0049100D01*
X0272531Y0049100D01*
X0272531Y0026022D01*
X0262907Y0016398D01*
X0262531Y0015491D01*
X0262531Y0007468D01*
X0007468Y0007468D01*
X0007468Y0007809D02*
X0262531Y0007809D01*
X0262531Y0008808D02*
X0007468Y0008808D01*
X0007468Y0009806D02*
X0012475Y0009806D01*
X0012188Y0010015D02*
X0012787Y0009580D01*
X0013446Y0009244D01*
X0014149Y0009016D01*
X0014880Y0008900D01*
X0017950Y0008900D01*
X0017950Y0013100D01*
X0018950Y0013100D01*
X0018950Y0014100D01*
X0017950Y0014100D01*
X0017950Y0018300D01*
X0014880Y0018300D01*
X0014149Y0018184D01*
X0013446Y0017956D01*
X0012787Y0017620D01*
X0012188Y0017185D01*
X0011665Y0016662D01*
X0011230Y0016063D01*
X0010894Y0015404D01*
X0010666Y0014701D01*
X0010571Y0014100D01*
X0017950Y0014100D01*
X0017950Y0013100D01*
X0010571Y0013100D01*
X0010666Y0012499D01*
X0010894Y0011796D01*
X0011230Y0011137D01*
X0011665Y0010538D01*
X0012188Y0010015D01*
X0011471Y0010805D02*
X0007468Y0010805D01*
X0007468Y0011803D02*
X0010892Y0011803D01*
X0010618Y0012802D02*
X0007468Y0012802D01*
X0007468Y0013801D02*
X0017950Y0013801D01*
X0017950Y0014799D02*
X0018950Y0014799D01*
X0018950Y0014100D02*
X0018950Y0018300D01*
X0022020Y0018300D01*
X0022751Y0018184D01*
X0023454Y0017956D01*
X0024113Y0017620D01*
X0024712Y0017185D01*
X0025235Y0016662D01*
X0025670Y0016063D01*
X0026006Y0015404D01*
X0026234Y0014701D01*
X0026329Y0014100D01*
X0018950Y0014100D01*
X0018950Y0013801D02*
X0043550Y0013801D01*
X0043550Y0014100D02*
X0043550Y0013100D01*
X0044550Y0013100D01*
X0044550Y0014100D01*
X0043550Y0014100D01*
X0043550Y0018300D01*
X0040480Y0018300D01*
X0039749Y0018184D01*
X0039046Y0017956D01*
X0038387Y0017620D01*
X0037788Y0017185D01*
X0037265Y0016662D01*
X0036830Y0016063D01*
X0036494Y0015404D01*
X0036266Y0014701D01*
X0036171Y0014100D01*
X0043550Y0014100D01*
X0043550Y0014799D02*
X0044550Y0014799D01*
X0044550Y0014100D02*
X0044550Y0018300D01*
X0047620Y0018300D01*
X0048351Y0018184D01*
X0049054Y0017956D01*
X0049713Y0017620D01*
X0050312Y0017185D01*
X0050835Y0016662D01*
X0051270Y0016063D01*
X0051606Y0015404D01*
X0051834Y0014701D01*
X0051929Y0014100D01*
X0044550Y0014100D01*
X0044550Y0013801D02*
X0109231Y0013801D01*
X0109231Y0014799D02*
X0051802Y0014799D01*
X0051405Y0015798D02*
X0109231Y0015798D01*
X0109231Y0016796D02*
X0050701Y0016796D01*
X0049370Y0017795D02*
X0109637Y0017795D01*
X0109231Y0017389D02*
X0109231Y0012611D01*
X0112611Y0009231D01*
X0117389Y0009231D01*
X0120000Y0011842D01*
X0122611Y0009231D01*
X0127389Y0009231D01*
X0130000Y0011842D01*
X0132611Y0009231D01*
X0137389Y0009231D01*
X0140000Y0011842D01*
X0142611Y0009231D01*
X0147389Y0009231D01*
X0150000Y0011842D01*
X0152611Y0009231D01*
X0157389Y0009231D01*
X0160685Y0012527D01*
X0163012Y0010200D01*
X0164516Y0010200D01*
X0164516Y0014516D01*
X0165484Y0014516D01*
X0165484Y0010200D01*
X0166988Y0010200D01*
X0169800Y0013012D01*
X0169800Y0014516D01*
X0165484Y0014516D01*
X0165484Y0015484D01*
X0169800Y0015484D01*
X0169800Y0016988D01*
X0166988Y0019800D01*
X0165484Y0019800D01*
X0165484Y0015484D01*
X0164516Y0015484D01*
X0164516Y0019800D01*
X0163012Y0019800D01*
X0160685Y0017473D01*
X0157389Y0020768D01*
X0152611Y0020768D01*
X0150000Y0018158D01*
X0147389Y0020768D01*
X0142611Y0020768D01*
X0140000Y0018158D01*
X0137389Y0020768D01*
X0135670Y0020768D01*
X0130610Y0025828D01*
X0129578Y0026860D01*
X0128230Y0027418D01*
X0071520Y0027418D01*
X0065610Y0033328D01*
X0064578Y0034360D01*
X0063230Y0034918D01*
X0051748Y0034918D01*
X0050461Y0036206D01*
X0048378Y0037068D01*
X0039722Y0037068D01*
X0037639Y0036206D01*
X0036502Y0035068D01*
X0025998Y0035068D01*
X0024861Y0036206D01*
X0022778Y0037068D01*
X0014122Y0037068D01*
X0012039Y0036206D01*
X0010444Y0034611D01*
X0009581Y0032528D01*
X0009581Y0030272D01*
X0010444Y0028189D01*
X0012039Y0026594D01*
X0014122Y0025731D01*
X0022778Y0025731D01*
X0024861Y0026594D01*
X0025998Y0027731D01*
X0036502Y0027731D01*
X0037639Y0026594D01*
X0039722Y0025731D01*
X0048378Y0025731D01*
X0050461Y0026594D01*
X0051448Y0027581D01*
X0060980Y0027581D01*
X0067922Y0020640D01*
X0069270Y0020081D01*
X0111924Y0020081D01*
X0109231Y0017389D01*
X0110635Y0018793D02*
X0007468Y0018793D01*
X0007468Y0017795D02*
X0013130Y0017795D01*
X0011799Y0016796D02*
X0007468Y0016796D01*
X0007468Y0015798D02*
X0011095Y0015798D01*
X0010698Y0014799D02*
X0007468Y0014799D01*
X0007468Y0019792D02*
X0111634Y0019792D01*
X0109231Y0012802D02*
X0051882Y0012802D01*
X0051929Y0013100D02*
X0051834Y0012499D01*
X0051606Y0011796D01*
X0051270Y0011137D01*
X0050835Y0010538D01*
X0050312Y0010015D01*
X0049713Y0009580D01*
X0049054Y0009244D01*
X0048351Y0009016D01*
X0047620Y0008900D01*
X0044550Y0008900D01*
X0044550Y0013100D01*
X0051929Y0013100D01*
X0051608Y0011803D02*
X0110039Y0011803D01*
X0111037Y0010805D02*
X0051029Y0010805D01*
X0050025Y0009806D02*
X0112036Y0009806D01*
X0117964Y0009806D02*
X0122036Y0009806D01*
X0121037Y0010805D02*
X0118963Y0010805D01*
X0119961Y0011803D02*
X0120039Y0011803D01*
X0127964Y0009806D02*
X0132036Y0009806D01*
X0131037Y0010805D02*
X0128963Y0010805D01*
X0129961Y0011803D02*
X0130039Y0011803D01*
X0137964Y0009806D02*
X0142036Y0009806D01*
X0141037Y0010805D02*
X0138963Y0010805D01*
X0139961Y0011803D02*
X0140039Y0011803D01*
X0140635Y0018793D02*
X0139365Y0018793D01*
X0138366Y0019792D02*
X0141634Y0019792D01*
X0135648Y0020790D02*
X0267299Y0020790D01*
X0266301Y0019792D02*
X0258366Y0019792D01*
X0257389Y0020768D02*
X0252611Y0020768D01*
X0250000Y0018158D01*
X0247389Y0020768D01*
X0242611Y0020768D01*
X0240000Y0018158D01*
X0237389Y0020768D01*
X0232611Y0020768D01*
X0230000Y0018158D01*
X0227389Y0020768D01*
X0222611Y0020768D01*
X0220000Y0018158D01*
X0217389Y0020768D01*
X0212611Y0020768D01*
X0210000Y0018158D01*
X0207389Y0020768D01*
X0202611Y0020768D01*
X0199231Y0017389D01*
X0199231Y0012611D01*
X0202611Y0009231D01*
X0207389Y0009231D01*
X0210000Y0011842D01*
X0212611Y0009231D01*
X0217389Y0009231D01*
X0220000Y0011842D01*
X0222611Y0009231D01*
X0227389Y0009231D01*
X0230000Y0011842D01*
X0232611Y0009231D01*
X0237389Y0009231D01*
X0240000Y0011842D01*
X0242611Y0009231D01*
X0247389Y0009231D01*
X0250000Y0011842D01*
X0252611Y0009231D01*
X0257389Y0009231D01*
X0260768Y0012611D01*
X0260768Y0017389D01*
X0257389Y0020768D01*
X0259365Y0018793D02*
X0265302Y0018793D01*
X0264304Y0017795D02*
X0260363Y0017795D01*
X0260768Y0016796D02*
X0263305Y0016796D01*
X0262658Y0015798D02*
X0260768Y0015798D01*
X0260768Y0014799D02*
X0262531Y0014799D01*
X0262531Y0013801D02*
X0260768Y0013801D01*
X0260768Y0012802D02*
X0262531Y0012802D01*
X0262531Y0011803D02*
X0259961Y0011803D01*
X0258963Y0010805D02*
X0262531Y0010805D01*
X0262531Y0009806D02*
X0257964Y0009806D01*
X0252036Y0009806D02*
X0247964Y0009806D01*
X0248963Y0010805D02*
X0251037Y0010805D01*
X0250039Y0011803D02*
X0249961Y0011803D01*
X0242036Y0009806D02*
X0237964Y0009806D01*
X0238963Y0010805D02*
X0241037Y0010805D01*
X0240039Y0011803D02*
X0239961Y0011803D01*
X0232036Y0009806D02*
X0227964Y0009806D01*
X0228963Y0010805D02*
X0231037Y0010805D01*
X0230039Y0011803D02*
X0229961Y0011803D01*
X0229365Y0018793D02*
X0230635Y0018793D01*
X0231634Y0019792D02*
X0228366Y0019792D01*
X0221634Y0019792D02*
X0218366Y0019792D01*
X0219365Y0018793D02*
X0220635Y0018793D01*
X0220039Y0011803D02*
X0219961Y0011803D01*
X0218963Y0010805D02*
X0221037Y0010805D01*
X0222036Y0009806D02*
X0217964Y0009806D01*
X0212036Y0009806D02*
X0207964Y0009806D01*
X0208963Y0010805D02*
X0211037Y0010805D01*
X0210039Y0011803D02*
X0209961Y0011803D01*
X0202036Y0009806D02*
X0187964Y0009806D01*
X0187389Y0009231D02*
X0190768Y0012611D01*
X0190768Y0017389D01*
X0187389Y0020768D01*
X0182611Y0020768D01*
X0179315Y0017473D01*
X0176988Y0019800D01*
X0175484Y0019800D01*
X0175484Y0015484D01*
X0174516Y0015484D01*
X0174516Y0014516D01*
X0175484Y0014516D01*
X0175484Y0010200D01*
X0176988Y0010200D01*
X0179315Y0012527D01*
X0182611Y0009231D01*
X0187389Y0009231D01*
X0188963Y0010805D02*
X0201037Y0010805D01*
X0200039Y0011803D02*
X0189961Y0011803D01*
X0190768Y0012802D02*
X0199231Y0012802D01*
X0199231Y0013801D02*
X0190768Y0013801D01*
X0190768Y0014799D02*
X0199231Y0014799D01*
X0199231Y0015798D02*
X0190768Y0015798D01*
X0190768Y0016796D02*
X0199231Y0016796D01*
X0199637Y0017795D02*
X0190363Y0017795D01*
X0189365Y0018793D02*
X0200635Y0018793D01*
X0201634Y0019792D02*
X0188366Y0019792D01*
X0181634Y0019792D02*
X0176997Y0019792D01*
X0177995Y0018793D02*
X0180635Y0018793D01*
X0179637Y0017795D02*
X0178994Y0017795D01*
X0175484Y0017795D02*
X0174516Y0017795D01*
X0174516Y0018793D02*
X0175484Y0018793D01*
X0175484Y0019792D02*
X0174516Y0019792D01*
X0174516Y0019800D02*
X0173012Y0019800D01*
X0170200Y0016988D01*
X0170200Y0015484D01*
X0174516Y0015484D01*
X0174516Y0019800D01*
X0173003Y0019792D02*
X0166997Y0019792D01*
X0167995Y0018793D02*
X0172005Y0018793D01*
X0171006Y0017795D02*
X0168994Y0017795D01*
X0169800Y0016796D02*
X0170200Y0016796D01*
X0170200Y0015798D02*
X0169800Y0015798D01*
X0170200Y0014516D02*
X0170200Y0013012D01*
X0173012Y0010200D01*
X0174516Y0010200D01*
X0174516Y0014516D01*
X0170200Y0014516D01*
X0170200Y0013801D02*
X0169800Y0013801D01*
X0169590Y0012802D02*
X0170410Y0012802D01*
X0171408Y0011803D02*
X0168592Y0011803D01*
X0167593Y0010805D02*
X0172407Y0010805D01*
X0174516Y0010805D02*
X0175484Y0010805D01*
X0175484Y0011803D02*
X0174516Y0011803D01*
X0174516Y0012802D02*
X0175484Y0012802D01*
X0175484Y0013801D02*
X0174516Y0013801D01*
X0174516Y0014799D02*
X0165484Y0014799D01*
X0165484Y0013801D02*
X0164516Y0013801D01*
X0164516Y0012802D02*
X0165484Y0012802D01*
X0165484Y0011803D02*
X0164516Y0011803D01*
X0164516Y0010805D02*
X0165484Y0010805D01*
X0162407Y0010805D02*
X0158963Y0010805D01*
X0159961Y0011803D02*
X0161408Y0011803D01*
X0157964Y0009806D02*
X0182036Y0009806D01*
X0181037Y0010805D02*
X0177593Y0010805D01*
X0178592Y0011803D02*
X0180039Y0011803D01*
X0175484Y0015798D02*
X0174516Y0015798D01*
X0174516Y0016796D02*
X0175484Y0016796D01*
X0165484Y0016796D02*
X0164516Y0016796D01*
X0164516Y0015798D02*
X0165484Y0015798D01*
X0165484Y0017795D02*
X0164516Y0017795D01*
X0164516Y0018793D02*
X0165484Y0018793D01*
X0165484Y0019792D02*
X0164516Y0019792D01*
X0163003Y0019792D02*
X0158366Y0019792D01*
X0159365Y0018793D02*
X0162005Y0018793D01*
X0161006Y0017795D02*
X0160363Y0017795D01*
X0151634Y0019792D02*
X0148366Y0019792D01*
X0149365Y0018793D02*
X0150635Y0018793D01*
X0150039Y0011803D02*
X0149961Y0011803D01*
X0148963Y0010805D02*
X0151037Y0010805D01*
X0152036Y0009806D02*
X0147964Y0009806D01*
X0134649Y0021789D02*
X0268298Y0021789D01*
X0269296Y0022787D02*
X0133651Y0022787D01*
X0132652Y0023786D02*
X0270295Y0023786D01*
X0271293Y0024784D02*
X0131654Y0024784D01*
X0130655Y0025783D02*
X0272292Y0025783D01*
X0272531Y0026781D02*
X0129657Y0026781D01*
X0129488Y0028950D02*
X0127800Y0028950D01*
X0127800Y0033450D01*
X0127200Y0033450D01*
X0127200Y0028950D01*
X0125512Y0028950D01*
X0122700Y0031762D01*
X0122700Y0033450D01*
X0127200Y0033450D01*
X0127200Y0034050D01*
X0127200Y0038550D01*
X0125512Y0038550D01*
X0122700Y0035738D01*
X0122700Y0034050D01*
X0127200Y0034050D01*
X0127800Y0034050D01*
X0127800Y0038550D01*
X0129488Y0038550D01*
X0131815Y0036223D01*
X0135111Y0039518D01*
X0139889Y0039518D01*
X0143268Y0036139D01*
X0143268Y0031361D01*
X0139889Y0027981D01*
X0135111Y0027981D01*
X0131815Y0031277D01*
X0129488Y0028950D01*
X0130315Y0029777D02*
X0133315Y0029777D01*
X0132317Y0030775D02*
X0131313Y0030775D01*
X0127800Y0030775D02*
X0127200Y0030775D01*
X0127200Y0029777D02*
X0127800Y0029777D01*
X0127800Y0031774D02*
X0127200Y0031774D01*
X0127200Y0032772D02*
X0127800Y0032772D01*
X0127200Y0033771D02*
X0065167Y0033771D01*
X0066166Y0032772D02*
X0122700Y0032772D01*
X0122700Y0031774D02*
X0067164Y0031774D01*
X0068163Y0030775D02*
X0123687Y0030775D01*
X0124685Y0029777D02*
X0069161Y0029777D01*
X0070160Y0028778D02*
X0134314Y0028778D01*
X0140686Y0028778D02*
X0272531Y0028778D01*
X0272531Y0027780D02*
X0071158Y0027780D01*
X0065775Y0022787D02*
X0007468Y0022787D01*
X0007468Y0021789D02*
X0066773Y0021789D01*
X0067772Y0020790D02*
X0007468Y0020790D01*
X0007468Y0023786D02*
X0064776Y0023786D01*
X0063778Y0024784D02*
X0007468Y0024784D01*
X0007468Y0025783D02*
X0013999Y0025783D01*
X0011852Y0026781D02*
X0007468Y0026781D01*
X0007468Y0027780D02*
X0010854Y0027780D01*
X0010200Y0028778D02*
X0007468Y0028778D01*
X0007468Y0029777D02*
X0009787Y0029777D01*
X0009581Y0030775D02*
X0007468Y0030775D01*
X0007468Y0031774D02*
X0009581Y0031774D01*
X0009683Y0032772D02*
X0007468Y0032772D01*
X0007468Y0033771D02*
X0010096Y0033771D01*
X0010603Y0034769D02*
X0007468Y0034769D01*
X0007468Y0035768D02*
X0011601Y0035768D01*
X0013393Y0036766D02*
X0007468Y0036766D01*
X0007468Y0037765D02*
X0124727Y0037765D01*
X0123728Y0036766D02*
X0049107Y0036766D01*
X0050899Y0035768D02*
X0122730Y0035768D01*
X0122700Y0034769D02*
X0063590Y0034769D01*
X0061781Y0026781D02*
X0050648Y0026781D01*
X0048501Y0025783D02*
X0062779Y0025783D01*
X0044550Y0017795D02*
X0043550Y0017795D01*
X0043550Y0016796D02*
X0044550Y0016796D01*
X0044550Y0015798D02*
X0043550Y0015798D01*
X0043550Y0013100D02*
X0036171Y0013100D01*
X0036266Y0012499D01*
X0036494Y0011796D01*
X0036830Y0011137D01*
X0037265Y0010538D01*
X0037788Y0010015D01*
X0038387Y0009580D01*
X0039046Y0009244D01*
X0039749Y0009016D01*
X0040480Y0008900D01*
X0043550Y0008900D01*
X0043550Y0013100D01*
X0043550Y0012802D02*
X0044550Y0012802D01*
X0044550Y0011803D02*
X0043550Y0011803D01*
X0043550Y0010805D02*
X0044550Y0010805D01*
X0044550Y0009806D02*
X0043550Y0009806D01*
X0038075Y0009806D02*
X0024425Y0009806D01*
X0024712Y0010015D02*
X0025235Y0010538D01*
X0025670Y0011137D01*
X0026006Y0011796D01*
X0026234Y0012499D01*
X0026329Y0013100D01*
X0018950Y0013100D01*
X0018950Y0008900D01*
X0022020Y0008900D01*
X0022751Y0009016D01*
X0023454Y0009244D01*
X0024113Y0009580D01*
X0024712Y0010015D01*
X0025429Y0010805D02*
X0037071Y0010805D01*
X0036492Y0011803D02*
X0026008Y0011803D01*
X0026282Y0012802D02*
X0036218Y0012802D01*
X0036298Y0014799D02*
X0026202Y0014799D01*
X0025805Y0015798D02*
X0036695Y0015798D01*
X0037399Y0016796D02*
X0025101Y0016796D01*
X0023770Y0017795D02*
X0038730Y0017795D01*
X0039599Y0025783D02*
X0022901Y0025783D01*
X0025048Y0026781D02*
X0037452Y0026781D01*
X0037201Y0035768D02*
X0025299Y0035768D01*
X0023507Y0036766D02*
X0038993Y0036766D01*
X0018950Y0017795D02*
X0017950Y0017795D01*
X0017950Y0016796D02*
X0018950Y0016796D01*
X0018950Y0015798D02*
X0017950Y0015798D01*
X0017950Y0012802D02*
X0018950Y0012802D01*
X0018950Y0011803D02*
X0017950Y0011803D01*
X0017950Y0010805D02*
X0018950Y0010805D01*
X0018950Y0009806D02*
X0017950Y0009806D01*
X0007468Y0038763D02*
X0134355Y0038763D01*
X0133357Y0037765D02*
X0130273Y0037765D01*
X0131272Y0036766D02*
X0132358Y0036766D01*
X0127800Y0036766D02*
X0127200Y0036766D01*
X0127200Y0035768D02*
X0127800Y0035768D01*
X0127800Y0034769D02*
X0127200Y0034769D01*
X0127200Y0037765D02*
X0127800Y0037765D01*
X0140645Y0038763D02*
X0205876Y0038763D01*
X0205755Y0038526D02*
X0205467Y0037638D01*
X0205326Y0036750D01*
X0210750Y0036750D01*
X0210750Y0042174D01*
X0209862Y0042033D01*
X0208974Y0041745D01*
X0208142Y0041321D01*
X0207387Y0040772D01*
X0206728Y0040113D01*
X0206179Y0039358D01*
X0205755Y0038526D01*
X0205508Y0037765D02*
X0141643Y0037765D01*
X0142642Y0036766D02*
X0205329Y0036766D01*
X0205326Y0035750D02*
X0205467Y0034862D01*
X0205755Y0033974D01*
X0206179Y0033142D01*
X0206728Y0032387D01*
X0207387Y0031728D01*
X0208142Y0031179D01*
X0208974Y0030755D01*
X0209862Y0030467D01*
X0210750Y0030326D01*
X0210750Y0035750D01*
X0211750Y0035750D01*
X0211750Y0036750D01*
X0217174Y0036750D01*
X0217033Y0037638D01*
X0216745Y0038526D01*
X0216321Y0039358D01*
X0215772Y0040113D01*
X0215113Y0040772D01*
X0214358Y0041321D01*
X0213526Y0041745D01*
X0212638Y0042033D01*
X0211750Y0042174D01*
X0211750Y0036750D01*
X0210750Y0036750D01*
X0210750Y0035750D01*
X0205326Y0035750D01*
X0205497Y0034769D02*
X0143268Y0034769D01*
X0143268Y0033771D02*
X0205859Y0033771D01*
X0206448Y0032772D02*
X0143268Y0032772D01*
X0143268Y0031774D02*
X0207341Y0031774D01*
X0208935Y0030775D02*
X0142683Y0030775D01*
X0141685Y0029777D02*
X0272531Y0029777D01*
X0272531Y0030775D02*
X0233565Y0030775D01*
X0233526Y0030755D02*
X0234358Y0031179D01*
X0235113Y0031728D01*
X0235772Y0032387D01*
X0236321Y0033142D01*
X0236745Y0033974D01*
X0237033Y0034862D01*
X0237174Y0035750D01*
X0231750Y0035750D01*
X0231750Y0036750D01*
X0237174Y0036750D01*
X0237033Y0037638D01*
X0236745Y0038526D01*
X0236321Y0039358D01*
X0235772Y0040113D01*
X0235113Y0040772D01*
X0234358Y0041321D01*
X0233526Y0041745D01*
X0232638Y0042033D01*
X0231750Y0042174D01*
X0231750Y0036750D01*
X0230750Y0036750D01*
X0230750Y0042174D01*
X0229862Y0042033D01*
X0228974Y0041745D01*
X0228142Y0041321D01*
X0227387Y0040772D01*
X0226728Y0040113D01*
X0226179Y0039358D01*
X0225755Y0038526D01*
X0225467Y0037638D01*
X0225326Y0036750D01*
X0230750Y0036750D01*
X0230750Y0035750D01*
X0231750Y0035750D01*
X0231750Y0030326D01*
X0232638Y0030467D01*
X0233526Y0030755D01*
X0231750Y0030775D02*
X0230750Y0030775D01*
X0230750Y0030326D02*
X0230750Y0035750D01*
X0225326Y0035750D01*
X0225467Y0034862D01*
X0225755Y0033974D01*
X0226179Y0033142D01*
X0226728Y0032387D01*
X0227387Y0031728D01*
X0228142Y0031179D01*
X0228974Y0030755D01*
X0229862Y0030467D01*
X0230750Y0030326D01*
X0230750Y0031774D02*
X0231750Y0031774D01*
X0231750Y0032772D02*
X0230750Y0032772D01*
X0230750Y0033771D02*
X0231750Y0033771D01*
X0231750Y0034769D02*
X0230750Y0034769D01*
X0230750Y0035768D02*
X0211750Y0035768D01*
X0211750Y0035750D02*
X0217174Y0035750D01*
X0217033Y0034862D01*
X0216745Y0033974D01*
X0216321Y0033142D01*
X0215772Y0032387D01*
X0215113Y0031728D01*
X0214358Y0031179D01*
X0213526Y0030755D01*
X0212638Y0030467D01*
X0211750Y0030326D01*
X0211750Y0035750D01*
X0211750Y0034769D02*
X0210750Y0034769D01*
X0210750Y0033771D02*
X0211750Y0033771D01*
X0211750Y0032772D02*
X0210750Y0032772D01*
X0210750Y0031774D02*
X0211750Y0031774D01*
X0211750Y0030775D02*
X0210750Y0030775D01*
X0213565Y0030775D02*
X0228935Y0030775D01*
X0227341Y0031774D02*
X0215159Y0031774D01*
X0216052Y0032772D02*
X0226448Y0032772D01*
X0225859Y0033771D02*
X0216641Y0033771D01*
X0217003Y0034769D02*
X0225497Y0034769D01*
X0225329Y0036766D02*
X0217171Y0036766D01*
X0216992Y0037765D02*
X0225508Y0037765D01*
X0225876Y0038763D02*
X0216624Y0038763D01*
X0216027Y0039762D02*
X0218889Y0039762D01*
X0219878Y0039352D02*
X0217343Y0040402D01*
X0215402Y0042343D01*
X0214352Y0044878D01*
X0214352Y0047622D01*
X0215402Y0050157D01*
X0217343Y0052098D01*
X0219878Y0053148D01*
X0222622Y0053148D01*
X0225157Y0052098D01*
X0227098Y0050157D01*
X0228148Y0047622D01*
X0228148Y0044878D01*
X0227098Y0042343D01*
X0225157Y0040402D01*
X0222622Y0039352D01*
X0219878Y0039352D01*
X0216985Y0040760D02*
X0215125Y0040760D01*
X0215986Y0041759D02*
X0213483Y0041759D01*
X0211750Y0041759D02*
X0210750Y0041759D01*
X0210750Y0040760D02*
X0211750Y0040760D01*
X0211750Y0039762D02*
X0210750Y0039762D01*
X0210750Y0038763D02*
X0211750Y0038763D01*
X0211750Y0037765D02*
X0210750Y0037765D01*
X0210750Y0036766D02*
X0211750Y0036766D01*
X0210750Y0035768D02*
X0143268Y0035768D01*
X0155936Y0050788D02*
X0157762Y0050031D01*
X0159738Y0050031D01*
X0161564Y0050788D01*
X0165314Y0054538D01*
X0166712Y0055936D01*
X0167468Y0057762D01*
X0167468Y0117942D01*
X0175808Y0126281D01*
X0225988Y0126281D01*
X0227814Y0127038D01*
X0234212Y0133436D01*
X0234968Y0135262D01*
X0234968Y0137238D01*
X0234212Y0139064D01*
X0232814Y0140462D01*
X0230988Y0141218D01*
X0229012Y0141218D01*
X0227186Y0140462D01*
X0222942Y0136218D01*
X0172762Y0136218D01*
X0170936Y0135462D01*
X0169538Y0134064D01*
X0158288Y0122814D01*
X0157531Y0120988D01*
X0157531Y0060808D01*
X0154538Y0057814D01*
X0153781Y0055988D01*
X0153781Y0054012D01*
X0154538Y0052186D01*
X0155936Y0050788D01*
X0156038Y0050745D02*
X0087879Y0050745D01*
X0087879Y0050750D02*
X0080500Y0050750D01*
X0080500Y0051750D01*
X0079500Y0051750D01*
X0079500Y0055950D01*
X0076430Y0055950D01*
X0075699Y0055834D01*
X0074996Y0055606D01*
X0074337Y0055270D01*
X0073738Y0054835D01*
X0073215Y0054312D01*
X0072780Y0053713D01*
X0072444Y0053054D01*
X0072216Y0052351D01*
X0072121Y0051750D01*
X0079500Y0051750D01*
X0079500Y0050750D01*
X0080500Y0050750D01*
X0080500Y0046550D01*
X0083570Y0046550D01*
X0084301Y0046666D01*
X0085004Y0046894D01*
X0085663Y0047230D01*
X0086262Y0047665D01*
X0086785Y0048188D01*
X0087220Y0048787D01*
X0087556Y0049446D01*
X0087784Y0050149D01*
X0087879Y0050750D01*
X0087879Y0051750D02*
X0087784Y0052351D01*
X0087556Y0053054D01*
X0087220Y0053713D01*
X0086785Y0054312D01*
X0086262Y0054835D01*
X0085663Y0055270D01*
X0085004Y0055606D01*
X0084301Y0055834D01*
X0083570Y0055950D01*
X0080500Y0055950D01*
X0080500Y0051750D01*
X0087879Y0051750D01*
X0087657Y0052742D02*
X0098001Y0052742D01*
X0098872Y0052381D02*
X0101128Y0052381D01*
X0103211Y0053244D01*
X0104806Y0054839D01*
X0105668Y0056922D01*
X0105668Y0065578D01*
X0104806Y0067661D01*
X0103211Y0069256D01*
X0101128Y0070118D01*
X0098872Y0070118D01*
X0096789Y0069256D01*
X0095194Y0067661D01*
X0094331Y0065578D01*
X0094331Y0056922D01*
X0095194Y0054839D01*
X0096789Y0053244D01*
X0098872Y0052381D01*
X0096293Y0053741D02*
X0087200Y0053741D01*
X0086357Y0054739D02*
X0095294Y0054739D01*
X0094822Y0055738D02*
X0084597Y0055738D01*
X0080500Y0055738D02*
X0079500Y0055738D01*
X0079500Y0054739D02*
X0080500Y0054739D01*
X0080500Y0053741D02*
X0079500Y0053741D01*
X0079500Y0052742D02*
X0080500Y0052742D01*
X0080500Y0051744D02*
X0154980Y0051744D01*
X0154307Y0052742D02*
X0101999Y0052742D01*
X0103707Y0053741D02*
X0153894Y0053741D01*
X0153781Y0054739D02*
X0104706Y0054739D01*
X0105178Y0055738D02*
X0153781Y0055738D01*
X0154091Y0056737D02*
X0105591Y0056737D01*
X0105668Y0057735D02*
X0154505Y0057735D01*
X0155457Y0058734D02*
X0105668Y0058734D01*
X0105668Y0059732D02*
X0156456Y0059732D01*
X0157454Y0060731D02*
X0105668Y0060731D01*
X0105668Y0061729D02*
X0157531Y0061729D01*
X0157531Y0062728D02*
X0105668Y0062728D01*
X0105668Y0063726D02*
X0157531Y0063726D01*
X0157531Y0064725D02*
X0105668Y0064725D01*
X0105608Y0065723D02*
X0157531Y0065723D01*
X0157531Y0066722D02*
X0105195Y0066722D01*
X0104746Y0067720D02*
X0157531Y0067720D01*
X0157531Y0068719D02*
X0103748Y0068719D01*
X0102096Y0069717D02*
X0157531Y0069717D01*
X0157531Y0070716D02*
X0088868Y0070716D01*
X0088868Y0070122D02*
X0088868Y0072378D01*
X0088006Y0074461D01*
X0086411Y0076056D01*
X0084328Y0076918D01*
X0083268Y0076918D01*
X0083268Y0143646D01*
X0087604Y0147981D01*
X0101900Y0147981D01*
X0103101Y0148479D01*
X0104021Y0149399D01*
X0105154Y0150531D01*
X0106851Y0150531D01*
X0109468Y0153149D01*
X0109468Y0156851D01*
X0106851Y0159468D01*
X0103149Y0159468D01*
X0100531Y0156851D01*
X0100531Y0155154D01*
X0099896Y0154518D01*
X0085600Y0154518D01*
X0084399Y0154021D01*
X0078149Y0147771D01*
X0077229Y0146851D01*
X0076731Y0145650D01*
X0076731Y0076918D01*
X0075672Y0076918D01*
X0073589Y0076056D01*
X0071994Y0074461D01*
X0071131Y0072378D01*
X0071131Y0070122D01*
X0071994Y0068039D01*
X0073589Y0066444D01*
X0075672Y0065581D01*
X0084328Y0065581D01*
X0086411Y0066444D01*
X0088006Y0068039D01*
X0088868Y0070122D01*
X0088701Y0069717D02*
X0097904Y0069717D01*
X0096252Y0068719D02*
X0088287Y0068719D01*
X0087687Y0067720D02*
X0095254Y0067720D01*
X0094805Y0066722D02*
X0086688Y0066722D01*
X0084669Y0065723D02*
X0094392Y0065723D01*
X0094331Y0064725D02*
X0007468Y0064725D01*
X0007468Y0065723D02*
X0075331Y0065723D01*
X0073312Y0066722D02*
X0007468Y0066722D01*
X0007468Y0067720D02*
X0072313Y0067720D01*
X0071713Y0068719D02*
X0007468Y0068719D01*
X0007468Y0069717D02*
X0071299Y0069717D01*
X0071131Y0070716D02*
X0007468Y0070716D01*
X0007468Y0071714D02*
X0071131Y0071714D01*
X0071270Y0072713D02*
X0007468Y0072713D01*
X0007468Y0073711D02*
X0071684Y0073711D01*
X0072243Y0074710D02*
X0007468Y0074710D01*
X0007468Y0075708D02*
X0073242Y0075708D01*
X0075161Y0076707D02*
X0007468Y0076707D01*
X0007468Y0077705D02*
X0076731Y0077705D01*
X0076731Y0078704D02*
X0007468Y0078704D01*
X0007468Y0079702D02*
X0076731Y0079702D01*
X0076731Y0080701D02*
X0007468Y0080701D01*
X0007468Y0081699D02*
X0076731Y0081699D01*
X0076731Y0082698D02*
X0007468Y0082698D01*
X0007468Y0083696D02*
X0076731Y0083696D01*
X0076731Y0084695D02*
X0007468Y0084695D01*
X0007468Y0085693D02*
X0076731Y0085693D01*
X0076731Y0086692D02*
X0007468Y0086692D01*
X0007468Y0087690D02*
X0076731Y0087690D01*
X0076731Y0088689D02*
X0007468Y0088689D01*
X0007468Y0089687D02*
X0076731Y0089687D01*
X0076731Y0090686D02*
X0007468Y0090686D01*
X0007468Y0091684D02*
X0076731Y0091684D01*
X0076731Y0092683D02*
X0007468Y0092683D01*
X0007468Y0093681D02*
X0076731Y0093681D01*
X0076731Y0094680D02*
X0007468Y0094680D01*
X0007468Y0095678D02*
X0076731Y0095678D01*
X0076731Y0096677D02*
X0007468Y0096677D01*
X0007468Y0097675D02*
X0076731Y0097675D01*
X0076731Y0098674D02*
X0007468Y0098674D01*
X0007468Y0099672D02*
X0076731Y0099672D01*
X0076731Y0100671D02*
X0007468Y0100671D01*
X0007468Y0101670D02*
X0076731Y0101670D01*
X0076731Y0102668D02*
X0007468Y0102668D01*
X0007468Y0103667D02*
X0076731Y0103667D01*
X0076731Y0104665D02*
X0007468Y0104665D01*
X0007468Y0105664D02*
X0076731Y0105664D01*
X0076731Y0106662D02*
X0007468Y0106662D01*
X0007468Y0107661D02*
X0076731Y0107661D01*
X0076731Y0108659D02*
X0007468Y0108659D01*
X0007468Y0109658D02*
X0076731Y0109658D01*
X0076731Y0110656D02*
X0007468Y0110656D01*
X0007468Y0111655D02*
X0076731Y0111655D01*
X0076731Y0112653D02*
X0007468Y0112653D01*
X0007468Y0113652D02*
X0076731Y0113652D01*
X0076731Y0114650D02*
X0007468Y0114650D01*
X0007468Y0115649D02*
X0076731Y0115649D01*
X0076731Y0116647D02*
X0007468Y0116647D01*
X0007468Y0117646D02*
X0076731Y0117646D01*
X0076731Y0118644D02*
X0007468Y0118644D01*
X0007468Y0119643D02*
X0076731Y0119643D01*
X0076731Y0120641D02*
X0007468Y0120641D01*
X0007468Y0121640D02*
X0076731Y0121640D01*
X0076731Y0122638D02*
X0007468Y0122638D01*
X0007468Y0123637D02*
X0076731Y0123637D01*
X0076731Y0124635D02*
X0007468Y0124635D01*
X0007468Y0125634D02*
X0076731Y0125634D01*
X0076731Y0126632D02*
X0007468Y0126632D01*
X0046384Y0127631D02*
X0076731Y0127631D01*
X0076731Y0128629D02*
X0047375Y0128629D01*
X0047718Y0129628D02*
X0076731Y0129628D01*
X0076731Y0130626D02*
X0047718Y0130626D01*
X0047718Y0131625D02*
X0076731Y0131625D01*
X0076731Y0132623D02*
X0047718Y0132623D01*
X0047718Y0133622D02*
X0076731Y0133622D01*
X0076731Y0134620D02*
X0047718Y0134620D01*
X0047718Y0135619D02*
X0076731Y0135619D01*
X0076731Y0136617D02*
X0047718Y0136617D01*
X0047718Y0137616D02*
X0076731Y0137616D01*
X0076731Y0138614D02*
X0047718Y0138614D01*
X0047718Y0139613D02*
X0076731Y0139613D01*
X0076731Y0140611D02*
X0047718Y0140611D01*
X0047718Y0141610D02*
X0076731Y0141610D01*
X0076731Y0142608D02*
X0047718Y0142608D01*
X0047718Y0143607D02*
X0076731Y0143607D01*
X0076731Y0144605D02*
X0047718Y0144605D01*
X0047718Y0145604D02*
X0076731Y0145604D01*
X0077126Y0146603D02*
X0047718Y0146603D01*
X0047718Y0147601D02*
X0077979Y0147601D01*
X0078977Y0148600D02*
X0047718Y0148600D01*
X0047718Y0149598D02*
X0079976Y0149598D01*
X0080974Y0150597D02*
X0047718Y0150597D01*
X0047718Y0151595D02*
X0081973Y0151595D01*
X0082971Y0152594D02*
X0047718Y0152594D01*
X0047718Y0153592D02*
X0083970Y0153592D01*
X0087223Y0147601D02*
X0140481Y0147601D01*
X0140481Y0146603D02*
X0086225Y0146603D01*
X0085226Y0145604D02*
X0140481Y0145604D01*
X0140481Y0144605D02*
X0084228Y0144605D01*
X0083268Y0143607D02*
X0140481Y0143607D01*
X0140481Y0142608D02*
X0083268Y0142608D01*
X0083268Y0141610D02*
X0140481Y0141610D01*
X0140481Y0140611D02*
X0083268Y0140611D01*
X0083268Y0139613D02*
X0140481Y0139613D01*
X0140481Y0138614D02*
X0083268Y0138614D01*
X0083268Y0137616D02*
X0140481Y0137616D01*
X0140481Y0136617D02*
X0083268Y0136617D01*
X0083268Y0135619D02*
X0140481Y0135619D01*
X0140481Y0134620D02*
X0083268Y0134620D01*
X0083268Y0133622D02*
X0140481Y0133622D01*
X0140481Y0132623D02*
X0083268Y0132623D01*
X0083268Y0131625D02*
X0140481Y0131625D01*
X0140481Y0130626D02*
X0083268Y0130626D01*
X0083268Y0129628D02*
X0140481Y0129628D01*
X0140481Y0128629D02*
X0083268Y0128629D01*
X0083268Y0127631D02*
X0140481Y0127631D01*
X0140481Y0126632D02*
X0083268Y0126632D01*
X0083268Y0125634D02*
X0140481Y0125634D01*
X0140481Y0124635D02*
X0083268Y0124635D01*
X0083268Y0123637D02*
X0140481Y0123637D01*
X0140481Y0122638D02*
X0083268Y0122638D01*
X0083268Y0121640D02*
X0140481Y0121640D01*
X0140481Y0120641D02*
X0083268Y0120641D01*
X0083268Y0119643D02*
X0140481Y0119643D01*
X0140481Y0118644D02*
X0083268Y0118644D01*
X0083268Y0117646D02*
X0140481Y0117646D01*
X0140481Y0116647D02*
X0083268Y0116647D01*
X0083268Y0115649D02*
X0140481Y0115649D01*
X0140481Y0114650D02*
X0083268Y0114650D01*
X0083268Y0113652D02*
X0140481Y0113652D01*
X0140481Y0112653D02*
X0083268Y0112653D01*
X0083268Y0111655D02*
X0140481Y0111655D01*
X0140481Y0110656D02*
X0083268Y0110656D01*
X0083268Y0109658D02*
X0140481Y0109658D01*
X0140481Y0108659D02*
X0083268Y0108659D01*
X0083268Y0107661D02*
X0140481Y0107661D01*
X0140481Y0106662D02*
X0083268Y0106662D01*
X0083268Y0105664D02*
X0140481Y0105664D01*
X0140481Y0104665D02*
X0083268Y0104665D01*
X0083268Y0103667D02*
X0140481Y0103667D01*
X0140481Y0102668D02*
X0083268Y0102668D01*
X0083268Y0101670D02*
X0136600Y0101670D01*
X0136899Y0101968D02*
X0134281Y0099351D01*
X0134281Y0095649D01*
X0136899Y0093031D01*
X0140601Y0093031D01*
X0141801Y0094231D01*
X0141900Y0094231D01*
X0143101Y0094729D01*
X0143526Y0095154D01*
X0145649Y0093031D01*
X0149351Y0093031D01*
X0151968Y0095649D01*
X0151968Y0099351D01*
X0150768Y0100551D01*
X0150768Y0169896D01*
X0157771Y0176899D01*
X0158268Y0178100D01*
X0158268Y0198150D01*
X0157821Y0199231D01*
X0161389Y0199231D01*
X0164000Y0201842D01*
X0166611Y0199231D01*
X0171389Y0199231D01*
X0174768Y0202611D01*
X0174768Y0207389D01*
X0171389Y0210768D01*
X0166611Y0210768D01*
X0164000Y0208158D01*
X0161389Y0210768D01*
X0156611Y0210768D01*
X0154000Y0208158D01*
X0151389Y0210768D01*
X0146611Y0210768D01*
X0144000Y0208158D01*
X0141389Y0210768D01*
X0136611Y0210768D01*
X0134000Y0208158D01*
X0131389Y0210768D01*
X0126611Y0210768D01*
X0124000Y0208158D01*
X0121389Y0210768D01*
X0116611Y0210768D01*
X0113315Y0207473D01*
X0110988Y0209800D01*
X0109484Y0209800D01*
X0109484Y0205484D01*
X0108516Y0205484D01*
X0108516Y0209800D01*
X0107012Y0209800D01*
X0104685Y0207473D01*
X0101389Y0210768D01*
X0096611Y0210768D01*
X0094000Y0208158D01*
X0091389Y0210768D01*
X0086611Y0210768D01*
X0084000Y0208158D01*
X0081389Y0210768D01*
X0076611Y0210768D01*
X0073231Y0207389D01*
X0073231Y0202611D01*
X0076611Y0199231D01*
X0081389Y0199231D01*
X0084000Y0201842D01*
X0086611Y0199231D01*
X0091389Y0199231D01*
X0094000Y0201842D01*
X0096611Y0199231D01*
X0101389Y0199231D01*
X0104685Y0202527D01*
X0107012Y0200200D01*
X0108516Y0200200D01*
X0108516Y0204516D01*
X0109484Y0204516D01*
X0109484Y0200200D01*
X0110988Y0200200D01*
X0113315Y0202527D01*
X0116611Y0199231D01*
X0121389Y0199231D01*
X0124000Y0201842D01*
X0126611Y0199231D01*
X0131389Y0199231D01*
X0134000Y0201842D01*
X0136611Y0199231D01*
X0141146Y0199231D01*
X0145259Y0195118D01*
X0143872Y0195118D01*
X0141789Y0194256D01*
X0140194Y0192661D01*
X0140000Y0192191D01*
X0139806Y0192661D01*
X0138211Y0194256D01*
X0136128Y0195118D01*
X0133872Y0195118D01*
X0131789Y0194256D01*
X0130194Y0192661D01*
X0130000Y0192191D01*
X0129806Y0192661D01*
X0128211Y0194256D01*
X0126128Y0195118D01*
X0123872Y0195118D01*
X0121789Y0194256D01*
X0120194Y0192661D01*
X0119468Y0190908D01*
X0119356Y0191254D01*
X0119020Y0191913D01*
X0118585Y0192512D01*
X0118062Y0193035D01*
X0117463Y0193470D01*
X0116804Y0193806D01*
X0116101Y0194034D01*
X0115500Y0194129D01*
X0115500Y0186750D01*
X0114500Y0186750D01*
X0114500Y0194129D01*
X0113899Y0194034D01*
X0113196Y0193806D01*
X0112537Y0193470D01*
X0111938Y0193035D01*
X0111415Y0192512D01*
X0110980Y0191913D01*
X0110644Y0191254D01*
X0110416Y0190551D01*
X0110300Y0189820D01*
X0110300Y0186750D01*
X0114500Y0186750D01*
X0114500Y0185750D01*
X0115500Y0185750D01*
X0115500Y0178371D01*
X0116101Y0178466D01*
X0116804Y0178694D01*
X0117463Y0179030D01*
X0118062Y0179465D01*
X0118585Y0179988D01*
X0119020Y0180587D01*
X0119356Y0181246D01*
X0119468Y0181592D01*
X0120194Y0179839D01*
X0121789Y0178244D01*
X0123872Y0177381D01*
X0126128Y0177381D01*
X0128211Y0178244D01*
X0129806Y0179839D01*
X0130000Y0180309D01*
X0130194Y0179839D01*
X0131789Y0178244D01*
X0133872Y0177381D01*
X0136128Y0177381D01*
X0138211Y0178244D01*
X0139806Y0179839D01*
X0140000Y0180309D01*
X0140194Y0179839D01*
X0141789Y0178244D01*
X0143872Y0177381D01*
X0144009Y0177381D01*
X0141899Y0175271D01*
X0140979Y0174351D01*
X0140481Y0173150D01*
X0140481Y0101968D01*
X0136899Y0101968D01*
X0135602Y0100671D02*
X0083268Y0100671D01*
X0083268Y0099672D02*
X0134603Y0099672D01*
X0134281Y0098674D02*
X0083268Y0098674D01*
X0083268Y0097675D02*
X0134281Y0097675D01*
X0134281Y0096677D02*
X0083268Y0096677D01*
X0083268Y0095678D02*
X0134281Y0095678D01*
X0135251Y0094680D02*
X0083268Y0094680D01*
X0083268Y0093681D02*
X0136249Y0093681D01*
X0141251Y0093681D02*
X0144999Y0093681D01*
X0144001Y0094680D02*
X0142983Y0094680D01*
X0150001Y0093681D02*
X0157531Y0093681D01*
X0157531Y0092683D02*
X0083268Y0092683D01*
X0083268Y0091684D02*
X0157531Y0091684D01*
X0157531Y0090686D02*
X0083268Y0090686D01*
X0083268Y0089687D02*
X0157531Y0089687D01*
X0157531Y0088689D02*
X0083268Y0088689D01*
X0083268Y0087690D02*
X0157531Y0087690D01*
X0157531Y0086692D02*
X0083268Y0086692D01*
X0083268Y0085693D02*
X0157531Y0085693D01*
X0157531Y0084695D02*
X0083268Y0084695D01*
X0083268Y0083696D02*
X0157531Y0083696D01*
X0157531Y0082698D02*
X0083268Y0082698D01*
X0083268Y0081699D02*
X0157531Y0081699D01*
X0157531Y0080701D02*
X0083268Y0080701D01*
X0083268Y0079702D02*
X0157531Y0079702D01*
X0157531Y0078704D02*
X0083268Y0078704D01*
X0083268Y0077705D02*
X0157531Y0077705D01*
X0157531Y0076707D02*
X0084839Y0076707D01*
X0086758Y0075708D02*
X0157531Y0075708D01*
X0157531Y0074710D02*
X0087757Y0074710D01*
X0088316Y0073711D02*
X0157531Y0073711D01*
X0157531Y0072713D02*
X0088730Y0072713D01*
X0088868Y0071714D02*
X0157531Y0071714D01*
X0167468Y0071714D02*
X0272531Y0071714D01*
X0272531Y0070716D02*
X0167468Y0070716D01*
X0167468Y0069717D02*
X0272531Y0069717D01*
X0272531Y0068719D02*
X0167468Y0068719D01*
X0167468Y0067720D02*
X0272531Y0067720D01*
X0272531Y0066722D02*
X0167468Y0066722D01*
X0167468Y0065723D02*
X0272531Y0065723D01*
X0272531Y0064725D02*
X0167468Y0064725D01*
X0167468Y0063726D02*
X0272531Y0063726D01*
X0272531Y0062728D02*
X0167468Y0062728D01*
X0167468Y0061729D02*
X0208943Y0061729D01*
X0208974Y0061745D02*
X0208142Y0061321D01*
X0207387Y0060772D01*
X0206728Y0060113D01*
X0206179Y0059358D01*
X0205755Y0058526D01*
X0205467Y0057638D01*
X0205326Y0056750D01*
X0210750Y0056750D01*
X0210750Y0062174D01*
X0209862Y0062033D01*
X0208974Y0061745D01*
X0210750Y0061729D02*
X0211750Y0061729D01*
X0211750Y0062174D02*
X0212638Y0062033D01*
X0213526Y0061745D01*
X0214358Y0061321D01*
X0215113Y0060772D01*
X0215772Y0060113D01*
X0216321Y0059358D01*
X0216745Y0058526D01*
X0217033Y0057638D01*
X0217174Y0056750D01*
X0211750Y0056750D01*
X0211750Y0055750D01*
X0217174Y0055750D01*
X0217033Y0054862D01*
X0216745Y0053974D01*
X0216321Y0053142D01*
X0215772Y0052387D01*
X0215113Y0051728D01*
X0214358Y0051179D01*
X0213526Y0050755D01*
X0212638Y0050467D01*
X0211750Y0050326D01*
X0211750Y0055750D01*
X0210750Y0055750D01*
X0210750Y0050326D01*
X0209862Y0050467D01*
X0208974Y0050755D01*
X0208142Y0051179D01*
X0207387Y0051728D01*
X0206728Y0052387D01*
X0206179Y0053142D01*
X0205755Y0053974D01*
X0205467Y0054862D01*
X0205326Y0055750D01*
X0210750Y0055750D01*
X0210750Y0056750D01*
X0211750Y0056750D01*
X0211750Y0062174D01*
X0211750Y0060731D02*
X0210750Y0060731D01*
X0210750Y0059732D02*
X0211750Y0059732D01*
X0211750Y0058734D02*
X0210750Y0058734D01*
X0210750Y0057735D02*
X0211750Y0057735D01*
X0211750Y0056737D02*
X0230750Y0056737D01*
X0230750Y0056750D02*
X0230750Y0055750D01*
X0231750Y0055750D01*
X0231750Y0056750D01*
X0237174Y0056750D01*
X0237033Y0057638D01*
X0236745Y0058526D01*
X0236321Y0059358D01*
X0235772Y0060113D01*
X0235113Y0060772D01*
X0234358Y0061321D01*
X0233526Y0061745D01*
X0232638Y0062033D01*
X0231750Y0062174D01*
X0231750Y0056750D01*
X0230750Y0056750D01*
X0230750Y0062174D01*
X0229862Y0062033D01*
X0228974Y0061745D01*
X0228142Y0061321D01*
X0227387Y0060772D01*
X0226728Y0060113D01*
X0226179Y0059358D01*
X0225755Y0058526D01*
X0225467Y0057638D01*
X0225326Y0056750D01*
X0230750Y0056750D01*
X0230750Y0057735D02*
X0231750Y0057735D01*
X0231750Y0056737D02*
X0253400Y0056737D01*
X0253400Y0057735D02*
X0237002Y0057735D01*
X0236639Y0058734D02*
X0253400Y0058734D01*
X0253400Y0059732D02*
X0236049Y0059732D01*
X0235154Y0060731D02*
X0253909Y0060731D01*
X0253400Y0055738D02*
X0237172Y0055738D01*
X0237174Y0055750D02*
X0231750Y0055750D01*
X0231750Y0050326D01*
X0232638Y0050467D01*
X0233526Y0050755D01*
X0234358Y0051179D01*
X0235113Y0051728D01*
X0235772Y0052387D01*
X0236321Y0053142D01*
X0236745Y0053974D01*
X0237033Y0054862D01*
X0237174Y0055750D01*
X0236993Y0054739D02*
X0264400Y0054739D01*
X0264400Y0053741D02*
X0265400Y0053741D01*
X0265400Y0054739D02*
X0272531Y0054739D01*
X0265400Y0055738D02*
X0264400Y0055738D01*
X0264400Y0056737D02*
X0265400Y0056737D01*
X0265400Y0057735D02*
X0264400Y0057735D01*
X0264400Y0058734D02*
X0265400Y0058734D01*
X0265400Y0059732D02*
X0264400Y0059732D01*
X0264400Y0060731D02*
X0265400Y0060731D01*
X0272531Y0061729D02*
X0233557Y0061729D01*
X0231750Y0061729D02*
X0230750Y0061729D01*
X0230750Y0060731D02*
X0231750Y0060731D01*
X0231750Y0059732D02*
X0230750Y0059732D01*
X0230750Y0058734D02*
X0231750Y0058734D01*
X0228943Y0061729D02*
X0213557Y0061729D01*
X0215154Y0060731D02*
X0227345Y0060731D01*
X0226451Y0059732D02*
X0216049Y0059732D01*
X0216639Y0058734D02*
X0225861Y0058734D01*
X0225498Y0057735D02*
X0217002Y0057735D01*
X0217172Y0055738D02*
X0225328Y0055738D01*
X0225326Y0055750D02*
X0225467Y0054862D01*
X0225755Y0053974D01*
X0226179Y0053142D01*
X0226728Y0052387D01*
X0227387Y0051728D01*
X0228142Y0051179D01*
X0228974Y0050755D01*
X0229862Y0050467D01*
X0230750Y0050326D01*
X0230750Y0055750D01*
X0225326Y0055750D01*
X0225507Y0054739D02*
X0216993Y0054739D01*
X0216626Y0053741D02*
X0225874Y0053741D01*
X0226470Y0052742D02*
X0223600Y0052742D01*
X0225511Y0051744D02*
X0227371Y0051744D01*
X0226509Y0050745D02*
X0229004Y0050745D01*
X0230750Y0050745D02*
X0231750Y0050745D01*
X0231750Y0051744D02*
X0230750Y0051744D01*
X0230750Y0052742D02*
X0231750Y0052742D01*
X0231750Y0053741D02*
X0230750Y0053741D01*
X0230750Y0054739D02*
X0231750Y0054739D01*
X0231750Y0055738D02*
X0230750Y0055738D01*
X0233496Y0050745D02*
X0253400Y0050745D01*
X0253400Y0051744D02*
X0235129Y0051744D01*
X0236030Y0052742D02*
X0253400Y0052742D01*
X0253400Y0053741D02*
X0236626Y0053741D01*
X0227267Y0049747D02*
X0253660Y0049747D01*
X0264400Y0049747D02*
X0265400Y0049747D01*
X0265400Y0050745D02*
X0264400Y0050745D01*
X0264400Y0051744D02*
X0265400Y0051744D01*
X0265400Y0052742D02*
X0264400Y0052742D01*
X0272531Y0048748D02*
X0227681Y0048748D01*
X0228095Y0047750D02*
X0272531Y0047750D01*
X0272531Y0046751D02*
X0228148Y0046751D01*
X0228148Y0045753D02*
X0272531Y0045753D01*
X0272531Y0044754D02*
X0228096Y0044754D01*
X0227683Y0043756D02*
X0272531Y0043756D01*
X0272531Y0042757D02*
X0227269Y0042757D01*
X0226514Y0041759D02*
X0229017Y0041759D01*
X0230750Y0041759D02*
X0231750Y0041759D01*
X0231750Y0040760D02*
X0230750Y0040760D01*
X0230750Y0039762D02*
X0231750Y0039762D01*
X0231750Y0038763D02*
X0230750Y0038763D01*
X0230750Y0037765D02*
X0231750Y0037765D01*
X0231750Y0036766D02*
X0230750Y0036766D01*
X0231750Y0035768D02*
X0272531Y0035768D01*
X0272531Y0036766D02*
X0237171Y0036766D01*
X0236992Y0037765D02*
X0272531Y0037765D01*
X0272531Y0038763D02*
X0236624Y0038763D01*
X0236027Y0039762D02*
X0272531Y0039762D01*
X0272531Y0040760D02*
X0235125Y0040760D01*
X0233483Y0041759D02*
X0272531Y0041759D01*
X0272531Y0034769D02*
X0237003Y0034769D01*
X0236641Y0033771D02*
X0272531Y0033771D01*
X0272531Y0032772D02*
X0236052Y0032772D01*
X0235159Y0031774D02*
X0272531Y0031774D01*
X0251634Y0019792D02*
X0248366Y0019792D01*
X0249365Y0018793D02*
X0250635Y0018793D01*
X0241634Y0019792D02*
X0238366Y0019792D01*
X0239365Y0018793D02*
X0240635Y0018793D01*
X0211634Y0019792D02*
X0208366Y0019792D01*
X0209365Y0018793D02*
X0210635Y0018793D01*
X0206473Y0039762D02*
X0007468Y0039762D01*
X0007468Y0040760D02*
X0207375Y0040760D01*
X0209017Y0041759D02*
X0007468Y0041759D01*
X0007468Y0042757D02*
X0215231Y0042757D01*
X0214817Y0043756D02*
X0007468Y0043756D01*
X0007468Y0044754D02*
X0214404Y0044754D01*
X0214352Y0045753D02*
X0007468Y0045753D01*
X0007468Y0046751D02*
X0075436Y0046751D01*
X0075699Y0046666D02*
X0076430Y0046550D01*
X0079500Y0046550D01*
X0079500Y0050750D01*
X0072121Y0050750D01*
X0072216Y0050149D01*
X0072444Y0049446D01*
X0072780Y0048787D01*
X0073215Y0048188D01*
X0073738Y0047665D01*
X0074337Y0047230D01*
X0074996Y0046894D01*
X0075699Y0046666D01*
X0073653Y0047750D02*
X0007468Y0047750D01*
X0007468Y0048748D02*
X0072808Y0048748D01*
X0072346Y0049747D02*
X0007468Y0049747D01*
X0007468Y0050745D02*
X0072121Y0050745D01*
X0072343Y0052742D02*
X0007468Y0052742D01*
X0007468Y0051744D02*
X0079500Y0051744D01*
X0079500Y0050745D02*
X0080500Y0050745D01*
X0080500Y0049747D02*
X0079500Y0049747D01*
X0079500Y0048748D02*
X0080500Y0048748D01*
X0080500Y0047750D02*
X0079500Y0047750D01*
X0079500Y0046751D02*
X0080500Y0046751D01*
X0084564Y0046751D02*
X0214352Y0046751D01*
X0214405Y0047750D02*
X0086347Y0047750D01*
X0087192Y0048748D02*
X0214819Y0048748D01*
X0215233Y0049747D02*
X0087653Y0049747D01*
X0075403Y0055738D02*
X0007468Y0055738D01*
X0007468Y0056737D02*
X0094409Y0056737D01*
X0094331Y0057735D02*
X0007468Y0057735D01*
X0007468Y0058734D02*
X0094331Y0058734D01*
X0094331Y0059732D02*
X0007468Y0059732D01*
X0007468Y0060731D02*
X0094331Y0060731D01*
X0094331Y0061729D02*
X0007468Y0061729D01*
X0007468Y0062728D02*
X0094331Y0062728D01*
X0094331Y0063726D02*
X0007468Y0063726D01*
X0007468Y0054739D02*
X0073643Y0054739D01*
X0072800Y0053741D02*
X0007468Y0053741D01*
X0103222Y0148600D02*
X0140481Y0148600D01*
X0140481Y0149598D02*
X0104220Y0149598D01*
X0106916Y0150597D02*
X0140481Y0150597D01*
X0140481Y0151595D02*
X0107914Y0151595D01*
X0108913Y0152594D02*
X0140481Y0152594D01*
X0140481Y0153592D02*
X0109468Y0153592D01*
X0109468Y0154591D02*
X0140481Y0154591D01*
X0140481Y0155589D02*
X0109468Y0155589D01*
X0109468Y0156588D02*
X0140481Y0156588D01*
X0140481Y0157586D02*
X0108733Y0157586D01*
X0107735Y0158585D02*
X0140481Y0158585D01*
X0140481Y0159583D02*
X0102621Y0159583D01*
X0102265Y0158585D02*
X0101623Y0158585D01*
X0101267Y0157586D02*
X0047718Y0157586D01*
X0047718Y0156588D02*
X0100531Y0156588D01*
X0100531Y0155589D02*
X0047718Y0155589D01*
X0047718Y0154591D02*
X0099968Y0154591D01*
X0100738Y0157700D02*
X0099050Y0157700D01*
X0099050Y0162200D01*
X0099050Y0162800D01*
X0103550Y0162800D01*
X0103550Y0164488D01*
X0101223Y0166815D01*
X0104518Y0170111D01*
X0104518Y0174889D01*
X0101139Y0178268D01*
X0096361Y0178268D01*
X0092981Y0174889D01*
X0092981Y0170111D01*
X0096277Y0166815D01*
X0093950Y0164488D01*
X0093950Y0162800D01*
X0098450Y0162800D01*
X0098450Y0162200D01*
X0093950Y0162200D01*
X0093950Y0160512D01*
X0096762Y0157700D01*
X0098450Y0157700D01*
X0098450Y0162200D01*
X0099050Y0162200D01*
X0103550Y0162200D01*
X0103550Y0160512D01*
X0100738Y0157700D01*
X0099050Y0158585D02*
X0098450Y0158585D01*
X0098450Y0159583D02*
X0099050Y0159583D01*
X0099050Y0160582D02*
X0098450Y0160582D01*
X0098450Y0161580D02*
X0099050Y0161580D01*
X0099050Y0162579D02*
X0140481Y0162579D01*
X0140481Y0163577D02*
X0103550Y0163577D01*
X0103462Y0164576D02*
X0140481Y0164576D01*
X0140481Y0165574D02*
X0102464Y0165574D01*
X0101465Y0166573D02*
X0140481Y0166573D01*
X0140481Y0167571D02*
X0101979Y0167571D01*
X0102978Y0168570D02*
X0140481Y0168570D01*
X0140481Y0169568D02*
X0103976Y0169568D01*
X0104518Y0170567D02*
X0140481Y0170567D01*
X0140481Y0171565D02*
X0104518Y0171565D01*
X0104518Y0172564D02*
X0140481Y0172564D01*
X0140652Y0173562D02*
X0104518Y0173562D01*
X0104518Y0174561D02*
X0141188Y0174561D01*
X0142187Y0175559D02*
X0103849Y0175559D01*
X0102850Y0176558D02*
X0143186Y0176558D01*
X0143450Y0177556D02*
X0136550Y0177556D01*
X0138521Y0178555D02*
X0141479Y0178555D01*
X0140480Y0179553D02*
X0139520Y0179553D01*
X0133450Y0177556D02*
X0126550Y0177556D01*
X0128521Y0178555D02*
X0131479Y0178555D01*
X0130480Y0179553D02*
X0129520Y0179553D01*
X0123450Y0177556D02*
X0101852Y0177556D01*
X0095648Y0177556D02*
X0047718Y0177556D01*
X0047718Y0176558D02*
X0094650Y0176558D01*
X0093651Y0175559D02*
X0047718Y0175559D01*
X0047718Y0174561D02*
X0092981Y0174561D01*
X0092981Y0173562D02*
X0047718Y0173562D01*
X0047718Y0172564D02*
X0092981Y0172564D01*
X0092981Y0171565D02*
X0047718Y0171565D01*
X0047718Y0170567D02*
X0092981Y0170567D01*
X0093524Y0169568D02*
X0047718Y0169568D01*
X0047718Y0168570D02*
X0094522Y0168570D01*
X0095521Y0167571D02*
X0047718Y0167571D01*
X0047718Y0166573D02*
X0096035Y0166573D01*
X0095036Y0165574D02*
X0047718Y0165574D01*
X0047718Y0164576D02*
X0094038Y0164576D01*
X0093950Y0163577D02*
X0047718Y0163577D01*
X0047718Y0162579D02*
X0098450Y0162579D01*
X0093950Y0161580D02*
X0047718Y0161580D01*
X0047718Y0160582D02*
X0093950Y0160582D01*
X0094879Y0159583D02*
X0047718Y0159583D01*
X0047718Y0158585D02*
X0095877Y0158585D01*
X0103550Y0160582D02*
X0140481Y0160582D01*
X0140481Y0161580D02*
X0103550Y0161580D01*
X0112537Y0179030D02*
X0113196Y0178694D01*
X0113899Y0178466D01*
X0114500Y0178371D01*
X0114500Y0185750D01*
X0110300Y0185750D01*
X0110300Y0182680D01*
X0110416Y0181949D01*
X0110644Y0181246D01*
X0110980Y0180587D01*
X0111415Y0179988D01*
X0111938Y0179465D01*
X0112537Y0179030D01*
X0111850Y0179553D02*
X0047718Y0179553D01*
X0047718Y0178555D02*
X0113625Y0178555D01*
X0114500Y0178555D02*
X0115500Y0178555D01*
X0116375Y0178555D02*
X0121479Y0178555D01*
X0120480Y0179553D02*
X0118150Y0179553D01*
X0118995Y0180552D02*
X0119899Y0180552D01*
X0119486Y0181550D02*
X0119455Y0181550D01*
X0115500Y0181550D02*
X0114500Y0181550D01*
X0114500Y0180552D02*
X0115500Y0180552D01*
X0115500Y0179553D02*
X0114500Y0179553D01*
X0111005Y0180552D02*
X0047714Y0180552D01*
X0047294Y0181550D02*
X0110545Y0181550D01*
X0110321Y0182549D02*
X0045950Y0182549D01*
X0073323Y0202519D02*
X0007468Y0202519D01*
X0007468Y0201521D02*
X0074321Y0201521D01*
X0075320Y0200522D02*
X0007468Y0200522D01*
X0007468Y0199524D02*
X0076318Y0199524D01*
X0073231Y0203518D02*
X0007468Y0203518D01*
X0007468Y0204516D02*
X0073231Y0204516D01*
X0073231Y0205515D02*
X0007468Y0205515D01*
X0007468Y0206513D02*
X0073231Y0206513D01*
X0073354Y0207512D02*
X0007468Y0207512D01*
X0007468Y0208510D02*
X0074352Y0208510D01*
X0075351Y0209509D02*
X0007468Y0209509D01*
X0007468Y0210507D02*
X0076349Y0210507D01*
X0081651Y0210507D02*
X0086349Y0210507D01*
X0085351Y0209509D02*
X0082649Y0209509D01*
X0083648Y0208510D02*
X0084352Y0208510D01*
X0084321Y0201521D02*
X0083679Y0201521D01*
X0082680Y0200522D02*
X0085320Y0200522D01*
X0086318Y0199524D02*
X0081682Y0199524D01*
X0091682Y0199524D02*
X0096318Y0199524D01*
X0095320Y0200522D02*
X0092680Y0200522D01*
X0093679Y0201521D02*
X0094321Y0201521D01*
X0101681Y0199524D02*
X0116318Y0199524D01*
X0115320Y0200522D02*
X0111310Y0200522D01*
X0112309Y0201521D02*
X0114321Y0201521D01*
X0113323Y0202519D02*
X0113307Y0202519D01*
X0109484Y0202519D02*
X0108516Y0202519D01*
X0108516Y0201521D02*
X0109484Y0201521D01*
X0109484Y0200522D02*
X0108516Y0200522D01*
X0106690Y0200522D02*
X0102680Y0200522D01*
X0103679Y0201521D02*
X0105691Y0201521D01*
X0104693Y0202519D02*
X0104677Y0202519D01*
X0108516Y0203518D02*
X0109484Y0203518D01*
X0109484Y0205515D02*
X0108516Y0205515D01*
X0108516Y0206513D02*
X0109484Y0206513D01*
X0109484Y0207512D02*
X0108516Y0207512D01*
X0108516Y0208510D02*
X0109484Y0208510D01*
X0109484Y0209509D02*
X0108516Y0209509D01*
X0106721Y0209509D02*
X0102649Y0209509D01*
X0101651Y0210507D02*
X0116349Y0210507D01*
X0115351Y0209509D02*
X0111279Y0209509D01*
X0112278Y0208510D02*
X0114352Y0208510D01*
X0113354Y0207512D02*
X0113276Y0207512D01*
X0121651Y0210507D02*
X0126349Y0210507D01*
X0125351Y0209509D02*
X0122649Y0209509D01*
X0123648Y0208510D02*
X0124352Y0208510D01*
X0131651Y0210507D02*
X0136349Y0210507D01*
X0135351Y0209509D02*
X0132649Y0209509D01*
X0133648Y0208510D02*
X0134352Y0208510D01*
X0134321Y0201521D02*
X0133679Y0201521D01*
X0132680Y0200522D02*
X0135320Y0200522D01*
X0136318Y0199524D02*
X0131682Y0199524D01*
X0126318Y0199524D02*
X0121682Y0199524D01*
X0122680Y0200522D02*
X0125320Y0200522D01*
X0124321Y0201521D02*
X0123679Y0201521D01*
X0122454Y0194531D02*
X0007468Y0194531D01*
X0007468Y0193533D02*
X0112660Y0193533D01*
X0111437Y0192534D02*
X0007468Y0192534D01*
X0007468Y0191536D02*
X0110788Y0191536D01*
X0110414Y0190537D02*
X0007468Y0190537D01*
X0007468Y0189539D02*
X0110300Y0189539D01*
X0110300Y0188540D02*
X0007468Y0188540D01*
X0007468Y0187541D02*
X0110300Y0187541D01*
X0110300Y0185544D02*
X0007468Y0185544D01*
X0007468Y0184546D02*
X0110300Y0184546D01*
X0110300Y0183547D02*
X0007468Y0183547D01*
X0007468Y0186543D02*
X0114500Y0186543D01*
X0114500Y0187541D02*
X0115500Y0187541D01*
X0115500Y0188540D02*
X0114500Y0188540D01*
X0114500Y0189539D02*
X0115500Y0189539D01*
X0115500Y0190537D02*
X0114500Y0190537D01*
X0114500Y0191536D02*
X0115500Y0191536D01*
X0115500Y0192534D02*
X0114500Y0192534D01*
X0114500Y0193533D02*
X0115500Y0193533D01*
X0117340Y0193533D02*
X0121066Y0193533D01*
X0120142Y0192534D02*
X0118563Y0192534D01*
X0119212Y0191536D02*
X0119728Y0191536D01*
X0127546Y0194531D02*
X0132454Y0194531D01*
X0131066Y0193533D02*
X0128934Y0193533D01*
X0129858Y0192534D02*
X0130142Y0192534D01*
X0137546Y0194531D02*
X0142454Y0194531D01*
X0141066Y0193533D02*
X0138934Y0193533D01*
X0139858Y0192534D02*
X0140142Y0192534D01*
X0143850Y0196528D02*
X0007468Y0196528D01*
X0007468Y0195530D02*
X0144848Y0195530D01*
X0142851Y0197527D02*
X0007468Y0197527D01*
X0007468Y0198525D02*
X0141853Y0198525D01*
X0143648Y0208510D02*
X0144352Y0208510D01*
X0145351Y0209509D02*
X0142649Y0209509D01*
X0141651Y0210507D02*
X0146349Y0210507D01*
X0151651Y0210507D02*
X0156349Y0210507D01*
X0155351Y0209509D02*
X0152649Y0209509D01*
X0153648Y0208510D02*
X0154352Y0208510D01*
X0161651Y0210507D02*
X0166349Y0210507D01*
X0165351Y0209509D02*
X0162649Y0209509D01*
X0163648Y0208510D02*
X0164352Y0208510D01*
X0171651Y0210507D02*
X0182349Y0210507D01*
X0182611Y0210768D02*
X0179231Y0207389D01*
X0179231Y0202611D01*
X0182611Y0199231D01*
X0187389Y0199231D01*
X0190000Y0201842D01*
X0192611Y0199231D01*
X0197389Y0199231D01*
X0200000Y0201842D01*
X0202611Y0199231D01*
X0207389Y0199231D01*
X0210000Y0201842D01*
X0212611Y0199231D01*
X0217389Y0199231D01*
X0220000Y0201842D01*
X0222611Y0199231D01*
X0227389Y0199231D01*
X0230000Y0201842D01*
X0232611Y0199231D01*
X0237389Y0199231D01*
X0240000Y0201842D01*
X0242611Y0199231D01*
X0247389Y0199231D01*
X0250000Y0201842D01*
X0252611Y0199231D01*
X0257389Y0199231D01*
X0260768Y0202611D01*
X0260768Y0207389D01*
X0257389Y0210768D01*
X0252611Y0210768D01*
X0250000Y0208158D01*
X0247389Y0210768D01*
X0242611Y0210768D01*
X0240000Y0208158D01*
X0237389Y0210768D01*
X0232611Y0210768D01*
X0230000Y0208158D01*
X0227389Y0210768D01*
X0222611Y0210768D01*
X0220000Y0208158D01*
X0217389Y0210768D01*
X0212611Y0210768D01*
X0210000Y0208158D01*
X0207389Y0210768D01*
X0202611Y0210768D01*
X0200000Y0208158D01*
X0197389Y0210768D01*
X0192611Y0210768D01*
X0190000Y0208158D01*
X0187389Y0210768D01*
X0182611Y0210768D01*
X0181351Y0209509D02*
X0172649Y0209509D01*
X0173648Y0208510D02*
X0180352Y0208510D01*
X0179354Y0207512D02*
X0174646Y0207512D01*
X0174768Y0206513D02*
X0179231Y0206513D01*
X0179231Y0205515D02*
X0174768Y0205515D01*
X0174768Y0204516D02*
X0179231Y0204516D01*
X0179231Y0203518D02*
X0174768Y0203518D01*
X0174677Y0202519D02*
X0179323Y0202519D01*
X0180321Y0201521D02*
X0173679Y0201521D01*
X0172680Y0200522D02*
X0181320Y0200522D01*
X0182318Y0199524D02*
X0171682Y0199524D01*
X0166318Y0199524D02*
X0161682Y0199524D01*
X0162680Y0200522D02*
X0165320Y0200522D01*
X0164321Y0201521D02*
X0163679Y0201521D01*
X0158113Y0198525D02*
X0262531Y0198525D01*
X0262531Y0197527D02*
X0158268Y0197527D01*
X0158268Y0196528D02*
X0262531Y0196528D01*
X0262531Y0195530D02*
X0158268Y0195530D01*
X0158268Y0194531D02*
X0262531Y0194531D01*
X0262531Y0193533D02*
X0158268Y0193533D01*
X0158268Y0192534D02*
X0262531Y0192534D01*
X0262531Y0191536D02*
X0158268Y0191536D01*
X0158268Y0190537D02*
X0262531Y0190537D01*
X0262531Y0189539D02*
X0158268Y0189539D01*
X0158268Y0188540D02*
X0262531Y0188540D01*
X0262531Y0187541D02*
X0158268Y0187541D01*
X0158268Y0186543D02*
X0262531Y0186543D01*
X0262531Y0185544D02*
X0158268Y0185544D01*
X0158268Y0184546D02*
X0262531Y0184546D01*
X0262531Y0183547D02*
X0158268Y0183547D01*
X0158268Y0182549D02*
X0262531Y0182549D01*
X0262531Y0181550D02*
X0158268Y0181550D01*
X0158268Y0180552D02*
X0262531Y0180552D01*
X0262531Y0179553D02*
X0158268Y0179553D01*
X0158268Y0178555D02*
X0262531Y0178555D01*
X0262531Y0177556D02*
X0158043Y0177556D01*
X0157430Y0176558D02*
X0262531Y0176558D01*
X0262531Y0175559D02*
X0156432Y0175559D01*
X0155433Y0174561D02*
X0262531Y0174561D01*
X0262531Y0173562D02*
X0154435Y0173562D01*
X0153436Y0172564D02*
X0262531Y0172564D01*
X0262531Y0171565D02*
X0152438Y0171565D01*
X0151439Y0170567D02*
X0262531Y0170567D01*
X0262531Y0169568D02*
X0150768Y0169568D01*
X0150768Y0168570D02*
X0262531Y0168570D01*
X0262531Y0167571D02*
X0150768Y0167571D01*
X0150768Y0166573D02*
X0262531Y0166573D01*
X0262531Y0165574D02*
X0150768Y0165574D01*
X0150768Y0164576D02*
X0262531Y0164576D01*
X0262531Y0163577D02*
X0150768Y0163577D01*
X0150768Y0162579D02*
X0262930Y0162579D01*
X0263929Y0161580D02*
X0150768Y0161580D01*
X0150768Y0160582D02*
X0264927Y0160582D01*
X0265926Y0159583D02*
X0150768Y0159583D01*
X0150768Y0158585D02*
X0266924Y0158585D01*
X0267923Y0157586D02*
X0150768Y0157586D01*
X0150768Y0156588D02*
X0268921Y0156588D01*
X0269920Y0155589D02*
X0150768Y0155589D01*
X0150768Y0154591D02*
X0270918Y0154591D01*
X0271917Y0153592D02*
X0150768Y0153592D01*
X0150768Y0152594D02*
X0272531Y0152594D01*
X0272531Y0151595D02*
X0150768Y0151595D01*
X0150768Y0150597D02*
X0272531Y0150597D01*
X0272531Y0149598D02*
X0150768Y0149598D01*
X0150768Y0148600D02*
X0272531Y0148600D01*
X0272531Y0147601D02*
X0150768Y0147601D01*
X0150768Y0146603D02*
X0272531Y0146603D01*
X0272531Y0145604D02*
X0150768Y0145604D01*
X0150768Y0144605D02*
X0272531Y0144605D01*
X0272531Y0143607D02*
X0150768Y0143607D01*
X0150768Y0142608D02*
X0272531Y0142608D01*
X0272531Y0141610D02*
X0150768Y0141610D01*
X0150768Y0140611D02*
X0227546Y0140611D01*
X0226336Y0139613D02*
X0150768Y0139613D01*
X0150768Y0138614D02*
X0225338Y0138614D01*
X0224339Y0137616D02*
X0150768Y0137616D01*
X0150768Y0136617D02*
X0223341Y0136617D01*
X0232454Y0140611D02*
X0272531Y0140611D01*
X0272531Y0139613D02*
X0233664Y0139613D01*
X0234398Y0138614D02*
X0272531Y0138614D01*
X0272531Y0137616D02*
X0234812Y0137616D01*
X0234968Y0136617D02*
X0272531Y0136617D01*
X0272531Y0135619D02*
X0234968Y0135619D01*
X0234703Y0134620D02*
X0272531Y0134620D01*
X0272531Y0133622D02*
X0234289Y0133622D01*
X0233400Y0132623D02*
X0272531Y0132623D01*
X0272531Y0131625D02*
X0232401Y0131625D01*
X0231403Y0130626D02*
X0250683Y0130626D01*
X0250602Y0130593D02*
X0249907Y0129898D01*
X0249531Y0128991D01*
X0249531Y0121009D01*
X0249907Y0120102D01*
X0250602Y0119407D01*
X0251213Y0119154D01*
X0249531Y0117472D01*
X0249531Y0112528D01*
X0252059Y0110000D01*
X0249531Y0107472D01*
X0249531Y0102528D01*
X0253028Y0099031D01*
X0257972Y0099031D01*
X0261185Y0102244D01*
X0263429Y0100000D01*
X0265016Y0100000D01*
X0265016Y0104516D01*
X0265984Y0104516D01*
X0265984Y0100000D01*
X0267571Y0100000D01*
X0270500Y0102929D01*
X0270500Y0104516D01*
X0265984Y0104516D01*
X0265984Y0105484D01*
X0270500Y0105484D01*
X0270500Y0107071D01*
X0268256Y0109315D01*
X0271468Y0112528D01*
X0271468Y0117472D01*
X0268941Y0120000D01*
X0271468Y0122528D01*
X0271468Y0127472D01*
X0267972Y0130968D01*
X0263028Y0130968D01*
X0261346Y0129287D01*
X0261093Y0129898D01*
X0260398Y0130593D01*
X0259491Y0130968D01*
X0251509Y0130968D01*
X0250602Y0130593D01*
X0249795Y0129628D02*
X0230404Y0129628D01*
X0229406Y0128629D02*
X0249531Y0128629D01*
X0249531Y0127631D02*
X0228407Y0127631D01*
X0226835Y0126632D02*
X0249531Y0126632D01*
X0249531Y0125634D02*
X0175160Y0125634D01*
X0174162Y0124635D02*
X0249531Y0124635D01*
X0249531Y0123637D02*
X0173163Y0123637D01*
X0172165Y0122638D02*
X0249531Y0122638D01*
X0249531Y0121640D02*
X0171166Y0121640D01*
X0170168Y0120641D02*
X0249684Y0120641D01*
X0250366Y0119643D02*
X0169169Y0119643D01*
X0168171Y0118644D02*
X0250703Y0118644D01*
X0249705Y0117646D02*
X0167468Y0117646D01*
X0167468Y0116647D02*
X0249531Y0116647D01*
X0249531Y0115649D02*
X0167468Y0115649D01*
X0167468Y0114650D02*
X0249531Y0114650D01*
X0249531Y0113652D02*
X0167468Y0113652D01*
X0167468Y0112653D02*
X0249531Y0112653D01*
X0250405Y0111655D02*
X0167468Y0111655D01*
X0167468Y0110656D02*
X0251403Y0110656D01*
X0251717Y0109658D02*
X0167468Y0109658D01*
X0167468Y0108659D02*
X0250718Y0108659D01*
X0249720Y0107661D02*
X0167468Y0107661D01*
X0167468Y0106662D02*
X0249531Y0106662D01*
X0249531Y0105664D02*
X0167468Y0105664D01*
X0167468Y0104665D02*
X0249531Y0104665D01*
X0249531Y0103667D02*
X0167468Y0103667D01*
X0167468Y0102668D02*
X0249531Y0102668D01*
X0250390Y0101670D02*
X0167468Y0101670D01*
X0167468Y0100671D02*
X0251388Y0100671D01*
X0252387Y0099672D02*
X0167468Y0099672D01*
X0167468Y0098674D02*
X0272531Y0098674D01*
X0272531Y0099672D02*
X0258613Y0099672D01*
X0259612Y0100671D02*
X0262758Y0100671D01*
X0261759Y0101670D02*
X0260610Y0101670D01*
X0265016Y0101670D02*
X0265984Y0101670D01*
X0265984Y0102668D02*
X0265016Y0102668D01*
X0265016Y0103667D02*
X0265984Y0103667D01*
X0265984Y0104665D02*
X0272531Y0104665D01*
X0272531Y0103667D02*
X0270500Y0103667D01*
X0270239Y0102668D02*
X0272531Y0102668D01*
X0272531Y0101670D02*
X0269241Y0101670D01*
X0268242Y0100671D02*
X0272531Y0100671D01*
X0272531Y0097675D02*
X0167468Y0097675D01*
X0167468Y0096677D02*
X0272531Y0096677D01*
X0265400Y0095678D02*
X0264400Y0095678D01*
X0264400Y0094680D02*
X0265400Y0094680D01*
X0265400Y0093681D02*
X0264400Y0093681D01*
X0264400Y0092683D02*
X0265400Y0092683D01*
X0265400Y0091684D02*
X0264400Y0091684D01*
X0264400Y0090686D02*
X0265400Y0090686D01*
X0265400Y0089687D02*
X0272531Y0089687D01*
X0265400Y0088689D02*
X0264400Y0088689D01*
X0264400Y0089400D02*
X0264400Y0083900D01*
X0254703Y0083900D01*
X0254321Y0084002D01*
X0253979Y0084200D01*
X0253700Y0084479D01*
X0253502Y0084821D01*
X0253400Y0085203D01*
X0253400Y0089400D01*
X0264400Y0089400D01*
X0264400Y0089687D02*
X0167468Y0089687D01*
X0167468Y0088689D02*
X0253400Y0088689D01*
X0253400Y0087690D02*
X0167468Y0087690D01*
X0167468Y0086692D02*
X0253400Y0086692D01*
X0253400Y0085693D02*
X0167468Y0085693D01*
X0167468Y0084695D02*
X0253575Y0084695D01*
X0253400Y0090686D02*
X0167468Y0090686D01*
X0167468Y0091684D02*
X0253400Y0091684D01*
X0253400Y0092683D02*
X0167468Y0092683D01*
X0167468Y0093681D02*
X0253400Y0093681D01*
X0253422Y0094680D02*
X0167468Y0094680D01*
X0167468Y0095678D02*
X0254114Y0095678D01*
X0265016Y0100671D02*
X0265984Y0100671D01*
X0270500Y0105664D02*
X0272531Y0105664D01*
X0272531Y0106662D02*
X0270500Y0106662D01*
X0269910Y0107661D02*
X0272531Y0107661D01*
X0272531Y0108659D02*
X0268912Y0108659D01*
X0268598Y0109658D02*
X0272531Y0109658D01*
X0272531Y0110656D02*
X0269597Y0110656D01*
X0270595Y0111655D02*
X0272531Y0111655D01*
X0272531Y0112653D02*
X0271468Y0112653D01*
X0271468Y0113652D02*
X0272531Y0113652D01*
X0272531Y0114650D02*
X0271468Y0114650D01*
X0271468Y0115649D02*
X0272531Y0115649D01*
X0272531Y0116647D02*
X0271468Y0116647D01*
X0271295Y0117646D02*
X0272531Y0117646D01*
X0272531Y0118644D02*
X0270297Y0118644D01*
X0269298Y0119643D02*
X0272531Y0119643D01*
X0272531Y0120641D02*
X0269582Y0120641D01*
X0270580Y0121640D02*
X0272531Y0121640D01*
X0272531Y0122638D02*
X0271468Y0122638D01*
X0271468Y0123637D02*
X0272531Y0123637D01*
X0272531Y0124635D02*
X0271468Y0124635D01*
X0271468Y0125634D02*
X0272531Y0125634D01*
X0272531Y0126632D02*
X0271468Y0126632D01*
X0271310Y0127631D02*
X0272531Y0127631D01*
X0272531Y0128629D02*
X0270311Y0128629D01*
X0269313Y0129628D02*
X0272531Y0129628D01*
X0272531Y0130626D02*
X0268314Y0130626D01*
X0262686Y0130626D02*
X0260317Y0130626D01*
X0261205Y0129628D02*
X0261687Y0129628D01*
X0264400Y0087690D02*
X0265400Y0087690D01*
X0265400Y0086692D02*
X0264400Y0086692D01*
X0264400Y0085693D02*
X0265400Y0085693D01*
X0265400Y0084695D02*
X0264400Y0084695D01*
X0272531Y0083696D02*
X0167468Y0083696D01*
X0167468Y0082698D02*
X0272531Y0082698D01*
X0272531Y0081699D02*
X0167468Y0081699D01*
X0167468Y0080701D02*
X0272531Y0080701D01*
X0272531Y0079702D02*
X0167468Y0079702D01*
X0167468Y0078704D02*
X0272531Y0078704D01*
X0272531Y0077705D02*
X0167468Y0077705D01*
X0167468Y0076707D02*
X0272531Y0076707D01*
X0272531Y0075708D02*
X0167468Y0075708D01*
X0167468Y0074710D02*
X0272531Y0074710D01*
X0272531Y0073711D02*
X0167468Y0073711D01*
X0167468Y0072713D02*
X0272531Y0072713D01*
X0227375Y0040760D02*
X0225515Y0040760D01*
X0226473Y0039762D02*
X0223611Y0039762D01*
X0215991Y0050745D02*
X0213496Y0050745D01*
X0211750Y0050745D02*
X0210750Y0050745D01*
X0210750Y0051744D02*
X0211750Y0051744D01*
X0211750Y0052742D02*
X0210750Y0052742D01*
X0210750Y0053741D02*
X0211750Y0053741D01*
X0211750Y0054739D02*
X0210750Y0054739D01*
X0210750Y0055738D02*
X0211750Y0055738D01*
X0210750Y0056737D02*
X0167044Y0056737D01*
X0167457Y0057735D02*
X0205498Y0057735D01*
X0205861Y0058734D02*
X0167468Y0058734D01*
X0167468Y0059732D02*
X0206451Y0059732D01*
X0207345Y0060731D02*
X0167468Y0060731D01*
X0166515Y0055738D02*
X0205328Y0055738D01*
X0205507Y0054739D02*
X0165516Y0054739D01*
X0164517Y0053741D02*
X0205874Y0053741D01*
X0206470Y0052742D02*
X0163519Y0052742D01*
X0162520Y0051744D02*
X0207371Y0051744D01*
X0209004Y0050745D02*
X0161462Y0050745D01*
X0215129Y0051744D02*
X0216989Y0051744D01*
X0216030Y0052742D02*
X0218900Y0052742D01*
X0157531Y0094680D02*
X0150999Y0094680D01*
X0151968Y0095678D02*
X0157531Y0095678D01*
X0157531Y0096677D02*
X0151968Y0096677D01*
X0151968Y0097675D02*
X0157531Y0097675D01*
X0157531Y0098674D02*
X0151968Y0098674D01*
X0151647Y0099672D02*
X0157531Y0099672D01*
X0157531Y0100671D02*
X0150768Y0100671D01*
X0150768Y0101670D02*
X0157531Y0101670D01*
X0157531Y0102668D02*
X0150768Y0102668D01*
X0150768Y0103667D02*
X0157531Y0103667D01*
X0157531Y0104665D02*
X0150768Y0104665D01*
X0150768Y0105664D02*
X0157531Y0105664D01*
X0157531Y0106662D02*
X0150768Y0106662D01*
X0150768Y0107661D02*
X0157531Y0107661D01*
X0157531Y0108659D02*
X0150768Y0108659D01*
X0150768Y0109658D02*
X0157531Y0109658D01*
X0157531Y0110656D02*
X0150768Y0110656D01*
X0150768Y0111655D02*
X0157531Y0111655D01*
X0157531Y0112653D02*
X0150768Y0112653D01*
X0150768Y0113652D02*
X0157531Y0113652D01*
X0157531Y0114650D02*
X0150768Y0114650D01*
X0150768Y0115649D02*
X0157531Y0115649D01*
X0157531Y0116647D02*
X0150768Y0116647D01*
X0150768Y0117646D02*
X0157531Y0117646D01*
X0157531Y0118644D02*
X0150768Y0118644D01*
X0150768Y0119643D02*
X0157531Y0119643D01*
X0157531Y0120641D02*
X0150768Y0120641D01*
X0150768Y0121640D02*
X0157801Y0121640D01*
X0158215Y0122638D02*
X0150768Y0122638D01*
X0150768Y0123637D02*
X0159110Y0123637D01*
X0160109Y0124635D02*
X0150768Y0124635D01*
X0150768Y0125634D02*
X0161107Y0125634D01*
X0162106Y0126632D02*
X0150768Y0126632D01*
X0150768Y0127631D02*
X0163104Y0127631D01*
X0164103Y0128629D02*
X0150768Y0128629D01*
X0150768Y0129628D02*
X0165101Y0129628D01*
X0166100Y0130626D02*
X0150768Y0130626D01*
X0150768Y0131625D02*
X0167098Y0131625D01*
X0168097Y0132623D02*
X0150768Y0132623D01*
X0150768Y0133622D02*
X0169095Y0133622D01*
X0170094Y0134620D02*
X0150768Y0134620D01*
X0150768Y0135619D02*
X0171314Y0135619D01*
X0115500Y0182549D02*
X0114500Y0182549D01*
X0114500Y0183547D02*
X0115500Y0183547D01*
X0115500Y0184546D02*
X0114500Y0184546D01*
X0114500Y0185544D02*
X0115500Y0185544D01*
X0104724Y0207512D02*
X0104646Y0207512D01*
X0103648Y0208510D02*
X0105722Y0208510D01*
X0096349Y0210507D02*
X0091651Y0210507D01*
X0092649Y0209509D02*
X0095351Y0209509D01*
X0094352Y0208510D02*
X0093648Y0208510D01*
X0007468Y0211506D02*
X0259003Y0211506D01*
X0258005Y0212504D02*
X0007468Y0212504D01*
X0187651Y0210507D02*
X0192349Y0210507D01*
X0191351Y0209509D02*
X0188649Y0209509D01*
X0189648Y0208510D02*
X0190352Y0208510D01*
X0190321Y0201521D02*
X0189679Y0201521D01*
X0188680Y0200522D02*
X0191320Y0200522D01*
X0192318Y0199524D02*
X0187682Y0199524D01*
X0197682Y0199524D02*
X0202318Y0199524D01*
X0201320Y0200522D02*
X0198680Y0200522D01*
X0199679Y0201521D02*
X0200321Y0201521D01*
X0200352Y0208510D02*
X0199648Y0208510D01*
X0198649Y0209509D02*
X0201351Y0209509D01*
X0202349Y0210507D02*
X0197651Y0210507D01*
X0207651Y0210507D02*
X0212349Y0210507D01*
X0211351Y0209509D02*
X0208649Y0209509D01*
X0209648Y0208510D02*
X0210352Y0208510D01*
X0217651Y0210507D02*
X0222349Y0210507D01*
X0221351Y0209509D02*
X0218649Y0209509D01*
X0219648Y0208510D02*
X0220352Y0208510D01*
X0227651Y0210507D02*
X0232349Y0210507D01*
X0231351Y0209509D02*
X0228649Y0209509D01*
X0229648Y0208510D02*
X0230352Y0208510D01*
X0237651Y0210507D02*
X0242349Y0210507D01*
X0241351Y0209509D02*
X0238649Y0209509D01*
X0239648Y0208510D02*
X0240352Y0208510D01*
X0247651Y0210507D02*
X0252349Y0210507D01*
X0251351Y0209509D02*
X0248649Y0209509D01*
X0249648Y0208510D02*
X0250352Y0208510D01*
X0250321Y0201521D02*
X0249679Y0201521D01*
X0248680Y0200522D02*
X0251320Y0200522D01*
X0252318Y0199524D02*
X0247681Y0199524D01*
X0242318Y0199524D02*
X0237681Y0199524D01*
X0238680Y0200522D02*
X0241320Y0200522D01*
X0240321Y0201521D02*
X0239679Y0201521D01*
X0232318Y0199524D02*
X0227681Y0199524D01*
X0228680Y0200522D02*
X0231320Y0200522D01*
X0230321Y0201521D02*
X0229679Y0201521D01*
X0222318Y0199524D02*
X0217681Y0199524D01*
X0218680Y0200522D02*
X0221320Y0200522D01*
X0220321Y0201521D02*
X0219679Y0201521D01*
X0212318Y0199524D02*
X0207682Y0199524D01*
X0208680Y0200522D02*
X0211320Y0200522D01*
X0210321Y0201521D02*
X0209679Y0201521D01*
X0257682Y0199524D02*
X0262531Y0199524D01*
X0262531Y0200522D02*
X0258680Y0200522D01*
X0259679Y0201521D02*
X0262531Y0201521D01*
X0262531Y0202519D02*
X0260677Y0202519D01*
X0260768Y0203518D02*
X0262531Y0203518D01*
X0262531Y0204516D02*
X0260768Y0204516D01*
X0260768Y0205515D02*
X0262531Y0205515D01*
X0262531Y0206513D02*
X0260768Y0206513D01*
X0260646Y0207512D02*
X0262531Y0207512D01*
X0261999Y0208510D02*
X0259648Y0208510D01*
X0258649Y0209509D02*
X0261000Y0209509D01*
X0260002Y0210507D02*
X0257651Y0210507D01*
D19*
X0258750Y0197500D03*
X0247500Y0187500D03*
X0258750Y0181250D03*
X0240000Y0173750D03*
X0240000Y0168750D03*
X0232500Y0166250D03*
X0240000Y0163750D03*
X0240000Y0158750D03*
X0240000Y0153750D03*
X0232500Y0150000D03*
X0232500Y0158750D03*
X0231250Y0173750D03*
X0231250Y0181250D03*
X0226250Y0181250D03*
X0221250Y0181250D03*
X0222500Y0188750D03*
X0233750Y0190000D03*
X0215000Y0197500D03*
X0197500Y0188750D03*
X0191250Y0193750D03*
X0176250Y0197500D03*
X0168750Y0196250D03*
X0161250Y0190000D03*
X0161250Y0182500D03*
X0163750Y0176250D03*
X0153750Y0168750D03*
X0156250Y0165000D03*
X0167500Y0165000D03*
X0180000Y0158750D03*
X0197500Y0158750D03*
X0197500Y0166250D03*
X0197500Y0173750D03*
X0197500Y0181250D03*
X0191250Y0181250D03*
X0185000Y0181250D03*
X0202500Y0181250D03*
X0207500Y0181250D03*
X0197500Y0151250D03*
X0197500Y0140000D03*
X0215000Y0140000D03*
X0215000Y0123750D03*
X0207500Y0115000D03*
X0197500Y0123750D03*
X0177500Y0123750D03*
X0170000Y0116250D03*
X0155000Y0116250D03*
X0155000Y0108750D03*
X0155000Y0101250D03*
X0145000Y0090000D03*
X0127500Y0091250D03*
X0107500Y0102500D03*
X0125000Y0107500D03*
X0136250Y0108750D03*
X0136250Y0116250D03*
X0136250Y0123750D03*
X0136250Y0131250D03*
X0136250Y0138750D03*
X0121250Y0136250D03*
X0103750Y0132500D03*
X0096250Y0143750D03*
X0087500Y0143750D03*
X0078750Y0151250D03*
X0072500Y0143750D03*
X0072500Y0135000D03*
X0072500Y0126250D03*
X0072500Y0117500D03*
X0072500Y0108750D03*
X0072500Y0100000D03*
X0072500Y0091250D03*
X0072500Y0082500D03*
X0061250Y0078750D03*
X0087500Y0082500D03*
X0087500Y0091250D03*
X0087500Y0100000D03*
X0087500Y0108750D03*
X0087500Y0117500D03*
X0087500Y0126250D03*
X0087500Y0135000D03*
X0107500Y0148750D03*
X0087500Y0157500D03*
X0080000Y0166250D03*
X0066250Y0162500D03*
X0055000Y0172500D03*
X0073750Y0178750D03*
X0087500Y0177500D03*
X0073750Y0191250D03*
X0088750Y0196250D03*
X0117500Y0172500D03*
X0127500Y0165000D03*
X0130000Y0172500D03*
X0137500Y0175000D03*
X0152500Y0140000D03*
X0152500Y0131250D03*
X0155000Y0123750D03*
X0163750Y0132500D03*
X0173750Y0140000D03*
X0190000Y0106250D03*
X0208750Y0101250D03*
X0220000Y0092500D03*
X0213750Y0088750D03*
X0228750Y0092500D03*
X0230000Y0098750D03*
X0236250Y0098750D03*
X0241250Y0098750D03*
X0247500Y0098750D03*
X0260000Y0092500D03*
X0265000Y0092500D03*
X0270000Y0092500D03*
X0267500Y0087500D03*
X0272500Y0087500D03*
X0262500Y0087500D03*
X0257500Y0087500D03*
X0230000Y0106250D03*
X0230000Y0111250D03*
X0230000Y0116250D03*
X0236250Y0116250D03*
X0236250Y0112500D03*
X0241250Y0112500D03*
X0241250Y0116250D03*
X0247500Y0116250D03*
X0247500Y0112500D03*
X0230000Y0123750D03*
X0236250Y0131250D03*
X0241250Y0131250D03*
X0247500Y0131250D03*
X0255000Y0135000D03*
X0262500Y0133750D03*
X0268750Y0133750D03*
X0263750Y0156250D03*
X0176250Y0210000D03*
X0060000Y0136250D03*
X0053750Y0122500D03*
X0060000Y0108750D03*
X0055000Y0097500D03*
X0037500Y0112500D03*
X0013750Y0117500D03*
X0032500Y0090000D03*
X0032500Y0080000D03*
X0013750Y0083750D03*
X0012500Y0062500D03*
X0035000Y0045000D03*
X0016250Y0042500D03*
X0057500Y0042500D03*
X0067500Y0046250D03*
X0057500Y0058750D03*
X0081250Y0032500D03*
X0101250Y0035000D03*
X0122500Y0045000D03*
X0127500Y0050000D03*
X0127500Y0056250D03*
X0127500Y0062500D03*
X0140000Y0050000D03*
X0146250Y0052500D03*
X0140000Y0043750D03*
X0167500Y0048750D03*
X0177500Y0060000D03*
X0195000Y0060000D03*
X0207500Y0065000D03*
X0185000Y0045000D03*
X0192500Y0032500D03*
X0166250Y0028750D03*
X0138750Y0022500D03*
X0096250Y0015000D03*
X0075000Y0011250D03*
X0106250Y0086250D03*
X0118750Y0121250D03*
X0170000Y0103750D03*
X0170000Y0091250D03*
X0182500Y0091250D03*
X0197500Y0091250D03*
X0240000Y0057500D03*
X0251250Y0057500D03*
X0257500Y0057500D03*
X0262500Y0057500D03*
X0267500Y0057500D03*
X0272500Y0057500D03*
X0270000Y0052500D03*
X0265000Y0052500D03*
X0260000Y0052500D03*
X0248750Y0028750D03*
X0218750Y0025000D03*
X0195000Y0012500D03*
X0057500Y0152500D03*
X0030000Y0190000D03*
X0022500Y0201250D03*
X0013750Y0207500D03*
X0041250Y0208750D03*
X0047500Y0197500D03*
D20*
X0046100Y0031400D02*
X0046250Y0031250D01*
X0062500Y0031250D01*
X0070000Y0023750D01*
X0127500Y0023750D01*
X0135000Y0016250D01*
X0135000Y0015000D01*
X0046250Y0031250D02*
X0044200Y0031250D01*
X0044050Y0031400D01*
X0046100Y0031400D01*
X0044050Y0031400D02*
X0018450Y0031400D01*
D21*
X0080000Y0071250D02*
X0080000Y0145000D01*
X0086250Y0151250D01*
X0101250Y0151250D01*
X0105000Y0155000D01*
X0143750Y0172500D02*
X0143750Y0100000D01*
X0141250Y0097500D01*
X0138750Y0097500D01*
X0147500Y0097500D02*
X0147500Y0171250D01*
X0155000Y0178750D01*
X0155000Y0197500D01*
X0149000Y0203500D01*
X0149000Y0205000D01*
X0140250Y0204750D02*
X0151250Y0193750D01*
X0151250Y0180000D01*
X0143750Y0172500D01*
X0140250Y0204750D02*
X0139000Y0204750D01*
X0139000Y0205000D01*
M02*
