%
M48
M72
T01C0.02362
T02C0.03200
T03C0.03937
T04C0.04000
T05C0.05906
%
T01
X12500Y21250
X21250Y40000
X13750Y58750
X12500Y83750
X13750Y111250
X57500Y115000
X68750Y103750
X60000Y93750
X81250Y96250
X91250Y96250
X103750Y96250
X103750Y88750
X112500Y88750
X122500Y88750
X132500Y88750
X132500Y97500
X132500Y103750
X132500Y111250
X132500Y118750
X132500Y126250
X128750Y133750
X121250Y133750
X112500Y133750
X103750Y133750
X103750Y126250
X103750Y118750
X103750Y111250
X103750Y103750
X91250Y111250
X81250Y111250
X81250Y126250
X91250Y126250
X91250Y141250
X91250Y148750
X96250Y156250
X102500Y162500
X96250Y170000
X102500Y172500
X112500Y172500
X121250Y172500
X131250Y165000
X121250Y162500
X112500Y162500
X90000Y163750
X83750Y157500
X81250Y148750
X81250Y141250
X67500Y132500
X60000Y147500
X70000Y163750
X60000Y175000
X75000Y186250
X93750Y191250
X55000Y193750
X36250Y202500
X33750Y191250
X20000Y187500
X20000Y203750
X141250Y190000
X141250Y180000
X141250Y173750
X160000Y168750
X165000Y168750
X162500Y173750
X162500Y162500
X167500Y162500
X188750Y182500
X195000Y182500
X201250Y182500
X201250Y188750
X195000Y188750
X188750Y188750
X190000Y195000
X173750Y197500
X168750Y197500
X176250Y208750
X218750Y188750
X218750Y182500
X223750Y182500
X228750Y182500
X235000Y182500
X240000Y182500
X245000Y182500
X250000Y182500
X255000Y182500
X255000Y188750
X247500Y188750
X240000Y188750
X235000Y188750
X226250Y188750
X250000Y195000
X228750Y155000
X237500Y152500
X253750Y151250
X253750Y136250
X242500Y128750
X235000Y128750
X227500Y128750
X223750Y136250
X215000Y136250
X207500Y136250
X200000Y136250
X191250Y136250
X182500Y136250
X173750Y136250
X165000Y136250
X152500Y133750
X146250Y137500
X146250Y130000
X151250Y126250
X146250Y122500
X151250Y118750
X146250Y115000
X151250Y111250
X146250Y107500
X151250Y103750
X146250Y100000
X151250Y96250
X151250Y88750
X145000Y88750
X165000Y88750
X165000Y96250
X165000Y103750
X165000Y111250
X165000Y118750
X173750Y125000
X182500Y125000
X191250Y125000
X200000Y125000
X207500Y125000
X215000Y125000
X231250Y121250
X240000Y121250
X242500Y112500
X235000Y112500
X227500Y112500
X231250Y103750
X240000Y103750
X242500Y93750
X247500Y90000
X251250Y87500
X251250Y92500
X257500Y91250
X261250Y87500
X266250Y91250
X270000Y87500
X235000Y93750
X227500Y93750
X216250Y93750
X216250Y88750
X208750Y88750
X208750Y93750
X200000Y88750
X191250Y88750
X182500Y88750
X173750Y88750
X165000Y62500
X165000Y55000
X156250Y46250
X150000Y55000
X150000Y62500
X137500Y56250
X126250Y52500
X120000Y52500
X120000Y47500
X126250Y47500
X136250Y41250
X121250Y28750
X135000Y27500
X142500Y26250
X166250Y26250
X173750Y26250
X173750Y31250
X173750Y36250
X180000Y36250
X180000Y31250
X180000Y26250
X193750Y27500
X191250Y38750
X180000Y41250
X173750Y41250
X166250Y41250
X178750Y57500
X192500Y57500
X191250Y48750
X235000Y45000
X245000Y46250
X251250Y46250
X257500Y46250
X265000Y46250
X265000Y53750
X261250Y57500
X257500Y53750
X251250Y52500
X245000Y52500
X245000Y58750
X251250Y58750
X268750Y57500
X251250Y31250
X241250Y30000
X193750Y11250
X122500Y61250
X92500Y42500
X92500Y25000
X86250Y11250
X71250Y11250
X51250Y22500
X57500Y40000
X47500Y41250
X68750Y47500
X55000Y57500
X56250Y75000
X102500Y11250
T02
X81250Y33750
X71250Y33750
X97500Y178750
X107500Y178750
T03
X109000Y205000
X99000Y205000
X89000Y205000
X79000Y205000
X119000Y205000
X129000Y205000
X139000Y205000
X149000Y205000
X159000Y205000
X169000Y205000
X185000Y205000
X195000Y205000
X205000Y205000
X215000Y205000
X225000Y205000
X235000Y205000
X245000Y205000
X255000Y205000
X255500Y125000
X265500Y125000
X265500Y115000
X255500Y115000
X255500Y105000
X265500Y105000
X255000Y15000
X245000Y15000
X235000Y15000
X225000Y15000
X215000Y15000
X205000Y15000
X185000Y15000
X175000Y15000
X165000Y15000
X155000Y15000
X145000Y15000
X135000Y15000
X125000Y15000
X115000Y15000
T04
X18450Y13600
X18450Y31400
X44050Y31400
X44050Y13600
X76250Y60000
X66250Y80000
X86250Y80000
X151250Y163750
X151250Y173750
X151250Y183750
X151250Y193750
T05
X207500Y55000
X217500Y45000
X207500Y35000
X227500Y35000
X227500Y55000
M30
