%
M48
M72
T01C0.01969
T02C0.03200
T03C0.03937
T04C0.04000
T05C0.05906
%
T01
X16250Y42500
X35000Y45000
X57500Y42500
X67500Y46250
X57500Y58750
X61250Y78750
X72500Y82500
X72500Y91250
X72500Y100000
X72500Y108750
X72500Y117500
X72500Y126250
X72500Y135000
X72500Y143750
X78750Y151250
X87500Y157500
X80000Y166250
X66250Y162500
X55000Y172500
X73750Y178750
X87500Y177500
X73750Y191250
X88750Y196250
X117500Y172500
X127500Y165000
X130000Y172500
X137500Y175000
X153750Y168750
X156250Y165000
X167500Y165000
X180000Y158750
X197500Y158750
X197500Y166250
X197500Y173750
X197500Y181250
X191250Y181250
X185000Y181250
X197500Y188750
X191250Y193750
X176250Y197500
X168750Y196250
X161250Y190000
X161250Y182500
X163750Y176250
X202500Y181250
X207500Y181250
X221250Y181250
X226250Y181250
X231250Y181250
X231250Y173750
X240000Y173750
X240000Y168750
X232500Y166250
X240000Y163750
X240000Y158750
X240000Y153750
X232500Y150000
X232500Y158750
X215000Y140000
X230000Y136250
X236250Y131250
X241250Y131250
X247500Y131250
X255000Y135000
X262500Y133750
X268750Y133750
X247500Y116250
X247500Y112500
X241250Y112500
X241250Y116250
X236250Y116250
X236250Y112500
X230000Y111250
X230000Y106250
X230000Y98750
X236250Y98750
X241250Y98750
X247500Y98750
X260000Y92500
X265000Y92500
X270000Y92500
X267500Y87500
X272500Y87500
X262500Y87500
X257500Y87500
X228750Y92500
X220000Y92500
X213750Y88750
X208750Y101250
X197500Y91250
X182500Y91250
X170000Y91250
X170000Y103750
X155000Y101250
X147500Y97500
X138750Y97500
X145000Y90000
X127500Y91250
X107500Y102500
X125000Y107500
X136250Y108750
X136250Y116250
X136250Y123750
X136250Y131250
X136250Y138750
X121250Y136250
X103750Y132500
X96250Y143750
X87500Y143750
X87500Y135000
X87500Y126250
X87500Y117500
X87500Y108750
X87500Y100000
X87500Y91250
X87500Y82500
X106250Y86250
X127500Y62500
X127500Y56250
X127500Y50000
X122500Y45000
X140000Y43750
X140000Y50000
X146250Y52500
X158750Y55000
X167500Y48750
X177500Y60000
X195000Y60000
X207500Y65000
X185000Y45000
X192500Y32500
X166250Y28750
X138750Y22500
X101250Y35000
X81250Y32500
X96250Y15000
X75000Y11250
X12500Y62500
X32500Y80000
X32500Y90000
X13750Y83750
X55000Y97500
X60000Y108750
X53750Y122500
X60000Y136250
X57500Y152500
X105000Y155000
X107500Y148750
X118750Y121250
X152500Y131250
X155000Y123750
X155000Y116250
X155000Y108750
X170000Y116250
X177500Y123750
X173750Y131250
X163750Y132500
X173750Y140000
X152500Y140000
X197500Y140000
X197500Y151250
X197500Y123750
X207500Y115000
X215000Y123750
X230000Y123750
X230000Y116250
X190000Y106250
X240000Y57500
X251250Y57500
X257500Y57500
X262500Y57500
X267500Y57500
X272500Y57500
X270000Y52500
X265000Y52500
X260000Y52500
X248750Y28750
X218750Y25000
X195000Y12500
X37500Y112500
X13750Y117500
X30000Y190000
X22500Y201250
X13750Y207500
X41250Y208750
X47500Y197500
X176250Y210000
X215000Y197500
X222500Y188750
X233750Y190000
X247500Y187500
X258750Y181250
X258750Y197500
X263750Y156250
T02
X98750Y162500
X98750Y172500
X127500Y33750
X137500Y33750
T03
X135000Y15000
X145000Y15000
X155000Y15000
X165000Y15000
X175000Y15000
X185000Y15000
X205000Y15000
X215000Y15000
X225000Y15000
X235000Y15000
X245000Y15000
X255000Y15000
X255500Y105000
X265500Y105000
X265500Y115000
X255500Y115000
X255500Y125000
X265500Y125000
X255000Y205000
X245000Y205000
X235000Y205000
X225000Y205000
X215000Y205000
X205000Y205000
X195000Y205000
X185000Y205000
X169000Y205000
X159000Y205000
X149000Y205000
X139000Y205000
X129000Y205000
X119000Y205000
X109000Y205000
X99000Y205000
X89000Y205000
X79000Y205000
X115000Y15000
X125000Y15000
T04
X18450Y13600
X18450Y31400
X44050Y31400
X44050Y13600
X80000Y51250
X100000Y61250
X80000Y71250
X115000Y186250
X125000Y186250
X135000Y186250
X145000Y186250
T05
X211250Y56250
X221250Y46250
X211250Y36250
X231250Y36250
X231250Y56250
M30
