G75*
%MOIN*%
%OFA0B0*%
%FSLAX25Y25*%
%IPPOS*%
%LPD*%
%AMOC8*
5,1,8,0,0,1.08239X$1,22.5*
%
%ADD10OC8,0.06600*%
%ADD11OC8,0.07000*%
%ADD12R,0.07000X0.07000*%
%ADD13C,0.06400*%
%ADD14R,0.07600X0.15000*%
%ADD15R,0.15000X0.07600*%
%ADD16C,0.08858*%
%ADD17R,0.20000X0.09000*%
%ADD18R,0.03937X0.05512*%
%ADD19R,0.05118X0.05906*%
%ADD20R,0.05906X0.05118*%
%ADD21C,0.05000*%
%ADD22OC8,0.04000*%
%ADD23C,0.02400*%
%ADD24C,0.01000*%
%ADD25OC8,0.03969*%
%ADD26C,0.01600*%
%ADD27C,0.07000*%
%ADD28C,0.10000*%
D10*
X0115000Y0015000D03*
X0125000Y0015000D03*
X0135000Y0015000D03*
X0145000Y0015000D03*
X0155000Y0015000D03*
X0165000Y0015000D03*
X0175000Y0015000D03*
X0185000Y0015000D03*
X0205000Y0015000D03*
X0215000Y0015000D03*
X0225000Y0015000D03*
X0235000Y0015000D03*
X0245000Y0015000D03*
X0255000Y0015000D03*
X0137500Y0033750D03*
X0127500Y0033750D03*
X0098750Y0162500D03*
X0098750Y0172500D03*
X0099000Y0205000D03*
X0089000Y0205000D03*
X0079000Y0205000D03*
X0109000Y0205000D03*
X0119000Y0205000D03*
X0129000Y0205000D03*
X0139000Y0205000D03*
X0149000Y0205000D03*
X0159000Y0205000D03*
X0169000Y0205000D03*
X0185000Y0205000D03*
X0195000Y0205000D03*
X0205000Y0205000D03*
X0215000Y0205000D03*
X0225000Y0205000D03*
X0235000Y0205000D03*
X0245000Y0205000D03*
X0255000Y0205000D03*
D11*
X0265500Y0125000D03*
X0265500Y0115000D03*
X0255500Y0115000D03*
X0255500Y0105000D03*
X0265500Y0105000D03*
D12*
X0255500Y0125000D03*
D13*
X0145000Y0183050D02*
X0145000Y0189450D01*
X0135000Y0189450D02*
X0135000Y0183050D01*
X0125000Y0183050D02*
X0125000Y0189450D01*
X0115000Y0189450D02*
X0115000Y0183050D01*
X0083200Y0071250D02*
X0076800Y0071250D01*
X0100000Y0064450D02*
X0100000Y0058050D01*
X0083200Y0051250D02*
X0076800Y0051250D01*
X0047250Y0031400D02*
X0040850Y0031400D01*
X0021650Y0031400D02*
X0015250Y0031400D01*
X0015250Y0013600D02*
X0021650Y0013600D01*
X0040850Y0013600D02*
X0047250Y0013600D01*
D14*
X0119085Y0077008D03*
X0136604Y0077008D03*
X0154124Y0077205D03*
X0171644Y0077008D03*
X0189163Y0077008D03*
X0206683Y0077008D03*
X0224203Y0077008D03*
X0224203Y0152205D03*
X0206683Y0152205D03*
X0189163Y0152205D03*
X0171644Y0152205D03*
X0154124Y0152205D03*
X0136604Y0152205D03*
X0119085Y0152205D03*
D15*
X0241919Y0141772D03*
X0241919Y0123661D03*
X0241919Y0105551D03*
X0241919Y0087441D03*
D16*
X0231250Y0056250D03*
X0221250Y0046250D03*
X0211250Y0036250D03*
X0231250Y0036250D03*
X0211250Y0056250D03*
D17*
X0264900Y0055100D03*
X0264900Y0072500D03*
X0264900Y0089900D03*
D18*
X0173750Y0165669D03*
X0170010Y0174331D03*
X0177490Y0174331D03*
D19*
X0247510Y0172500D03*
X0254990Y0172500D03*
X0254990Y0163750D03*
X0247510Y0163750D03*
X0247510Y0155000D03*
X0254990Y0155000D03*
X0118740Y0061250D03*
X0111260Y0061250D03*
X0111260Y0052500D03*
X0118740Y0052500D03*
X0147510Y0043750D03*
X0154990Y0043750D03*
X0154990Y0033750D03*
X0147510Y0033750D03*
D20*
X0188750Y0166260D03*
X0188750Y0173740D03*
X0177500Y0182510D03*
X0177500Y0189990D03*
X0168750Y0189990D03*
X0168750Y0182510D03*
X0206250Y0173740D03*
X0206250Y0166260D03*
X0223750Y0166260D03*
X0223750Y0173740D03*
X0098750Y0182510D03*
X0098750Y0189990D03*
D21*
X0230000Y0136250D02*
X0235000Y0141250D01*
X0241398Y0141250D01*
X0241919Y0141772D01*
X0242441Y0141250D01*
X0246250Y0141250D01*
X0254990Y0149990D01*
X0254990Y0155000D01*
X0254990Y0163750D01*
X0254990Y0172500D01*
X0158750Y0055000D02*
X0154990Y0051240D01*
X0154990Y0043750D01*
X0154990Y0033750D01*
X0155000Y0033740D01*
X0155000Y0015000D01*
D22*
X0158750Y0055000D03*
X0147500Y0097500D03*
X0138750Y0097500D03*
X0173750Y0131250D03*
X0230000Y0136250D03*
X0105000Y0155000D03*
D23*
X0145000Y0180000D02*
X0150000Y0175000D01*
X0156250Y0175000D01*
X0162500Y0168750D01*
X0162500Y0142500D01*
X0173750Y0131250D01*
X0145000Y0180000D02*
X0145000Y0186250D01*
D24*
X0007468Y0212531D02*
X0007468Y0007468D01*
X0262531Y0007468D01*
X0262531Y0015491D01*
X0262907Y0016398D01*
X0272531Y0026022D01*
X0272531Y0049100D01*
X0265400Y0049100D01*
X0265400Y0054600D01*
X0265400Y0055600D01*
X0272531Y0055600D01*
X0272531Y0054600D01*
X0265400Y0054600D01*
X0264400Y0054600D01*
X0253400Y0054600D01*
X0253400Y0050403D01*
X0253502Y0050021D01*
X0253700Y0049679D01*
X0253979Y0049400D01*
X0254321Y0049202D01*
X0254703Y0049100D01*
X0264400Y0049100D01*
X0264400Y0054600D01*
X0264400Y0055600D01*
X0264400Y0060000D01*
X0265400Y0060000D01*
X0265400Y0055600D01*
X0264400Y0055600D01*
X0253400Y0055600D01*
X0253400Y0059797D01*
X0253454Y0060000D01*
X0235854Y0060000D01*
X0236321Y0059358D01*
X0236745Y0058526D01*
X0237033Y0057638D01*
X0237174Y0056750D01*
X0231750Y0056750D01*
X0231750Y0055750D01*
X0237174Y0055750D01*
X0237033Y0054862D01*
X0236745Y0053974D01*
X0236321Y0053142D01*
X0235772Y0052387D01*
X0235113Y0051728D01*
X0234358Y0051179D01*
X0233526Y0050755D01*
X0232638Y0050467D01*
X0231750Y0050326D01*
X0231750Y0055750D01*
X0231250Y0055750D01*
X0231250Y0036750D01*
X0231750Y0036750D01*
X0231750Y0042174D01*
X0232638Y0042033D01*
X0233526Y0041745D01*
X0234358Y0041321D01*
X0235113Y0040772D01*
X0235772Y0040113D01*
X0236321Y0039358D01*
X0236745Y0038526D01*
X0237033Y0037638D01*
X0237174Y0036750D01*
X0231750Y0036750D01*
X0231750Y0035750D01*
X0237174Y0035750D01*
X0237033Y0034862D01*
X0236745Y0033974D01*
X0236321Y0033142D01*
X0235772Y0032387D01*
X0235113Y0031728D01*
X0234358Y0031179D01*
X0233526Y0030755D01*
X0232638Y0030467D01*
X0231750Y0030326D01*
X0231750Y0035750D01*
X0230750Y0035750D01*
X0230750Y0030326D01*
X0229862Y0030467D01*
X0228974Y0030755D01*
X0228142Y0031179D01*
X0227387Y0031728D01*
X0226728Y0032387D01*
X0226179Y0033142D01*
X0225755Y0033974D01*
X0225467Y0034862D01*
X0225326Y0035750D01*
X0230750Y0035750D01*
X0230750Y0036250D01*
X0211750Y0036250D01*
X0211750Y0035750D01*
X0217174Y0035750D01*
X0217033Y0034862D01*
X0216745Y0033974D01*
X0216321Y0033142D01*
X0215772Y0032387D01*
X0215113Y0031728D01*
X0214358Y0031179D01*
X0213526Y0030755D01*
X0212638Y0030467D01*
X0211750Y0030326D01*
X0211750Y0035750D01*
X0210750Y0035750D01*
X0210750Y0030326D01*
X0209862Y0030467D01*
X0208974Y0030755D01*
X0208142Y0031179D01*
X0207387Y0031728D01*
X0206728Y0032387D01*
X0206179Y0033142D01*
X0205755Y0033974D01*
X0205467Y0034862D01*
X0205326Y0035750D01*
X0210750Y0035750D01*
X0210750Y0036750D01*
X0210750Y0042174D01*
X0209862Y0042033D01*
X0208974Y0041745D01*
X0208142Y0041321D01*
X0207387Y0040772D01*
X0206728Y0040113D01*
X0206179Y0039358D01*
X0205755Y0038526D01*
X0205467Y0037638D01*
X0205326Y0036750D01*
X0210750Y0036750D01*
X0211250Y0036750D01*
X0211250Y0055750D01*
X0210750Y0055750D01*
X0210750Y0050326D01*
X0209862Y0050467D01*
X0208974Y0050755D01*
X0208142Y0051179D01*
X0207387Y0051728D01*
X0206728Y0052387D01*
X0206179Y0053142D01*
X0205755Y0053974D01*
X0205467Y0054862D01*
X0205326Y0055750D01*
X0210750Y0055750D01*
X0210750Y0056750D01*
X0210750Y0062174D01*
X0209862Y0062033D01*
X0208974Y0061745D01*
X0208142Y0061321D01*
X0207387Y0060772D01*
X0206728Y0060113D01*
X0206179Y0059358D01*
X0205755Y0058526D01*
X0205467Y0057638D01*
X0205326Y0056750D01*
X0210750Y0056750D01*
X0211250Y0056750D01*
X0211250Y0060000D01*
X0211750Y0061125D01*
X0211750Y0062174D01*
X0212185Y0062105D01*
X0216250Y0071250D01*
X0216250Y0088750D01*
X0231951Y0088750D01*
X0231951Y0091732D01*
X0232327Y0092639D01*
X0233021Y0093334D01*
X0233928Y0093709D01*
X0249910Y0093709D01*
X0250818Y0093334D01*
X0251512Y0092639D01*
X0251888Y0091732D01*
X0251888Y0085000D01*
X0253454Y0085000D01*
X0253400Y0085203D01*
X0253400Y0089400D01*
X0264400Y0089400D01*
X0265400Y0089400D01*
X0265400Y0090400D01*
X0272531Y0090400D01*
X0272531Y0089400D01*
X0265400Y0089400D01*
X0265400Y0085000D01*
X0264400Y0085000D01*
X0264400Y0089400D01*
X0264400Y0090400D01*
X0264400Y0095900D01*
X0254703Y0095900D01*
X0254321Y0095798D01*
X0253979Y0095600D01*
X0253700Y0095321D01*
X0253502Y0094979D01*
X0253400Y0094597D01*
X0253400Y0090400D01*
X0264400Y0090400D01*
X0265400Y0090400D01*
X0265400Y0095900D01*
X0272531Y0095900D01*
X0272531Y0152977D01*
X0263602Y0161907D01*
X0262907Y0162602D01*
X0262531Y0163509D01*
X0262531Y0207977D01*
X0257977Y0212531D01*
X0007468Y0212531D01*
X0007468Y0212504D02*
X0258005Y0212504D01*
X0259003Y0211506D02*
X0007468Y0211506D01*
X0007468Y0210507D02*
X0076349Y0210507D01*
X0076611Y0210768D02*
X0073231Y0207389D01*
X0073231Y0202611D01*
X0076611Y0199231D01*
X0081389Y0199231D01*
X0084000Y0201842D01*
X0086611Y0199231D01*
X0091389Y0199231D01*
X0094000Y0201842D01*
X0096611Y0199231D01*
X0098359Y0199231D01*
X0096899Y0197771D01*
X0095979Y0196851D01*
X0095481Y0195650D01*
X0095481Y0195018D01*
X0095306Y0195018D01*
X0094399Y0194642D01*
X0093705Y0193948D01*
X0093329Y0193040D01*
X0093329Y0186940D01*
X0093615Y0186250D01*
X0093329Y0185560D01*
X0093329Y0179460D01*
X0093705Y0178552D01*
X0094399Y0177858D01*
X0095306Y0177482D01*
X0095481Y0177482D01*
X0095481Y0177389D01*
X0092981Y0174889D01*
X0092981Y0170111D01*
X0096277Y0166815D01*
X0093950Y0164488D01*
X0093950Y0162800D01*
X0098450Y0162800D01*
X0098450Y0162200D01*
X0099050Y0162200D01*
X0099050Y0162800D01*
X0103550Y0162800D01*
X0103550Y0164488D01*
X0101223Y0166815D01*
X0104231Y0169824D01*
X0104231Y0159468D01*
X0103149Y0159468D01*
X0100531Y0156851D01*
X0100531Y0153149D01*
X0103149Y0150531D01*
X0106851Y0150531D01*
X0109468Y0153149D01*
X0109468Y0154846D01*
X0110271Y0155649D01*
X0110768Y0156850D01*
X0110768Y0181002D01*
X0110980Y0180587D01*
X0111415Y0179988D01*
X0111938Y0179465D01*
X0112537Y0179030D01*
X0113196Y0178694D01*
X0113899Y0178466D01*
X0114500Y0178371D01*
X0114500Y0185750D01*
X0115500Y0185750D01*
X0115500Y0178371D01*
X0116101Y0178466D01*
X0116804Y0178694D01*
X0117463Y0179030D01*
X0118062Y0179465D01*
X0118585Y0179988D01*
X0119020Y0180587D01*
X0119356Y0181246D01*
X0119468Y0181592D01*
X0120194Y0179839D01*
X0121789Y0178244D01*
X0123872Y0177381D01*
X0126128Y0177381D01*
X0128211Y0178244D01*
X0129806Y0179839D01*
X0130000Y0180309D01*
X0130194Y0179839D01*
X0131789Y0178244D01*
X0133872Y0177381D01*
X0136128Y0177381D01*
X0138211Y0178244D01*
X0139806Y0179839D01*
X0140000Y0180309D01*
X0140194Y0179839D01*
X0141733Y0178300D01*
X0141890Y0177922D01*
X0146890Y0172922D01*
X0147922Y0171890D01*
X0149270Y0171331D01*
X0154730Y0171331D01*
X0158831Y0167230D01*
X0158831Y0162001D01*
X0158415Y0162173D01*
X0149833Y0162173D01*
X0148926Y0161797D01*
X0148231Y0161103D01*
X0147856Y0160196D01*
X0147856Y0144214D01*
X0148231Y0143306D01*
X0148926Y0142612D01*
X0149833Y0142236D01*
X0158415Y0142236D01*
X0158831Y0142409D01*
X0158831Y0141770D01*
X0159390Y0140422D01*
X0169281Y0130530D01*
X0169281Y0129399D01*
X0171899Y0126781D01*
X0175601Y0126781D01*
X0178218Y0129399D01*
X0178218Y0133101D01*
X0175601Y0135718D01*
X0174470Y0135718D01*
X0167952Y0142236D01*
X0175935Y0142236D01*
X0176842Y0142612D01*
X0177536Y0143306D01*
X0177912Y0144214D01*
X0177912Y0160196D01*
X0177536Y0161103D01*
X0177468Y0161172D01*
X0177811Y0161515D01*
X0178178Y0162401D01*
X0183664Y0162401D01*
X0183705Y0162302D01*
X0184138Y0161869D01*
X0183965Y0161797D01*
X0183271Y0161103D01*
X0182895Y0160196D01*
X0182895Y0144214D01*
X0183271Y0143306D01*
X0183965Y0142612D01*
X0184872Y0142236D01*
X0193454Y0142236D01*
X0194362Y0142612D01*
X0195056Y0143306D01*
X0195432Y0144214D01*
X0195432Y0160196D01*
X0195056Y0161103D01*
X0194362Y0161797D01*
X0193604Y0162111D01*
X0193795Y0162302D01*
X0194171Y0163210D01*
X0194171Y0169310D01*
X0193795Y0170217D01*
X0193166Y0170847D01*
X0193203Y0170984D01*
X0193203Y0173240D01*
X0189250Y0173240D01*
X0189250Y0174240D01*
X0193203Y0174240D01*
X0193203Y0176497D01*
X0193101Y0176878D01*
X0192903Y0177220D01*
X0192624Y0177499D01*
X0192282Y0177697D01*
X0191900Y0177799D01*
X0189250Y0177799D01*
X0189250Y0174240D01*
X0188250Y0174240D01*
X0188250Y0173240D01*
X0184297Y0173240D01*
X0184297Y0170984D01*
X0184334Y0170847D01*
X0183705Y0170217D01*
X0183329Y0169310D01*
X0183329Y0168938D01*
X0178178Y0168938D01*
X0178108Y0169106D01*
X0179950Y0169106D01*
X0180857Y0169482D01*
X0181551Y0170177D01*
X0181927Y0171084D01*
X0181927Y0177578D01*
X0181817Y0177844D01*
X0181851Y0177858D01*
X0182545Y0178552D01*
X0182921Y0179460D01*
X0182921Y0185560D01*
X0182635Y0186250D01*
X0182831Y0186722D01*
X0183140Y0186722D01*
X0184342Y0187219D01*
X0186851Y0189729D01*
X0187771Y0190649D01*
X0188268Y0191850D01*
X0188268Y0200111D01*
X0190000Y0201842D01*
X0192611Y0199231D01*
X0196146Y0199231D01*
X0210481Y0184896D01*
X0210481Y0177084D01*
X0210403Y0177220D01*
X0210124Y0177499D01*
X0209782Y0177697D01*
X0209400Y0177799D01*
X0206750Y0177799D01*
X0206750Y0174240D01*
X0205750Y0174240D01*
X0205750Y0173240D01*
X0201797Y0173240D01*
X0201797Y0170984D01*
X0201834Y0170847D01*
X0201205Y0170217D01*
X0200829Y0169310D01*
X0200829Y0163210D01*
X0201205Y0162302D01*
X0201644Y0161863D01*
X0201485Y0161797D01*
X0200790Y0161103D01*
X0200415Y0160196D01*
X0200415Y0144214D01*
X0200790Y0143306D01*
X0201485Y0142612D01*
X0202392Y0142236D01*
X0210974Y0142236D01*
X0211881Y0142612D01*
X0212576Y0143306D01*
X0212952Y0144214D01*
X0212952Y0160196D01*
X0212576Y0161103D01*
X0211881Y0161797D01*
X0211110Y0162117D01*
X0211295Y0162302D01*
X0211577Y0162981D01*
X0211900Y0162981D01*
X0213101Y0163479D01*
X0214021Y0164399D01*
X0215000Y0165378D01*
X0215979Y0164399D01*
X0215979Y0164399D01*
X0216899Y0163479D01*
X0218100Y0162981D01*
X0218423Y0162981D01*
X0218705Y0162302D01*
X0219150Y0161858D01*
X0219004Y0161797D01*
X0218310Y0161103D01*
X0217934Y0160196D01*
X0217934Y0144214D01*
X0218310Y0143306D01*
X0219004Y0142612D01*
X0219912Y0142236D01*
X0228494Y0142236D01*
X0229289Y0142566D01*
X0225788Y0139064D01*
X0225031Y0137238D01*
X0225031Y0135262D01*
X0225788Y0133436D01*
X0227186Y0132038D01*
X0229012Y0131281D01*
X0230988Y0131281D01*
X0232814Y0132038D01*
X0236280Y0135503D01*
X0249910Y0135503D01*
X0250818Y0135879D01*
X0251512Y0136573D01*
X0251888Y0137481D01*
X0251888Y0139861D01*
X0259202Y0147176D01*
X0259959Y0149002D01*
X0259959Y0151414D01*
X0260018Y0151556D01*
X0260018Y0158444D01*
X0259959Y0158586D01*
X0259959Y0160164D01*
X0260018Y0160306D01*
X0260018Y0167194D01*
X0259959Y0167336D01*
X0259959Y0168914D01*
X0260018Y0169056D01*
X0260018Y0175944D01*
X0259642Y0176851D01*
X0258948Y0177545D01*
X0258040Y0177921D01*
X0251940Y0177921D01*
X0251033Y0177545D01*
X0250403Y0176916D01*
X0250266Y0176953D01*
X0248010Y0176953D01*
X0248010Y0173000D01*
X0247010Y0173000D01*
X0247010Y0176953D01*
X0244753Y0176953D01*
X0244372Y0176851D01*
X0244030Y0176653D01*
X0243750Y0176374D01*
X0243553Y0176032D01*
X0243451Y0175650D01*
X0243451Y0173000D01*
X0247010Y0173000D01*
X0247010Y0172000D01*
X0248010Y0172000D01*
X0248010Y0168203D01*
X0248010Y0164250D01*
X0247010Y0164250D01*
X0247010Y0172000D01*
X0243451Y0172000D01*
X0243451Y0169350D01*
X0243553Y0168968D01*
X0243750Y0168626D01*
X0244030Y0168347D01*
X0244372Y0168149D01*
X0244463Y0168125D01*
X0244372Y0168101D01*
X0244030Y0167903D01*
X0243750Y0167624D01*
X0243553Y0167282D01*
X0243451Y0166900D01*
X0243451Y0164250D01*
X0247010Y0164250D01*
X0247010Y0163250D01*
X0248010Y0163250D01*
X0248010Y0159297D01*
X0248010Y0155500D01*
X0247010Y0155500D01*
X0247010Y0163250D01*
X0243451Y0163250D01*
X0243451Y0160600D01*
X0243553Y0160218D01*
X0243750Y0159876D01*
X0244030Y0159597D01*
X0244372Y0159399D01*
X0244463Y0159375D01*
X0244372Y0159351D01*
X0244030Y0159153D01*
X0243750Y0158874D01*
X0243553Y0158532D01*
X0243451Y0158150D01*
X0243451Y0155500D01*
X0247010Y0155500D01*
X0247010Y0154500D01*
X0248010Y0154500D01*
X0248010Y0150547D01*
X0248521Y0150547D01*
X0246014Y0148040D01*
X0233928Y0148040D01*
X0233021Y0147664D01*
X0232327Y0146970D01*
X0231951Y0146063D01*
X0231951Y0145227D01*
X0230788Y0144064D01*
X0230142Y0143418D01*
X0230471Y0144214D01*
X0230471Y0160196D01*
X0230095Y0161103D01*
X0229401Y0161797D01*
X0228616Y0162123D01*
X0228795Y0162302D01*
X0229171Y0163210D01*
X0229171Y0169310D01*
X0228795Y0170217D01*
X0228166Y0170847D01*
X0228203Y0170984D01*
X0228203Y0173240D01*
X0224250Y0173240D01*
X0224250Y0174240D01*
X0228203Y0174240D01*
X0228203Y0176497D01*
X0228101Y0176878D01*
X0227903Y0177220D01*
X0227624Y0177499D01*
X0227282Y0177697D01*
X0226900Y0177799D01*
X0224250Y0177799D01*
X0224250Y0174240D01*
X0223250Y0174240D01*
X0223250Y0177799D01*
X0220600Y0177799D01*
X0220218Y0177697D01*
X0219876Y0177499D01*
X0219597Y0177220D01*
X0219518Y0177084D01*
X0219518Y0188150D01*
X0219021Y0189351D01*
X0218101Y0190271D01*
X0208268Y0200104D01*
X0208268Y0200111D01*
X0210000Y0201842D01*
X0212611Y0199231D01*
X0217389Y0199231D01*
X0220000Y0201842D01*
X0222611Y0199231D01*
X0227389Y0199231D01*
X0230000Y0201842D01*
X0232611Y0199231D01*
X0237389Y0199231D01*
X0240000Y0201842D01*
X0242611Y0199231D01*
X0247389Y0199231D01*
X0250000Y0201842D01*
X0252611Y0199231D01*
X0257389Y0199231D01*
X0260768Y0202611D01*
X0260768Y0207389D01*
X0257389Y0210768D01*
X0252611Y0210768D01*
X0250000Y0208158D01*
X0247389Y0210768D01*
X0242611Y0210768D01*
X0240000Y0208158D01*
X0237389Y0210768D01*
X0232611Y0210768D01*
X0230000Y0208158D01*
X0227389Y0210768D01*
X0222611Y0210768D01*
X0220000Y0208158D01*
X0217389Y0210768D01*
X0212611Y0210768D01*
X0210000Y0208158D01*
X0207389Y0210768D01*
X0202611Y0210768D01*
X0200000Y0208158D01*
X0197389Y0210768D01*
X0192611Y0210768D01*
X0190000Y0208158D01*
X0187389Y0210768D01*
X0182611Y0210768D01*
X0179231Y0207389D01*
X0179231Y0202611D01*
X0181731Y0200111D01*
X0181731Y0194691D01*
X0180944Y0195018D01*
X0174056Y0195018D01*
X0173149Y0194642D01*
X0172455Y0193948D01*
X0172421Y0193867D01*
X0172282Y0193947D01*
X0171900Y0194049D01*
X0169250Y0194049D01*
X0169250Y0190490D01*
X0168250Y0190490D01*
X0168250Y0189490D01*
X0164297Y0189490D01*
X0164297Y0187234D01*
X0164334Y0187097D01*
X0163705Y0186467D01*
X0163329Y0185560D01*
X0163329Y0179460D01*
X0163705Y0178552D01*
X0164399Y0177858D01*
X0165306Y0177482D01*
X0166594Y0177482D01*
X0166541Y0177284D01*
X0166541Y0174815D01*
X0169526Y0174815D01*
X0169526Y0173846D01*
X0170494Y0173846D01*
X0170494Y0170564D01*
X0170383Y0170518D01*
X0169689Y0169823D01*
X0169313Y0168916D01*
X0169313Y0162422D01*
X0169416Y0162173D01*
X0167353Y0162173D01*
X0166445Y0161797D01*
X0166168Y0161520D01*
X0166168Y0169480D01*
X0165610Y0170828D01*
X0164578Y0171860D01*
X0158328Y0178110D01*
X0156980Y0178668D01*
X0151520Y0178668D01*
X0149965Y0180223D01*
X0150668Y0181922D01*
X0150668Y0190578D01*
X0149806Y0192661D01*
X0149485Y0192981D01*
X0160650Y0192981D01*
X0161851Y0193479D01*
X0162771Y0194399D01*
X0167604Y0199231D01*
X0171389Y0199231D01*
X0174768Y0202611D01*
X0174768Y0207389D01*
X0171389Y0210768D01*
X0166611Y0210768D01*
X0164000Y0208158D01*
X0161389Y0210768D01*
X0156611Y0210768D01*
X0154000Y0208158D01*
X0151389Y0210768D01*
X0146611Y0210768D01*
X0144000Y0208158D01*
X0141389Y0210768D01*
X0136611Y0210768D01*
X0134000Y0208158D01*
X0131389Y0210768D01*
X0126611Y0210768D01*
X0124000Y0208158D01*
X0121389Y0210768D01*
X0116611Y0210768D01*
X0113315Y0207473D01*
X0110988Y0209800D01*
X0109484Y0209800D01*
X0109484Y0205484D01*
X0108516Y0205484D01*
X0108516Y0209800D01*
X0107012Y0209800D01*
X0104685Y0207473D01*
X0101389Y0210768D01*
X0096611Y0210768D01*
X0094000Y0208158D01*
X0091389Y0210768D01*
X0086611Y0210768D01*
X0084000Y0208158D01*
X0081389Y0210768D01*
X0076611Y0210768D01*
X0075351Y0209509D02*
X0007468Y0209509D01*
X0007468Y0208510D02*
X0074352Y0208510D01*
X0073354Y0207512D02*
X0007468Y0207512D01*
X0007468Y0206513D02*
X0073231Y0206513D01*
X0073231Y0205515D02*
X0007468Y0205515D01*
X0007468Y0204516D02*
X0073231Y0204516D01*
X0073231Y0203518D02*
X0007468Y0203518D01*
X0007468Y0202519D02*
X0073323Y0202519D01*
X0074321Y0201521D02*
X0007468Y0201521D01*
X0007468Y0200522D02*
X0075320Y0200522D01*
X0076318Y0199524D02*
X0007468Y0199524D01*
X0007468Y0198525D02*
X0097653Y0198525D01*
X0096654Y0197527D02*
X0007468Y0197527D01*
X0007468Y0196528D02*
X0095845Y0196528D01*
X0095481Y0195530D02*
X0007468Y0195530D01*
X0007468Y0194531D02*
X0094288Y0194531D01*
X0093533Y0193533D02*
X0007468Y0193533D01*
X0007468Y0192534D02*
X0093329Y0192534D01*
X0093329Y0191536D02*
X0007468Y0191536D01*
X0007468Y0190537D02*
X0093329Y0190537D01*
X0093329Y0189539D02*
X0007468Y0189539D01*
X0007468Y0188540D02*
X0093329Y0188540D01*
X0093329Y0187541D02*
X0007468Y0187541D01*
X0007468Y0186543D02*
X0093493Y0186543D01*
X0093329Y0185544D02*
X0007468Y0185544D01*
X0007468Y0184546D02*
X0093329Y0184546D01*
X0093329Y0183547D02*
X0007468Y0183547D01*
X0007468Y0182549D02*
X0093329Y0182549D01*
X0093329Y0181550D02*
X0007468Y0181550D01*
X0007468Y0180552D02*
X0093329Y0180552D01*
X0093329Y0179553D02*
X0007468Y0179553D01*
X0007468Y0178555D02*
X0093704Y0178555D01*
X0095127Y0177556D02*
X0007468Y0177556D01*
X0007468Y0176558D02*
X0094650Y0176558D01*
X0093651Y0175559D02*
X0007468Y0175559D01*
X0007468Y0174561D02*
X0092981Y0174561D01*
X0092981Y0173562D02*
X0007468Y0173562D01*
X0007468Y0172564D02*
X0092981Y0172564D01*
X0092981Y0171565D02*
X0007468Y0171565D01*
X0007468Y0170567D02*
X0092981Y0170567D01*
X0093524Y0169568D02*
X0007468Y0169568D01*
X0007468Y0168570D02*
X0094522Y0168570D01*
X0095521Y0167571D02*
X0007468Y0167571D01*
X0007468Y0166573D02*
X0096035Y0166573D01*
X0095036Y0165574D02*
X0007468Y0165574D01*
X0007468Y0164576D02*
X0094038Y0164576D01*
X0093950Y0163577D02*
X0007468Y0163577D01*
X0007468Y0162579D02*
X0098450Y0162579D01*
X0098450Y0162200D02*
X0093950Y0162200D01*
X0093950Y0160512D01*
X0096762Y0157700D01*
X0098450Y0157700D01*
X0098450Y0162200D01*
X0099050Y0162200D02*
X0099050Y0157700D01*
X0100738Y0157700D01*
X0103550Y0160512D01*
X0103550Y0162200D01*
X0099050Y0162200D01*
X0099050Y0162579D02*
X0104231Y0162579D01*
X0104231Y0163577D02*
X0103550Y0163577D01*
X0103462Y0164576D02*
X0104231Y0164576D01*
X0104231Y0165574D02*
X0102464Y0165574D01*
X0101465Y0166573D02*
X0104231Y0166573D01*
X0104231Y0167571D02*
X0101979Y0167571D01*
X0102978Y0168570D02*
X0104231Y0168570D01*
X0104231Y0169568D02*
X0103976Y0169568D01*
X0110768Y0169568D02*
X0156494Y0169568D01*
X0157492Y0168570D02*
X0110768Y0168570D01*
X0110768Y0167571D02*
X0158491Y0167571D01*
X0158831Y0166573D02*
X0110768Y0166573D01*
X0110768Y0165574D02*
X0158831Y0165574D01*
X0158831Y0164576D02*
X0110768Y0164576D01*
X0110768Y0163577D02*
X0158831Y0163577D01*
X0158831Y0162579D02*
X0110768Y0162579D01*
X0110768Y0161580D02*
X0113669Y0161580D01*
X0113886Y0161797D02*
X0113192Y0161103D01*
X0112816Y0160196D01*
X0112816Y0144214D01*
X0113192Y0143306D01*
X0113886Y0142612D01*
X0114794Y0142236D01*
X0123376Y0142236D01*
X0124283Y0142612D01*
X0124977Y0143306D01*
X0125353Y0144214D01*
X0125353Y0160196D01*
X0124977Y0161103D01*
X0124283Y0161797D01*
X0123376Y0162173D01*
X0114794Y0162173D01*
X0113886Y0161797D01*
X0112976Y0160582D02*
X0110768Y0160582D01*
X0110768Y0159583D02*
X0112816Y0159583D01*
X0112816Y0158585D02*
X0110768Y0158585D01*
X0110768Y0157586D02*
X0112816Y0157586D01*
X0112816Y0156588D02*
X0110660Y0156588D01*
X0110211Y0155589D02*
X0112816Y0155589D01*
X0112816Y0154591D02*
X0109468Y0154591D01*
X0109468Y0153592D02*
X0112816Y0153592D01*
X0112816Y0152594D02*
X0108913Y0152594D01*
X0107914Y0151595D02*
X0112816Y0151595D01*
X0112816Y0150597D02*
X0106916Y0150597D01*
X0112816Y0149598D02*
X0007468Y0149598D01*
X0007468Y0148600D02*
X0112816Y0148600D01*
X0112816Y0147601D02*
X0007468Y0147601D01*
X0007468Y0146603D02*
X0112816Y0146603D01*
X0112816Y0145604D02*
X0007468Y0145604D01*
X0007468Y0144605D02*
X0112816Y0144605D01*
X0113067Y0143607D02*
X0007468Y0143607D01*
X0007468Y0142608D02*
X0113895Y0142608D01*
X0124274Y0142608D02*
X0131415Y0142608D01*
X0131406Y0142612D02*
X0132313Y0142236D01*
X0140895Y0142236D01*
X0141803Y0142612D01*
X0142497Y0143306D01*
X0142873Y0144214D01*
X0142873Y0160196D01*
X0142497Y0161103D01*
X0141803Y0161797D01*
X0140895Y0162173D01*
X0132313Y0162173D01*
X0131406Y0161797D01*
X0130712Y0161103D01*
X0130336Y0160196D01*
X0130336Y0144214D01*
X0130712Y0143306D01*
X0131406Y0142612D01*
X0130587Y0143607D02*
X0125102Y0143607D01*
X0125353Y0144605D02*
X0130336Y0144605D01*
X0130336Y0145604D02*
X0125353Y0145604D01*
X0125353Y0146603D02*
X0130336Y0146603D01*
X0130336Y0147601D02*
X0125353Y0147601D01*
X0125353Y0148600D02*
X0130336Y0148600D01*
X0130336Y0149598D02*
X0125353Y0149598D01*
X0125353Y0150597D02*
X0130336Y0150597D01*
X0130336Y0151595D02*
X0125353Y0151595D01*
X0125353Y0152594D02*
X0130336Y0152594D01*
X0130336Y0153592D02*
X0125353Y0153592D01*
X0125353Y0154591D02*
X0130336Y0154591D01*
X0130336Y0155589D02*
X0125353Y0155589D01*
X0125353Y0156588D02*
X0130336Y0156588D01*
X0130336Y0157586D02*
X0125353Y0157586D01*
X0125353Y0158585D02*
X0130336Y0158585D01*
X0130336Y0159583D02*
X0125353Y0159583D01*
X0125193Y0160582D02*
X0130496Y0160582D01*
X0131189Y0161580D02*
X0124500Y0161580D01*
X0110768Y0170567D02*
X0155495Y0170567D01*
X0148706Y0171565D02*
X0110768Y0171565D01*
X0110768Y0172564D02*
X0147248Y0172564D01*
X0146250Y0173562D02*
X0110768Y0173562D01*
X0110768Y0174561D02*
X0145251Y0174561D01*
X0144253Y0175559D02*
X0110768Y0175559D01*
X0110768Y0176558D02*
X0143254Y0176558D01*
X0142256Y0177556D02*
X0136550Y0177556D01*
X0138521Y0178555D02*
X0141479Y0178555D01*
X0140480Y0179553D02*
X0139520Y0179553D01*
X0133450Y0177556D02*
X0126550Y0177556D01*
X0128521Y0178555D02*
X0131479Y0178555D01*
X0130480Y0179553D02*
X0129520Y0179553D01*
X0123450Y0177556D02*
X0110768Y0177556D01*
X0110768Y0178555D02*
X0113625Y0178555D01*
X0114500Y0178555D02*
X0115500Y0178555D01*
X0116375Y0178555D02*
X0121479Y0178555D01*
X0120480Y0179553D02*
X0118150Y0179553D01*
X0118995Y0180552D02*
X0119899Y0180552D01*
X0119486Y0181550D02*
X0119455Y0181550D01*
X0115500Y0181550D02*
X0114500Y0181550D01*
X0114500Y0180552D02*
X0115500Y0180552D01*
X0115500Y0179553D02*
X0114500Y0179553D01*
X0111850Y0179553D02*
X0110768Y0179553D01*
X0110768Y0180552D02*
X0111005Y0180552D01*
X0114500Y0182549D02*
X0115500Y0182549D01*
X0115500Y0183547D02*
X0114500Y0183547D01*
X0114500Y0184546D02*
X0115500Y0184546D01*
X0115500Y0185544D02*
X0114500Y0185544D01*
X0096318Y0199524D02*
X0091682Y0199524D01*
X0092680Y0200522D02*
X0095320Y0200522D01*
X0094321Y0201521D02*
X0093679Y0201521D01*
X0086318Y0199524D02*
X0081682Y0199524D01*
X0082680Y0200522D02*
X0085320Y0200522D01*
X0084321Y0201521D02*
X0083679Y0201521D01*
X0083648Y0208510D02*
X0084352Y0208510D01*
X0085351Y0209509D02*
X0082649Y0209509D01*
X0081651Y0210507D02*
X0086349Y0210507D01*
X0091651Y0210507D02*
X0096349Y0210507D01*
X0095351Y0209509D02*
X0092649Y0209509D01*
X0093648Y0208510D02*
X0094352Y0208510D01*
X0101651Y0210507D02*
X0116349Y0210507D01*
X0115351Y0209509D02*
X0111279Y0209509D01*
X0112278Y0208510D02*
X0114352Y0208510D01*
X0113354Y0207512D02*
X0113276Y0207512D01*
X0109484Y0207512D02*
X0108516Y0207512D01*
X0108516Y0208510D02*
X0109484Y0208510D01*
X0109484Y0209509D02*
X0108516Y0209509D01*
X0106721Y0209509D02*
X0102649Y0209509D01*
X0103648Y0208510D02*
X0105722Y0208510D01*
X0104724Y0207512D02*
X0104646Y0207512D01*
X0108516Y0206513D02*
X0109484Y0206513D01*
X0109484Y0205515D02*
X0108516Y0205515D01*
X0121651Y0210507D02*
X0126349Y0210507D01*
X0125351Y0209509D02*
X0122649Y0209509D01*
X0123648Y0208510D02*
X0124352Y0208510D01*
X0131651Y0210507D02*
X0136349Y0210507D01*
X0135351Y0209509D02*
X0132649Y0209509D01*
X0133648Y0208510D02*
X0134352Y0208510D01*
X0141651Y0210507D02*
X0146349Y0210507D01*
X0145351Y0209509D02*
X0142649Y0209509D01*
X0143648Y0208510D02*
X0144352Y0208510D01*
X0151651Y0210507D02*
X0156349Y0210507D01*
X0155351Y0209509D02*
X0152649Y0209509D01*
X0153648Y0208510D02*
X0154352Y0208510D01*
X0161651Y0210507D02*
X0166349Y0210507D01*
X0165351Y0209509D02*
X0162649Y0209509D01*
X0163648Y0208510D02*
X0164352Y0208510D01*
X0171651Y0210507D02*
X0182349Y0210507D01*
X0181351Y0209509D02*
X0172649Y0209509D01*
X0173648Y0208510D02*
X0180352Y0208510D01*
X0179354Y0207512D02*
X0174646Y0207512D01*
X0174768Y0206513D02*
X0179231Y0206513D01*
X0179231Y0205515D02*
X0174768Y0205515D01*
X0174768Y0204516D02*
X0179231Y0204516D01*
X0179231Y0203518D02*
X0174768Y0203518D01*
X0174677Y0202519D02*
X0179323Y0202519D01*
X0180321Y0201521D02*
X0173679Y0201521D01*
X0172680Y0200522D02*
X0181320Y0200522D01*
X0181731Y0199524D02*
X0171682Y0199524D01*
X0166897Y0198525D02*
X0181731Y0198525D01*
X0181731Y0197527D02*
X0165899Y0197527D01*
X0164900Y0196528D02*
X0181731Y0196528D01*
X0181731Y0195530D02*
X0163902Y0195530D01*
X0162903Y0194531D02*
X0173038Y0194531D01*
X0169250Y0193533D02*
X0168250Y0193533D01*
X0168250Y0194049D02*
X0165600Y0194049D01*
X0165218Y0193947D01*
X0164876Y0193749D01*
X0164597Y0193470D01*
X0164399Y0193128D01*
X0164297Y0192747D01*
X0164297Y0190490D01*
X0168250Y0190490D01*
X0168250Y0194049D01*
X0168250Y0192534D02*
X0169250Y0192534D01*
X0169250Y0191536D02*
X0168250Y0191536D01*
X0168250Y0190537D02*
X0169250Y0190537D01*
X0168250Y0189539D02*
X0150668Y0189539D01*
X0150668Y0190537D02*
X0164297Y0190537D01*
X0164297Y0191536D02*
X0150272Y0191536D01*
X0149858Y0192534D02*
X0164297Y0192534D01*
X0164659Y0193533D02*
X0161905Y0193533D01*
X0164297Y0188540D02*
X0150668Y0188540D01*
X0150668Y0187541D02*
X0164297Y0187541D01*
X0163780Y0186543D02*
X0150668Y0186543D01*
X0150668Y0185544D02*
X0163329Y0185544D01*
X0163329Y0184546D02*
X0150668Y0184546D01*
X0150668Y0183547D02*
X0163329Y0183547D01*
X0163329Y0182549D02*
X0150668Y0182549D01*
X0150514Y0181550D02*
X0163329Y0181550D01*
X0163329Y0180552D02*
X0150101Y0180552D01*
X0150635Y0179553D02*
X0163329Y0179553D01*
X0163704Y0178555D02*
X0157254Y0178555D01*
X0158882Y0177556D02*
X0165127Y0177556D01*
X0166541Y0176558D02*
X0159880Y0176558D01*
X0160879Y0175559D02*
X0166541Y0175559D01*
X0166541Y0173846D02*
X0166541Y0171377D01*
X0166644Y0170996D01*
X0166841Y0170654D01*
X0167120Y0170375D01*
X0167462Y0170177D01*
X0167844Y0170075D01*
X0169526Y0170075D01*
X0169526Y0173846D01*
X0166541Y0173846D01*
X0166541Y0173562D02*
X0162876Y0173562D01*
X0163874Y0172564D02*
X0166541Y0172564D01*
X0166541Y0171565D02*
X0164873Y0171565D01*
X0165718Y0170567D02*
X0166928Y0170567D01*
X0166132Y0169568D02*
X0169583Y0169568D01*
X0169526Y0170567D02*
X0170494Y0170567D01*
X0170494Y0171565D02*
X0169526Y0171565D01*
X0169526Y0172564D02*
X0170494Y0172564D01*
X0170494Y0173562D02*
X0169526Y0173562D01*
X0169526Y0174561D02*
X0161877Y0174561D01*
X0166168Y0168570D02*
X0169313Y0168570D01*
X0169313Y0167571D02*
X0166168Y0167571D01*
X0166168Y0166573D02*
X0169313Y0166573D01*
X0169313Y0165574D02*
X0166168Y0165574D01*
X0166168Y0164576D02*
X0169313Y0164576D01*
X0169313Y0163577D02*
X0166168Y0163577D01*
X0166168Y0162579D02*
X0169313Y0162579D01*
X0166228Y0161580D02*
X0166168Y0161580D01*
X0177752Y0160582D02*
X0183055Y0160582D01*
X0182895Y0159583D02*
X0177912Y0159583D01*
X0177912Y0158585D02*
X0182895Y0158585D01*
X0182895Y0157586D02*
X0177912Y0157586D01*
X0177912Y0156588D02*
X0182895Y0156588D01*
X0182895Y0155589D02*
X0177912Y0155589D01*
X0177912Y0154591D02*
X0182895Y0154591D01*
X0182895Y0153592D02*
X0177912Y0153592D01*
X0177912Y0152594D02*
X0182895Y0152594D01*
X0182895Y0151595D02*
X0177912Y0151595D01*
X0177912Y0150597D02*
X0182895Y0150597D01*
X0182895Y0149598D02*
X0177912Y0149598D01*
X0177912Y0148600D02*
X0182895Y0148600D01*
X0182895Y0147601D02*
X0177912Y0147601D01*
X0177912Y0146603D02*
X0182895Y0146603D01*
X0182895Y0145604D02*
X0177912Y0145604D01*
X0177912Y0144605D02*
X0182895Y0144605D01*
X0183146Y0143607D02*
X0177661Y0143607D01*
X0176833Y0142608D02*
X0183974Y0142608D01*
X0194353Y0142608D02*
X0201493Y0142608D01*
X0200666Y0143607D02*
X0195181Y0143607D01*
X0195432Y0144605D02*
X0200415Y0144605D01*
X0200415Y0145604D02*
X0195432Y0145604D01*
X0195432Y0146603D02*
X0200415Y0146603D01*
X0200415Y0147601D02*
X0195432Y0147601D01*
X0195432Y0148600D02*
X0200415Y0148600D01*
X0200415Y0149598D02*
X0195432Y0149598D01*
X0195432Y0150597D02*
X0200415Y0150597D01*
X0200415Y0151595D02*
X0195432Y0151595D01*
X0195432Y0152594D02*
X0200415Y0152594D01*
X0200415Y0153592D02*
X0195432Y0153592D01*
X0195432Y0154591D02*
X0200415Y0154591D01*
X0200415Y0155589D02*
X0195432Y0155589D01*
X0195432Y0156588D02*
X0200415Y0156588D01*
X0200415Y0157586D02*
X0195432Y0157586D01*
X0195432Y0158585D02*
X0200415Y0158585D01*
X0200415Y0159583D02*
X0195432Y0159583D01*
X0195272Y0160582D02*
X0200574Y0160582D01*
X0201268Y0161580D02*
X0194579Y0161580D01*
X0193910Y0162579D02*
X0201090Y0162579D01*
X0200829Y0163577D02*
X0194171Y0163577D01*
X0194171Y0164576D02*
X0200829Y0164576D01*
X0200829Y0165574D02*
X0194171Y0165574D01*
X0194171Y0166573D02*
X0200829Y0166573D01*
X0200829Y0167571D02*
X0194171Y0167571D01*
X0194171Y0168570D02*
X0200829Y0168570D01*
X0200936Y0169568D02*
X0194064Y0169568D01*
X0193446Y0170567D02*
X0201554Y0170567D01*
X0201797Y0171565D02*
X0193203Y0171565D01*
X0193203Y0172564D02*
X0201797Y0172564D01*
X0201797Y0174240D02*
X0205750Y0174240D01*
X0205750Y0177799D01*
X0203100Y0177799D01*
X0202718Y0177697D01*
X0202376Y0177499D01*
X0202097Y0177220D01*
X0201899Y0176878D01*
X0201797Y0176497D01*
X0201797Y0174240D01*
X0201797Y0174561D02*
X0193203Y0174561D01*
X0193203Y0175559D02*
X0201797Y0175559D01*
X0201814Y0176558D02*
X0193186Y0176558D01*
X0192525Y0177556D02*
X0202475Y0177556D01*
X0205750Y0177556D02*
X0206750Y0177556D01*
X0206750Y0176558D02*
X0205750Y0176558D01*
X0205750Y0175559D02*
X0206750Y0175559D01*
X0206750Y0174561D02*
X0205750Y0174561D01*
X0205750Y0173562D02*
X0189250Y0173562D01*
X0189250Y0174561D02*
X0188250Y0174561D01*
X0188250Y0174240D02*
X0188250Y0177799D01*
X0185600Y0177799D01*
X0185218Y0177697D01*
X0184876Y0177499D01*
X0184597Y0177220D01*
X0184399Y0176878D01*
X0184297Y0176497D01*
X0184297Y0174240D01*
X0188250Y0174240D01*
X0188250Y0173562D02*
X0181927Y0173562D01*
X0181927Y0172564D02*
X0184297Y0172564D01*
X0184297Y0171565D02*
X0181927Y0171565D01*
X0181713Y0170567D02*
X0184054Y0170567D01*
X0183436Y0169568D02*
X0180943Y0169568D01*
X0181927Y0174561D02*
X0184297Y0174561D01*
X0184297Y0175559D02*
X0181927Y0175559D01*
X0181927Y0176558D02*
X0184314Y0176558D01*
X0184975Y0177556D02*
X0181927Y0177556D01*
X0182546Y0178555D02*
X0210481Y0178555D01*
X0210481Y0179553D02*
X0182921Y0179553D01*
X0182921Y0180552D02*
X0210481Y0180552D01*
X0210481Y0181550D02*
X0182921Y0181550D01*
X0182921Y0182549D02*
X0210481Y0182549D01*
X0210481Y0183547D02*
X0182921Y0183547D01*
X0182921Y0184546D02*
X0210481Y0184546D01*
X0209833Y0185544D02*
X0182921Y0185544D01*
X0182757Y0186543D02*
X0208835Y0186543D01*
X0207836Y0187541D02*
X0184664Y0187541D01*
X0185662Y0188540D02*
X0206838Y0188540D01*
X0205839Y0189539D02*
X0186661Y0189539D01*
X0187659Y0190537D02*
X0204841Y0190537D01*
X0203842Y0191536D02*
X0188138Y0191536D01*
X0188268Y0192534D02*
X0202844Y0192534D01*
X0201845Y0193533D02*
X0188268Y0193533D01*
X0188268Y0194531D02*
X0200847Y0194531D01*
X0199848Y0195530D02*
X0188268Y0195530D01*
X0188268Y0196528D02*
X0198850Y0196528D01*
X0197851Y0197527D02*
X0188268Y0197527D01*
X0188268Y0198525D02*
X0196853Y0198525D01*
X0192318Y0199524D02*
X0188268Y0199524D01*
X0188680Y0200522D02*
X0191320Y0200522D01*
X0190321Y0201521D02*
X0189679Y0201521D01*
X0189648Y0208510D02*
X0190352Y0208510D01*
X0191351Y0209509D02*
X0188649Y0209509D01*
X0187651Y0210507D02*
X0192349Y0210507D01*
X0197651Y0210507D02*
X0202349Y0210507D01*
X0201351Y0209509D02*
X0198649Y0209509D01*
X0199648Y0208510D02*
X0200352Y0208510D01*
X0207651Y0210507D02*
X0212349Y0210507D01*
X0211351Y0209509D02*
X0208649Y0209509D01*
X0209648Y0208510D02*
X0210352Y0208510D01*
X0217651Y0210507D02*
X0222349Y0210507D01*
X0221351Y0209509D02*
X0218649Y0209509D01*
X0219648Y0208510D02*
X0220352Y0208510D01*
X0227651Y0210507D02*
X0232349Y0210507D01*
X0231351Y0209509D02*
X0228649Y0209509D01*
X0229648Y0208510D02*
X0230352Y0208510D01*
X0237651Y0210507D02*
X0242349Y0210507D01*
X0241351Y0209509D02*
X0238649Y0209509D01*
X0239648Y0208510D02*
X0240352Y0208510D01*
X0247651Y0210507D02*
X0252349Y0210507D01*
X0251351Y0209509D02*
X0248649Y0209509D01*
X0249648Y0208510D02*
X0250352Y0208510D01*
X0250321Y0201521D02*
X0249679Y0201521D01*
X0248680Y0200522D02*
X0251320Y0200522D01*
X0252318Y0199524D02*
X0247681Y0199524D01*
X0242318Y0199524D02*
X0237681Y0199524D01*
X0238680Y0200522D02*
X0241320Y0200522D01*
X0240321Y0201521D02*
X0239679Y0201521D01*
X0232318Y0199524D02*
X0227681Y0199524D01*
X0228680Y0200522D02*
X0231320Y0200522D01*
X0230321Y0201521D02*
X0229679Y0201521D01*
X0222318Y0199524D02*
X0217681Y0199524D01*
X0218680Y0200522D02*
X0221320Y0200522D01*
X0220321Y0201521D02*
X0219679Y0201521D01*
X0212318Y0199524D02*
X0208849Y0199524D01*
X0208680Y0200522D02*
X0211320Y0200522D01*
X0210321Y0201521D02*
X0209679Y0201521D01*
X0209847Y0198525D02*
X0262531Y0198525D01*
X0262531Y0197527D02*
X0210846Y0197527D01*
X0211844Y0196528D02*
X0262531Y0196528D01*
X0262531Y0195530D02*
X0212843Y0195530D01*
X0213841Y0194531D02*
X0262531Y0194531D01*
X0262531Y0193533D02*
X0214840Y0193533D01*
X0215838Y0192534D02*
X0262531Y0192534D01*
X0262531Y0191536D02*
X0216837Y0191536D01*
X0217835Y0190537D02*
X0262531Y0190537D01*
X0262531Y0189539D02*
X0218834Y0189539D01*
X0218101Y0190271D02*
X0218101Y0190271D01*
X0219357Y0188540D02*
X0262531Y0188540D01*
X0262531Y0187541D02*
X0219518Y0187541D01*
X0219518Y0186543D02*
X0262531Y0186543D01*
X0262531Y0185544D02*
X0219518Y0185544D01*
X0219518Y0184546D02*
X0262531Y0184546D01*
X0262531Y0183547D02*
X0219518Y0183547D01*
X0219518Y0182549D02*
X0262531Y0182549D01*
X0262531Y0181550D02*
X0219518Y0181550D01*
X0219518Y0180552D02*
X0262531Y0180552D01*
X0262531Y0179553D02*
X0219518Y0179553D01*
X0219518Y0178555D02*
X0262531Y0178555D01*
X0262531Y0177556D02*
X0258921Y0177556D01*
X0259763Y0176558D02*
X0262531Y0176558D01*
X0262531Y0175559D02*
X0260018Y0175559D01*
X0260018Y0174561D02*
X0262531Y0174561D01*
X0262531Y0173562D02*
X0260018Y0173562D01*
X0260018Y0172564D02*
X0262531Y0172564D01*
X0262531Y0171565D02*
X0260018Y0171565D01*
X0260018Y0170567D02*
X0262531Y0170567D01*
X0262531Y0169568D02*
X0260018Y0169568D01*
X0259959Y0168570D02*
X0262531Y0168570D01*
X0262531Y0167571D02*
X0259959Y0167571D01*
X0260018Y0166573D02*
X0262531Y0166573D01*
X0262531Y0165574D02*
X0260018Y0165574D01*
X0260018Y0164576D02*
X0262531Y0164576D01*
X0262531Y0163577D02*
X0260018Y0163577D01*
X0260018Y0162579D02*
X0262930Y0162579D01*
X0263929Y0161580D02*
X0260018Y0161580D01*
X0260018Y0160582D02*
X0264927Y0160582D01*
X0265926Y0159583D02*
X0259959Y0159583D01*
X0259959Y0158585D02*
X0266924Y0158585D01*
X0267923Y0157586D02*
X0260018Y0157586D01*
X0260018Y0156588D02*
X0268921Y0156588D01*
X0269920Y0155589D02*
X0260018Y0155589D01*
X0260018Y0154591D02*
X0270918Y0154591D01*
X0271917Y0153592D02*
X0260018Y0153592D01*
X0260018Y0152594D02*
X0272531Y0152594D01*
X0272531Y0151595D02*
X0260018Y0151595D01*
X0259959Y0150597D02*
X0272531Y0150597D01*
X0272531Y0149598D02*
X0259959Y0149598D01*
X0259792Y0148600D02*
X0272531Y0148600D01*
X0272531Y0147601D02*
X0259378Y0147601D01*
X0258629Y0146603D02*
X0272531Y0146603D01*
X0272531Y0145604D02*
X0257631Y0145604D01*
X0256632Y0144605D02*
X0272531Y0144605D01*
X0272531Y0143607D02*
X0255634Y0143607D01*
X0254635Y0142608D02*
X0272531Y0142608D01*
X0272531Y0141610D02*
X0253636Y0141610D01*
X0252638Y0140611D02*
X0272531Y0140611D01*
X0272531Y0139613D02*
X0251888Y0139613D01*
X0251888Y0138614D02*
X0272531Y0138614D01*
X0272531Y0137616D02*
X0251888Y0137616D01*
X0251530Y0136617D02*
X0272531Y0136617D01*
X0272531Y0135619D02*
X0250190Y0135619D01*
X0251509Y0130968D02*
X0250602Y0130593D01*
X0249907Y0129898D01*
X0249531Y0128991D01*
X0249531Y0128961D01*
X0242419Y0128961D01*
X0242419Y0124161D01*
X0241419Y0124161D01*
X0241419Y0123161D01*
X0242419Y0123161D01*
X0242419Y0118361D01*
X0249617Y0118361D01*
X0249998Y0118464D01*
X0250340Y0118661D01*
X0250620Y0118940D01*
X0250817Y0119282D01*
X0250826Y0119315D01*
X0251213Y0119154D01*
X0249531Y0117472D01*
X0249531Y0112528D01*
X0252059Y0110000D01*
X0250919Y0108860D01*
X0250919Y0109549D01*
X0250817Y0109930D01*
X0250620Y0110272D01*
X0250340Y0110551D01*
X0249998Y0110749D01*
X0249617Y0110851D01*
X0242419Y0110851D01*
X0242419Y0106051D01*
X0241419Y0106051D01*
X0241419Y0105051D01*
X0232919Y0105051D01*
X0232919Y0101554D01*
X0233022Y0101172D01*
X0233219Y0100830D01*
X0233498Y0100551D01*
X0233840Y0100353D01*
X0234222Y0100251D01*
X0241419Y0100251D01*
X0241419Y0105051D01*
X0242419Y0105051D01*
X0242419Y0100251D01*
X0249617Y0100251D01*
X0249998Y0100353D01*
X0250340Y0100551D01*
X0250620Y0100830D01*
X0250817Y0101172D01*
X0250832Y0101227D01*
X0253028Y0099031D01*
X0257972Y0099031D01*
X0261185Y0102244D01*
X0263429Y0100000D01*
X0265016Y0100000D01*
X0265016Y0104516D01*
X0265984Y0104516D01*
X0265984Y0100000D01*
X0267571Y0100000D01*
X0270500Y0102929D01*
X0270500Y0104516D01*
X0265984Y0104516D01*
X0265984Y0105484D01*
X0270500Y0105484D01*
X0270500Y0107071D01*
X0268256Y0109315D01*
X0271468Y0112528D01*
X0271468Y0117472D01*
X0268941Y0120000D01*
X0271468Y0122528D01*
X0271468Y0127472D01*
X0267972Y0130968D01*
X0263028Y0130968D01*
X0261346Y0129287D01*
X0261093Y0129898D01*
X0260398Y0130593D01*
X0259491Y0130968D01*
X0251509Y0130968D01*
X0250683Y0130626D02*
X0178218Y0130626D01*
X0178218Y0129628D02*
X0249795Y0129628D01*
X0242419Y0128629D02*
X0241419Y0128629D01*
X0241419Y0128961D02*
X0234222Y0128961D01*
X0233840Y0128859D01*
X0233498Y0128662D01*
X0233219Y0128382D01*
X0233022Y0128040D01*
X0232919Y0127659D01*
X0232919Y0124161D01*
X0241419Y0124161D01*
X0241419Y0128961D01*
X0241419Y0127631D02*
X0242419Y0127631D01*
X0242419Y0126632D02*
X0241419Y0126632D01*
X0241419Y0125634D02*
X0242419Y0125634D01*
X0242419Y0124635D02*
X0241419Y0124635D01*
X0241419Y0123637D02*
X0007468Y0123637D01*
X0007468Y0124635D02*
X0232919Y0124635D01*
X0232919Y0125634D02*
X0007468Y0125634D01*
X0007468Y0126632D02*
X0232919Y0126632D01*
X0232919Y0127631D02*
X0176450Y0127631D01*
X0177449Y0128629D02*
X0233466Y0128629D01*
X0231817Y0131625D02*
X0272531Y0131625D01*
X0272531Y0132623D02*
X0233400Y0132623D01*
X0234398Y0133622D02*
X0272531Y0133622D01*
X0272531Y0134620D02*
X0235397Y0134620D01*
X0228183Y0131625D02*
X0178218Y0131625D01*
X0178218Y0132623D02*
X0226600Y0132623D01*
X0225711Y0133622D02*
X0177698Y0133622D01*
X0176699Y0134620D02*
X0225297Y0134620D01*
X0225031Y0135619D02*
X0175700Y0135619D01*
X0173571Y0136617D02*
X0225031Y0136617D01*
X0225188Y0137616D02*
X0172572Y0137616D01*
X0171574Y0138614D02*
X0225602Y0138614D01*
X0226336Y0139613D02*
X0170575Y0139613D01*
X0169577Y0140611D02*
X0227335Y0140611D01*
X0228333Y0141610D02*
X0168578Y0141610D01*
X0163195Y0136617D02*
X0007468Y0136617D01*
X0007468Y0135619D02*
X0164193Y0135619D01*
X0165192Y0134620D02*
X0007468Y0134620D01*
X0007468Y0133622D02*
X0166190Y0133622D01*
X0167189Y0132623D02*
X0007468Y0132623D01*
X0007468Y0131625D02*
X0168187Y0131625D01*
X0169186Y0130626D02*
X0007468Y0130626D01*
X0007468Y0129628D02*
X0169281Y0129628D01*
X0170051Y0128629D02*
X0007468Y0128629D01*
X0007468Y0127631D02*
X0171050Y0127631D01*
X0162196Y0137616D02*
X0007468Y0137616D01*
X0007468Y0138614D02*
X0161198Y0138614D01*
X0160199Y0139613D02*
X0007468Y0139613D01*
X0007468Y0140611D02*
X0159311Y0140611D01*
X0158898Y0141610D02*
X0007468Y0141610D01*
X0007468Y0150597D02*
X0103084Y0150597D01*
X0102086Y0151595D02*
X0007468Y0151595D01*
X0007468Y0152594D02*
X0101087Y0152594D01*
X0100531Y0153592D02*
X0007468Y0153592D01*
X0007468Y0154591D02*
X0100531Y0154591D01*
X0100531Y0155589D02*
X0007468Y0155589D01*
X0007468Y0156588D02*
X0100531Y0156588D01*
X0101267Y0157586D02*
X0007468Y0157586D01*
X0007468Y0158585D02*
X0095877Y0158585D01*
X0094879Y0159583D02*
X0007468Y0159583D01*
X0007468Y0160582D02*
X0093950Y0160582D01*
X0093950Y0161580D02*
X0007468Y0161580D01*
X0007468Y0122638D02*
X0232919Y0122638D01*
X0232919Y0123161D02*
X0232919Y0119664D01*
X0233022Y0119282D01*
X0233219Y0118940D01*
X0233498Y0118661D01*
X0233840Y0118464D01*
X0234222Y0118361D01*
X0241419Y0118361D01*
X0241419Y0123161D01*
X0232919Y0123161D01*
X0232919Y0121640D02*
X0007468Y0121640D01*
X0007468Y0120641D02*
X0232919Y0120641D01*
X0232925Y0119643D02*
X0007468Y0119643D01*
X0007468Y0118644D02*
X0233528Y0118644D01*
X0234222Y0110851D02*
X0233840Y0110749D01*
X0233498Y0110551D01*
X0233219Y0110272D01*
X0233022Y0109930D01*
X0232919Y0109549D01*
X0232919Y0106051D01*
X0241419Y0106051D01*
X0241419Y0110851D01*
X0234222Y0110851D01*
X0233680Y0110656D02*
X0007468Y0110656D01*
X0007468Y0109658D02*
X0232948Y0109658D01*
X0232919Y0108659D02*
X0007468Y0108659D01*
X0007468Y0107661D02*
X0232919Y0107661D01*
X0232919Y0106662D02*
X0007468Y0106662D01*
X0007468Y0105664D02*
X0241419Y0105664D01*
X0241419Y0106662D02*
X0242419Y0106662D01*
X0242419Y0107661D02*
X0241419Y0107661D01*
X0241419Y0108659D02*
X0242419Y0108659D01*
X0242419Y0109658D02*
X0241419Y0109658D01*
X0241419Y0110656D02*
X0242419Y0110656D01*
X0249531Y0112653D02*
X0007468Y0112653D01*
X0007468Y0111655D02*
X0250405Y0111655D01*
X0250159Y0110656D02*
X0251403Y0110656D01*
X0251717Y0109658D02*
X0250890Y0109658D01*
X0249531Y0113652D02*
X0007468Y0113652D01*
X0007468Y0114650D02*
X0249531Y0114650D01*
X0249531Y0115649D02*
X0007468Y0115649D01*
X0007468Y0116647D02*
X0249531Y0116647D01*
X0249705Y0117646D02*
X0007468Y0117646D01*
X0007468Y0104665D02*
X0232919Y0104665D01*
X0232919Y0103667D02*
X0007468Y0103667D01*
X0007468Y0102668D02*
X0232919Y0102668D01*
X0232919Y0101670D02*
X0149650Y0101670D01*
X0149351Y0101968D02*
X0145649Y0101968D01*
X0143125Y0099444D01*
X0140601Y0101968D01*
X0136899Y0101968D01*
X0134281Y0099351D01*
X0134281Y0097654D01*
X0133479Y0096851D01*
X0132981Y0095650D01*
X0132981Y0086976D01*
X0132313Y0086976D01*
X0131406Y0086601D01*
X0130712Y0085906D01*
X0130336Y0084999D01*
X0130336Y0069017D01*
X0130712Y0068110D01*
X0131406Y0067415D01*
X0132313Y0067039D01*
X0140895Y0067039D01*
X0141803Y0067415D01*
X0142497Y0068110D01*
X0142873Y0069017D01*
X0142873Y0084999D01*
X0142497Y0085906D01*
X0141803Y0086601D01*
X0140895Y0086976D01*
X0139518Y0086976D01*
X0139518Y0093031D01*
X0140601Y0093031D01*
X0143125Y0095556D01*
X0145649Y0093031D01*
X0149351Y0093031D01*
X0150224Y0093904D01*
X0150481Y0093646D01*
X0150481Y0087173D01*
X0149833Y0087173D01*
X0148926Y0086797D01*
X0148231Y0086103D01*
X0147856Y0085196D01*
X0147856Y0069214D01*
X0148231Y0068306D01*
X0148926Y0067612D01*
X0149833Y0067236D01*
X0158415Y0067236D01*
X0159322Y0067612D01*
X0160017Y0068306D01*
X0160393Y0069214D01*
X0160393Y0085196D01*
X0160017Y0086103D01*
X0159322Y0086797D01*
X0158415Y0087173D01*
X0157018Y0087173D01*
X0157018Y0095650D01*
X0156521Y0096851D01*
X0155601Y0097771D01*
X0153101Y0100271D01*
X0151900Y0100768D01*
X0150551Y0100768D01*
X0149351Y0101968D01*
X0152136Y0100671D02*
X0233378Y0100671D01*
X0233861Y0093681D02*
X0157018Y0093681D01*
X0157018Y0092683D02*
X0232370Y0092683D01*
X0231951Y0091684D02*
X0157018Y0091684D01*
X0157018Y0090686D02*
X0231951Y0090686D01*
X0231951Y0089687D02*
X0157018Y0089687D01*
X0157018Y0088689D02*
X0216250Y0088689D01*
X0216250Y0087690D02*
X0157018Y0087690D01*
X0159428Y0086692D02*
X0166666Y0086692D01*
X0166445Y0086601D02*
X0165751Y0085906D01*
X0165375Y0084999D01*
X0165375Y0069017D01*
X0165751Y0068110D01*
X0166445Y0067415D01*
X0167353Y0067039D01*
X0175935Y0067039D01*
X0176842Y0067415D01*
X0177536Y0068110D01*
X0177912Y0069017D01*
X0177912Y0084999D01*
X0177536Y0085906D01*
X0176842Y0086601D01*
X0175935Y0086976D01*
X0167353Y0086976D01*
X0166445Y0086601D01*
X0165663Y0085693D02*
X0160186Y0085693D01*
X0160393Y0084695D02*
X0165375Y0084695D01*
X0165375Y0083696D02*
X0160393Y0083696D01*
X0160393Y0082698D02*
X0165375Y0082698D01*
X0165375Y0081699D02*
X0160393Y0081699D01*
X0160393Y0080701D02*
X0165375Y0080701D01*
X0165375Y0079702D02*
X0160393Y0079702D01*
X0160393Y0078704D02*
X0165375Y0078704D01*
X0165375Y0077705D02*
X0160393Y0077705D01*
X0160393Y0076707D02*
X0165375Y0076707D01*
X0165375Y0075708D02*
X0160393Y0075708D01*
X0160393Y0074710D02*
X0165375Y0074710D01*
X0165375Y0073711D02*
X0160393Y0073711D01*
X0160393Y0072713D02*
X0165375Y0072713D01*
X0165375Y0071714D02*
X0160393Y0071714D01*
X0160393Y0070716D02*
X0165375Y0070716D01*
X0165375Y0069717D02*
X0160393Y0069717D01*
X0160187Y0068719D02*
X0165499Y0068719D01*
X0166140Y0067720D02*
X0159430Y0067720D01*
X0148818Y0067720D02*
X0142108Y0067720D01*
X0142749Y0068719D02*
X0148061Y0068719D01*
X0147856Y0069717D02*
X0142873Y0069717D01*
X0142873Y0070716D02*
X0147856Y0070716D01*
X0147856Y0071714D02*
X0142873Y0071714D01*
X0142873Y0072713D02*
X0147856Y0072713D01*
X0147856Y0073711D02*
X0142873Y0073711D01*
X0142873Y0074710D02*
X0147856Y0074710D01*
X0147856Y0075708D02*
X0142873Y0075708D01*
X0142873Y0076707D02*
X0147856Y0076707D01*
X0147856Y0077705D02*
X0142873Y0077705D01*
X0142873Y0078704D02*
X0147856Y0078704D01*
X0147856Y0079702D02*
X0142873Y0079702D01*
X0142873Y0080701D02*
X0147856Y0080701D01*
X0147856Y0081699D02*
X0142873Y0081699D01*
X0142873Y0082698D02*
X0147856Y0082698D01*
X0147856Y0083696D02*
X0142873Y0083696D01*
X0142873Y0084695D02*
X0147856Y0084695D01*
X0148062Y0085693D02*
X0142585Y0085693D01*
X0141582Y0086692D02*
X0148820Y0086692D01*
X0150481Y0087690D02*
X0139518Y0087690D01*
X0139518Y0088689D02*
X0150481Y0088689D01*
X0150481Y0089687D02*
X0139518Y0089687D01*
X0139518Y0090686D02*
X0150481Y0090686D01*
X0150481Y0091684D02*
X0139518Y0091684D01*
X0139518Y0092683D02*
X0150481Y0092683D01*
X0150446Y0093681D02*
X0150001Y0093681D01*
X0144999Y0093681D02*
X0141251Y0093681D01*
X0142249Y0094680D02*
X0144001Y0094680D01*
X0143353Y0099672D02*
X0142897Y0099672D01*
X0141898Y0100671D02*
X0144352Y0100671D01*
X0145350Y0101670D02*
X0140900Y0101670D01*
X0136600Y0101670D02*
X0007468Y0101670D01*
X0007468Y0100671D02*
X0135602Y0100671D01*
X0134603Y0099672D02*
X0007468Y0099672D01*
X0007468Y0098674D02*
X0134281Y0098674D01*
X0134281Y0097675D02*
X0007468Y0097675D01*
X0007468Y0096677D02*
X0133407Y0096677D01*
X0132993Y0095678D02*
X0007468Y0095678D01*
X0007468Y0094680D02*
X0132981Y0094680D01*
X0132981Y0093681D02*
X0007468Y0093681D01*
X0007468Y0092683D02*
X0132981Y0092683D01*
X0132981Y0091684D02*
X0007468Y0091684D01*
X0007468Y0090686D02*
X0132981Y0090686D01*
X0132981Y0089687D02*
X0007468Y0089687D01*
X0007468Y0088689D02*
X0132981Y0088689D01*
X0132981Y0087690D02*
X0007468Y0087690D01*
X0007468Y0086692D02*
X0114107Y0086692D01*
X0113886Y0086601D02*
X0113192Y0085906D01*
X0112816Y0084999D01*
X0112816Y0069017D01*
X0113192Y0068110D01*
X0113886Y0067415D01*
X0114794Y0067039D01*
X0115472Y0067039D01*
X0115472Y0066581D01*
X0115000Y0066385D01*
X0114310Y0066671D01*
X0108210Y0066671D01*
X0107302Y0066295D01*
X0106608Y0065601D01*
X0106232Y0064694D01*
X0106232Y0064518D01*
X0105668Y0064518D01*
X0105668Y0065578D01*
X0104806Y0067661D01*
X0103211Y0069256D01*
X0101128Y0070118D01*
X0098872Y0070118D01*
X0096789Y0069256D01*
X0095194Y0067661D01*
X0094331Y0065578D01*
X0094331Y0056922D01*
X0095194Y0054839D01*
X0096789Y0053244D01*
X0098872Y0052381D01*
X0101128Y0052381D01*
X0103211Y0053244D01*
X0104806Y0054839D01*
X0105668Y0056922D01*
X0105668Y0057981D01*
X0106232Y0057981D01*
X0106232Y0057806D01*
X0106608Y0056899D01*
X0106632Y0056875D01*
X0106608Y0056851D01*
X0106232Y0055944D01*
X0106232Y0049056D01*
X0106608Y0048149D01*
X0107302Y0047455D01*
X0108210Y0047079D01*
X0114310Y0047079D01*
X0115217Y0047455D01*
X0115847Y0048084D01*
X0115984Y0048047D01*
X0118240Y0048047D01*
X0118240Y0052000D01*
X0119240Y0052000D01*
X0119240Y0048047D01*
X0121497Y0048047D01*
X0121878Y0048149D01*
X0122220Y0048347D01*
X0122499Y0048626D01*
X0122697Y0048968D01*
X0122799Y0049350D01*
X0122799Y0052000D01*
X0119240Y0052000D01*
X0119240Y0053000D01*
X0122799Y0053000D01*
X0122799Y0055650D01*
X0122697Y0056032D01*
X0122617Y0056171D01*
X0122698Y0056205D01*
X0123392Y0056899D01*
X0123768Y0057806D01*
X0123768Y0064694D01*
X0123392Y0065601D01*
X0122698Y0066295D01*
X0122009Y0066581D01*
X0122009Y0067039D01*
X0123376Y0067039D01*
X0124283Y0067415D01*
X0124977Y0068110D01*
X0125353Y0069017D01*
X0125353Y0084999D01*
X0124977Y0085906D01*
X0124283Y0086601D01*
X0123376Y0086976D01*
X0114794Y0086976D01*
X0113886Y0086601D01*
X0113104Y0085693D02*
X0007468Y0085693D01*
X0007468Y0084695D02*
X0112816Y0084695D01*
X0112816Y0083696D02*
X0007468Y0083696D01*
X0007468Y0082698D02*
X0112816Y0082698D01*
X0112816Y0081699D02*
X0007468Y0081699D01*
X0007468Y0080701D02*
X0112816Y0080701D01*
X0112816Y0079702D02*
X0007468Y0079702D01*
X0007468Y0078704D02*
X0112816Y0078704D01*
X0112816Y0077705D02*
X0007468Y0077705D01*
X0007468Y0076707D02*
X0075161Y0076707D01*
X0075672Y0076918D02*
X0073589Y0076056D01*
X0071994Y0074461D01*
X0071131Y0072378D01*
X0071131Y0070122D01*
X0071994Y0068039D01*
X0073589Y0066444D01*
X0075672Y0065581D01*
X0084328Y0065581D01*
X0086411Y0066444D01*
X0088006Y0068039D01*
X0088868Y0070122D01*
X0088868Y0072378D01*
X0088006Y0074461D01*
X0086411Y0076056D01*
X0084328Y0076918D01*
X0075672Y0076918D01*
X0073242Y0075708D02*
X0007468Y0075708D01*
X0007468Y0074710D02*
X0072243Y0074710D01*
X0071684Y0073711D02*
X0007468Y0073711D01*
X0007468Y0072713D02*
X0071270Y0072713D01*
X0071131Y0071714D02*
X0007468Y0071714D01*
X0007468Y0070716D02*
X0071131Y0070716D01*
X0071299Y0069717D02*
X0007468Y0069717D01*
X0007468Y0068719D02*
X0071713Y0068719D01*
X0072313Y0067720D02*
X0007468Y0067720D01*
X0007468Y0066722D02*
X0073312Y0066722D01*
X0075331Y0065723D02*
X0007468Y0065723D01*
X0007468Y0064725D02*
X0094331Y0064725D01*
X0094331Y0063726D02*
X0007468Y0063726D01*
X0007468Y0062728D02*
X0094331Y0062728D01*
X0094331Y0061729D02*
X0007468Y0061729D01*
X0007468Y0060731D02*
X0094331Y0060731D01*
X0094331Y0059732D02*
X0007468Y0059732D01*
X0007468Y0058734D02*
X0094331Y0058734D01*
X0094331Y0057735D02*
X0007468Y0057735D01*
X0007468Y0056737D02*
X0094409Y0056737D01*
X0094822Y0055738D02*
X0084597Y0055738D01*
X0084301Y0055834D02*
X0083570Y0055950D01*
X0080500Y0055950D01*
X0080500Y0051750D01*
X0079500Y0051750D01*
X0079500Y0055950D01*
X0076430Y0055950D01*
X0075699Y0055834D01*
X0074996Y0055606D01*
X0074337Y0055270D01*
X0073738Y0054835D01*
X0073215Y0054312D01*
X0072780Y0053713D01*
X0072444Y0053054D01*
X0072216Y0052351D01*
X0072121Y0051750D01*
X0079500Y0051750D01*
X0079500Y0050750D01*
X0080500Y0050750D01*
X0080500Y0051750D01*
X0087879Y0051750D01*
X0087784Y0052351D01*
X0087556Y0053054D01*
X0087220Y0053713D01*
X0086785Y0054312D01*
X0086262Y0054835D01*
X0085663Y0055270D01*
X0085004Y0055606D01*
X0084301Y0055834D01*
X0086357Y0054739D02*
X0095294Y0054739D01*
X0096293Y0053741D02*
X0087200Y0053741D01*
X0087657Y0052742D02*
X0098001Y0052742D01*
X0101999Y0052742D02*
X0106232Y0052742D01*
X0106232Y0051744D02*
X0080500Y0051744D01*
X0080500Y0050750D02*
X0087879Y0050750D01*
X0087784Y0050149D01*
X0087556Y0049446D01*
X0087220Y0048787D01*
X0086785Y0048188D01*
X0086262Y0047665D01*
X0085663Y0047230D01*
X0085004Y0046894D01*
X0084301Y0046666D01*
X0083570Y0046550D01*
X0080500Y0046550D01*
X0080500Y0050750D01*
X0080500Y0050745D02*
X0079500Y0050745D01*
X0079500Y0050750D02*
X0079500Y0046550D01*
X0076430Y0046550D01*
X0075699Y0046666D01*
X0074996Y0046894D01*
X0074337Y0047230D01*
X0073738Y0047665D01*
X0073215Y0048188D01*
X0072780Y0048787D01*
X0072444Y0049446D01*
X0072216Y0050149D01*
X0072121Y0050750D01*
X0079500Y0050750D01*
X0079500Y0051744D02*
X0007468Y0051744D01*
X0007468Y0052742D02*
X0072343Y0052742D01*
X0072800Y0053741D02*
X0007468Y0053741D01*
X0007468Y0054739D02*
X0073643Y0054739D01*
X0075403Y0055738D02*
X0007468Y0055738D01*
X0007468Y0050745D02*
X0072121Y0050745D01*
X0072346Y0049747D02*
X0007468Y0049747D01*
X0007468Y0048748D02*
X0072808Y0048748D01*
X0073653Y0047750D02*
X0007468Y0047750D01*
X0007468Y0046751D02*
X0075436Y0046751D01*
X0079500Y0046751D02*
X0080500Y0046751D01*
X0080500Y0047750D02*
X0079500Y0047750D01*
X0079500Y0048748D02*
X0080500Y0048748D01*
X0080500Y0049747D02*
X0079500Y0049747D01*
X0084564Y0046751D02*
X0143451Y0046751D01*
X0143451Y0046900D02*
X0143451Y0044250D01*
X0147010Y0044250D01*
X0147010Y0048203D01*
X0144753Y0048203D01*
X0144372Y0048101D01*
X0144030Y0047903D01*
X0143750Y0047624D01*
X0143553Y0047282D01*
X0143451Y0046900D01*
X0143877Y0047750D02*
X0115513Y0047750D01*
X0118240Y0048748D02*
X0119240Y0048748D01*
X0119240Y0049747D02*
X0118240Y0049747D01*
X0118240Y0050745D02*
X0119240Y0050745D01*
X0119240Y0051744D02*
X0118240Y0051744D01*
X0119240Y0052742D02*
X0150235Y0052742D01*
X0150022Y0052228D02*
X0150022Y0048203D01*
X0148010Y0048203D01*
X0148010Y0044250D01*
X0147010Y0044250D01*
X0147010Y0043250D01*
X0148010Y0043250D01*
X0148010Y0039297D01*
X0150022Y0039297D01*
X0150022Y0039171D01*
X0144460Y0039171D01*
X0143552Y0038795D01*
X0142858Y0038101D01*
X0142482Y0037194D01*
X0142482Y0037018D01*
X0142389Y0037018D01*
X0139889Y0039518D01*
X0135111Y0039518D01*
X0131815Y0036223D01*
X0129488Y0038550D01*
X0127800Y0038550D01*
X0127800Y0034050D01*
X0127200Y0034050D01*
X0127200Y0038550D01*
X0125512Y0038550D01*
X0122700Y0035738D01*
X0122700Y0034050D01*
X0127200Y0034050D01*
X0127200Y0033450D01*
X0127800Y0033450D01*
X0127800Y0028950D01*
X0129488Y0028950D01*
X0131815Y0031277D01*
X0135111Y0027981D01*
X0139889Y0027981D01*
X0142389Y0030481D01*
X0142482Y0030481D01*
X0142482Y0030306D01*
X0142858Y0029399D01*
X0143552Y0028705D01*
X0144460Y0028329D01*
X0150031Y0028329D01*
X0150031Y0018189D01*
X0150000Y0018158D01*
X0147389Y0020768D01*
X0142611Y0020768D01*
X0140000Y0018158D01*
X0137389Y0020768D01*
X0132611Y0020768D01*
X0130000Y0018158D01*
X0127389Y0020768D01*
X0122611Y0020768D01*
X0120000Y0018158D01*
X0117389Y0020768D01*
X0112611Y0020768D01*
X0109231Y0017389D01*
X0109231Y0012611D01*
X0112611Y0009231D01*
X0117389Y0009231D01*
X0120000Y0011842D01*
X0122611Y0009231D01*
X0127389Y0009231D01*
X0130000Y0011842D01*
X0132611Y0009231D01*
X0137389Y0009231D01*
X0140000Y0011842D01*
X0142611Y0009231D01*
X0147389Y0009231D01*
X0150000Y0011842D01*
X0152611Y0009231D01*
X0157389Y0009231D01*
X0160685Y0012527D01*
X0163012Y0010200D01*
X0164516Y0010200D01*
X0164516Y0014516D01*
X0165484Y0014516D01*
X0165484Y0010200D01*
X0166988Y0010200D01*
X0169800Y0013012D01*
X0169800Y0014516D01*
X0165484Y0014516D01*
X0165484Y0015484D01*
X0164516Y0015484D01*
X0164516Y0019800D01*
X0163012Y0019800D01*
X0160685Y0017473D01*
X0159968Y0018189D01*
X0159968Y0030187D01*
X0160018Y0030306D01*
X0160018Y0037194D01*
X0159959Y0037336D01*
X0159959Y0040164D01*
X0160018Y0040306D01*
X0160018Y0047194D01*
X0159959Y0047336D01*
X0159959Y0049182D01*
X0162962Y0052186D01*
X0163718Y0054012D01*
X0163718Y0055988D01*
X0162962Y0057814D01*
X0161564Y0059212D01*
X0159738Y0059968D01*
X0157762Y0059968D01*
X0155936Y0059212D01*
X0150778Y0054055D01*
X0150022Y0052228D01*
X0150022Y0051744D02*
X0122799Y0051744D01*
X0122799Y0050745D02*
X0150022Y0050745D01*
X0150022Y0049747D02*
X0122799Y0049747D01*
X0122570Y0048748D02*
X0150022Y0048748D01*
X0148010Y0047750D02*
X0147010Y0047750D01*
X0147010Y0046751D02*
X0148010Y0046751D01*
X0148010Y0045753D02*
X0147010Y0045753D01*
X0147010Y0044754D02*
X0148010Y0044754D01*
X0147010Y0043756D02*
X0007468Y0043756D01*
X0007468Y0044754D02*
X0143451Y0044754D01*
X0143451Y0045753D02*
X0007468Y0045753D01*
X0007468Y0042757D02*
X0143451Y0042757D01*
X0143451Y0043250D02*
X0143451Y0040600D01*
X0143553Y0040218D01*
X0143750Y0039876D01*
X0144030Y0039597D01*
X0144372Y0039399D01*
X0144753Y0039297D01*
X0147010Y0039297D01*
X0147010Y0043250D01*
X0143451Y0043250D01*
X0143451Y0041759D02*
X0007468Y0041759D01*
X0007468Y0040760D02*
X0143451Y0040760D01*
X0143865Y0039762D02*
X0007468Y0039762D01*
X0007468Y0038763D02*
X0134355Y0038763D01*
X0133357Y0037765D02*
X0130273Y0037765D01*
X0131272Y0036766D02*
X0132358Y0036766D01*
X0127800Y0036766D02*
X0127200Y0036766D01*
X0127200Y0035768D02*
X0127800Y0035768D01*
X0127800Y0034769D02*
X0127200Y0034769D01*
X0127200Y0033771D02*
X0052404Y0033771D01*
X0052056Y0034611D02*
X0050461Y0036206D01*
X0048378Y0037068D01*
X0039722Y0037068D01*
X0037639Y0036206D01*
X0036044Y0034611D01*
X0035181Y0032528D01*
X0035181Y0030272D01*
X0036044Y0028189D01*
X0037639Y0026594D01*
X0039722Y0025731D01*
X0048378Y0025731D01*
X0050461Y0026594D01*
X0052056Y0028189D01*
X0052918Y0030272D01*
X0052918Y0032528D01*
X0052056Y0034611D01*
X0051897Y0034769D02*
X0122700Y0034769D01*
X0122730Y0035768D02*
X0050899Y0035768D01*
X0049107Y0036766D02*
X0123728Y0036766D01*
X0124727Y0037765D02*
X0007468Y0037765D01*
X0007468Y0036766D02*
X0013393Y0036766D01*
X0014122Y0037068D02*
X0012039Y0036206D01*
X0010444Y0034611D01*
X0009581Y0032528D01*
X0009581Y0030272D01*
X0010444Y0028189D01*
X0012039Y0026594D01*
X0014122Y0025731D01*
X0022778Y0025731D01*
X0024861Y0026594D01*
X0026456Y0028189D01*
X0027318Y0030272D01*
X0027318Y0032528D01*
X0026456Y0034611D01*
X0024861Y0036206D01*
X0022778Y0037068D01*
X0014122Y0037068D01*
X0011601Y0035768D02*
X0007468Y0035768D01*
X0007468Y0034769D02*
X0010603Y0034769D01*
X0010096Y0033771D02*
X0007468Y0033771D01*
X0007468Y0032772D02*
X0009683Y0032772D01*
X0009581Y0031774D02*
X0007468Y0031774D01*
X0007468Y0030775D02*
X0009581Y0030775D01*
X0009787Y0029777D02*
X0007468Y0029777D01*
X0007468Y0028778D02*
X0010200Y0028778D01*
X0010854Y0027780D02*
X0007468Y0027780D01*
X0007468Y0026781D02*
X0011852Y0026781D01*
X0013999Y0025783D02*
X0007468Y0025783D01*
X0007468Y0024784D02*
X0150031Y0024784D01*
X0150031Y0023786D02*
X0007468Y0023786D01*
X0007468Y0022787D02*
X0150031Y0022787D01*
X0150031Y0021789D02*
X0007468Y0021789D01*
X0007468Y0020790D02*
X0150031Y0020790D01*
X0150031Y0019792D02*
X0148366Y0019792D01*
X0149365Y0018793D02*
X0150031Y0018793D01*
X0141634Y0019792D02*
X0138366Y0019792D01*
X0139365Y0018793D02*
X0140635Y0018793D01*
X0140039Y0011803D02*
X0139961Y0011803D01*
X0138963Y0010805D02*
X0141037Y0010805D01*
X0142036Y0009806D02*
X0137964Y0009806D01*
X0132036Y0009806D02*
X0127964Y0009806D01*
X0128963Y0010805D02*
X0131037Y0010805D01*
X0130039Y0011803D02*
X0129961Y0011803D01*
X0129365Y0018793D02*
X0130635Y0018793D01*
X0131634Y0019792D02*
X0128366Y0019792D01*
X0121634Y0019792D02*
X0118366Y0019792D01*
X0119365Y0018793D02*
X0120635Y0018793D01*
X0120039Y0011803D02*
X0119961Y0011803D01*
X0118963Y0010805D02*
X0121037Y0010805D01*
X0122036Y0009806D02*
X0117964Y0009806D01*
X0112036Y0009806D02*
X0050025Y0009806D01*
X0050312Y0010015D02*
X0049713Y0009580D01*
X0049054Y0009244D01*
X0048351Y0009016D01*
X0047620Y0008900D01*
X0044550Y0008900D01*
X0044550Y0013100D01*
X0044550Y0014100D01*
X0043550Y0014100D01*
X0043550Y0018300D01*
X0040480Y0018300D01*
X0039749Y0018184D01*
X0039046Y0017956D01*
X0038387Y0017620D01*
X0037788Y0017185D01*
X0037265Y0016662D01*
X0036830Y0016063D01*
X0036494Y0015404D01*
X0036266Y0014701D01*
X0036171Y0014100D01*
X0043550Y0014100D01*
X0043550Y0013100D01*
X0044550Y0013100D01*
X0051929Y0013100D01*
X0051834Y0012499D01*
X0051606Y0011796D01*
X0051270Y0011137D01*
X0050835Y0010538D01*
X0050312Y0010015D01*
X0051029Y0010805D02*
X0111037Y0010805D01*
X0110039Y0011803D02*
X0051608Y0011803D01*
X0051882Y0012802D02*
X0109231Y0012802D01*
X0109231Y0013801D02*
X0044550Y0013801D01*
X0044550Y0014100D02*
X0051929Y0014100D01*
X0051834Y0014701D01*
X0051606Y0015404D01*
X0051270Y0016063D01*
X0050835Y0016662D01*
X0050312Y0017185D01*
X0049713Y0017620D01*
X0049054Y0017956D01*
X0048351Y0018184D01*
X0047620Y0018300D01*
X0044550Y0018300D01*
X0044550Y0014100D01*
X0044550Y0014799D02*
X0043550Y0014799D01*
X0043550Y0013801D02*
X0018950Y0013801D01*
X0018950Y0014100D02*
X0026329Y0014100D01*
X0026234Y0014701D01*
X0026006Y0015404D01*
X0025670Y0016063D01*
X0025235Y0016662D01*
X0024712Y0017185D01*
X0024113Y0017620D01*
X0023454Y0017956D01*
X0022751Y0018184D01*
X0022020Y0018300D01*
X0018950Y0018300D01*
X0018950Y0014100D01*
X0017950Y0014100D01*
X0017950Y0018300D01*
X0014880Y0018300D01*
X0014149Y0018184D01*
X0013446Y0017956D01*
X0012787Y0017620D01*
X0012188Y0017185D01*
X0011665Y0016662D01*
X0011230Y0016063D01*
X0010894Y0015404D01*
X0010666Y0014701D01*
X0010571Y0014100D01*
X0017950Y0014100D01*
X0017950Y0013100D01*
X0018950Y0013100D01*
X0018950Y0014100D01*
X0018950Y0014799D02*
X0017950Y0014799D01*
X0017950Y0013801D02*
X0007468Y0013801D01*
X0007468Y0014799D02*
X0010698Y0014799D01*
X0011095Y0015798D02*
X0007468Y0015798D01*
X0007468Y0016796D02*
X0011799Y0016796D01*
X0013130Y0017795D02*
X0007468Y0017795D01*
X0007468Y0018793D02*
X0110635Y0018793D01*
X0109637Y0017795D02*
X0049370Y0017795D01*
X0050701Y0016796D02*
X0109231Y0016796D01*
X0109231Y0015798D02*
X0051405Y0015798D01*
X0051802Y0014799D02*
X0109231Y0014799D01*
X0111634Y0019792D02*
X0007468Y0019792D01*
X0010571Y0013100D02*
X0010666Y0012499D01*
X0010894Y0011796D01*
X0011230Y0011137D01*
X0011665Y0010538D01*
X0012188Y0010015D01*
X0012787Y0009580D01*
X0013446Y0009244D01*
X0014149Y0009016D01*
X0014880Y0008900D01*
X0017950Y0008900D01*
X0017950Y0013100D01*
X0010571Y0013100D01*
X0010618Y0012802D02*
X0007468Y0012802D01*
X0007468Y0011803D02*
X0010892Y0011803D01*
X0011471Y0010805D02*
X0007468Y0010805D01*
X0007468Y0009806D02*
X0012475Y0009806D01*
X0007468Y0008808D02*
X0262531Y0008808D01*
X0262531Y0009806D02*
X0257964Y0009806D01*
X0257389Y0009231D02*
X0260768Y0012611D01*
X0260768Y0017389D01*
X0257389Y0020768D01*
X0252611Y0020768D01*
X0250000Y0018158D01*
X0247389Y0020768D01*
X0242611Y0020768D01*
X0240000Y0018158D01*
X0237389Y0020768D01*
X0232611Y0020768D01*
X0230000Y0018158D01*
X0227389Y0020768D01*
X0222611Y0020768D01*
X0220000Y0018158D01*
X0217389Y0020768D01*
X0212611Y0020768D01*
X0210000Y0018158D01*
X0207389Y0020768D01*
X0202611Y0020768D01*
X0199231Y0017389D01*
X0199231Y0012611D01*
X0202611Y0009231D01*
X0207389Y0009231D01*
X0210000Y0011842D01*
X0212611Y0009231D01*
X0217389Y0009231D01*
X0220000Y0011842D01*
X0222611Y0009231D01*
X0227389Y0009231D01*
X0230000Y0011842D01*
X0232611Y0009231D01*
X0237389Y0009231D01*
X0240000Y0011842D01*
X0242611Y0009231D01*
X0247389Y0009231D01*
X0250000Y0011842D01*
X0252611Y0009231D01*
X0257389Y0009231D01*
X0258963Y0010805D02*
X0262531Y0010805D01*
X0262531Y0011803D02*
X0259961Y0011803D01*
X0260768Y0012802D02*
X0262531Y0012802D01*
X0262531Y0013801D02*
X0260768Y0013801D01*
X0260768Y0014799D02*
X0262531Y0014799D01*
X0262658Y0015798D02*
X0260768Y0015798D01*
X0260768Y0016796D02*
X0263305Y0016796D01*
X0264304Y0017795D02*
X0260363Y0017795D01*
X0259365Y0018793D02*
X0265302Y0018793D01*
X0266301Y0019792D02*
X0258366Y0019792D01*
X0251634Y0019792D02*
X0248366Y0019792D01*
X0249365Y0018793D02*
X0250635Y0018793D01*
X0241634Y0019792D02*
X0238366Y0019792D01*
X0239365Y0018793D02*
X0240635Y0018793D01*
X0240039Y0011803D02*
X0239961Y0011803D01*
X0238963Y0010805D02*
X0241037Y0010805D01*
X0242036Y0009806D02*
X0237964Y0009806D01*
X0232036Y0009806D02*
X0227964Y0009806D01*
X0228963Y0010805D02*
X0231037Y0010805D01*
X0230039Y0011803D02*
X0229961Y0011803D01*
X0229365Y0018793D02*
X0230635Y0018793D01*
X0231634Y0019792D02*
X0228366Y0019792D01*
X0221634Y0019792D02*
X0218366Y0019792D01*
X0219365Y0018793D02*
X0220635Y0018793D01*
X0220039Y0011803D02*
X0219961Y0011803D01*
X0218963Y0010805D02*
X0221037Y0010805D01*
X0222036Y0009806D02*
X0217964Y0009806D01*
X0212036Y0009806D02*
X0207964Y0009806D01*
X0208963Y0010805D02*
X0211037Y0010805D01*
X0210039Y0011803D02*
X0209961Y0011803D01*
X0202036Y0009806D02*
X0187964Y0009806D01*
X0187389Y0009231D02*
X0190768Y0012611D01*
X0190768Y0017389D01*
X0187389Y0020768D01*
X0182611Y0020768D01*
X0179315Y0017473D01*
X0176988Y0019800D01*
X0175484Y0019800D01*
X0175484Y0015484D01*
X0174516Y0015484D01*
X0174516Y0014516D01*
X0175484Y0014516D01*
X0175484Y0010200D01*
X0176988Y0010200D01*
X0179315Y0012527D01*
X0182611Y0009231D01*
X0187389Y0009231D01*
X0188963Y0010805D02*
X0201037Y0010805D01*
X0200039Y0011803D02*
X0189961Y0011803D01*
X0190768Y0012802D02*
X0199231Y0012802D01*
X0199231Y0013801D02*
X0190768Y0013801D01*
X0190768Y0014799D02*
X0199231Y0014799D01*
X0199231Y0015798D02*
X0190768Y0015798D01*
X0190768Y0016796D02*
X0199231Y0016796D01*
X0199637Y0017795D02*
X0190363Y0017795D01*
X0189365Y0018793D02*
X0200635Y0018793D01*
X0201634Y0019792D02*
X0188366Y0019792D01*
X0181634Y0019792D02*
X0176997Y0019792D01*
X0177995Y0018793D02*
X0180635Y0018793D01*
X0179637Y0017795D02*
X0178994Y0017795D01*
X0175484Y0017795D02*
X0174516Y0017795D01*
X0174516Y0018793D02*
X0175484Y0018793D01*
X0175484Y0019792D02*
X0174516Y0019792D01*
X0174516Y0019800D02*
X0173012Y0019800D01*
X0170200Y0016988D01*
X0170200Y0015484D01*
X0174516Y0015484D01*
X0174516Y0019800D01*
X0173003Y0019792D02*
X0166997Y0019792D01*
X0166988Y0019800D02*
X0165484Y0019800D01*
X0165484Y0015484D01*
X0169800Y0015484D01*
X0169800Y0016988D01*
X0166988Y0019800D01*
X0167995Y0018793D02*
X0172005Y0018793D01*
X0171006Y0017795D02*
X0168994Y0017795D01*
X0169800Y0016796D02*
X0170200Y0016796D01*
X0170200Y0015798D02*
X0169800Y0015798D01*
X0170200Y0014516D02*
X0170200Y0013012D01*
X0173012Y0010200D01*
X0174516Y0010200D01*
X0174516Y0014516D01*
X0170200Y0014516D01*
X0170200Y0013801D02*
X0169800Y0013801D01*
X0169590Y0012802D02*
X0170410Y0012802D01*
X0171408Y0011803D02*
X0168592Y0011803D01*
X0167593Y0010805D02*
X0172407Y0010805D01*
X0174516Y0010805D02*
X0175484Y0010805D01*
X0175484Y0011803D02*
X0174516Y0011803D01*
X0174516Y0012802D02*
X0175484Y0012802D01*
X0175484Y0013801D02*
X0174516Y0013801D01*
X0174516Y0014799D02*
X0165484Y0014799D01*
X0165484Y0013801D02*
X0164516Y0013801D01*
X0164516Y0012802D02*
X0165484Y0012802D01*
X0165484Y0011803D02*
X0164516Y0011803D01*
X0164516Y0010805D02*
X0165484Y0010805D01*
X0162407Y0010805D02*
X0158963Y0010805D01*
X0159961Y0011803D02*
X0161408Y0011803D01*
X0157964Y0009806D02*
X0182036Y0009806D01*
X0181037Y0010805D02*
X0177593Y0010805D01*
X0178592Y0011803D02*
X0180039Y0011803D01*
X0175484Y0015798D02*
X0174516Y0015798D01*
X0174516Y0016796D02*
X0175484Y0016796D01*
X0165484Y0016796D02*
X0164516Y0016796D01*
X0164516Y0015798D02*
X0165484Y0015798D01*
X0165484Y0017795D02*
X0164516Y0017795D01*
X0164516Y0018793D02*
X0165484Y0018793D01*
X0165484Y0019792D02*
X0164516Y0019792D01*
X0163003Y0019792D02*
X0159968Y0019792D01*
X0159968Y0020790D02*
X0267299Y0020790D01*
X0268298Y0021789D02*
X0159968Y0021789D01*
X0159968Y0022787D02*
X0269296Y0022787D01*
X0270295Y0023786D02*
X0159968Y0023786D01*
X0159968Y0024784D02*
X0271293Y0024784D01*
X0272292Y0025783D02*
X0159968Y0025783D01*
X0159968Y0026781D02*
X0272531Y0026781D01*
X0272531Y0027780D02*
X0159968Y0027780D01*
X0159968Y0028778D02*
X0272531Y0028778D01*
X0272531Y0029777D02*
X0159968Y0029777D01*
X0160018Y0030775D02*
X0208935Y0030775D01*
X0210750Y0030775D02*
X0211750Y0030775D01*
X0211750Y0031774D02*
X0210750Y0031774D01*
X0210750Y0032772D02*
X0211750Y0032772D01*
X0211750Y0033771D02*
X0210750Y0033771D01*
X0210750Y0034769D02*
X0211750Y0034769D01*
X0211750Y0035768D02*
X0230750Y0035768D01*
X0230750Y0034769D02*
X0231750Y0034769D01*
X0231750Y0033771D02*
X0230750Y0033771D01*
X0230750Y0032772D02*
X0231750Y0032772D01*
X0231750Y0031774D02*
X0230750Y0031774D01*
X0230750Y0030775D02*
X0231750Y0030775D01*
X0233565Y0030775D02*
X0272531Y0030775D01*
X0272531Y0031774D02*
X0235159Y0031774D01*
X0236052Y0032772D02*
X0272531Y0032772D01*
X0272531Y0033771D02*
X0236641Y0033771D01*
X0237003Y0034769D02*
X0272531Y0034769D01*
X0272531Y0035768D02*
X0231750Y0035768D01*
X0231750Y0036766D02*
X0231250Y0036766D01*
X0231250Y0037765D02*
X0231750Y0037765D01*
X0231750Y0038763D02*
X0231250Y0038763D01*
X0231250Y0039762D02*
X0231750Y0039762D01*
X0231750Y0040760D02*
X0231250Y0040760D01*
X0231250Y0041759D02*
X0231750Y0041759D01*
X0231250Y0042757D02*
X0272531Y0042757D01*
X0272531Y0041759D02*
X0233483Y0041759D01*
X0235125Y0040760D02*
X0272531Y0040760D01*
X0272531Y0039762D02*
X0236027Y0039762D01*
X0236624Y0038763D02*
X0272531Y0038763D01*
X0272531Y0037765D02*
X0236992Y0037765D01*
X0237171Y0036766D02*
X0272531Y0036766D01*
X0272531Y0043756D02*
X0231250Y0043756D01*
X0231250Y0044754D02*
X0272531Y0044754D01*
X0272531Y0045753D02*
X0231250Y0045753D01*
X0231250Y0046751D02*
X0272531Y0046751D01*
X0272531Y0047750D02*
X0231250Y0047750D01*
X0231250Y0048748D02*
X0272531Y0048748D01*
X0265400Y0049747D02*
X0264400Y0049747D01*
X0264400Y0050745D02*
X0265400Y0050745D01*
X0265400Y0051744D02*
X0264400Y0051744D01*
X0264400Y0052742D02*
X0265400Y0052742D01*
X0265400Y0053741D02*
X0264400Y0053741D01*
X0264400Y0054739D02*
X0236993Y0054739D01*
X0237172Y0055738D02*
X0253400Y0055738D01*
X0253400Y0056737D02*
X0231750Y0056737D01*
X0231750Y0055738D02*
X0231250Y0055738D01*
X0231250Y0054739D02*
X0231750Y0054739D01*
X0231750Y0053741D02*
X0231250Y0053741D01*
X0231250Y0052742D02*
X0231750Y0052742D01*
X0231750Y0051744D02*
X0231250Y0051744D01*
X0231250Y0050745D02*
X0231750Y0050745D01*
X0231250Y0049747D02*
X0253660Y0049747D01*
X0253400Y0050745D02*
X0233496Y0050745D01*
X0235129Y0051744D02*
X0253400Y0051744D01*
X0253400Y0052742D02*
X0236030Y0052742D01*
X0236626Y0053741D02*
X0253400Y0053741D01*
X0253400Y0057735D02*
X0237002Y0057735D01*
X0236639Y0058734D02*
X0253400Y0058734D01*
X0253400Y0059732D02*
X0236049Y0059732D01*
X0215125Y0068719D02*
X0212828Y0068719D01*
X0212952Y0069017D02*
X0212952Y0084999D01*
X0212576Y0085906D01*
X0211881Y0086601D01*
X0210974Y0086976D01*
X0202392Y0086976D01*
X0201485Y0086601D01*
X0200790Y0085906D01*
X0200415Y0084999D01*
X0200415Y0069017D01*
X0200790Y0068110D01*
X0201485Y0067415D01*
X0202392Y0067039D01*
X0210974Y0067039D01*
X0211881Y0067415D01*
X0212576Y0068110D01*
X0212952Y0069017D01*
X0212952Y0069717D02*
X0215569Y0069717D01*
X0216013Y0070716D02*
X0212952Y0070716D01*
X0212952Y0071714D02*
X0216250Y0071714D01*
X0216250Y0072713D02*
X0212952Y0072713D01*
X0212952Y0073711D02*
X0216250Y0073711D01*
X0216250Y0074710D02*
X0212952Y0074710D01*
X0212952Y0075708D02*
X0216250Y0075708D01*
X0216250Y0076707D02*
X0212952Y0076707D01*
X0212952Y0077705D02*
X0216250Y0077705D01*
X0216250Y0078704D02*
X0212952Y0078704D01*
X0212952Y0079702D02*
X0216250Y0079702D01*
X0216250Y0080701D02*
X0212952Y0080701D01*
X0212952Y0081699D02*
X0216250Y0081699D01*
X0216250Y0082698D02*
X0212952Y0082698D01*
X0212952Y0083696D02*
X0216250Y0083696D01*
X0216250Y0084695D02*
X0212952Y0084695D01*
X0212664Y0085693D02*
X0216250Y0085693D01*
X0216250Y0086692D02*
X0211661Y0086692D01*
X0201705Y0086692D02*
X0194141Y0086692D01*
X0194362Y0086601D02*
X0193454Y0086976D01*
X0184872Y0086976D01*
X0183965Y0086601D01*
X0183271Y0085906D01*
X0182895Y0084999D01*
X0182895Y0069017D01*
X0183271Y0068110D01*
X0183965Y0067415D01*
X0184872Y0067039D01*
X0193454Y0067039D01*
X0194362Y0067415D01*
X0195056Y0068110D01*
X0195432Y0069017D01*
X0195432Y0084999D01*
X0195056Y0085906D01*
X0194362Y0086601D01*
X0195144Y0085693D02*
X0200702Y0085693D01*
X0200415Y0084695D02*
X0195432Y0084695D01*
X0195432Y0083696D02*
X0200415Y0083696D01*
X0200415Y0082698D02*
X0195432Y0082698D01*
X0195432Y0081699D02*
X0200415Y0081699D01*
X0200415Y0080701D02*
X0195432Y0080701D01*
X0195432Y0079702D02*
X0200415Y0079702D01*
X0200415Y0078704D02*
X0195432Y0078704D01*
X0195432Y0077705D02*
X0200415Y0077705D01*
X0200415Y0076707D02*
X0195432Y0076707D01*
X0195432Y0075708D02*
X0200415Y0075708D01*
X0200415Y0074710D02*
X0195432Y0074710D01*
X0195432Y0073711D02*
X0200415Y0073711D01*
X0200415Y0072713D02*
X0195432Y0072713D01*
X0195432Y0071714D02*
X0200415Y0071714D01*
X0200415Y0070716D02*
X0195432Y0070716D01*
X0195432Y0069717D02*
X0200415Y0069717D01*
X0200538Y0068719D02*
X0195308Y0068719D01*
X0194667Y0067720D02*
X0201180Y0067720D01*
X0207345Y0060731D02*
X0123768Y0060731D01*
X0123768Y0061729D02*
X0208943Y0061729D01*
X0210750Y0061729D02*
X0211750Y0061729D01*
X0211575Y0060731D02*
X0210750Y0060731D01*
X0210750Y0059732D02*
X0211250Y0059732D01*
X0211250Y0058734D02*
X0210750Y0058734D01*
X0210750Y0057735D02*
X0211250Y0057735D01*
X0210750Y0056737D02*
X0163409Y0056737D01*
X0163718Y0055738D02*
X0205328Y0055738D01*
X0205507Y0054739D02*
X0163718Y0054739D01*
X0163606Y0053741D02*
X0205874Y0053741D01*
X0206470Y0052742D02*
X0163193Y0052742D01*
X0162520Y0051744D02*
X0207371Y0051744D01*
X0209004Y0050745D02*
X0161522Y0050745D01*
X0160523Y0049747D02*
X0211250Y0049747D01*
X0211250Y0050745D02*
X0210750Y0050745D01*
X0210750Y0051744D02*
X0211250Y0051744D01*
X0211250Y0052742D02*
X0210750Y0052742D01*
X0210750Y0053741D02*
X0211250Y0053741D01*
X0211250Y0054739D02*
X0210750Y0054739D01*
X0210750Y0055738D02*
X0211250Y0055738D01*
X0205498Y0057735D02*
X0162995Y0057735D01*
X0162043Y0058734D02*
X0205861Y0058734D01*
X0206451Y0059732D02*
X0160309Y0059732D01*
X0157191Y0059732D02*
X0123768Y0059732D01*
X0123768Y0058734D02*
X0155457Y0058734D01*
X0154459Y0057735D02*
X0123738Y0057735D01*
X0123229Y0056737D02*
X0153460Y0056737D01*
X0152461Y0055738D02*
X0122776Y0055738D01*
X0122799Y0054739D02*
X0151463Y0054739D01*
X0150648Y0053741D02*
X0122799Y0053741D01*
X0123768Y0062728D02*
X0212462Y0062728D01*
X0212906Y0063726D02*
X0123768Y0063726D01*
X0123755Y0064725D02*
X0213350Y0064725D01*
X0213794Y0065723D02*
X0123270Y0065723D01*
X0122009Y0066722D02*
X0214237Y0066722D01*
X0214681Y0067720D02*
X0212186Y0067720D01*
X0211250Y0048748D02*
X0159959Y0048748D01*
X0159959Y0047750D02*
X0211250Y0047750D01*
X0211250Y0046751D02*
X0160018Y0046751D01*
X0160018Y0045753D02*
X0211250Y0045753D01*
X0211250Y0044754D02*
X0160018Y0044754D01*
X0160018Y0043756D02*
X0211250Y0043756D01*
X0211250Y0042757D02*
X0160018Y0042757D01*
X0160018Y0041759D02*
X0209017Y0041759D01*
X0210750Y0041759D02*
X0211250Y0041759D01*
X0211250Y0040760D02*
X0210750Y0040760D01*
X0210750Y0039762D02*
X0211250Y0039762D01*
X0211250Y0038763D02*
X0210750Y0038763D01*
X0210750Y0037765D02*
X0211250Y0037765D01*
X0211250Y0036766D02*
X0210750Y0036766D01*
X0210750Y0035768D02*
X0160018Y0035768D01*
X0160018Y0036766D02*
X0205329Y0036766D01*
X0205508Y0037765D02*
X0159959Y0037765D01*
X0159959Y0038763D02*
X0205876Y0038763D01*
X0206473Y0039762D02*
X0159959Y0039762D01*
X0160018Y0040760D02*
X0207375Y0040760D01*
X0205497Y0034769D02*
X0160018Y0034769D01*
X0160018Y0033771D02*
X0205859Y0033771D01*
X0206448Y0032772D02*
X0160018Y0032772D01*
X0160018Y0031774D02*
X0207341Y0031774D01*
X0213565Y0030775D02*
X0228935Y0030775D01*
X0227341Y0031774D02*
X0215159Y0031774D01*
X0216052Y0032772D02*
X0226448Y0032772D01*
X0225859Y0033771D02*
X0216641Y0033771D01*
X0217003Y0034769D02*
X0225497Y0034769D01*
X0211634Y0019792D02*
X0208366Y0019792D01*
X0209365Y0018793D02*
X0210635Y0018793D01*
X0247964Y0009806D02*
X0252036Y0009806D01*
X0251037Y0010805D02*
X0248963Y0010805D01*
X0249961Y0011803D02*
X0250039Y0011803D01*
X0262531Y0007809D02*
X0007468Y0007809D01*
X0017950Y0009806D02*
X0018950Y0009806D01*
X0018950Y0008900D02*
X0022020Y0008900D01*
X0022751Y0009016D01*
X0023454Y0009244D01*
X0024113Y0009580D01*
X0024712Y0010015D01*
X0025235Y0010538D01*
X0025670Y0011137D01*
X0026006Y0011796D01*
X0026234Y0012499D01*
X0026329Y0013100D01*
X0018950Y0013100D01*
X0018950Y0008900D01*
X0018950Y0010805D02*
X0017950Y0010805D01*
X0017950Y0011803D02*
X0018950Y0011803D01*
X0018950Y0012802D02*
X0017950Y0012802D01*
X0017950Y0015798D02*
X0018950Y0015798D01*
X0018950Y0016796D02*
X0017950Y0016796D01*
X0017950Y0017795D02*
X0018950Y0017795D01*
X0023770Y0017795D02*
X0038730Y0017795D01*
X0037399Y0016796D02*
X0025101Y0016796D01*
X0025805Y0015798D02*
X0036695Y0015798D01*
X0036298Y0014799D02*
X0026202Y0014799D01*
X0026282Y0012802D02*
X0036218Y0012802D01*
X0036171Y0013100D02*
X0036266Y0012499D01*
X0036494Y0011796D01*
X0036830Y0011137D01*
X0037265Y0010538D01*
X0037788Y0010015D01*
X0038387Y0009580D01*
X0039046Y0009244D01*
X0039749Y0009016D01*
X0040480Y0008900D01*
X0043550Y0008900D01*
X0043550Y0013100D01*
X0036171Y0013100D01*
X0036492Y0011803D02*
X0026008Y0011803D01*
X0025429Y0010805D02*
X0037071Y0010805D01*
X0038075Y0009806D02*
X0024425Y0009806D01*
X0043550Y0009806D02*
X0044550Y0009806D01*
X0044550Y0010805D02*
X0043550Y0010805D01*
X0043550Y0011803D02*
X0044550Y0011803D01*
X0044550Y0012802D02*
X0043550Y0012802D01*
X0043550Y0015798D02*
X0044550Y0015798D01*
X0044550Y0016796D02*
X0043550Y0016796D01*
X0043550Y0017795D02*
X0044550Y0017795D01*
X0048501Y0025783D02*
X0150031Y0025783D01*
X0150031Y0026781D02*
X0050648Y0026781D01*
X0051646Y0027780D02*
X0150031Y0027780D01*
X0143479Y0028778D02*
X0140686Y0028778D01*
X0141685Y0029777D02*
X0142702Y0029777D01*
X0134314Y0028778D02*
X0052300Y0028778D01*
X0052713Y0029777D02*
X0124685Y0029777D01*
X0125512Y0028950D02*
X0122700Y0031762D01*
X0122700Y0033450D01*
X0127200Y0033450D01*
X0127200Y0028950D01*
X0125512Y0028950D01*
X0127200Y0029777D02*
X0127800Y0029777D01*
X0127800Y0030775D02*
X0127200Y0030775D01*
X0127200Y0031774D02*
X0127800Y0031774D01*
X0127800Y0032772D02*
X0127200Y0032772D01*
X0123687Y0030775D02*
X0052918Y0030775D01*
X0052918Y0031774D02*
X0122700Y0031774D01*
X0122700Y0032772D02*
X0052817Y0032772D01*
X0038993Y0036766D02*
X0023507Y0036766D01*
X0025299Y0035768D02*
X0037201Y0035768D01*
X0036203Y0034769D02*
X0026297Y0034769D01*
X0026804Y0033771D02*
X0035696Y0033771D01*
X0035283Y0032772D02*
X0027217Y0032772D01*
X0027318Y0031774D02*
X0035181Y0031774D01*
X0035181Y0030775D02*
X0027318Y0030775D01*
X0027113Y0029777D02*
X0035387Y0029777D01*
X0035800Y0028778D02*
X0026700Y0028778D01*
X0026046Y0027780D02*
X0036454Y0027780D01*
X0037452Y0026781D02*
X0025048Y0026781D01*
X0022901Y0025783D02*
X0039599Y0025783D01*
X0079500Y0052742D02*
X0080500Y0052742D01*
X0080500Y0053741D02*
X0079500Y0053741D01*
X0079500Y0054739D02*
X0080500Y0054739D01*
X0080500Y0055738D02*
X0079500Y0055738D01*
X0087879Y0050745D02*
X0106232Y0050745D01*
X0106232Y0049747D02*
X0087653Y0049747D01*
X0087192Y0048748D02*
X0106360Y0048748D01*
X0107007Y0047750D02*
X0086347Y0047750D01*
X0103707Y0053741D02*
X0106232Y0053741D01*
X0106232Y0054739D02*
X0104706Y0054739D01*
X0105178Y0055738D02*
X0106232Y0055738D01*
X0106561Y0056737D02*
X0105591Y0056737D01*
X0105668Y0057735D02*
X0106262Y0057735D01*
X0106245Y0064725D02*
X0105668Y0064725D01*
X0105608Y0065723D02*
X0106730Y0065723D01*
X0105195Y0066722D02*
X0115472Y0066722D01*
X0113581Y0067720D02*
X0104746Y0067720D01*
X0103748Y0068719D02*
X0112940Y0068719D01*
X0112816Y0069717D02*
X0102096Y0069717D01*
X0097904Y0069717D02*
X0088701Y0069717D01*
X0088868Y0070716D02*
X0112816Y0070716D01*
X0112816Y0071714D02*
X0088868Y0071714D01*
X0088730Y0072713D02*
X0112816Y0072713D01*
X0112816Y0073711D02*
X0088316Y0073711D01*
X0087757Y0074710D02*
X0112816Y0074710D01*
X0112816Y0075708D02*
X0086758Y0075708D01*
X0084839Y0076707D02*
X0112816Y0076707D01*
X0125353Y0076707D02*
X0130336Y0076707D01*
X0130336Y0077705D02*
X0125353Y0077705D01*
X0125353Y0078704D02*
X0130336Y0078704D01*
X0130336Y0079702D02*
X0125353Y0079702D01*
X0125353Y0080701D02*
X0130336Y0080701D01*
X0130336Y0081699D02*
X0125353Y0081699D01*
X0125353Y0082698D02*
X0130336Y0082698D01*
X0130336Y0083696D02*
X0125353Y0083696D01*
X0125353Y0084695D02*
X0130336Y0084695D01*
X0130623Y0085693D02*
X0125066Y0085693D01*
X0124063Y0086692D02*
X0131626Y0086692D01*
X0130336Y0075708D02*
X0125353Y0075708D01*
X0125353Y0074710D02*
X0130336Y0074710D01*
X0130336Y0073711D02*
X0125353Y0073711D01*
X0125353Y0072713D02*
X0130336Y0072713D01*
X0130336Y0071714D02*
X0125353Y0071714D01*
X0125353Y0070716D02*
X0130336Y0070716D01*
X0130336Y0069717D02*
X0125353Y0069717D01*
X0125230Y0068719D02*
X0130459Y0068719D01*
X0131101Y0067720D02*
X0124588Y0067720D01*
X0096252Y0068719D02*
X0088287Y0068719D01*
X0087687Y0067720D02*
X0095254Y0067720D01*
X0094805Y0066722D02*
X0086688Y0066722D01*
X0084669Y0065723D02*
X0094392Y0065723D01*
X0127200Y0037765D02*
X0127800Y0037765D01*
X0131313Y0030775D02*
X0132317Y0030775D01*
X0133315Y0029777D02*
X0130315Y0029777D01*
X0140645Y0038763D02*
X0143520Y0038763D01*
X0142719Y0037765D02*
X0141643Y0037765D01*
X0147010Y0039762D02*
X0148010Y0039762D01*
X0148010Y0040760D02*
X0147010Y0040760D01*
X0147010Y0041759D02*
X0148010Y0041759D01*
X0148010Y0042757D02*
X0147010Y0042757D01*
X0159968Y0018793D02*
X0162005Y0018793D01*
X0161006Y0017795D02*
X0160363Y0017795D01*
X0152036Y0009806D02*
X0147964Y0009806D01*
X0148963Y0010805D02*
X0151037Y0010805D01*
X0150039Y0011803D02*
X0149961Y0011803D01*
X0177147Y0067720D02*
X0183660Y0067720D01*
X0183018Y0068719D02*
X0177789Y0068719D01*
X0177912Y0069717D02*
X0182895Y0069717D01*
X0182895Y0070716D02*
X0177912Y0070716D01*
X0177912Y0071714D02*
X0182895Y0071714D01*
X0182895Y0072713D02*
X0177912Y0072713D01*
X0177912Y0073711D02*
X0182895Y0073711D01*
X0182895Y0074710D02*
X0177912Y0074710D01*
X0177912Y0075708D02*
X0182895Y0075708D01*
X0182895Y0076707D02*
X0177912Y0076707D01*
X0177912Y0077705D02*
X0182895Y0077705D01*
X0182895Y0078704D02*
X0177912Y0078704D01*
X0177912Y0079702D02*
X0182895Y0079702D01*
X0182895Y0080701D02*
X0177912Y0080701D01*
X0177912Y0081699D02*
X0182895Y0081699D01*
X0182895Y0082698D02*
X0177912Y0082698D01*
X0177912Y0083696D02*
X0182895Y0083696D01*
X0182895Y0084695D02*
X0177912Y0084695D01*
X0177625Y0085693D02*
X0183183Y0085693D01*
X0184185Y0086692D02*
X0176622Y0086692D01*
X0157018Y0094680D02*
X0253422Y0094680D01*
X0253400Y0093681D02*
X0249978Y0093681D01*
X0251468Y0092683D02*
X0253400Y0092683D01*
X0253400Y0091684D02*
X0251888Y0091684D01*
X0251888Y0090686D02*
X0253400Y0090686D01*
X0251888Y0089687D02*
X0264400Y0089687D01*
X0264400Y0088689D02*
X0265400Y0088689D01*
X0265400Y0089687D02*
X0272531Y0089687D01*
X0265400Y0090686D02*
X0264400Y0090686D01*
X0264400Y0091684D02*
X0265400Y0091684D01*
X0265400Y0092683D02*
X0264400Y0092683D01*
X0264400Y0093681D02*
X0265400Y0093681D01*
X0265400Y0094680D02*
X0264400Y0094680D01*
X0264400Y0095678D02*
X0265400Y0095678D01*
X0265016Y0100671D02*
X0265984Y0100671D01*
X0265984Y0101670D02*
X0265016Y0101670D01*
X0265016Y0102668D02*
X0265984Y0102668D01*
X0265984Y0103667D02*
X0265016Y0103667D01*
X0265984Y0104665D02*
X0272531Y0104665D01*
X0272531Y0103667D02*
X0270500Y0103667D01*
X0270239Y0102668D02*
X0272531Y0102668D01*
X0272531Y0101670D02*
X0269241Y0101670D01*
X0268242Y0100671D02*
X0272531Y0100671D01*
X0272531Y0099672D02*
X0258613Y0099672D01*
X0259612Y0100671D02*
X0262758Y0100671D01*
X0261759Y0101670D02*
X0260610Y0101670D01*
X0254114Y0095678D02*
X0157007Y0095678D01*
X0156593Y0096677D02*
X0272531Y0096677D01*
X0272531Y0097675D02*
X0155697Y0097675D01*
X0154698Y0098674D02*
X0272531Y0098674D01*
X0272531Y0105664D02*
X0270500Y0105664D01*
X0270500Y0106662D02*
X0272531Y0106662D01*
X0272531Y0107661D02*
X0269910Y0107661D01*
X0268912Y0108659D02*
X0272531Y0108659D01*
X0272531Y0109658D02*
X0268598Y0109658D01*
X0269597Y0110656D02*
X0272531Y0110656D01*
X0272531Y0111655D02*
X0270595Y0111655D01*
X0271468Y0112653D02*
X0272531Y0112653D01*
X0272531Y0113652D02*
X0271468Y0113652D01*
X0271468Y0114650D02*
X0272531Y0114650D01*
X0272531Y0115649D02*
X0271468Y0115649D01*
X0271468Y0116647D02*
X0272531Y0116647D01*
X0272531Y0117646D02*
X0271295Y0117646D01*
X0270297Y0118644D02*
X0272531Y0118644D01*
X0272531Y0119643D02*
X0269298Y0119643D01*
X0269582Y0120641D02*
X0272531Y0120641D01*
X0272531Y0121640D02*
X0270580Y0121640D01*
X0271468Y0122638D02*
X0272531Y0122638D01*
X0272531Y0123637D02*
X0271468Y0123637D01*
X0271468Y0124635D02*
X0272531Y0124635D01*
X0272531Y0125634D02*
X0271468Y0125634D01*
X0271468Y0126632D02*
X0272531Y0126632D01*
X0272531Y0127631D02*
X0271310Y0127631D01*
X0270311Y0128629D02*
X0272531Y0128629D01*
X0272531Y0129628D02*
X0269313Y0129628D01*
X0268314Y0130626D02*
X0272531Y0130626D01*
X0262686Y0130626D02*
X0260317Y0130626D01*
X0261205Y0129628D02*
X0261687Y0129628D01*
X0250703Y0118644D02*
X0250311Y0118644D01*
X0242419Y0118644D02*
X0241419Y0118644D01*
X0241419Y0119643D02*
X0242419Y0119643D01*
X0242419Y0120641D02*
X0241419Y0120641D01*
X0241419Y0121640D02*
X0242419Y0121640D01*
X0242419Y0122638D02*
X0241419Y0122638D01*
X0241419Y0104665D02*
X0242419Y0104665D01*
X0242419Y0103667D02*
X0241419Y0103667D01*
X0241419Y0102668D02*
X0242419Y0102668D01*
X0242419Y0101670D02*
X0241419Y0101670D01*
X0241419Y0100671D02*
X0242419Y0100671D01*
X0250460Y0100671D02*
X0251388Y0100671D01*
X0252387Y0099672D02*
X0153700Y0099672D01*
X0148934Y0142608D02*
X0141794Y0142608D01*
X0142622Y0143607D02*
X0148107Y0143607D01*
X0147856Y0144605D02*
X0142873Y0144605D01*
X0142873Y0145604D02*
X0147856Y0145604D01*
X0147856Y0146603D02*
X0142873Y0146603D01*
X0142873Y0147601D02*
X0147856Y0147601D01*
X0147856Y0148600D02*
X0142873Y0148600D01*
X0142873Y0149598D02*
X0147856Y0149598D01*
X0147856Y0150597D02*
X0142873Y0150597D01*
X0142873Y0151595D02*
X0147856Y0151595D01*
X0147856Y0152594D02*
X0142873Y0152594D01*
X0142873Y0153592D02*
X0147856Y0153592D01*
X0147856Y0154591D02*
X0142873Y0154591D01*
X0142873Y0155589D02*
X0147856Y0155589D01*
X0147856Y0156588D02*
X0142873Y0156588D01*
X0142873Y0157586D02*
X0147856Y0157586D01*
X0147856Y0158585D02*
X0142873Y0158585D01*
X0142873Y0159583D02*
X0147856Y0159583D01*
X0148015Y0160582D02*
X0142713Y0160582D01*
X0142020Y0161580D02*
X0148708Y0161580D01*
X0177838Y0161580D02*
X0183748Y0161580D01*
X0188250Y0175559D02*
X0189250Y0175559D01*
X0189250Y0176558D02*
X0188250Y0176558D01*
X0188250Y0177556D02*
X0189250Y0177556D01*
X0210025Y0177556D02*
X0210481Y0177556D01*
X0219518Y0177556D02*
X0219975Y0177556D01*
X0223250Y0177556D02*
X0224250Y0177556D01*
X0224250Y0176558D02*
X0223250Y0176558D01*
X0223250Y0175559D02*
X0224250Y0175559D01*
X0224250Y0174561D02*
X0223250Y0174561D01*
X0224250Y0173562D02*
X0243451Y0173562D01*
X0243451Y0174561D02*
X0228203Y0174561D01*
X0228203Y0175559D02*
X0243451Y0175559D01*
X0243935Y0176558D02*
X0228186Y0176558D01*
X0227525Y0177556D02*
X0251059Y0177556D01*
X0248010Y0176558D02*
X0247010Y0176558D01*
X0247010Y0175559D02*
X0248010Y0175559D01*
X0248010Y0174561D02*
X0247010Y0174561D01*
X0247010Y0173562D02*
X0248010Y0173562D01*
X0247010Y0172564D02*
X0228203Y0172564D01*
X0228203Y0171565D02*
X0243451Y0171565D01*
X0243451Y0170567D02*
X0228446Y0170567D01*
X0229064Y0169568D02*
X0243451Y0169568D01*
X0243807Y0168570D02*
X0229171Y0168570D01*
X0229171Y0167571D02*
X0243720Y0167571D01*
X0243451Y0166573D02*
X0229171Y0166573D01*
X0229171Y0165574D02*
X0243451Y0165574D01*
X0243451Y0164576D02*
X0229171Y0164576D01*
X0229171Y0163577D02*
X0247010Y0163577D01*
X0247010Y0162579D02*
X0248010Y0162579D01*
X0248010Y0161580D02*
X0247010Y0161580D01*
X0247010Y0160582D02*
X0248010Y0160582D01*
X0248010Y0159583D02*
X0247010Y0159583D01*
X0247010Y0158585D02*
X0248010Y0158585D01*
X0248010Y0157586D02*
X0247010Y0157586D01*
X0247010Y0156588D02*
X0248010Y0156588D01*
X0248010Y0155589D02*
X0247010Y0155589D01*
X0247010Y0154591D02*
X0230471Y0154591D01*
X0230471Y0155589D02*
X0243451Y0155589D01*
X0243451Y0156588D02*
X0230471Y0156588D01*
X0230471Y0157586D02*
X0243451Y0157586D01*
X0243584Y0158585D02*
X0230471Y0158585D01*
X0230471Y0159583D02*
X0244054Y0159583D01*
X0243456Y0160582D02*
X0230311Y0160582D01*
X0229618Y0161580D02*
X0243451Y0161580D01*
X0243451Y0162579D02*
X0228910Y0162579D01*
X0218787Y0161580D02*
X0212099Y0161580D01*
X0211410Y0162579D02*
X0218590Y0162579D01*
X0216800Y0163577D02*
X0213200Y0163577D01*
X0214198Y0164576D02*
X0215802Y0164576D01*
X0218094Y0160582D02*
X0212792Y0160582D01*
X0212952Y0159583D02*
X0217934Y0159583D01*
X0217934Y0158585D02*
X0212952Y0158585D01*
X0212952Y0157586D02*
X0217934Y0157586D01*
X0217934Y0156588D02*
X0212952Y0156588D01*
X0212952Y0155589D02*
X0217934Y0155589D01*
X0217934Y0154591D02*
X0212952Y0154591D01*
X0212952Y0153592D02*
X0217934Y0153592D01*
X0217934Y0152594D02*
X0212952Y0152594D01*
X0212952Y0151595D02*
X0217934Y0151595D01*
X0217934Y0150597D02*
X0212952Y0150597D01*
X0212952Y0149598D02*
X0217934Y0149598D01*
X0217934Y0148600D02*
X0212952Y0148600D01*
X0212952Y0147601D02*
X0217934Y0147601D01*
X0217934Y0146603D02*
X0212952Y0146603D01*
X0212952Y0145604D02*
X0217934Y0145604D01*
X0217934Y0144605D02*
X0212952Y0144605D01*
X0212700Y0143607D02*
X0218186Y0143607D01*
X0219013Y0142608D02*
X0211873Y0142608D01*
X0230220Y0143607D02*
X0230330Y0143607D01*
X0230471Y0144605D02*
X0231329Y0144605D01*
X0231951Y0145604D02*
X0230471Y0145604D01*
X0230471Y0146603D02*
X0232174Y0146603D01*
X0232958Y0147601D02*
X0230471Y0147601D01*
X0230471Y0148600D02*
X0246573Y0148600D01*
X0247572Y0149598D02*
X0230471Y0149598D01*
X0230471Y0150597D02*
X0244569Y0150597D01*
X0244753Y0150547D02*
X0247010Y0150547D01*
X0247010Y0154500D01*
X0243451Y0154500D01*
X0243451Y0151850D01*
X0243553Y0151468D01*
X0243750Y0151126D01*
X0244030Y0150847D01*
X0244372Y0150649D01*
X0244753Y0150547D01*
X0243519Y0151595D02*
X0230471Y0151595D01*
X0230471Y0152594D02*
X0243451Y0152594D01*
X0243451Y0153592D02*
X0230471Y0153592D01*
X0247010Y0153592D02*
X0248010Y0153592D01*
X0248010Y0152594D02*
X0247010Y0152594D01*
X0247010Y0151595D02*
X0248010Y0151595D01*
X0248010Y0150597D02*
X0247010Y0150597D01*
X0247010Y0164576D02*
X0248010Y0164576D01*
X0248010Y0165574D02*
X0247010Y0165574D01*
X0247010Y0166573D02*
X0248010Y0166573D01*
X0248010Y0167571D02*
X0247010Y0167571D01*
X0247010Y0168570D02*
X0248010Y0168570D01*
X0248010Y0169568D02*
X0247010Y0169568D01*
X0247010Y0170567D02*
X0248010Y0170567D01*
X0248010Y0171565D02*
X0247010Y0171565D01*
X0257682Y0199524D02*
X0262531Y0199524D01*
X0262531Y0200522D02*
X0258680Y0200522D01*
X0259679Y0201521D02*
X0262531Y0201521D01*
X0262531Y0202519D02*
X0260677Y0202519D01*
X0260768Y0203518D02*
X0262531Y0203518D01*
X0262531Y0204516D02*
X0260768Y0204516D01*
X0260768Y0205515D02*
X0262531Y0205515D01*
X0262531Y0206513D02*
X0260768Y0206513D01*
X0260646Y0207512D02*
X0262531Y0207512D01*
X0261999Y0208510D02*
X0259648Y0208510D01*
X0258649Y0209509D02*
X0261000Y0209509D01*
X0260002Y0210507D02*
X0257651Y0210507D01*
X0104231Y0161580D02*
X0103550Y0161580D01*
X0103550Y0160582D02*
X0104231Y0160582D01*
X0104231Y0159583D02*
X0102621Y0159583D01*
X0102265Y0158585D02*
X0101623Y0158585D01*
X0099050Y0158585D02*
X0098450Y0158585D01*
X0098450Y0159583D02*
X0099050Y0159583D01*
X0099050Y0160582D02*
X0098450Y0160582D01*
X0098450Y0161580D02*
X0099050Y0161580D01*
X0251888Y0088689D02*
X0253400Y0088689D01*
X0253400Y0087690D02*
X0251888Y0087690D01*
X0251888Y0086692D02*
X0253400Y0086692D01*
X0253400Y0085693D02*
X0251888Y0085693D01*
X0264400Y0085693D02*
X0265400Y0085693D01*
X0265400Y0086692D02*
X0264400Y0086692D01*
X0264400Y0087690D02*
X0265400Y0087690D01*
X0265400Y0059732D02*
X0264400Y0059732D01*
X0264400Y0058734D02*
X0265400Y0058734D01*
X0265400Y0057735D02*
X0264400Y0057735D01*
X0264400Y0056737D02*
X0265400Y0056737D01*
X0265400Y0055738D02*
X0264400Y0055738D01*
X0265400Y0054739D02*
X0272531Y0054739D01*
D25*
X0272500Y0057500D03*
X0267500Y0057500D03*
X0262500Y0057500D03*
X0257500Y0057500D03*
X0260000Y0052500D03*
X0265000Y0052500D03*
X0270000Y0052500D03*
X0251250Y0057500D03*
X0240000Y0057500D03*
X0207500Y0065000D03*
X0195000Y0060000D03*
X0177500Y0060000D03*
X0167500Y0048750D03*
X0185000Y0045000D03*
X0192500Y0032500D03*
X0166250Y0028750D03*
X0138750Y0022500D03*
X0140000Y0043750D03*
X0140000Y0050000D03*
X0146250Y0052500D03*
X0127500Y0050000D03*
X0127500Y0056250D03*
X0127500Y0062500D03*
X0122500Y0045000D03*
X0101250Y0035000D03*
X0081250Y0032500D03*
X0067500Y0046250D03*
X0057500Y0042500D03*
X0035000Y0045000D03*
X0016250Y0042500D03*
X0012500Y0062500D03*
X0032500Y0080000D03*
X0032500Y0090000D03*
X0013750Y0083750D03*
X0055000Y0097500D03*
X0060000Y0108750D03*
X0072500Y0108750D03*
X0072500Y0100000D03*
X0072500Y0091250D03*
X0072500Y0082500D03*
X0061250Y0078750D03*
X0087500Y0082500D03*
X0087500Y0091250D03*
X0087500Y0100000D03*
X0087500Y0108750D03*
X0087500Y0117500D03*
X0087500Y0126250D03*
X0087500Y0135000D03*
X0087500Y0143750D03*
X0096250Y0143750D03*
X0107500Y0148750D03*
X0121250Y0136250D03*
X0136250Y0138750D03*
X0136250Y0131250D03*
X0136250Y0123750D03*
X0136250Y0116250D03*
X0136250Y0108750D03*
X0125000Y0107500D03*
X0107500Y0102500D03*
X0127500Y0091250D03*
X0145000Y0090000D03*
X0155000Y0101250D03*
X0155000Y0108750D03*
X0155000Y0116250D03*
X0155000Y0123750D03*
X0152500Y0131250D03*
X0152500Y0140000D03*
X0163750Y0132500D03*
X0173750Y0140000D03*
X0177500Y0123750D03*
X0170000Y0116250D03*
X0170000Y0103750D03*
X0170000Y0091250D03*
X0182500Y0091250D03*
X0197500Y0091250D03*
X0208750Y0101250D03*
X0220000Y0092500D03*
X0213750Y0088750D03*
X0228750Y0092500D03*
X0230000Y0098750D03*
X0236250Y0098750D03*
X0241250Y0098750D03*
X0247500Y0098750D03*
X0260000Y0092500D03*
X0265000Y0092500D03*
X0270000Y0092500D03*
X0267500Y0087500D03*
X0272500Y0087500D03*
X0262500Y0087500D03*
X0257500Y0087500D03*
X0230000Y0106250D03*
X0230000Y0111250D03*
X0230000Y0116250D03*
X0236250Y0116250D03*
X0236250Y0112500D03*
X0241250Y0112500D03*
X0241250Y0116250D03*
X0247500Y0116250D03*
X0247500Y0112500D03*
X0230000Y0123750D03*
X0236250Y0131250D03*
X0241250Y0131250D03*
X0247500Y0131250D03*
X0255000Y0135000D03*
X0262500Y0133750D03*
X0268750Y0133750D03*
X0240000Y0153750D03*
X0240000Y0158750D03*
X0240000Y0163750D03*
X0232500Y0166250D03*
X0240000Y0168750D03*
X0240000Y0173750D03*
X0231250Y0173750D03*
X0231250Y0181250D03*
X0226250Y0181250D03*
X0221250Y0181250D03*
X0222500Y0188750D03*
X0233750Y0190000D03*
X0247500Y0187500D03*
X0258750Y0181250D03*
X0258750Y0197500D03*
X0215000Y0197500D03*
X0197500Y0188750D03*
X0191250Y0193750D03*
X0176250Y0197500D03*
X0168750Y0196250D03*
X0161250Y0190000D03*
X0161250Y0182500D03*
X0163750Y0176250D03*
X0153750Y0168750D03*
X0156250Y0165000D03*
X0167500Y0165000D03*
X0180000Y0158750D03*
X0197500Y0158750D03*
X0197500Y0166250D03*
X0197500Y0173750D03*
X0197500Y0181250D03*
X0191250Y0181250D03*
X0185000Y0181250D03*
X0202500Y0181250D03*
X0207500Y0181250D03*
X0232500Y0158750D03*
X0232500Y0150000D03*
X0215000Y0140000D03*
X0197500Y0140000D03*
X0197500Y0151250D03*
X0197500Y0123750D03*
X0207500Y0115000D03*
X0215000Y0123750D03*
X0190000Y0106250D03*
X0118750Y0121250D03*
X0103750Y0132500D03*
X0078750Y0151250D03*
X0072500Y0143750D03*
X0072500Y0135000D03*
X0072500Y0126250D03*
X0072500Y0117500D03*
X0053750Y0122500D03*
X0060000Y0136250D03*
X0057500Y0152500D03*
X0066250Y0162500D03*
X0080000Y0166250D03*
X0087500Y0157500D03*
X0087500Y0177500D03*
X0073750Y0178750D03*
X0073750Y0191250D03*
X0088750Y0196250D03*
X0117500Y0172500D03*
X0127500Y0165000D03*
X0130000Y0172500D03*
X0137500Y0175000D03*
X0176250Y0210000D03*
X0263750Y0156250D03*
X0106250Y0086250D03*
X0057500Y0058750D03*
X0096250Y0015000D03*
X0075000Y0011250D03*
X0195000Y0012500D03*
X0218750Y0025000D03*
X0248750Y0028750D03*
X0055000Y0172500D03*
X0030000Y0190000D03*
X0022500Y0201250D03*
X0013750Y0207500D03*
X0041250Y0208750D03*
X0047500Y0197500D03*
X0013750Y0117500D03*
X0037500Y0112500D03*
D26*
X0105000Y0155000D02*
X0107500Y0157500D01*
X0107500Y0191250D01*
X0111250Y0195000D01*
X0120000Y0195000D01*
X0129000Y0204000D01*
X0129000Y0205000D01*
X0131250Y0198750D02*
X0125000Y0192500D01*
X0125000Y0186250D01*
X0135000Y0186250D02*
X0135000Y0192500D01*
X0138750Y0196250D01*
X0160000Y0196250D01*
X0168750Y0205000D01*
X0169000Y0205000D01*
X0159000Y0205000D02*
X0159000Y0204000D01*
X0153750Y0198750D01*
X0131250Y0198750D01*
X0119000Y0205000D02*
X0118750Y0205000D01*
X0112500Y0198750D01*
X0102500Y0198750D01*
X0098750Y0195000D01*
X0098750Y0189990D01*
X0098750Y0182510D02*
X0098750Y0172500D01*
X0168750Y0182510D02*
X0177500Y0182510D01*
X0177490Y0182500D01*
X0177490Y0174331D01*
X0173750Y0165669D02*
X0188159Y0165669D01*
X0188750Y0166260D01*
X0189163Y0165846D01*
X0189163Y0152205D01*
X0206683Y0152205D02*
X0206683Y0165827D01*
X0206250Y0166260D01*
X0206260Y0166250D01*
X0211250Y0166250D01*
X0213750Y0168750D01*
X0213750Y0186250D01*
X0195000Y0205000D01*
X0205000Y0205000D02*
X0205000Y0198750D01*
X0216250Y0187500D01*
X0216250Y0168750D01*
X0218750Y0166250D01*
X0223740Y0166250D01*
X0223750Y0166260D01*
X0224203Y0165807D01*
X0224203Y0152205D01*
X0185000Y0192500D02*
X0182490Y0189990D01*
X0177500Y0189990D01*
X0185000Y0192500D02*
X0185000Y0205000D01*
X0151250Y0097500D02*
X0147500Y0097500D01*
X0151250Y0097500D02*
X0153750Y0095000D01*
X0153750Y0077579D01*
X0154124Y0077205D01*
X0136604Y0077008D02*
X0136250Y0077362D01*
X0136250Y0095000D01*
X0138750Y0097500D01*
X0119085Y0077008D02*
X0118740Y0076663D01*
X0118740Y0061250D01*
X0111260Y0061250D02*
X0100000Y0061250D01*
X0111260Y0061250D02*
X0111260Y0052500D01*
X0137500Y0033750D02*
X0147510Y0033750D01*
D27*
X0221250Y0046250D02*
X0221250Y0058750D01*
X0224203Y0066703D01*
X0224203Y0077008D01*
X0224203Y0070797D01*
X0225000Y0070000D01*
X0228750Y0070000D01*
D28*
X0242500Y0070000D01*
X0256250Y0072500D01*
X0264900Y0072500D01*
M02*
