G75*
%MOIN*%
%OFA0B0*%
%FSLAX25Y25*%
%IPPOS*%
%LPD*%
%AMOC8*
5,1,8,0,0,1.08239X$1,22.5*
%
%ADD10OC8,0.07400*%
%ADD11OC8,0.07800*%
%ADD12R,0.07800X0.07800*%
%ADD13C,0.07200*%
%ADD14C,0.09658*%
%ADD15R,0.20800X0.09800*%
D10*
X0071250Y0033750D03*
X0081250Y0033750D03*
X0115000Y0015000D03*
X0125000Y0015000D03*
X0135000Y0015000D03*
X0145000Y0015000D03*
X0155000Y0015000D03*
X0165000Y0015000D03*
X0175000Y0015000D03*
X0185000Y0015000D03*
X0205000Y0015000D03*
X0215000Y0015000D03*
X0225000Y0015000D03*
X0235000Y0015000D03*
X0245000Y0015000D03*
X0255000Y0015000D03*
X0107500Y0178750D03*
X0097500Y0178750D03*
X0099000Y0205000D03*
X0089000Y0205000D03*
X0079000Y0205000D03*
X0109000Y0205000D03*
X0119000Y0205000D03*
X0129000Y0205000D03*
X0139000Y0205000D03*
X0149000Y0205000D03*
X0159000Y0205000D03*
X0169000Y0205000D03*
X0185000Y0205000D03*
X0195000Y0205000D03*
X0205000Y0205000D03*
X0215000Y0205000D03*
X0225000Y0205000D03*
X0235000Y0205000D03*
X0245000Y0205000D03*
X0255000Y0205000D03*
D11*
X0265500Y0125000D03*
X0265500Y0115000D03*
X0255500Y0115000D03*
X0255500Y0105000D03*
X0265500Y0105000D03*
D12*
X0255500Y0125000D03*
D13*
X0021650Y0013600D02*
X0015250Y0013600D01*
X0015250Y0031400D02*
X0021650Y0031400D01*
X0040850Y0031400D02*
X0047250Y0031400D01*
X0047250Y0013600D02*
X0040850Y0013600D01*
X0073050Y0060000D02*
X0079450Y0060000D01*
X0086250Y0076800D02*
X0086250Y0083200D01*
X0066250Y0083200D02*
X0066250Y0076800D01*
X0148050Y0163750D02*
X0154450Y0163750D01*
X0154450Y0173750D02*
X0148050Y0173750D01*
X0148050Y0183750D02*
X0154450Y0183750D01*
X0154450Y0193750D02*
X0148050Y0193750D01*
D14*
X0207500Y0055000D03*
X0217500Y0045000D03*
X0207500Y0035000D03*
X0227500Y0035000D03*
X0227500Y0055000D03*
D15*
X0264900Y0055100D03*
X0264900Y0089900D03*
M02*
